<svg xmlns="http://www.w3.org/2000/svg" viewBox="0 0 99.02 74.8"><title>AIRTECH</title><g id="f492cdf3-3340-4b88-a555-0cee8269a29e" data-name="Layer 2"><g id="b03c05b0-bb49-4d1b-aaf0-eafac8f1e339" data-name="Layer 1"><polygon points="28.91 10.39 37.18 0 37.18 35 28.91 33.63 28.91 10.39" style="fill:#716557;fill-rule:evenodd"/><polygon points="39.09 9.97 39.09 35.53 42.11 36.28 48.1 33.73 48.1 15.8 39.09 9.97" style="fill:#716557;fill-rule:evenodd"/><polygon points="50.17 32.94 59.35 28.96 59.35 0 50.17 3.98 50.17 32.94" style="fill:#716557;fill-rule:evenodd"/><polygon points="61.15 12.14 61.15 28.32 63.64 27 69.32 32.41 69.16 6.58 61.15 12.14" style="fill:#716557;fill-rule:evenodd"/><rect x="32.86" y="10.05" width="3.34" height="1.35" style="fill:#fff"/><rect x="32.86" y="12.95" width="3.34" height="1.35" style="fill:#fff"/><rect x="32.86" y="15.61" width="3.34" height="1.35" style="fill:#fff"/><rect x="32.86" y="18.63" width="3.34" height="1.35" style="fill:#fff"/><rect x="45.66" y="17.17" width="1.67" height="1.35" style="fill:#fff"/><rect x="45.66" y="20.03" width="1.67" height="1.35" style="fill:#fff"/><rect x="45.66" y="23.03" width="1.67" height="1.35" style="fill:#fff"/><rect x="45.66" y="25.89" width="1.67" height="1.35" style="fill:#fff"/><rect x="45.66" y="28.76" width="1.67" height="1.35" style="fill:#fff"/><rect x="45.66" y="31.76" width="1.67" height="1.35" style="fill:#fff"/><rect x="55.08" y="4.53" width="1.11" height="24.24" style="fill:#fff"/><rect x="57.04" y="3.82" width="1.11" height="23.89" style="fill:#fff"/><rect x="62.03" y="13.18" width="6.28" height="1.09" style="fill:#fff"/><rect x="62.03" y="15.33" width="6.28" height="1.09" style="fill:#fff"/><rect x="62.03" y="17.32" width="6.28" height="1.09" style="fill:#fff"/><polygon points="16.81 45.45 29.49 35.43 43.41 38.11 63.25 29.17 81.55 46.51 79.74 46.72 62.93 31.87 43.41 44.39 29.25 37.55 16.81 45.45" style="fill:red;fill-rule:evenodd"/><path d="M10.26,50.86c27.6-6,53.73-5.82,78.5,0a316.66,316.66,0,0,0-78.5,0" style="fill:#70665c;fill-rule:evenodd"/><path d="M28.47,40.52h1a1.92,1.92,0,0,1,1.92,1.92v3.49H26.55V42.44a1.92,1.92,0,0,1,1.92-1.92" style="fill:#989898;fill-rule:evenodd"/><rect x="28.65" y="40.52" width="0.61" height="5.41" style="fill:#fff"/><rect x="26.55" y="42.92" width="4.83" height="0.61" style="fill:#fff"/><path d="M62.38,37.08h1.41a2.78,2.78,0,0,1,2.77,2.77v5h-7v-5a2.78,2.78,0,0,1,2.77-2.77" style="fill:#989898;fill-rule:evenodd"/><rect x="62.64" y="37.08" width="0.88" height="7.79" style="fill:#fff"/><rect x="59.61" y="40.53" width="6.95" height="0.88" style="fill:#fff"/><path d="M6.54,60.23H2.81l-.65,1.52a2.49,2.49,0,0,0-.24.84.49.49,0,0,0,.21.39,1.9,1.9,0,0,0,.9.22v.26H0V63.2a1.79,1.79,0,0,0,.78-.28,4.34,4.34,0,0,0,.8-1.39L5,53.61h.25l3.35,8a3.64,3.64,0,0,0,.74,1.25,1.53,1.53,0,0,0,.92.33v.26H6.43V63.2A1.38,1.38,0,0,0,7.2,63a.47.47,0,0,0,.21-.39,3,3,0,0,0-.29-1Zm-.2-.52L4.71,55.82,3,59.71Z" style="fill:red"/><path d="M14.88,63.2v.26H10.75V63.2h.34a1,1,0,0,0,.87-.35,2.23,2.23,0,0,0,.17-1.1V55.53a3.27,3.27,0,0,0-.09-1,.71.71,0,0,0-.29-.31,1.41,1.41,0,0,0-.66-.17h-.34v-.26h4.13v.26h-.35a1,1,0,0,0-.86.35,2.06,2.06,0,0,0-.18,1.09v6.22a3.31,3.31,0,0,0,.09,1,.62.62,0,0,0,.3.3,1.28,1.28,0,0,0,.65.18Z" style="fill:red"/><path d="M25.06,63.46H22.49L19.23,59h-1v2.79a2,2,0,0,0,.2,1.13,1,1,0,0,0,.81.32h.38v.26H15.48V63.2h.36a1,1,0,0,0,.88-.4,2.47,2.47,0,0,0,.14-1V55.53a2,2,0,0,0-.19-1.13,1.09,1.09,0,0,0-.83-.31h-.36v-.26H19a8.36,8.36,0,0,1,2.26.22,2.58,2.58,0,0,1,1.23.83A2.12,2.12,0,0,1,23,56.31a2.24,2.24,0,0,1-.58,1.54,3.27,3.27,0,0,1-1.79.92l2,2.76a4.79,4.79,0,0,0,1.17,1.27,3,3,0,0,0,1.28.4Zm-6.84-5h.4a3.13,3.13,0,0,0,2.08-.6,1.92,1.92,0,0,0,.69-1.52,2,2,0,0,0-.56-1.47,2,2,0,0,0-1.49-.56,6.18,6.18,0,0,0-1.12.13Z" style="fill:red"/><path d="M32.47,53.83l.11,2.26h-.27a2.65,2.65,0,0,0-.21-.85,1.45,1.45,0,0,0-.59-.61,2,2,0,0,0-1-.2H29.19v7.36a2,2,0,0,0,.19,1.11,1.07,1.07,0,0,0,.83.3h.34v.26H26.46V63.2h.35a1,1,0,0,0,.86-.37,2.08,2.08,0,0,0,.16-1V54.43H26.67a3.46,3.46,0,0,0-1,.1,1.35,1.35,0,0,0-.63.52,2.13,2.13,0,0,0-.31,1H24.5l.11-2.26Z" style="fill:red"/><path d="M36,54.36v3.8H38.1a1.72,1.72,0,0,0,1.1-.25,1.64,1.64,0,0,0,.41-1.15h.26v3.35h-.26a3.83,3.83,0,0,0-.2-.9,1,1,0,0,0-.42-.39,2.19,2.19,0,0,0-.89-.14H36v3.17a2.79,2.79,0,0,0,.06.78.39.39,0,0,0,.2.22,1.09,1.09,0,0,0,.53.08h1.64a4.23,4.23,0,0,0,1.18-.11,1.78,1.78,0,0,0,.71-.45A5.15,5.15,0,0,0,41.21,61h.28l-.83,2.42H33.24V63.2h.34a1.37,1.37,0,0,0,.65-.17.56.56,0,0,0,.3-.34,3,3,0,0,0,.09-.93V55.51a2.09,2.09,0,0,0-.19-1.13,1.09,1.09,0,0,0-.85-.29h-.34v-.26h7.42l.11,2.11h-.28a3.21,3.21,0,0,0-.33-1,1.14,1.14,0,0,0-.54-.44,3.29,3.29,0,0,0-1-.1Z" style="fill:red"/><path d="M50.58,53.61l.22,3.27h-.22a4,4,0,0,0-1.26-2.11,3.06,3.06,0,0,0-2-.65,3.14,3.14,0,0,0-1.73.49,3.2,3.2,0,0,0-1.22,1.55A7,7,0,0,0,44,58.81a5.59,5.59,0,0,0,.42,2.26,3.14,3.14,0,0,0,1.26,1.47,3.63,3.63,0,0,0,1.92.51,3.3,3.3,0,0,0,1.65-.4,5.35,5.35,0,0,0,1.58-1.59l.22.14a5.05,5.05,0,0,1-1.69,1.88,4.27,4.27,0,0,1-2.29.6,4.32,4.32,0,0,1-3.71-1.78,5.08,5.08,0,0,1-1-3.11A5.38,5.38,0,0,1,43,56.15a4.72,4.72,0,0,1,1.77-1.88,4.85,4.85,0,0,1,2.48-.66,4.58,4.58,0,0,1,2.06.51,1.06,1.06,0,0,0,.42.16.49.49,0,0,0,.34-.14,1.06,1.06,0,0,0,.26-.53Z" style="fill:red"/><path d="M54.51,58.3H59V55.54a3.2,3.2,0,0,0-.1-1,.59.59,0,0,0-.3-.31,1.3,1.3,0,0,0-.64-.17h-.34v-.26h4.12v.26h-.35a1.33,1.33,0,0,0-.64.17.58.58,0,0,0-.31.34,3.63,3.63,0,0,0-.08.94v6.21a3.31,3.31,0,0,0,.09,1,.6.6,0,0,0,.29.3,1.3,1.3,0,0,0,.65.18h.35v.26H57.61V63.2H58a1,1,0,0,0,.86-.35,2.08,2.08,0,0,0,.18-1.1V58.82H54.51v2.93a3.31,3.31,0,0,0,.09,1,.62.62,0,0,0,.3.3,1.28,1.28,0,0,0,.65.18h.35v.26H51.77V63.2h.34a1,1,0,0,0,.87-.35,2.23,2.23,0,0,0,.17-1.1V55.54a3.31,3.31,0,0,0-.09-1,.68.68,0,0,0-.3-.31,1.34,1.34,0,0,0-.65-.17h-.34v-.26H55.9v.26h-.35a1.37,1.37,0,0,0-.65.17.59.59,0,0,0-.3.34,3.11,3.11,0,0,0-.09.94Z" style="fill:red"/><path d="M62.81,65.88v-.31a2.35,2.35,0,0,0,1.13-.75,1.7,1.7,0,0,0,.4-1.08.38.38,0,0,0-.06-.22c0-.05-.07-.07-.1-.07a1.12,1.12,0,0,0-.35.14.48.48,0,0,1-.26.07.75.75,0,0,1-.56-.21.76.76,0,0,1-.2-.57.75.75,0,0,1,.26-.59.91.91,0,0,1,.65-.25,1.1,1.1,0,0,1,.84.41,1.57,1.57,0,0,1,.36,1.08,2.11,2.11,0,0,1-.51,1.36A3.28,3.28,0,0,1,62.81,65.88Z" style="fill:red"/><path d="M77.63,60.8l.24.05L77,63.46H69.59V63.2H70a1,1,0,0,0,.87-.4,2.27,2.27,0,0,0,.15-1V55.53a2,2,0,0,0-.2-1.13,1.06,1.06,0,0,0-.82-.31h-.36v-.26H74v.26a3,3,0,0,0-1.08.14.88.88,0,0,0-.42.38,2.94,2.94,0,0,0-.12,1.09v6a1.9,1.9,0,0,0,.12.81.48.48,0,0,0,.26.22,5.15,5.15,0,0,0,1.11.07h.7a5,5,0,0,0,1.56-.17,1.91,1.91,0,0,0,.81-.57A4.63,4.63,0,0,0,77.63,60.8Z" style="fill:red"/><path d="M78.43,63.46V63.2h.36a1,1,0,0,0,.87-.39,2.35,2.35,0,0,0,.15-1.06V55.53a2,2,0,0,0-.2-1.13,1.06,1.06,0,0,0-.82-.31h-.36v-.26h3.92a8.47,8.47,0,0,1,3.28.49A4,4,0,0,1,87.44,56a5,5,0,0,1,.69,2.64A4.84,4.84,0,0,1,86.91,62a5.37,5.37,0,0,1-4.18,1.51Zm2.74-.7a6.89,6.89,0,0,0,1.52.2,3.55,3.55,0,0,0,2.73-1.16,5.07,5.07,0,0,0,0-6.28,3.64,3.64,0,0,0-2.79-1.15,6,6,0,0,0-1.46.21Z" style="fill:red"/><path d="M95.33,60.23H91.61L91,61.75a2.49,2.49,0,0,0-.24.84.49.49,0,0,0,.21.39,1.92,1.92,0,0,0,.91.22v.26h-3V63.2a1.69,1.69,0,0,0,.78-.28,4.32,4.32,0,0,0,.81-1.39l3.38-7.92H94l3.35,8a3.64,3.64,0,0,0,.74,1.25,1.56,1.56,0,0,0,.92.33v.26h-3.8V63.2A1.45,1.45,0,0,0,96,63a.49.49,0,0,0,.2-.39,3.16,3.16,0,0,0-.28-1Zm-.2-.52L93.5,55.82l-1.67,3.89Z" style="fill:red"/><path d="M13.65,71.88l.59,0a1.32,1.32,0,0,0,.2.58,1,1,0,0,0,.48.37,1.68,1.68,0,0,0,.72.14,1.79,1.79,0,0,0,.64-.1.86.86,0,0,0,.41-.3.66.66,0,0,0,.13-.4.59.59,0,0,0-.13-.39.86.86,0,0,0-.42-.28,7.35,7.35,0,0,0-.85-.23,5.16,5.16,0,0,1-.92-.3,1.36,1.36,0,0,1-.5-.44,1.12,1.12,0,0,1-.17-.59,1.21,1.21,0,0,1,.21-.68,1.28,1.28,0,0,1,.59-.47,2.21,2.21,0,0,1,.87-.16,2.24,2.24,0,0,1,.93.17,1.29,1.29,0,0,1,.62.5,1.39,1.39,0,0,1,.24.75l-.61,0a1,1,0,0,0-.32-.68,1.32,1.32,0,0,0-.83-.23,1.31,1.31,0,0,0-.83.21.61.61,0,0,0-.26.5.58.58,0,0,0,.18.43,2.65,2.65,0,0,0,1,.33,6.17,6.17,0,0,1,1.05.31,1.31,1.31,0,0,1,.61.48,1.21,1.21,0,0,1,.2.68,1.24,1.24,0,0,1-.22.71,1.39,1.39,0,0,1-.62.52,2.1,2.1,0,0,1-.92.19,2.64,2.64,0,0,1-1.08-.19,1.52,1.52,0,0,1-.68-.57A1.64,1.64,0,0,1,13.65,71.88Z"/><path d="M18,71.69a1.76,1.76,0,0,1,.53-1.42,1.6,1.6,0,0,1,1.08-.38,1.54,1.54,0,0,1,1.16.46,1.78,1.78,0,0,1,.45,1.29,2.29,2.29,0,0,1-.2,1,1.38,1.38,0,0,1-.58.59,1.68,1.68,0,0,1-.83.21A1.55,1.55,0,0,1,18.44,73,1.87,1.87,0,0,1,18,71.69Zm.6,0a1.48,1.48,0,0,0,.28,1,1,1,0,0,0,.73.33.89.89,0,0,0,.72-.34,1.49,1.49,0,0,0,.29-1,1.44,1.44,0,0,0-.29-1,.91.91,0,0,0-.72-.33,1,1,0,0,0-.73.33A1.48,1.48,0,0,0,18.6,71.69Z"/><path d="M21.89,73.41V68.66h.58v4.75Z"/><path d="M25.63,73.41V72.9a1.25,1.25,0,0,1-1.09.58,1.38,1.38,0,0,1-.57-.11.88.88,0,0,1-.39-.3.93.93,0,0,1-.18-.43,3.11,3.11,0,0,1,0-.54V70H24v1.9a4.09,4.09,0,0,0,0,.62.64.64,0,0,0,.24.36.68.68,0,0,0,.44.13,1,1,0,0,0,.49-.13.72.72,0,0,0,.32-.37,1.68,1.68,0,0,0,.1-.67V70h.58v3.44Z"/><path d="M29.31,72.15l.57.07a1.45,1.45,0,0,1-.48.93,1.39,1.39,0,0,1-.95.33A1.45,1.45,0,0,1,27.32,73a1.84,1.84,0,0,1-.43-1.32,2.4,2.4,0,0,1,.18-1,1.33,1.33,0,0,1,.56-.63,1.71,1.71,0,0,1,.83-.21,1.41,1.41,0,0,1,.91.28,1.32,1.32,0,0,1,.46.81l-.57.09a1,1,0,0,0-.28-.53.8.8,0,0,0-.5-.17.91.91,0,0,0-.72.31,1.55,1.55,0,0,0-.27,1,1.59,1.59,0,0,0,.26,1,.88.88,0,0,0,.7.32.78.78,0,0,0,.57-.22A1,1,0,0,0,29.31,72.15ZM28,73.84l.17-.57h.43l-.1.34a.74.74,0,0,1,.41.17.46.46,0,0,1,.14.31.55.55,0,0,1-.23.43,1.16,1.16,0,0,1-.71.19,3,3,0,0,1-.46,0l0-.38H28a.91.91,0,0,0,.43-.08.21.21,0,0,0,.09-.16.15.15,0,0,0,0-.11.26.26,0,0,0-.14-.07A1.11,1.11,0,0,0,28,73.84Z"/><path d="M30.17,71.69a1.76,1.76,0,0,1,.53-1.42,1.6,1.6,0,0,1,1.08-.38,1.54,1.54,0,0,1,1.16.46,1.78,1.78,0,0,1,.45,1.29,2.29,2.29,0,0,1-.2,1,1.38,1.38,0,0,1-.58.59,1.68,1.68,0,0,1-.83.21A1.55,1.55,0,0,1,30.61,73,1.87,1.87,0,0,1,30.17,71.69Zm.52-2.23a.73.73,0,0,1,.19-.54.62.62,0,0,1,.47-.2,1.39,1.39,0,0,1,.55.17.69.69,0,0,0,.3.1.23.23,0,0,0,.16,0,.38.38,0,0,0,.08-.23h.42a.79.79,0,0,1-.18.55.58.58,0,0,1-.45.19,1.21,1.21,0,0,1-.54-.18.8.8,0,0,0-.32-.12.25.25,0,0,0-.18.08.32.32,0,0,0-.06.23Zm.08,2.23a1.48,1.48,0,0,0,.28,1,1,1,0,0,0,.73.33.89.89,0,0,0,.72-.34,1.49,1.49,0,0,0,.29-1,1.44,1.44,0,0,0-.29-1,.91.91,0,0,0-.72-.33,1,1,0,0,0-.73.33A1.48,1.48,0,0,0,30.77,71.69Z"/><path d="M36.43,72.3l.6.07a1.39,1.39,0,0,1-.53.82,1.52,1.52,0,0,1-1,.29,1.57,1.57,0,0,1-1.2-.46,1.84,1.84,0,0,1-.44-1.3,1.9,1.9,0,0,1,.45-1.35,1.49,1.49,0,0,1,1.16-.48,1.46,1.46,0,0,1,1.12.47,1.86,1.86,0,0,1,.44,1.32v.16H34.48a1.32,1.32,0,0,0,.32.86,1,1,0,0,0,.72.31.92.92,0,0,0,.55-.17A1.17,1.17,0,0,0,36.43,72.3Zm-1.92-.94h1.92a1.11,1.11,0,0,0-.22-.65.86.86,0,0,0-.72-.34.9.9,0,0,0-.67.27A1,1,0,0,0,34.51,71.36Z"/><path d="M37.53,72.38l.58-.09a.78.78,0,0,0,.27.53A.94.94,0,0,0,39,73a.9.9,0,0,0,.59-.17.48.48,0,0,0,.2-.38.36.36,0,0,0-.17-.31A2.6,2.6,0,0,0,39,72a5.29,5.29,0,0,1-.89-.28.88.88,0,0,1-.38-.33,1,1,0,0,1,0-.89,1,1,0,0,1,.29-.32,1.16,1.16,0,0,1,.37-.17,1.63,1.63,0,0,1,.5-.07,1.92,1.92,0,0,1,.71.12.94.94,0,0,1,.46.31,1.37,1.37,0,0,1,.2.53l-.57.08a.63.63,0,0,0-.23-.41.81.81,0,0,0-.52-.15,1,1,0,0,0-.58.13.4.4,0,0,0-.17.31.31.31,0,0,0,.07.21.53.53,0,0,0,.22.15l.52.15a7.06,7.06,0,0,1,.86.27.86.86,0,0,1,.39.31.87.87,0,0,1,.14.5,1,1,0,0,1-.17.54,1.08,1.08,0,0,1-.49.4,1.73,1.73,0,0,1-.73.14,1.63,1.63,0,0,1-1-.27A1.28,1.28,0,0,1,37.53,72.38Z"/><path d="M45.15,73.41V73a1.05,1.05,0,0,1-1,.51,1.34,1.34,0,0,1-.75-.22,1.49,1.49,0,0,1-.54-.64,2.27,2.27,0,0,1-.19-.93,2.49,2.49,0,0,1,.17-.93,1.41,1.41,0,0,1,.52-.65,1.36,1.36,0,0,1,.77-.22,1.12,1.12,0,0,1,.55.13,1.32,1.32,0,0,1,.4.34v-1.7h.58v4.75Zm-1.84-1.72a1.48,1.48,0,0,0,.28,1,.85.85,0,0,0,.66.33.84.84,0,0,0,.65-.32,1.42,1.42,0,0,0,.26-1,1.64,1.64,0,0,0-.27-1,.83.83,0,0,0-1.32,0A1.58,1.58,0,0,0,43.31,71.69Z"/><path d="M49,72.3l.6.07a1.44,1.44,0,0,1-.53.82,1.54,1.54,0,0,1-1,.29,1.56,1.56,0,0,1-1.2-.46,1.84,1.84,0,0,1-.44-1.3,1.9,1.9,0,0,1,.45-1.35,1.61,1.61,0,0,1,2.28,0,1.86,1.86,0,0,1,.44,1.32v.16H47a1.32,1.32,0,0,0,.32.86,1,1,0,0,0,.72.31.92.92,0,0,0,.55-.17A1.17,1.17,0,0,0,49,72.3Zm-1.92-.94H49a1.11,1.11,0,0,0-.22-.65.86.86,0,0,0-.72-.34.9.9,0,0,0-.67.27A1,1,0,0,0,47.05,71.36Z"/><path d="M52.23,73.41V68.66h3.44v.56H52.86v1.45h2.63v.56H52.86v1.62h2.92v.56Z"/><path d="M56.57,73.41V70h.52v.49a1.25,1.25,0,0,1,1.1-.57,1.48,1.48,0,0,1,.57.11.8.8,0,0,1,.39.29,1,1,0,0,1,.18.44,3.12,3.12,0,0,1,0,.56v2.12h-.59v-2.1a1.47,1.47,0,0,0-.07-.53.5.5,0,0,0-.24-.28.75.75,0,0,0-.4-.11,1,1,0,0,0-.65.24,1.18,1.18,0,0,0-.27.9v1.88Z"/><path d="M60.15,73.69l.57.09a.53.53,0,0,0,.2.38.94.94,0,0,0,.59.16,1,1,0,0,0,.62-.16.78.78,0,0,0,.3-.46,3.54,3.54,0,0,0,0-.74,1.22,1.22,0,0,1-1,.45,1.31,1.31,0,0,1-1.1-.51A2,2,0,0,1,60,71.67a2.46,2.46,0,0,1,.17-.91,1.38,1.38,0,0,1,.52-.64,1.35,1.35,0,0,1,.8-.23,1.22,1.22,0,0,1,1,.49V70h.54v3a2.76,2.76,0,0,1-.17,1.14,1.24,1.24,0,0,1-.51.53,1.82,1.82,0,0,1-.88.19,1.66,1.66,0,0,1-1-.27A1,1,0,0,1,60.15,73.69Zm.49-2.06a1.46,1.46,0,0,0,.26,1,.86.86,0,0,0,.68.31.84.84,0,0,0,.67-.31,1.81,1.81,0,0,0,0-1.92.86.86,0,0,0-.67-.32.84.84,0,0,0-.66.32A1.41,1.41,0,0,0,60.64,71.63Z"/><path d="M66.3,72.3l.61.07a1.44,1.44,0,0,1-.53.82,1.57,1.57,0,0,1-1,.29A1.55,1.55,0,0,1,64.2,73a1.8,1.8,0,0,1-.45-1.3,1.9,1.9,0,0,1,.45-1.35,1.52,1.52,0,0,1,1.16-.48,1.49,1.49,0,0,1,1.13.47,1.86,1.86,0,0,1,.44,1.32s0,.09,0,.16H64.36a1.32,1.32,0,0,0,.32.86,1,1,0,0,0,.72.31.89.89,0,0,0,.54-.17A1,1,0,0,0,66.3,72.3Zm-1.91-.94h1.92a1.18,1.18,0,0,0-.22-.65.89.89,0,0,0-.72-.34.94.94,0,0,0-.68.27A1.08,1.08,0,0,0,64.39,71.36Z"/><path d="M67.64,73.41V70h.52v.49a1.25,1.25,0,0,1,1.1-.57,1.48,1.48,0,0,1,.57.11.91.91,0,0,1,.39.29,1,1,0,0,1,.18.44,3.43,3.43,0,0,1,0,.56v2.12h-.58v-2.1a1.47,1.47,0,0,0-.07-.53.5.5,0,0,0-.24-.28.76.76,0,0,0-.41-.11.94.94,0,0,0-.64.24,1.18,1.18,0,0,0-.27.9v1.88Z"/><path d="M71.33,73.41V68.66h.58v1.7a1.32,1.32,0,0,1,1-.47,1.41,1.41,0,0,1,.67.15.9.9,0,0,1,.4.42,1.9,1.9,0,0,1,.12.77v2.18h-.58V71.23a.94.94,0,0,0-.19-.64.73.73,0,0,0-.54-.2,1,1,0,0,0-.49.14.7.7,0,0,0-.32.36,1.53,1.53,0,0,0-.1.63v1.89Z"/><path d="M77.26,73a1.87,1.87,0,0,1-.62.39,1.72,1.72,0,0,1-.64.11,1.3,1.3,0,0,1-.88-.27.93.93,0,0,1-.3-.71.93.93,0,0,1,.42-.8,1.62,1.62,0,0,1,.42-.19,4.17,4.17,0,0,1,.51-.09,4.75,4.75,0,0,0,1-.2,1.14,1.14,0,0,0,0-.15.64.64,0,0,0-.17-.5,1,1,0,0,0-.66-.2,1,1,0,0,0-.61.15.83.83,0,0,0-.29.51L74.92,71a1.34,1.34,0,0,1,.26-.59,1.08,1.08,0,0,1,.51-.35,2.37,2.37,0,0,1,.78-.12,2.08,2.08,0,0,1,.72.1,1,1,0,0,1,.4.26.87.87,0,0,1,.18.4,3.22,3.22,0,0,1,0,.54V72a8.91,8.91,0,0,0,0,1,1.32,1.32,0,0,0,.15.42h-.61A1.35,1.35,0,0,1,77.26,73Zm-.05-1.3a4.06,4.06,0,0,1-.95.22,2.12,2.12,0,0,0-.51.12.48.48,0,0,0-.23.19.5.5,0,0,0-.08.27.48.48,0,0,0,.18.39.73.73,0,0,0,.51.16,1.16,1.16,0,0,0,.6-.15.89.89,0,0,0,.39-.4,1.49,1.49,0,0,0,.09-.59Z"/><path d="M78.7,73.41V70h.53v.52A1.18,1.18,0,0,1,79.6,70a.61.61,0,0,1,.37-.12,1.09,1.09,0,0,1,.6.19l-.2.54a.8.8,0,0,0-.43-.13.52.52,0,0,0-.34.12.58.58,0,0,0-.22.32,2.37,2.37,0,0,0-.1.68v1.8Z"/><path d="M80.92,69.33v-.67h.58v.67Zm0,4.08V70h.58v3.44Z"/><path d="M84.63,73a1.87,1.87,0,0,1-.62.39,1.69,1.69,0,0,1-.64.11,1.26,1.26,0,0,1-.87-.27A1,1,0,0,1,82.31,72a.89.89,0,0,1,.3-.34,1.62,1.62,0,0,1,.42-.19,4.05,4.05,0,0,1,.52-.09,4.88,4.88,0,0,0,1-.2v-.15a.64.64,0,0,0-.17-.5,1,1,0,0,0-.66-.2,1,1,0,0,0-.61.15.83.83,0,0,0-.29.51L82.29,71a1.34,1.34,0,0,1,.26-.59,1.13,1.13,0,0,1,.51-.35,2.37,2.37,0,0,1,.78-.12,2,2,0,0,1,.72.1,1,1,0,0,1,.4.26,1,1,0,0,1,.19.4,3.58,3.58,0,0,1,0,.54V72a8.91,8.91,0,0,0,0,1,1.62,1.62,0,0,0,.15.42h-.61A1.35,1.35,0,0,1,84.63,73Zm0-1.3a4.16,4.16,0,0,1-1,.22,1.89,1.89,0,0,0-.5.12.49.49,0,0,0-.32.46.48.48,0,0,0,.18.39.74.74,0,0,0,.52.16,1.21,1.21,0,0,0,.6-.15.92.92,0,0,0,.38-.4,1.46,1.46,0,0,0,.1-.59Z"/></g></g></svg>