<svg xmlns="http://www.w3.org/2000/svg" viewBox="0 0 111.18 50.79"><title>ANE</title><g id="b40d9a4e-6344-43c0-aecc-1c38484afb8e" data-name="Layer 2"><g id="e27f0762-e753-46b8-8c33-aa73e6347ace" data-name="Layer 1"><path d="M65.33,40h-6L59,36.46H52.55L51,40H44.39L55.62,18.61h6.55Zm-6.69-8L58,24.16H58l-3.42,7.77Z" style="fill:#00adee"/><path d="M90.8,18.61,86.52,40H80.77l-4.92-12.4h0L73.33,40H67.55l4.27-21.34h5.75L82.47,31h0L85,18.61Z" style="fill:#00adee"/><path d="M111.18,18.61l-.91,4.59H100.18l-.66,3.39h9.72l-.9,4.32H98.63l-.84,4.18h10.95l-1,4.86H90.69l4.24-21.34Z" style="fill:#00adee"/><path d="M.6,40.28l15.87.11C27.57-.47,69,3.39,78.44,1.88,47.73,3.81,28.7,19,23.12,40.42l16.34-.14C40.87-.95,85.12,3.51,103.88,3.87,41.87-10.7,9.58,19.06.6,40.28" style="fill-rule:evenodd"/><path d="M0,49.73,1.42,46h.52l1.51,3.69H2.89l-.43-1.12H.92l-.4,1.12Zm1.06-1.52H2.31l-.38-1a6.93,6.93,0,0,1-.26-.76,5.6,5.6,0,0,1-.2.7Z"/><path d="M3.84,49.73V46H5.11a2.7,2.7,0,0,1,.65.06,1.14,1.14,0,0,1,.54.26,1.44,1.44,0,0,1,.44.63,2.43,2.43,0,0,1,.14.88,2.78,2.78,0,0,1-.09.74,2.09,2.09,0,0,1-.25.54,1.5,1.5,0,0,1-.34.33,1.62,1.62,0,0,1-.44.19,2.61,2.61,0,0,1-.59.06Zm.49-.44h.78a2.05,2.05,0,0,0,.57-.06A1,1,0,0,0,6,49a1.42,1.42,0,0,0,.27-.47,2.45,2.45,0,0,0,.09-.71A1.68,1.68,0,0,0,6.19,47a.92.92,0,0,0-.46-.42,1.94,1.94,0,0,0-.63-.07H4.33Z"/><path d="M7.54,49.73V46h.73l.88,2.61c.08.25.14.43.17.55,0-.14.11-.33.2-.59L10.4,46h.66v3.69h-.47V46.64L9.52,49.73H9.08L8,46.59v3.14Z"/><path d="M11.93,49.73V46h.48v3.69Z"/><path d="M13.27,49.73V46h.5l1.94,2.9V46h.46v3.69h-.5l-1.93-2.9v2.9Z"/><path d="M17.08,49.73V46h.48v3.69Z"/><path d="M18.26,48.54l.46,0a1,1,0,0,0,.15.46.86.86,0,0,0,.37.29,1.47,1.47,0,0,0,.56.1,1.31,1.31,0,0,0,.5-.08.65.65,0,0,0,.32-.23.5.5,0,0,0,.1-.31.48.48,0,0,0-.1-.31.85.85,0,0,0-.33-.21,5.91,5.91,0,0,0-.66-.18,3.44,3.44,0,0,1-.71-.23.94.94,0,0,1-.39-.34A.84.84,0,0,1,18.4,47a.94.94,0,0,1,.16-.53.89.89,0,0,1,.46-.36,1.63,1.63,0,0,1,.67-.13,1.83,1.83,0,0,1,.73.13,1,1,0,0,1,.48.39,1.17,1.17,0,0,1,.18.58l-.47,0a.74.74,0,0,0-.25-.53,1.31,1.31,0,0,0-1.29,0,.47.47,0,0,0-.2.39.39.39,0,0,0,.14.33,1.86,1.86,0,0,0,.74.26,4.65,4.65,0,0,1,.81.24,1.16,1.16,0,0,1,.48.37,1,1,0,0,1,.15.53,1,1,0,0,1-.17.55,1.08,1.08,0,0,1-.48.41,1.8,1.8,0,0,1-.71.14,2.23,2.23,0,0,1-.84-.14,1.21,1.21,0,0,1-.53-.44A1.2,1.2,0,0,1,18.26,48.54Z"/><path d="M22.79,49.73V46.48H21.58V46H24.5v.44H23.28v3.25Z"/><path d="M25,49.73V46h1.63a2.33,2.33,0,0,1,.75.1.87.87,0,0,1,.41.35,1.09,1.09,0,0,1,.15.56.92.92,0,0,1-.25.66,1.29,1.29,0,0,1-.78.34,1,1,0,0,1,.29.19,2.59,2.59,0,0,1,.41.49l.64,1h-.62L27.16,49c-.15-.22-.26-.39-.36-.51a1.07,1.07,0,0,0-.24-.24.77.77,0,0,0-.23-.1l-.27,0H25.5v1.64Zm.49-2.06h1a1.51,1.51,0,0,0,.53-.07.57.57,0,0,0,.28-.22.56.56,0,0,0,.1-.33.53.53,0,0,0-.19-.43.88.88,0,0,0-.6-.17H25.5Z"/><path d="M28.31,49.73,29.73,46h.52l1.51,3.69h-.55l-.43-1.12H29.24l-.41,1.12Zm1.07-1.52h1.25l-.39-1c-.12-.31-.2-.56-.26-.76a4.29,4.29,0,0,1-.2.7Z"/><path d="M34.78,48.44l.49.12a1.67,1.67,0,0,1-.55.92,1.53,1.53,0,0,1-1,.31,1.79,1.79,0,0,1-1-.24,1.58,1.58,0,0,1-.56-.7,2.54,2.54,0,0,1-.2-1,2.28,2.28,0,0,1,.22-1,1.58,1.58,0,0,1,.63-.65,1.81,1.81,0,0,1,.89-.22,1.43,1.43,0,0,1,1.46,1.07l-.48.12a1.13,1.13,0,0,0-.38-.59,1,1,0,0,0-.61-.18,1.24,1.24,0,0,0-.71.2,1.11,1.11,0,0,0-.4.55,2.12,2.12,0,0,0-.12.71,2.31,2.31,0,0,0,.14.82,1.06,1.06,0,0,0,.43.52,1.14,1.14,0,0,0,.62.17,1.09,1.09,0,0,0,.7-.23A1.22,1.22,0,0,0,34.78,48.44Zm-1.47,1.68.13-.45h.34l-.08.27a.56.56,0,0,1,.32.13.34.34,0,0,1,.11.24.41.41,0,0,1-.18.33.84.84,0,0,1-.55.15,1.86,1.86,0,0,1-.36,0l0-.3h.23a.71.71,0,0,0,.34-.06.19.19,0,0,0,.07-.13.13.13,0,0,0,0-.08l-.11-.06Z"/><path d="M35.46,49.73,36.88,46h.52l1.51,3.69h-.55l-.43-1.12H36.39L36,49.73Zm.89-3.91a.61.61,0,0,1,.14-.42.51.51,0,0,1,.37-.16,1.07,1.07,0,0,1,.42.14.6.6,0,0,0,.24.08.15.15,0,0,0,.12-.05.3.3,0,0,0,.06-.17H38a.62.62,0,0,1-.14.43.48.48,0,0,1-.35.14,1,1,0,0,1-.42-.14.58.58,0,0,0-.25-.09.16.16,0,0,0-.13.06.24.24,0,0,0-.06.18Zm.18,2.39h1.25l-.39-1c-.12-.31-.2-.56-.26-.76a4.29,4.29,0,0,1-.2.7Z"/><path d="M39.16,47.93a2,2,0,0,1,.49-1.43A1.66,1.66,0,0,1,40.92,46a1.78,1.78,0,0,1,.92.24,1.57,1.57,0,0,1,.62.68,2.12,2.12,0,0,1,.22,1,2.17,2.17,0,0,1-.23,1,1.48,1.48,0,0,1-.64.67,1.85,1.85,0,0,1-1.82,0,1.59,1.59,0,0,1-.62-.69A2.07,2.07,0,0,1,39.16,47.93Zm.5,0A1.45,1.45,0,0,0,40,49a1.26,1.26,0,0,0,1.8,0,1.57,1.57,0,0,0,.36-1.1A1.8,1.8,0,0,0,42,47.1a1.24,1.24,0,0,0-.44-.52,1.21,1.21,0,0,0-.66-.18,1.28,1.28,0,0,0-.89.35A1.6,1.6,0,0,0,39.66,47.94Z"/><path d="M44.73,49.73V46h.5l1.94,2.9V46h.47v3.69h-.5l-1.94-2.9v2.9Z"/><path d="M48.05,49.73,49.47,46H50l1.51,3.69h-.56l-.43-1.12H49l-.4,1.12Zm1.06-1.52h1.25l-.38-1a6.93,6.93,0,0,1-.26-.76,5.6,5.6,0,0,1-.2.7Z"/><path d="M54.52,48.44l.49.12a1.68,1.68,0,0,1-.56.92,1.5,1.5,0,0,1-1,.31,1.76,1.76,0,0,1-1-.24,1.53,1.53,0,0,1-.57-.7,2.53,2.53,0,0,1-.19-1,2.15,2.15,0,0,1,.22-1,1.52,1.52,0,0,1,.63-.65,1.78,1.78,0,0,1,.89-.22,1.49,1.49,0,0,1,.93.28,1.42,1.42,0,0,1,.52.79l-.48.12a1.12,1.12,0,0,0-.37-.59,1,1,0,0,0-.61-.18,1.22,1.22,0,0,0-.71.2,1.06,1.06,0,0,0-.4.55,2.12,2.12,0,0,0-.12.71,2.31,2.31,0,0,0,.14.82,1,1,0,0,0,.42.52,1.19,1.19,0,0,0,.63.17,1.08,1.08,0,0,0,.69-.23A1.23,1.23,0,0,0,54.52,48.44Z"/><path d="M55.69,49.73V46h.49v3.69Z"/><path d="M56.89,47.93a2,2,0,0,1,.49-1.43A1.66,1.66,0,0,1,58.65,46a1.78,1.78,0,0,1,.92.24,1.54,1.54,0,0,1,.63.68,2.25,2.25,0,0,1,.21,1,2.16,2.16,0,0,1-.22,1,1.54,1.54,0,0,1-.64.67,1.77,1.77,0,0,1-.9.23,1.71,1.71,0,0,1-.93-.25,1.65,1.65,0,0,1-.62-.69A2.07,2.07,0,0,1,56.89,47.93Zm.5,0A1.45,1.45,0,0,0,57.75,49a1.27,1.27,0,0,0,1.81,0,1.61,1.61,0,0,0,.35-1.1,2,2,0,0,0-.15-.79,1.18,1.18,0,0,0-1.1-.7,1.25,1.25,0,0,0-.89.35A1.6,1.6,0,0,0,57.39,47.94Z"/><path d="M61,49.73V46h.5l1.93,2.9V46h.47v3.69h-.5l-1.94-2.9v2.9Z"/><path d="M64.35,49.73,65.77,46h.52l1.51,3.69h-.55l-.43-1.12H65.28l-.41,1.12Zm1.07-1.52h1.25l-.39-1c-.12-.31-.2-.56-.26-.76a4.29,4.29,0,0,1-.2.7Z"/><path d="M68.17,49.73V46h.49v3.25h1.82v.44Z"/><path d="M72.3,49.73V46h1.26a2.73,2.73,0,0,1,.66.06,1.14,1.14,0,0,1,.54.26,1.44,1.44,0,0,1,.44.63,2.66,2.66,0,0,1,.14.88,2.41,2.41,0,0,1-.1.74,1.8,1.8,0,0,1-.25.54,1.29,1.29,0,0,1-.33.33,1.62,1.62,0,0,1-.44.19,2.64,2.64,0,0,1-.6.06Zm.48-.44h.79a2.16,2.16,0,0,0,.57-.06.87.87,0,0,0,.33-.19,1.14,1.14,0,0,0,.27-.47,2.13,2.13,0,0,0,.1-.71,1.68,1.68,0,0,0-.19-.89,1,1,0,0,0-.46-.42,1.94,1.94,0,0,0-.63-.07h-.78Z"/><path d="M76,49.73V46h2.67v.44H76.51v1.13h2V48h-2v1.25h2.26v.44Z"/><path d="M80.89,49.73V46h2.66v.44H81.37v1.13h2V48h-2v1.25h2.27v.44Z"/><path d="M84.14,48.54l.46,0a1.13,1.13,0,0,0,.16.46.86.86,0,0,0,.37.29,1.4,1.4,0,0,0,.56.1,1.31,1.31,0,0,0,.5-.08A.62.62,0,0,0,86.5,49a.51.51,0,0,0,.11-.31.55.55,0,0,0-.1-.31.85.85,0,0,0-.33-.21,5.91,5.91,0,0,0-.66-.18,3.23,3.23,0,0,1-.71-.23,1,1,0,0,1-.4-.34.94.94,0,0,1-.13-.46,1,1,0,0,1,.16-.53,1,1,0,0,1,.47-.36,1.6,1.6,0,0,1,.67-.13,1.78,1.78,0,0,1,.72.13,1.12,1.12,0,0,1,.49.39,1.17,1.17,0,0,1,.18.58l-.47,0a.75.75,0,0,0-.26-.53,1,1,0,0,0-.64-.18,1,1,0,0,0-.64.16.49.49,0,0,0-.21.39.4.4,0,0,0,.15.33,1.86,1.86,0,0,0,.73.26,4.56,4.56,0,0,1,.82.24,1.13,1.13,0,0,1,.47.37.9.9,0,0,1,.16.53,1,1,0,0,1-.17.55,1.08,1.08,0,0,1-.48.41,1.83,1.83,0,0,1-.71.14,2.23,2.23,0,0,1-.84-.14,1.16,1.16,0,0,1-.53-.44A1.29,1.29,0,0,1,84.14,48.54Z"/><path d="M88.68,49.73V46.48H87.47V46h2.92v.44H89.17v3.25Z"/><path d="M90.9,49.73V46h1.63a2.33,2.33,0,0,1,.75.1.87.87,0,0,1,.41.35,1.09,1.09,0,0,1,.15.56.92.92,0,0,1-.25.66,1.29,1.29,0,0,1-.79.34,1,1,0,0,1,.3.19,2.57,2.57,0,0,1,.4.49l.64,1h-.61L93,49c-.14-.22-.26-.39-.35-.51a.91.91,0,0,0-.25-.24.62.62,0,0,0-.22-.1l-.27,0h-.57v1.64Zm.48-2.06h1.05A1.45,1.45,0,0,0,93,47.6a.55.55,0,0,0,.29-.22.56.56,0,0,0,.1-.33.53.53,0,0,0-.19-.43.91.91,0,0,0-.6-.17H91.38Z"/><path d="M94.2,49.73,95.62,46h.52l1.51,3.69h-.56l-.43-1.12H95.12l-.4,1.12Zm1.06-1.52h1.25l-.38-1a6.93,6.93,0,0,1-.26-.76,5.6,5.6,0,0,1-.2.7Z"/><path d="M98,49.73V46h1.27a2.64,2.64,0,0,1,.65.06,1.13,1.13,0,0,1,.55.26,1.42,1.42,0,0,1,.43.63,2.42,2.42,0,0,1,.15.88,2.76,2.76,0,0,1-.1.74,2.09,2.09,0,0,1-.25.54,1.5,1.5,0,0,1-.34.33,1.62,1.62,0,0,1-.44.19,2.61,2.61,0,0,1-.59.06Zm.49-.44h.78a2.19,2.19,0,0,0,.58-.06,1.06,1.06,0,0,0,.33-.19,1.42,1.42,0,0,0,.27-.47,2.45,2.45,0,0,0,.09-.71,1.68,1.68,0,0,0-.19-.89.92.92,0,0,0-.46-.42,1.94,1.94,0,0,0-.63-.07h-.77Z"/><path d="M101.35,49.73,102.77,46h.52l1.51,3.69h-.55l-.43-1.12h-1.55l-.4,1.12Zm1.07-1.52h1.24l-.38-1c-.12-.31-.2-.56-.26-.76a4.29,4.29,0,0,1-.2.7Z"/><path d="M105,48.54l.46,0a1.13,1.13,0,0,0,.16.46.86.86,0,0,0,.37.29,1.43,1.43,0,0,0,.56.1,1.31,1.31,0,0,0,.5-.08.62.62,0,0,0,.31-.23.51.51,0,0,0,.11-.31.55.55,0,0,0-.1-.31.85.85,0,0,0-.33-.21,5.91,5.91,0,0,0-.66-.18,3.23,3.23,0,0,1-.71-.23.94.94,0,0,1-.39-.34.84.84,0,0,1-.13-.46,1,1,0,0,1,.15-.53,1,1,0,0,1,.47-.36,1.6,1.6,0,0,1,.67-.13,1.83,1.83,0,0,1,.73.13,1.06,1.06,0,0,1,.66,1l-.47,0a.75.75,0,0,0-.26-.53,1,1,0,0,0-.64-.18,1,1,0,0,0-.64.16.47.47,0,0,0-.2.39.39.39,0,0,0,.14.33,1.86,1.86,0,0,0,.73.26,4.56,4.56,0,0,1,.82.24,1.23,1.23,0,0,1,.48.37,1,1,0,0,1,.15.53,1,1,0,0,1-.17.55,1.08,1.08,0,0,1-.48.41,1.8,1.8,0,0,1-.71.14,2.23,2.23,0,0,1-.84-.14,1.16,1.16,0,0,1-.53-.44A1.29,1.29,0,0,1,105,48.54Z"/></g></g></svg>