<svg xmlns="http://www.w3.org/2000/svg" xmlns:xlink="http://www.w3.org/1999/xlink" viewBox="0 0 63.37 60.71"><defs><clipPath id="fc857c57-ead5-4b35-a20a-184aedcc8249"><path d="M4.54,13.5l1.15.07,1.21.13.9.14.42.08.46.1.44.12.3.1a3.63,3.63,0,0,0,.6.09,7.56,7.56,0,0,0,1.05,0,9.89,9.89,0,0,0,1.2-.2,10.29,10.29,0,0,0,1.11-.36l.73-.29.63-.27.91-.39.62-.28.89-.41.73-.35.54-.27.72-.37.4-.22a1.22,1.22,0,0,1,.39-.14s.46-.1.7-.13c0,0,.54-.07.83-.08h.72l.81,0,.51,0s.37,0,.74,0c0,0,.62,0,.92-.1,0,0,.76-.12,1-.2,0,0,.63-.16.83-.23,0,0,.46-.16.87-.34,0,0,.48-.23.69-.36,0,0,.45-.28.54-.36a3.49,3.49,0,0,1,.75-.49,5.13,5.13,0,0,1,.62-.27,4.1,4.1,0,0,1,.58-.14,3,3,0,0,1,.51,0,3,3,0,0,1,.7.06,3.9,3.9,0,0,1,.74.21,4.89,4.89,0,0,1,1,.55,5.73,5.73,0,0,1,.73.64,2,2,0,0,0,.64.45,2.77,2.77,0,0,0,1,.21A4.18,4.18,0,0,0,38,9.87l.55-.25a3.53,3.53,0,0,1,.75-.24,3.59,3.59,0,0,1,.81-.09,3.91,3.91,0,0,1,.78.1,5.52,5.52,0,0,1,.81.25,6.63,6.63,0,0,1,2.18,1.48,8.78,8.78,0,0,1,1,1.16.35.35,0,0,0,.37.21s.17,0,.57-.36a.75.75,0,0,1,.65-.3,1.69,1.69,0,0,1,.9.28,5.1,5.1,0,0,1,.89.63s.56.5.77.72c0,0,.65.78.88.8a2.7,2.7,0,0,0,1.26.12l.35-.06a1.21,1.21,0,0,1,.41,0,2.36,2.36,0,0,1,.78.19,5.65,5.65,0,0,1,1.12.66A10.78,10.78,0,0,1,55,16.31l.26.27a1.06,1.06,0,0,0,.48.28,3.86,3.86,0,0,0,.92.17,5.8,5.8,0,0,0,1.45-.15s.87-.22,1.08-.32l.59-.23.28-.12V21c-.8-.13-7.46-3.61-25.06-3.09,0,0-5.87,0-13.62.84,0,.14-13.34,2.5-16.88,2.42V13.5Z" style="fill:none;clip-rule:evenodd"/></clipPath><linearGradient id="bfc51e26-9431-41d9-a838-58742ac915dd" x1="32.32" y1="8.05" x2="32.32" y2="21.15" gradientUnits="userSpaceOnUse"><stop offset="0" stop-color="#d53930"/><stop offset="1" stop-color="#fff"/></linearGradient><clipPath id="a0e9545c-26e7-4924-bbfe-574c78b1bee9"><path d="M4.54,21.13a118.35,118.35,0,0,0,16.88-2.42s17.13-1.66,24.89-.57A48.31,48.31,0,0,1,60.1,21L60,31.52,21.12,36.29s-5,3.26-6.75,1.05c0,0-.33-1.21-7.89-.11,0,0-.57-.7-1.59-5a15.91,15.91,0,0,1-.36-3.87V21.13Z" style="fill:none;clip-rule:evenodd"/></clipPath><linearGradient id="adbcd308-84ac-498e-b6b5-0fa35c6ed8dd" x1="32.23" y1="38.13" x2="32.23" y2="17.76" gradientUnits="userSpaceOnUse"><stop offset="0" stop-color="#fff"/><stop offset="0.46" stop-color="#d1de4e"/><stop offset="1" stop-color="#fff"/></linearGradient><clipPath id="f9d8b974-532c-4266-9e3d-ea104f98a14c"><path d="M.45,45.13H11l-1.3,6.08H.64l1.61-2.89s-2-3.39-1.8-3.19" style="fill:none;clip-rule:evenodd"/></clipPath><linearGradient id="ee47b263-8399-4879-9533-1f00dcaae79c" x1="5.73" y1="45.69" x2="5.51" y2="50.63" gradientUnits="userSpaceOnUse"><stop offset="0" stop-color="#00ffcb"/><stop offset="0.21" stop-color="#47fed9"/><stop offset="0.42" stop-color="#87fee6"/><stop offset="0.61" stop-color="#bafef0"/><stop offset="0.78" stop-color="#defdf7"/><stop offset="0.91" stop-color="#f5fdfb"/><stop offset="1" stop-color="#fdfdfd"/></linearGradient><clipPath id="f2045ac5-7a20-4f87-905d-0c0e74070d25"><path d="M52.36,45H62.7L60.64,48.4,62.56,51h-7V48.4A43.12,43.12,0,0,1,52.36,45" style="fill:none;clip-rule:evenodd"/></clipPath><linearGradient id="b84652d0-151f-4686-a590-63e5d4416ef7" x1="57.56" y1="45.09" x2="57.28" y2="50.88" xlink:href="#ee47b263-8399-4879-9533-1f00dcaae79c"/></defs><title>CMT</title><g id="a7ebdd16-834c-41c5-abea-7c1fd7317546" data-name="Layer 2"><g id="b1193d7b-e9bf-4149-b3cb-2fa41e9fc697" data-name="Layer 1"><path d="M4.49.33H60.07V16.15a5.78,5.78,0,0,1-3.9.8s-.76-.12-2.09-1.53c0,0-1.69-1.43-2.39-1.13,0,0-1.95.42-2.45-.54,0,0-2.37-2.27-2.87-1.93,0,0-.41-.08-1,.49,0,0-.32.69-1.35-1.08,0,0-3.14-3-5.35-1.63A3.54,3.54,0,0,1,34,8.87s-2.47-2.15-5.31.49A11,11,0,0,1,23,10.57s-2.86-.33-4.2.73l-4.35,2S11.27,15,8.84,14c0,0-4-.6-4.33-.52V5.89Z" style="fill:#15bfeb;fill-rule:evenodd"/><path d="M4.49.33H60.07V16.15a5.78,5.78,0,0,1-3.9.8s-.76-.12-2.09-1.53c0,0-1.69-1.43-2.39-1.13,0,0-1.95.42-2.45-.54,0,0-2.37-2.27-2.87-1.93,0,0-.41-.08-1,.49,0,0-.32.69-1.35-1.08,0,0-3.14-3-5.35-1.63A3.54,3.54,0,0,1,34,8.87s-2.47-2.15-5.31.49A11,11,0,0,1,23,10.57s-2.86-.33-4.2.73l-4.35,2S11.27,15,8.84,14c0,0-4-.6-4.33-.52V5.89Z" style="fill:none;stroke:#231f20;stroke-miterlimit:22.92558479309082;stroke-width:0.2160000056028366px"/><g style="clip-path:url(#fc857c57-ead5-4b35-a20a-184aedcc8249)"><rect x="4.54" y="8.05" width="55.56" height="13.15" style="fill:url(#bfc51e26-9431-41d9-a838-58742ac915dd)"/></g><path d="M4.54,13.5l1.15.07,1.21.13.9.14.42.08.46.1.44.12.3.1a3.63,3.63,0,0,0,.6.09,7.56,7.56,0,0,0,1.05,0,9.89,9.89,0,0,0,1.2-.2,10.29,10.29,0,0,0,1.11-.36l.73-.29.63-.27.91-.39.62-.28.89-.41.73-.35.54-.27.72-.37.4-.22a1.22,1.22,0,0,1,.39-.14s.46-.1.7-.13c0,0,.54-.07.83-.08h.72l.81,0,.51,0s.37,0,.74,0c0,0,.62,0,.92-.1,0,0,.76-.12,1-.2,0,0,.63-.16.83-.23,0,0,.46-.16.87-.34,0,0,.48-.23.69-.36,0,0,.45-.28.54-.36a3.49,3.49,0,0,1,.75-.49,5.13,5.13,0,0,1,.62-.27,4.1,4.1,0,0,1,.58-.14,3,3,0,0,1,.51,0,3,3,0,0,1,.7.06,3.9,3.9,0,0,1,.74.21,4.89,4.89,0,0,1,1,.55,5.73,5.73,0,0,1,.73.64,2,2,0,0,0,.64.45,2.77,2.77,0,0,0,1,.21A4.18,4.18,0,0,0,38,9.87l.55-.25a3.53,3.53,0,0,1,.75-.24,3.59,3.59,0,0,1,.81-.09,3.91,3.91,0,0,1,.78.1,5.52,5.52,0,0,1,.81.25,6.63,6.63,0,0,1,2.18,1.48,8.78,8.78,0,0,1,1,1.16.35.35,0,0,0,.37.21s.17,0,.57-.36a.75.75,0,0,1,.65-.3,1.69,1.69,0,0,1,.9.28,5.1,5.1,0,0,1,.89.63s.56.5.77.72c0,0,.65.78.88.8a2.7,2.7,0,0,0,1.26.12l.35-.06a1.21,1.21,0,0,1,.41,0,2.36,2.36,0,0,1,.78.19,5.65,5.65,0,0,1,1.12.66A10.78,10.78,0,0,1,55,16.31l.26.27a1.06,1.06,0,0,0,.48.28,3.86,3.86,0,0,0,.92.17,5.8,5.8,0,0,0,1.45-.15s.87-.22,1.08-.32l.59-.23.28-.12V21c-.8-.13-7.46-3.61-25.06-3.09,0,0-5.87,0-13.62.84,0,.14-13.34,2.5-16.88,2.42V13.5Z" style="fill:none;stroke:#231f20;stroke-miterlimit:22.92558479309082;stroke-width:0.5px"/><path d="M29,10.82s2,.8,8.63-.83l.28-.09.69-.31a3.64,3.64,0,0,1,2.26-.2,5.19,5.19,0,0,1,2,.92,7.45,7.45,0,0,1,1.78,1.77l.2.29s2.22,4.53,4.68,4.08" style="fill:none;stroke:#231f20;stroke-miterlimit:22.92558479309082;stroke-width:0.5px"/><polygon points="27.21 15.58 27.2 16.45 31.46 14.62 35.49 16 35.49 15.4 31.42 13.74 27.21 15.58" style="fill:#fff;fill-rule:evenodd"/><polygon points="27.21 15.58 27.2 16.45 31.46 14.62 35.49 16 35.49 15.4 31.42 13.74 27.21 15.58" style="fill:none;stroke:#231f20;stroke-miterlimit:22.92558479309082;stroke-width:0.5px"/><g style="clip-path:url(#a0e9545c-26e7-4924-bbfe-574c78b1bee9)"><rect x="4.36" y="17.05" width="55.74" height="22.5" style="fill:url(#adbcd308-84ac-498e-b6b5-0fa35c6ed8dd)"/></g><path d="M4.54,21.13a118.35,118.35,0,0,0,16.88-2.42s17.13-1.66,24.89-.57A48.31,48.31,0,0,1,60.1,21L60,31.52,21.12,36.29s-5,3.26-6.75,1.05c0,0-.33-1.21-7.89-.11,0,0-.57-.7-1.59-5a15.91,15.91,0,0,1-.36-3.87V21.13Z" style="fill:none;stroke:#231f20;stroke-miterlimit:22.92558479309082;stroke-width:0.5px"/><path d="M15,33.74s.15,2.52-.67,2.57l-2.86,0v-.71h1.24V34.16Z" style="fill:#752d2d;fill-rule:evenodd"/><path d="M15,33.74s.15,2.52-.67,2.57l-2.86,0v-.71h1.24V34.16Z" style="fill:none;stroke:#231f20;stroke-miterlimit:22.92558479309082;stroke-width:0.5px"/><path d="M6.48,37.23s6.36-1.1,7.81,0c0,0,.82,1.7,4.17.38a19.5,19.5,0,0,0,2.66-1.33L60,31.52s.15,7.53-10.28,14.39c0,0-1.63,1-3.13,1.66a12.92,12.92,0,0,1-2.26,1s-3.58,1.54-5.42,2.49c0,0-1.4.67-3.11,1.67a21.27,21.27,0,0,0-3.1,2.15,42.9,42.9,0,0,0-12.39-6.16A30.76,30.76,0,0,1,9.16,41l-2-2.26,2,2.26-2-2.26Z" style="fill:#15bfeb;fill-rule:evenodd"/><path d="M6.48,37.23s6.36-1.1,7.81,0c0,0,.82,1.7,4.17.38a19.5,19.5,0,0,0,2.66-1.33L60,31.52s.15,7.53-10.28,14.39c0,0-1.63,1-3.13,1.66a12.92,12.92,0,0,1-2.26,1s-3.58,1.54-5.42,2.49c0,0-1.4.67-3.11,1.67a21.27,21.27,0,0,0-3.1,2.15,42.9,42.9,0,0,0-12.39-6.16A30.76,30.76,0,0,1,9.16,41l-2-2.26,2,2.26-2-2.26Z" style="fill:none;stroke:#231f20;stroke-miterlimit:22.92558479309082;stroke-width:0.5px"/><path d="M7.41,26.92,7,26.61A.46.46,0,0,1,7,26s-.54-.29-.67,0,.28.7,0,.81,0,.81,0,.81-1.06,1.15,0,4.15l-.27,1.68v1.63l.35.91.45.23h.19s-.2-2.21.18-2.5A7,7,0,0,0,8.85,32a8.88,8.88,0,0,1-1.62,1.72l.18.73,2.06,2,.34-.36L8.6,34.45l1.15-1.22s.69,1,2.78.8l1.24,4.84.6,0V34.21a11,11,0,0,0,3.52-3.81,3.31,3.31,0,0,0,2,1.15l.09.79h.47l.16-.86s.65.5.6-2.66l.21-.22a4.73,4.73,0,0,0,1.6-.76,2.8,2.8,0,0,0-1.61-.39,2.85,2.85,0,0,0-.72-.84,2.8,2.8,0,0,0-.7-1.19,6.32,6.32,0,0,0-.12,1.32l-.14.11a5.62,5.62,0,0,0-1.08-1.15,3.26,3.26,0,0,0,0,1.62,3.13,3.13,0,0,0-1.86.81s-4.38.82-6.88-.45l-.5-.76.5.76-.5-.76Z" style="fill:#752d2d;fill-rule:evenodd"/><path d="M7.41,26.92,7,26.61A.46.46,0,0,1,7,26s-.54-.29-.67,0,.28.7,0,.81,0,.81,0,.81-1.06,1.15,0,4.15l-.27,1.68v1.63l.35.91.45.23h.19s-.2-2.21.18-2.5A7,7,0,0,0,8.85,32a8.88,8.88,0,0,1-1.62,1.72l.18.73,2.06,2,.34-.36L8.6,34.45l1.15-1.22s.69,1,2.78.8l1.24,4.84.6,0V34.21a11,11,0,0,0,3.52-3.81,3.31,3.31,0,0,0,2,1.15l.09.79h.47l.16-.86s.65.5.6-2.66l.21-.22a4.73,4.73,0,0,0,1.6-.76,2.8,2.8,0,0,0-1.61-.39,2.85,2.85,0,0,0-.72-.84,2.8,2.8,0,0,0-.7-1.19,6.32,6.32,0,0,0-.12,1.32l-.14.11a5.62,5.62,0,0,0-1.08-1.15,3.26,3.26,0,0,0,0,1.62,3.13,3.13,0,0,0-1.86.81s-4.38.82-6.88-.45l-.5-.76.5.76-.5-.76Z" style="fill:none;stroke:#231f20;stroke-miterlimit:22.92558479309082;stroke-width:0.5px"/><path d="M19.78,28.55l-.85.4v.3h.86L20,29s.49-.26.33-.36a1.62,1.62,0,0,0-.55-.13" style="fill-rule:evenodd"/><path d="M21.41,40.29s9.75,6.74,19.89.42l.1-16.42c0-4.3-16.85-7.73-20,0V39.13Z" style="fill:#fff;fill-rule:evenodd"/><path d="M21.41,40.29s9.75,6.74,19.89.42l.1-16.42c0-4.3-16.85-7.73-20,0V39.13Z" style="fill:none;stroke:#231f20;stroke-miterlimit:22.92558479309082;stroke-width:0.5px"/><polygon points="27.2 16.45 27.78 16.57 35.03 16.19 35.49 16 31.46 14.62 27.2 16.45" style="fill:#fff;fill-rule:evenodd"/><polygon points="27.2 16.45 27.78 16.57 35.03 16.19 35.49 16 31.46 14.62 27.2 16.45" style="fill:none;stroke:#231f20;stroke-miterlimit:22.92558479309082;stroke-width:0.5px"/><path d="M21.42,26.87V36s1.77,1.81,14.93,1.22l0-7.12h5l0-2.34s-5.31-2.93-18.54-1.07l-1.22.18Z" style="fill:#15bfeb;fill-rule:evenodd"/><path d="M21.42,26.87V36s1.77,1.81,14.93,1.22l0-7.12h5l0-2.34s-5.31-2.93-18.54-1.07l-1.22.18Z" style="fill:none;stroke:#231f20;stroke-miterlimit:22.92558479309082;stroke-width:0.5px"/><path d="M27.79,19.93a23.18,23.18,0,0,1,7.15.2l.1-4.28-3.58-1.24L27.78,16.2Z" style="fill:#fff;fill-rule:evenodd"/><path d="M27.79,19.93a23.18,23.18,0,0,1,7.15.2l.1-4.28-3.58-1.24L27.78,16.2Z" style="fill:none;stroke:#231f20;stroke-miterlimit:22.92558479309082;stroke-width:0.5px"/><polygon points="28.49 19.08 30.75 18.85 30.75 15.39 28.49 16.29 28.49 19.08" style="fill:none;stroke:#231f20;stroke-miterlimit:22.92558479309082;stroke-width:0.5px"/><polygon points="31.43 15.21 31.43 18.89 34.38 19.31 34.38 16.14 31.43 15.21" style="fill:none;stroke:#231f20;stroke-miterlimit:22.92558479309082;stroke-width:0.5px"/><path d="M21.42,24.29s10.34-4.2,20,.14" style="fill:none;stroke:#231f20;stroke-miterlimit:22.92558479309082;stroke-width:0.5px"/><path d="M29,19.77a6.8,6.8,0,0,0-3.76,3.42" style="fill:none;stroke:#231f20;stroke-miterlimit:22.92558479309082;stroke-width:0.5px"/><path d="M33.21,19.85a7.31,7.31,0,0,1,3.07,3" style="fill:none;stroke:#231f20;stroke-miterlimit:22.92558479309082;stroke-width:0.5px"/><path d="M30.78,19.69a9.44,9.44,0,0,0-.37,2.81" style="fill:none;stroke:#231f20;stroke-miterlimit:22.92558479309082;stroke-width:0.5px"/><line x1="25.21" y1="23.19" x2="25.3" y2="42.19" style="fill:none;stroke:#231f20;stroke-miterlimit:22.92558479309082;stroke-width:0.5px"/><line x1="30.51" y1="43.35" x2="30.41" y2="22.5" style="fill:none;stroke:#231f20;stroke-miterlimit:22.92558479309082;stroke-width:0.5px"/><line x1="36.28" y1="22.86" x2="36.38" y2="42.85" style="fill:none;stroke:#231f20;stroke-miterlimit:22.92558479309082;stroke-width:0.5px"/><path d="M39.4,27v3.06m-1.57-3.42v3.42m-3.7-3.9V37.28m-1.79-11.2V37.33M29,26.11l0,11.19M27.58,26.18v11M24.45,26.46V36.88M22.86,26.66v9.87M21.42,36s2.49,1.9,14.93,1.22M21.42,32.76s3,1.48,14.92,1.11M21.42,30.08H41.36m0-2.36s-5.65-3.05-20-.84" style="fill:none;stroke:#000;stroke-miterlimit:22.92558479309082;stroke-width:0.5px"/><path d="M21.41,40.29l0,3.74S24.25,49.66,35.08,47a32.27,32.27,0,0,0,6.18-3.21l0-3s-8,5.82-18.68.29l-.93-.53Z" style="fill:#752d2d;fill-rule:evenodd"/><path d="M21.41,40.29l0,3.74S24.25,49.66,35.08,47a32.27,32.27,0,0,0,6.18-3.21l0-3s-8,5.82-18.68.29l-.93-.53Z" style="fill:none;stroke:#231f20;stroke-miterlimit:22.92558479309082;stroke-width:0.5px"/><path d="M35.44,43.48l.1,3.79,6.28,2.43L46,47.86l0-.55-1.41-.38h0v-.6l-.86-.23.07-.88-.84-.29v-.67l-1.24-.41v-.62L40.92,43V41.61h0A16.59,16.59,0,0,1,35.44,43.48Z" style="fill:#752d2d;fill-rule:evenodd"/><path d="M35.44,43.48l.1,3.79,6.28,2.43L46,47.86l0-.55-1.41-.38h0v-.6l-.86-.23.07-.88-.84-.29v-.67l-1.24-.41v-.62L40.92,43V41.61h0A16.59,16.59,0,0,1,35.44,43.48Z" style="fill:none;stroke:#000;stroke-miterlimit:22.92558479309082;stroke-width:0.5px"/><line x1="41.76" y1="49.13" x2="45.97" y2="47.31" style="fill:none;stroke:#000;stroke-miterlimit:22.92558479309082;stroke-width:0.5px"/><polyline points="35.97 43.39 35.95 44.13 35.95 44.65 37.19 44.96 37.19 45.56 38.43 46.03 38.45 46.63 39.2 46.99 39.2 47.79 40.44 48.17 40.44 48.7 41.76 49.13 41.76 49.68" style="fill:none;stroke:#000;stroke-miterlimit:22.92558479309082;stroke-width:0.5px"/><path d="M29,9.1a1.46,1.46,0,0,1-.58-.34,2,2,0,0,1-.34-.45s0,0,0,0v-.6s0-.58.81-.86a2.44,2.44,0,0,1,2,.33h.35V2.29h.38V3h.48v.81H31.7V5.05h.48V6.27H31.8V8h.39V6.75s2.32-1,2.88,1.41V9s-.09.2,0,.2h.38V10s-.42-.08-1.14-.87l0,0,0,0L34,8.87l-.07,0a4.1,4.1,0,0,0-2.12-.75,3.88,3.88,0,0,0-1.4.24,6.26,6.26,0,0,0-.87.43l-.06,0-.16.12L29.17,9Z" style="fill:#666;fill-rule:evenodd"/><path d="M29,9.1a1.46,1.46,0,0,1-.58-.34,2,2,0,0,1-.34-.45s0,0,0,0v-.6s0-.58.81-.86a2.44,2.44,0,0,1,2,.33h.35V2.29h.38V3h.48v.81H31.7V5.05h.48V6.27H31.8V8h.39V6.75s2.32-1,2.88,1.41V9s-.09.2,0,.2h.38V10s-.42-.08-1.14-.87l0,0,0,0L34,8.87l-.07,0a4.1,4.1,0,0,0-2.12-.75,3.88,3.88,0,0,0-1.4.24,6.26,6.26,0,0,0-.87.43l-.06,0-.16.12L29.17,9Z" style="fill:none;stroke:#231f20;stroke-miterlimit:22.92558479309082;stroke-width:0.5px"/><path d="M50.69,35.76l.74.43.84.47h1l2-.63s.67.42.86,0,1-.3.81-.86.66-1.2.86-1.67.75-.32.67-.71.67-.13.61-.65.79-1.48.79-1.48V28.23s-1.49-1-1.28-1.35a1,1,0,0,0,0-.81s-1.16-.44-1-1a3,3,0,0,0-.09-1.51s-1.17-.76-1.08-1.14-1.75-.64-1.75-.64-.71.36-1.05,0a3,3,0,0,0-1.53-.69H49.55c-.8,0-.65-.21-1.25,0a7.14,7.14,0,0,1-2,.11s-.72-.37-1,0a1.27,1.27,0,0,1-1,.73c-.65.11-1.1-.15-1.69.21a1.37,1.37,0,0,0-.75,1.06,5.81,5.81,0,0,1-.49,1.1v4.89l.4.43.5-.28H43v1l-.91.79v1.21a4.87,4.87,0,0,0,0,.91l0,.43.73.9.55.57s-.26-.62,0-.91a1.37,1.37,0,0,0,.26-.75l.21-1.14s2.05-.06,2.28,0,3-.26,3,.11,2,0,2,0l2.63.42v1.22s-.21.57-.54.57a8.9,8.9,0,0,0-1.29.24l-.27.29h-.39Z" style="fill:#0f3;fill-rule:evenodd"/><path d="M50.69,35.76l.74.43.84.47h1l2-.63s.67.42.86,0,1-.3.81-.86.66-1.2.86-1.67.75-.32.67-.71.67-.13.61-.65.79-1.48.79-1.48V28.23s-1.49-1-1.28-1.35a1,1,0,0,0,0-.81s-1.16-.44-1-1a3,3,0,0,0-.09-1.51s-1.17-.76-1.08-1.14-1.75-.64-1.75-.64-.71.36-1.05,0a3,3,0,0,0-1.53-.69H49.55c-.8,0-.65-.21-1.25,0a7.14,7.14,0,0,1-2,.11s-.72-.37-1,0a1.27,1.27,0,0,1-1,.73c-.65.11-1.1-.15-1.69.21a1.37,1.37,0,0,0-.75,1.06,5.81,5.81,0,0,1-.49,1.1v4.89l.4.43.5-.28H43v1l-.91.79v1.21a4.87,4.87,0,0,0,0,.91l0,.43.73.9.55.57s-.26-.62,0-.91a1.37,1.37,0,0,0,.26-.75l.21-1.14s2.05-.06,2.28,0,3-.26,3,.11,2,0,2,0l2.63.42v1.22s-.21.57-.54.57a8.9,8.9,0,0,0-1.29.24l-.27.29h-.39Z" style="fill:none;stroke:#000;stroke-miterlimit:22.92558479309082;stroke-width:0.5px"/><path d="M42.34,40.61A9.79,9.79,0,0,0,45.12,33l-.25-.24-.21-.22s0-.27-.2-.21a.67.67,0,0,1-.41,0,1.2,1.2,0,0,0-.29,0h-.29L43,31.61h.57s.65.31.67,0,.73-.47,0-.71a5,5,0,0,0-.83-.24l-.27.29H42.3l.54-.58H44s.26-.7,0-.71-.11-.53-.41-.42-.35.26-.57,0-.61-.65-.61-.65l-.17-.79h.67s1.22.73,1,1.08.83.78.83.78L45,30a3.85,3.85,0,0,1,.6,1v-.4l.34-.36s-.56-.12-.48-.5-1.09-.43-.88-.93a1.26,1.26,0,0,0-.08-1.34l-.39-.79.54-.57s.49.29.49.37.63,1.33.63,1.33.7,1.31.74,1.42-.12-1-.12-1.06a4.37,4.37,0,0,0,0-.81c0-.11-.07-.19-.21-.58a2.89,2.89,0,0,0-.27-.66l-.27-.28.35-.5s.93.63.81.85.31.79.31.79l.21,1s.06.36.1,0,.16-1.09.16-1.09l-.28-.9c-.06-.19-.16-.57-.16-.57V25l.65-.19a3,3,0,0,1,.26.65,10.43,10.43,0,0,1,0,1.11l.73,0h.86l1.09.37.18.74v.81s.24.79.54.57,1-.55.81-.86,0-1.11,0-1.11l.61-.65s1.08-.55,1.05,0-.08,1.13-.08,1.13-.85.75-.8.85-.07.74,0,.8.21-.08.29,0a1.4,1.4,0,0,0,.86,0c.15-.09.61-.38.71-.46a2.61,2.61,0,0,0,.45-.5,1.46,1.46,0,0,1,.27-.28l1.43,1.51.59,1.18-.81.86H56s-1.09.18-1.24,0-.6-.64-.6-.64-.16-.41-.41-.43-.5-.18-.65,0-.57.55-.57.55-.2.43,0,.61a1.78,1.78,0,0,0,.7.26l.47.5s.1.34.34.35a5.48,5.48,0,0,1,.78.2s.25.8,0,.91-1.42.93-1.42.93.2-.89,0-1-1.12-.78-1.12-.78a1.72,1.72,0,0,0-.57,0c-.34.06-1.14.24-1.14.24s-1.09,1-.89,4.06c0,0-.19,1.79,2.14,3.52,0,0-1.24,1.39-2.14,1.43S45,41.4,44.42,41.4a6.28,6.28,0,0,1-1.61-.56A1,1,0,0,1,42.34,40.61Z" style="fill:#7f7f7f;fill-rule:evenodd"/><path d="M42.34,40.61A9.79,9.79,0,0,0,45.12,33l-.25-.24-.21-.22s0-.27-.2-.21a.67.67,0,0,1-.41,0,1.2,1.2,0,0,0-.29,0h-.29L43,31.61h.57s.65.31.67,0,.73-.47,0-.71a5,5,0,0,0-.83-.24l-.27.29H42.3l.54-.58H44s.26-.7,0-.71-.11-.53-.41-.42-.35.26-.57,0-.61-.65-.61-.65l-.17-.79h.67s1.22.73,1,1.08.83.78.83.78L45,30a3.85,3.85,0,0,1,.6,1v-.4l.34-.36s-.56-.12-.48-.5-1.09-.43-.88-.93a1.26,1.26,0,0,0-.08-1.34l-.39-.79.54-.57s.49.29.49.37.63,1.33.63,1.33.7,1.31.74,1.42-.12-1-.12-1.06a4.37,4.37,0,0,0,0-.81c0-.11-.07-.19-.21-.58a2.89,2.89,0,0,0-.27-.66l-.27-.28.35-.5s.93.63.81.85.31.79.31.79l.21,1s.06.36.1,0,.16-1.09.16-1.09l-.28-.9c-.06-.19-.16-.57-.16-.57V25l.65-.19a3,3,0,0,1,.26.65,10.43,10.43,0,0,1,0,1.11l.73,0h.86l1.09.37.18.74v.81s.24.79.54.57,1-.55.81-.86,0-1.11,0-1.11l.61-.65s1.08-.55,1.05,0-.08,1.13-.08,1.13-.85.75-.8.85-.07.74,0,.8.21-.08.29,0a1.4,1.4,0,0,0,.86,0c.15-.09.61-.38.71-.46a2.61,2.61,0,0,0,.45-.5,1.46,1.46,0,0,1,.27-.28l1.43,1.51.59,1.18-.81.86H56s-1.09.18-1.24,0-.6-.64-.6-.64-.16-.41-.41-.43-.5-.18-.65,0-.57.55-.57.55-.2.43,0,.61a1.78,1.78,0,0,0,.7.26l.47.5s.1.34.34.35a5.48,5.48,0,0,1,.78.2s.25.8,0,.91-1.42.93-1.42.93.2-.89,0-1-1.12-.78-1.12-.78a1.72,1.72,0,0,0-.57,0c-.34.06-1.14.24-1.14.24s-1.09,1-.89,4.06c0,0-.19,1.79,2.14,3.52,0,0-1.24,1.39-2.14,1.43S45,41.4,44.42,41.4a6.28,6.28,0,0,1-1.61-.56A1,1,0,0,1,42.34,40.61Z" style="fill:none;stroke:#000;stroke-miterlimit:22.92558479309082;stroke-width:0.5px"/><path d="M44.87,41.16l.07-.37s.06-.2.2-.22a4.94,4.94,0,0,0,.67,0,3.26,3.26,0,0,0,.72-.34l.2-.21" style="fill:none;stroke:#000;stroke-miterlimit:22.92558479309082;stroke-width:0.5px"/><path d="M45.59,40s.37-1.55.59-2.92" style="fill:none;stroke:#000;stroke-miterlimit:22.92558479309082;stroke-width:0.5px"/><path d="M47.35,32.47a6.53,6.53,0,0,1,.23-2.26,5.59,5.59,0,0,0,.17-1.55" style="fill:none;stroke:#000;stroke-miterlimit:22.92558479309082;stroke-width:0.5px"/><path d="M49.26,27.05a4.14,4.14,0,0,0-.39,2.69,3.13,3.13,0,0,1,.05,1.81A6.2,6.2,0,0,1,51.52,29" style="fill:none;stroke:#000;stroke-miterlimit:22.92558479309082;stroke-width:0.5px"/><path d="M46.56,35.81A3.28,3.28,0,0,0,47,34.37" style="fill:none;stroke:#000;stroke-miterlimit:22.92558479309082;stroke-width:0.5px"/><line x1="44.56" y1="46.38" x2="40.44" y2="48.17" style="fill:none;stroke:#000;stroke-miterlimit:22.92558479309082;stroke-width:0.5px"/><line x1="43.77" y1="45.28" x2="39.2" y2="46.99" style="fill:none;stroke:#000;stroke-miterlimit:22.92558479309082;stroke-width:0.5px"/><line x1="40.44" y1="48.7" x2="44.56" y2="46.93" style="fill:none;stroke:#000;stroke-miterlimit:22.92558479309082;stroke-width:0.5px"/><line x1="43.72" y1="46.09" x2="39.2" y2="47.79" style="fill:none;stroke:#000;stroke-miterlimit:22.92558479309082;stroke-width:0.5px"/><line x1="42.93" y1="44.92" x2="38.45" y2="46.63" style="fill:none;stroke:#000;stroke-miterlimit:22.92558479309082;stroke-width:0.5px"/><line x1="37.19" y1="45.56" x2="41.69" y2="43.84" style="fill:none;stroke:#000;stroke-miterlimit:22.92558479309082;stroke-width:0.5px"/><line x1="38.43" y1="46.03" x2="42.93" y2="44.25" style="fill:none;stroke:#000;stroke-miterlimit:22.92558479309082;stroke-width:0.5px"/><line x1="37.19" y1="44.96" x2="41.69" y2="43.22" style="fill:none;stroke:#000;stroke-miterlimit:22.92558479309082;stroke-width:0.5px"/><line x1="35.95" y1="44.65" x2="40.92" y2="43.03" style="fill:none;stroke:#000;stroke-miterlimit:22.92558479309082;stroke-width:0.5px"/><path d="M42.59,40.59c0,.06,0,.09.29.22,0,0,.26.14.38.22l.45.19s.26.1.35.12a1.71,1.71,0,0,0,.44.06s.25,0,1,.14l2,.34,1.24.19a5,5,0,0,0,.86.07c.12,0,.92,0,2-1.4" style="fill:none;stroke:#7f7f7f;stroke-miterlimit:22.92558479309082"/><path d="M4.63,13.51s2.31.15,2.85.28c0,0,.87.13,1.32.26l.33.09.31.1a4.23,4.23,0,0,0,.52.09l.38,0h.59s.64-.06.91-.12a6.62,6.62,0,0,0,.66-.15s.4-.12.46-.15.74-.26,1-.37l.26-.1.22-.1.25-.1.38-.17.32-.13.36-.16.27-.12.31-.14.19-.09.67-.31.72-.34.49-.24.46-.24.35-.18.22-.12.16-.09a2.16,2.16,0,0,1,.87-.24l.56-.07.52,0s.89,0,1,0l.78,0s.51,0,.59,0l.37,0,.41,0,.31,0,.26,0,.24,0,.2,0,.32-.06.19,0,.2-.05.18,0,.24-.07.2-.05.28-.1.23-.09.16-.06.28-.12.21-.1.19-.1.16-.08.15-.09.12-.08L29,9.15l.15-.1L29.19,9l.1-.08.06-.05.16-.11.1-.06.14-.08.15-.08.21-.1.1,0,.22-.08.15-.05.13,0L31,8.13l.18,0,.31,0H32l.18,0a4.35,4.35,0,0,1,1.21.4l.27.14.13.08.15.1.12.09.12.09.17.14s.19.21.2.21l.1.1.12.11.09.07.25.19a1.65,1.65,0,0,0,.4.2l.15.05.14,0,.28.05a3,3,0,0,0,.31,0h.17L38,9.86l.66-.31,1.24-.25h.56l1.07.23.67.35.91.58.77.67,1,1.3.05,0a.44.44,0,0,0,.38,0l.06,0,.08-.05.07-.06.06,0,.06-.05.07-.06.07-.08.11-.09.12-.07a.6.6,0,0,1,.29-.06h.16a1.05,1.05,0,0,1,.31.07,2.25,2.25,0,0,1,.37.15l.51.3a4.8,4.8,0,0,1,.39.29l.28.25.34.32.26.25.26.29.18.19.19.17a1,1,0,0,0,.2.14h0l.11,0,.13,0,.19,0a2.06,2.06,0,0,0,.27,0H51l.2,0,.24,0a1.36,1.36,0,0,1,.58,0,2.66,2.66,0,0,1,.54.14l.3.14a5.52,5.52,0,0,1,.78.47,10.62,10.62,0,0,1,.92.78l.24.22.22.23.16.17.12.13a1.19,1.19,0,0,0,.48.28,4.17,4.17,0,0,0,.79.17,4.22,4.22,0,0,0,.6,0l.45-.05a7,7,0,0,0,.71-.14l.54-.15s.51-.16.75-.27l.37-.15" style="fill:none;stroke:#231f20;stroke-miterlimit:22.92558479309082;stroke-width:0.5px"/><path d="M49.91,42.44a6.17,6.17,0,0,1-1.86-5.2l.53-.39a2.73,2.73,0,0,0,.26-.67c0-.17.2-1.07.2-1.17" style="fill:none;stroke:#000;stroke-linejoin:round;stroke-width:0.5px"/><path d="M4.53.38H60.1L60,31.68c0-.16-.78,10-13.42,15.89.19.14-10.09,4-13.89,7.35,0,0-3.92-3.08-12-6.17A26.67,26.67,0,0,1,8,39.51s-2.46-2-3.47-9.49V.38Z" style="fill:none;stroke:#000;stroke-miterlimit:22.92558479309082;stroke-width:0.75px"/><g style="clip-path:url(#f9d8b974-532c-4266-9e3d-ea104f98a14c)"><rect x="0.2" y="44.93" width="10.84" height="6.29" style="fill:url(#ee47b263-8399-4879-9533-1f00dcaae79c)"/></g><path d="M.45,45.13H11l-1.3,6.08H.64l1.61-2.89S.2,44.93.45,45.13Z" style="fill:none;stroke:#000;stroke-miterlimit:22.92558479309082;stroke-width:0.75px"/><path d="M11.07,49.06V45.23L7.27,48v5l7.35,1.84v-5L7.36,48.13S11,49.06,11.07,49.06Z" style="fill:#fff;fill-rule:evenodd"/><path d="M11.07,49.06V45.23L7.27,48v5l7.35,1.84v-5L7.36,48.13S11,49.06,11.07,49.06Z" style="fill:none;stroke:#000;stroke-miterlimit:22.92558479309082;stroke-width:0.75px"/><path d="M48.68,52.21l2.68-.67,0,2.36,4.21-.85V48.37L48.67,50l2.69,1.58S48.56,52.24,48.68,52.21Z" style="fill:#fff;fill-rule:evenodd"/><path d="M48.68,52.21l2.68-.67,0,2.36,4.21-.85V48.37L48.67,50l2.69,1.58S48.56,52.24,48.68,52.21Z" style="fill:none;stroke:#000;stroke-miterlimit:22.92558479309082;stroke-width:0.75px"/><line x1="52.36" y1="45.59" x2="55.42" y2="48.17" style="fill:none;stroke:#000;stroke-miterlimit:22.92558479309082;stroke-width:0.75px"/><path d="M52.39,45.15v4l3.15-.7S52.27,45,52.39,45.15Z" style="fill:#fff;fill-rule:evenodd"/><path d="M52.39,45.15v4l3.15-.7S52.27,45,52.39,45.15Z" style="fill:none;stroke:#000;stroke-miterlimit:22.92558479309082;stroke-width:0.75px"/><g style="clip-path:url(#f2045ac5-7a20-4f87-905d-0c0e74070d25)"><rect x="52.13" y="45.01" width="10.57" height="5.97" style="fill:url(#b84652d0-151f-4686-a590-63e5d4416ef7)"/></g><path d="M52.36,45H62.7L60.64,48.4,62.56,51h-7V48.4A43.12,43.12,0,0,1,52.36,45Z" style="fill:none;stroke:#000;stroke-miterlimit:22.92558479309082;stroke-width:0.75px"/><polygon points="14.65 49.88 11.65 51.33 11.66 55.89 31.33 60.34 33.43 60.34 51.34 56.65 51.36 51.53 48.67 49.95 48.68 52.21 32.39 55.69 11.88 51.27 14.65 49.88" style="fill:#fff;fill-rule:evenodd"/><polygon points="14.65 49.88 11.65 51.33 11.66 55.89 31.33 60.34 33.43 60.34 51.34 56.65 51.36 51.53 48.67 49.95 48.68 52.21 32.39 55.69 11.88 51.27 14.65 49.88" style="fill:none;stroke:#000;stroke-miterlimit:22.92558479309082;stroke-width:0.75px"/><path d="M50,54.13l-.12,0a1.13,1.13,0,0,0-.21-.24.45.45,0,0,0-.25-.11.35.35,0,0,0-.14,0l-.14,0-.33.06.15.88.24,0,.15,0a.23.23,0,0,0,.12-.1.37.37,0,0,0,.05-.15.52.52,0,0,0,0-.17l.12,0,.17,1-.12,0a.48.48,0,0,0-.08-.16.38.38,0,0,0-.1-.13.35.35,0,0,0-.14-.06h-.17l-.23,0,.11.66a1,1,0,0,0,0,.16.22.22,0,0,0,.07.09l.12,0,.19,0,.13,0,.14,0,.12,0a.19.19,0,0,0,.08-.07,1.13,1.13,0,0,0,.13-.27c0-.12.07-.21.09-.26l.11,0,.08.72-2.13.38,0-.13.12,0,.1,0a.13.13,0,0,0,.07-.08.28.28,0,0,0,0-.1l-.29-1.62a.12.12,0,0,0,0-.09s-.05,0-.1-.06h-.24l0-.13,2-.36Zm-2.14.49-.12,0a1.08,1.08,0,0,0-.22-.28.37.37,0,0,0-.23-.15h-.13l-.13,0h-.08l.32,1.8a.3.3,0,0,0,0,.1.15.15,0,0,0,.09.06h.26l0,.13-1.27.23,0-.13.13,0,.11,0a.13.13,0,0,0,.07-.08.21.21,0,0,0,0-.11l-.31-1.82-.08,0-.13,0-.12,0c-.06,0-.12.09-.17.22a1.33,1.33,0,0,0-.11.34l-.12,0-.12-.65,2.21-.4ZM45.35,55l-.12,0a1.13,1.13,0,0,0-.21-.24.52.52,0,0,0-.25-.12h-.14l-.14,0-.33,0,.16.89.23,0,.16,0a.35.35,0,0,0,.11-.1.57.57,0,0,0,.06-.15.51.51,0,0,0,0-.17l.13,0,.16,1-.12,0A.63.63,0,0,0,45,56a.32.32,0,0,0-.1-.12.18.18,0,0,0-.13-.06.49.49,0,0,0-.17,0l-.24,0,.12.66a.53.53,0,0,0,0,.16s0,.07.07.08a.16.16,0,0,0,.12,0l.19,0,.14,0,.13,0a.33.33,0,0,0,.12-.05.1.1,0,0,0,.08-.06.85.85,0,0,0,.13-.27,1.38,1.38,0,0,0,.09-.27l.12,0,.08.72-2.14.38,0-.12.12,0,.11,0a.18.18,0,0,0,.07-.08.17.17,0,0,0,0-.1l-.28-1.62a.19.19,0,0,0,0-.09s-.05,0-.09-.06h-.25l0-.13,2-.36Zm-2.1.49-.13,0a1.61,1.61,0,0,0-.21-.29c-.09-.1-.17-.15-.23-.14h-.13l-.13,0h-.08l.32,1.8a.29.29,0,0,0,0,.1s.05,0,.1,0H43l0,.13-1.27.22,0-.12.12,0,.12,0s.06-.05.07-.09a.17.17,0,0,0,0-.1l-.32-1.82-.07,0-.13,0-.13,0c-.06,0-.11.09-.17.21a1.34,1.34,0,0,0-.1.35l-.13,0-.11-.66,2.2-.39Zm-4.14.72-.12,0a1.13,1.13,0,0,0-.21-.24.56.56,0,0,0-.25-.12h-.14l-.14,0-.33,0,.15.89.24,0a.53.53,0,0,0,.15-.05.29.29,0,0,0,.12-.1.37.37,0,0,0,.05-.15.56.56,0,0,0,0-.17l.12,0,.17,1-.12,0a.63.63,0,0,0-.08-.17.44.44,0,0,0-.1-.12A.2.2,0,0,0,38.5,57a.51.51,0,0,0-.17,0l-.23,0,.11.66a1,1,0,0,0,0,.16.11.11,0,0,0,.07.08.16.16,0,0,0,.12,0l.19,0,.13,0,.14,0,.12-.05a.1.1,0,0,0,.08-.06,1.13,1.13,0,0,0,.13-.27,1.38,1.38,0,0,0,.09-.27l.11,0,.08.73-2.13.37,0-.12.12,0,.1,0a.13.13,0,0,0,.07-.08.31.31,0,0,0,0-.1l-.29-1.62a.12.12,0,0,0,0-.09.14.14,0,0,0-.1-.06H37L37,56l2-.36Zm-2.82,1.88a.81.81,0,0,0,.06-.33,1.5,1.5,0,0,0,0-.41A2,2,0,0,0,36.2,57a1.12,1.12,0,0,0-.2-.3.74.74,0,0,0-.27-.16.72.72,0,0,0-.33,0l-.12,0-.11,0,.31,1.74a.17.17,0,0,0,0,.1l.07.07a.23.23,0,0,0,.1,0h.14a.68.68,0,0,0,.3-.12A.46.46,0,0,0,36.29,58.13Zm0-1.7a1,1,0,0,1,.4.31,1,1,0,0,1,.23.53,1.16,1.16,0,0,1,0,.53,1.06,1.06,0,0,1-.24.41,1.3,1.3,0,0,1-.4.28,2,2,0,0,1-.5.16l-1.15.2,0-.12.13,0,.1,0s.06,0,.07-.08a.2.2,0,0,0,0-.11l-.28-1.62a.3.3,0,0,0,0-.1.14.14,0,0,0-.1-.06h-.24l0-.12,1.21-.22a1.91,1.91,0,0,1,.42,0A1.24,1.24,0,0,1,36.33,56.43Zm-4.25,2.3a1,1,0,0,0,.17-.31,2.2,2.2,0,0,0,.12-.41,3.1,3.1,0,0,0,.06-.39,1.38,1.38,0,0,0,0-.36.62.62,0,0,0-.13-.27.4.4,0,0,0-.26-.15.49.49,0,0,0-.5.18,1.64,1.64,0,0,0-.31.75,3.12,3.12,0,0,0-.06.41,1.25,1.25,0,0,0,0,.35.64.64,0,0,0,.13.26.44.44,0,0,0,.26.14.52.52,0,0,0,.28,0A.58.58,0,0,0,32.08,58.73Zm.75-1.55a1.28,1.28,0,0,1,.19.43,1.31,1.31,0,0,1,0,.52,1.23,1.23,0,0,1-.18.46,1,1,0,0,1-.32.33,1.14,1.14,0,0,1-.44.18,1.3,1.3,0,0,1-.55,0,1.25,1.25,0,0,1-.45-.18,1,1,0,0,1-.33-.32,1.12,1.12,0,0,1-.18-.93,1.27,1.27,0,0,1,.2-.49,1.07,1.07,0,0,1,.34-.33,1.11,1.11,0,0,1,.44-.16,1.41,1.41,0,0,1,.5,0,1.44,1.44,0,0,1,.46.19A1.23,1.23,0,0,1,32.83,57.18Zm-2.72,1.55-1.25-.27,0-.13.13,0h.12a.13.13,0,0,0,.09,0,.31.31,0,0,0,.05-.1l.34-1.61a.33.33,0,0,0,0-.1.18.18,0,0,0-.07-.09l-.11-.06-.12-.05,0-.12,1.25.27,0,.12h-.25a.11.11,0,0,0-.09,0,.13.13,0,0,0,0,.09l-.34,1.62a.17.17,0,0,0,0,.1.16.16,0,0,0,.06.08l.11.06.13,0Zm-1.68-2a.58.58,0,0,0,0-.4.43.43,0,0,0-.34-.2l-.13,0-.21,1h.07a.58.58,0,0,0,.42,0A.48.48,0,0,0,28.43,56.68Zm.64,0a.56.56,0,0,1-.15.32.68.68,0,0,1-.26.18,1,1,0,0,1-.36.06,2.37,2.37,0,0,1-.42,0l-.18,0-.14.64v.1a.15.15,0,0,0,.07.09l.1,0a.28.28,0,0,0,.12,0l0,.13L26.59,58l0-.13.13,0h.11a.19.19,0,0,0,.09-.05.19.19,0,0,0,.05-.1l.33-1.6a.2.2,0,0,0,0-.11s0-.05-.06-.08l-.11-.06-.11-.05,0-.12,1.24.27a1.23,1.23,0,0,1,.63.28A.49.49,0,0,1,29.07,56.73ZM26.79,55a.17.17,0,0,1-.06.1.46.46,0,0,1-.14,0l-.29.05-.44.07,0-.07.29-.19.22-.15a.33.33,0,0,1,.13-.07h.13a.27.27,0,0,1,.16.08A.13.13,0,0,1,26.79,55Zm-.4,2.88-1.26-.27,0-.13.13,0h.12a.19.19,0,0,0,.09,0,.13.13,0,0,0,0-.09l.34-1.62a.17.17,0,0,0,0-.1s0-.06-.06-.09l-.11-.05-.12,0,0-.13,1.26.27,0,.12h-.25a.16.16,0,0,0-.1,0,.36.36,0,0,0,0,.09l-.34,1.62a.17.17,0,0,0,0,.1.18.18,0,0,0,.07.09l.11,0,.12,0ZM24,57.46a1.25,1.25,0,0,1-.45-.18,1.05,1.05,0,0,1-.32-.31,1.08,1.08,0,0,1-.17-.43A1.26,1.26,0,0,1,23,56a1.41,1.41,0,0,1,.19-.47,1.37,1.37,0,0,1,.34-.34,1.15,1.15,0,0,1,.45-.16,1.21,1.21,0,0,1,.5,0,1.5,1.5,0,0,1,.34.12,1.52,1.52,0,0,1,.23.16l.12-.07.14,0-.16.84-.14,0a1.49,1.49,0,0,0-.17-.62.56.56,0,0,0-.37-.27.5.5,0,0,0-.51.17,1.42,1.42,0,0,0-.31.71,1.7,1.7,0,0,0-.05.48,1.06,1.06,0,0,0,.08.34.49.49,0,0,0,.18.22.57.57,0,0,0,.26.12.7.7,0,0,0,.43,0,1.28,1.28,0,0,0,.39-.3l.12.11a.88.88,0,0,1-.21.22,1,1,0,0,1-.24.15,1.09,1.09,0,0,1-.31.08A1.23,1.23,0,0,1,24,57.46Zm-1.38-.35-1.25-.27,0-.12.12,0h.12s.08,0,.1-.05a.19.19,0,0,0,0-.09L22.08,55a.17.17,0,0,0,0-.1A.13.13,0,0,0,22,54.8l-.1-.06-.13-.05,0-.13,1.25.27L23,55h-.13a.24.24,0,0,0-.12,0,.13.13,0,0,0-.1,0,.3.3,0,0,0,0,.1l-.34,1.61a.2.2,0,0,0,0,.11.17.17,0,0,0,.07.08l.1,0,.13.05Zm-.92-2.43h-.14a.23.23,0,0,0-.16,0,.25.25,0,0,0-.11.13,1.59,1.59,0,0,0-.09.3l-.35,1.63-.28-.06-1-2.06-.22,1.07a1.37,1.37,0,0,0,0,.3.26.26,0,0,0,.05.17l.13.1.14.06,0,.13-1-.21,0-.12h.15l.14,0A.3.3,0,0,0,19,56a1.33,1.33,0,0,0,.09-.31l.23-1.08a.38.38,0,0,0,0-.15.24.24,0,0,0,0-.14.63.63,0,0,0-.11-.12.53.53,0,0,0-.15-.08L19,54l.85.18L20.78,56l.19-.86a1,1,0,0,0,0-.31.29.29,0,0,0-.05-.17l-.12-.09-.14-.07,0-.13,1,.21ZM19,54.07h-.14a.24.24,0,0,0-.15,0,.22.22,0,0,0-.12.13,1.74,1.74,0,0,0-.09.31l-.18.85a.77.77,0,0,1-.38.54.94.94,0,0,1-.71.09,1.18,1.18,0,0,1-.7-.38.78.78,0,0,1-.14-.67l.25-1.17a.17.17,0,0,0,0-.1.18.18,0,0,0-.07-.09l-.09-.05-.1,0,0-.12,1.18.25,0,.12H17.3a.11.11,0,0,0-.1,0,.3.3,0,0,0,0,.1l-.24,1.15a.72.72,0,0,0,0,.52.57.57,0,0,0,.4.25.58.58,0,0,0,.47-.08.67.67,0,0,0,.26-.46l.17-.78a.93.93,0,0,0,0-.31.29.29,0,0,0-.05-.17.36.36,0,0,0-.13-.09L18,53.86l0-.12L19,54Zm-3.3,1.56-1.22-.26,0-.13h.25a.13.13,0,0,0,.09,0s0-.05,0-.1l.36-1.7L14,55.24l-.2-.05a1.69,1.69,0,0,0,0-.22c0-.11,0-.21,0-.27L13.5,53l-.29,1.38a1,1,0,0,0,0,.31.26.26,0,0,0,.05.17.38.38,0,0,0,.13.1l.13.06,0,.13-1-.21,0-.12h.14a.41.41,0,0,0,.16,0,.31.31,0,0,0,.12-.13c0-.07.05-.17.08-.3l.24-1.13a.51.51,0,0,0,0-.17.5.5,0,0,0,0-.13.47.47,0,0,0-.12-.09L13,52.8l0-.12,1,.22.24,1.62L15,53.4a1,1,0,0,0,.08-.15.42.42,0,0,0,.05-.12l1,.22,0,.12h-.23a.13.13,0,0,0-.09,0,.18.18,0,0,0,0,.1l-.34,1.61a.2.2,0,0,0,0,.11s0,.05.06.08a.46.46,0,0,0,.1.05l.11,0Z"/></g></g></svg>