<svg xmlns="http://www.w3.org/2000/svg" viewBox="0 0 137.38 54.99"><title>EFEM</title><g id="ac9f0d42-ec96-4dd2-8a21-cc10eb8fcd65" data-name="Layer 2"><g id="b4c41105-8633-4792-bc12-685be5610852" data-name="Layer 1"><ellipse cx="27.25" cy="27.49" rx="26.5" ry="26.74"/><ellipse cx="27.25" cy="27.49" rx="26.5" ry="26.74" style="fill:none;stroke:#000;stroke-miterlimit:2.613126039505005;stroke-width:1.500100016593933px"/><ellipse cx="27.25" cy="27.49" rx="23.97" ry="24.19" style="fill:#cb0000"/><ellipse cx="27.25" cy="27.49" rx="23.97" ry="24.19" style="fill:none;stroke:#000;stroke-miterlimit:2.613126039505005;stroke-width:1.4172999858856201px"/><rect x="2.93" y="27.11" width="48.82" height="4.59"/><path d="M6.63,27.49A20.73,20.73,0,0,1,27,6.68l-.24,4.44a16.41,16.41,0,0,0-9.69,29.12h0L14.4,43.77A20.83,20.83,0,0,1,6.63,27.49"/><path d="M14.36,27.49a12.89,12.89,0,1,1,25.78,0,13.14,13.14,0,0,1-.1,1.67L36,29a9.7,9.7,0,0,0,.13-1.54,8.83,8.83,0,1,0-8.83,8.91,8.74,8.74,0,0,0,5.17-1.69l2.85,3a12.75,12.75,0,0,1-8,2.82,13,13,0,0,1-12.89-13"/><path d="M86.92,14.13V40.72h17V36.47H91.86v-7h10.56V25.23H91.72v-7h12.07V14.13Zm29.55,26.59V22.25l6.29,12.1h3l6.48-12,0,18.26h4.87L137,14.2H132l-7.54,14.53-7.58-14.46h-5.17v26.6ZM62.39,14.13H78.56v4.25H67.18v7.4h9.74V30H67.18V40.86H62.25Z" style="fill-rule:evenodd"/><path d="M86.92,14.13V40.72h17V36.47H91.86v-7h10.56V25.23H91.72v-7h12.07V14.13Zm29.55,26.59V22.25l6.29,12.1h3l6.48-12,0,18.26h4.87L137,14.2H132l-7.54,14.53-7.58-14.46h-5.17v26.6ZM62.39,14.13H78.56v4.25H67.18v7.4h9.74V30H67.18V40.86H62.25Z" style="fill:none;stroke:#231f20;stroke-miterlimit:2.613126039505005;stroke-width:0.5669000148773193px"/></g></g></svg>