<svg xmlns="http://www.w3.org/2000/svg" viewBox="0 0 98.28 61.57"><title>EPC</title><g id="b5f299d9-bd93-43d9-b8e9-2b7e40f498d2" data-name="Layer 2"><g id="eb7d3bed-4b74-4178-80ee-a2885d140f73" data-name="Layer 1"><path d="M48.87,43h0c-1.69,0-2.35,1.11-2.65,2.56h5.46A2.68,2.68,0,0,0,48.87,43m1,12.63c-4.85,0-9.31-2.38-9.31-8.22,0-5.12,3.69-8,8.35-8,5.27,0,8.84,3.45,8.84,9H46.18a3.46,3.46,0,0,0,3.73,3.24,8.24,8.24,0,0,0,5.54-1.64l2.54,3A12.46,12.46,0,0,1,49.91,55.63Z" style="fill:#da5a04"/><path d="M70.43,44h0A3.36,3.36,0,0,0,67,47.59a3.41,3.41,0,1,0,6.81,0A3.4,3.4,0,0,0,70.43,44M72,55.63a6.59,6.59,0,0,1-5-2v7.93H61V39.87h6v1.57a6.59,6.59,0,0,1,5-2,7.8,7.8,0,0,1,7.77,8.08A7.89,7.89,0,0,1,72,55.63Z" style="fill:#da5a04"/><path d="M91,55.63c-5.23,0-9.11-3.49-9.11-8S85.7,39.44,91,39.44a8.52,8.52,0,0,1,6.74,2.85l-3.43,3A4.54,4.54,0,0,0,91,43.82a3.54,3.54,0,0,0-3.57,3.77A3.64,3.64,0,0,0,91,51.29a4,4,0,0,0,3.28-1.57l4,2.6A8.65,8.65,0,0,1,91,55.63" style="fill:#da5a04"/><polygon points="16.39 39.55 23.14 32.8 13.5 23.15 29.89 6.76 23.14 0 0 23.15 16.39 39.55" style="fill:#626c71"/><rect x="16.37" y="29.95" width="23.18" height="9.55" transform="translate(-16.36 29.92) rotate(-44.97)" style="fill:#da5a04"/><rect x="29.94" y="6.74" width="9.55" height="23.19" transform="translate(-2.8 29.91) rotate(-44.99)" style="fill:#fbb21b"/></g></g></svg>