<svg xmlns="http://www.w3.org/2000/svg" viewBox="0 0 59.09 55.01"><title>FDE</title><g id="b600bc5f-2f91-4573-a27e-cc8f6885b7ae" data-name="Layer 2"><g id="b13273b7-15aa-406e-9151-5e5aca7d2906" data-name="Layer 1"><path d="M28.44,31.93h2.21v3.89H28.44Zm.08-6.09h2.05v3.89H28.52Zm.18-6h1.69v3.88H28.7Zm.18-5.9h1.33v3.89H28.88ZM29,7h1.16v3.89H29Zm.54-7L30,.81h-.9V4.46H30V.83L54.06,41.39H30.85v-3.3H28.24v3.3H5Z" style="fill-rule:evenodd"/><path d="M4.75,46.56v-3.3H7v.39H5.19v1H6.73v.39H5.19v1.5Z" style="fill:#00adee"/><path d="M9.71,43.26h.44v1.91A2.15,2.15,0,0,1,10,46a1,1,0,0,1-.4.47,1.41,1.41,0,0,1-.78.19,1.63,1.63,0,0,1-.75-.16A.88.88,0,0,1,7.68,46a2,2,0,0,1-.13-.82V43.26H8v1.91a1.72,1.72,0,0,0,.08.63.58.58,0,0,0,.27.31.9.9,0,0,0,.48.11A.91.91,0,0,0,9.5,46a1.25,1.25,0,0,0,.21-.84Z" style="fill:#00adee"/><path d="M10.87,46.56v-3.3h.45l1.73,2.59V43.26h.42v3.3H13L11.29,44v2.59Z" style="fill:#00adee"/><path d="M14.2,46.56v-3.3h1.14a2.86,2.86,0,0,1,.59.05,1.08,1.08,0,0,1,.48.23,1.35,1.35,0,0,1,.39.57,2.13,2.13,0,0,1,.13.78,2.26,2.26,0,0,1-.09.67,1.78,1.78,0,0,1-.22.48,1.07,1.07,0,0,1-.3.3,1.34,1.34,0,0,1-.4.17,2.73,2.73,0,0,1-.53.05Zm.44-.39h.7a1.81,1.81,0,0,0,.52-.06.74.74,0,0,0,.29-.17.86.86,0,0,0,.24-.42,1.91,1.91,0,0,0,.09-.63,1.59,1.59,0,0,0-.17-.8.8.8,0,0,0-.41-.37,1.61,1.61,0,0,0-.57-.07h-.69Z" style="fill:#00adee"/><path d="M17.4,45a1.81,1.81,0,0,1,.44-1.28A1.49,1.49,0,0,1,19,43.2a1.62,1.62,0,0,1,.82.22,1.43,1.43,0,0,1,.56.61,2,2,0,0,1,.2.89,1.86,1.86,0,0,1-.21.89,1.28,1.28,0,0,1-.57.6,1.62,1.62,0,0,1-.8.21,1.6,1.6,0,0,1-.84-.23,1.41,1.41,0,0,1-.55-.61A1.84,1.84,0,0,1,17.4,45Zm.45,0a1.34,1.34,0,0,0,.32.94,1,1,0,0,0,.81.34,1.07,1.07,0,0,0,.81-.34,1.42,1.42,0,0,0,.32-1,1.68,1.68,0,0,0-.14-.7,1,1,0,0,0-.4-.47,1.07,1.07,0,0,0-.59-.16,1.1,1.1,0,0,0-.8.32A1.42,1.42,0,0,0,17.85,45Z" style="fill:#00adee"/><path d="M22.4,46.56v-3.3h1.14a2.75,2.75,0,0,1,.58.05,1.17,1.17,0,0,1,.49.23,1.45,1.45,0,0,1,.39.57,2.13,2.13,0,0,1,.13.78,2.26,2.26,0,0,1-.09.67,1.78,1.78,0,0,1-.22.48,1.41,1.41,0,0,1-.3.3,1.46,1.46,0,0,1-.4.17,2.73,2.73,0,0,1-.53.05Zm.44-.39h.7a1.69,1.69,0,0,0,.51-.06.72.72,0,0,0,.3-.17,1.06,1.06,0,0,0,.24-.42,1.91,1.91,0,0,0,.09-.63,1.59,1.59,0,0,0-.17-.8.8.8,0,0,0-.41-.37,1.61,1.61,0,0,0-.57-.07h-.69Z" style="fill:#00adee"/><path d="M25.74,46.56v-3.3h2.39v.39H26.18v1H28v.39H26.18v1.12h2v.39Z" style="fill:#00adee"/><path d="M30.1,46.56v-3.3h2.38v.39H30.53v1h1.83v.39H30.53v1.12h2v.39Z" style="fill:#00adee"/><path d="M33,45.5l.42,0a.8.8,0,0,0,.13.41.74.74,0,0,0,.33.26,1.36,1.36,0,0,0,.51.1,1.19,1.19,0,0,0,.44-.08.71.71,0,0,0,.29-.2.49.49,0,0,0,.09-.28.45.45,0,0,0-.09-.28.71.71,0,0,0-.3-.19,4,4,0,0,0-.59-.16,2.5,2.5,0,0,1-.63-.21.77.77,0,0,1-.35-.31.71.71,0,0,1-.12-.41.86.86,0,0,1,.14-.46.82.82,0,0,1,.42-.33,1.46,1.46,0,0,1,.6-.12,1.64,1.64,0,0,1,.65.12.94.94,0,0,1,.43.35,1,1,0,0,1,.16.52l-.42,0a.66.66,0,0,0-.23-.47.86.86,0,0,0-.57-.16,1,1,0,0,0-.58.14.45.45,0,0,0-.18.35.38.38,0,0,0,.13.3,1.82,1.82,0,0,0,.66.23,4.42,4.42,0,0,1,.73.21,1,1,0,0,1,.42.34.84.84,0,0,1,.14.47.94.94,0,0,1-.15.5,1.09,1.09,0,0,1-.43.36,1.62,1.62,0,0,1-.64.13,2,2,0,0,1-.75-.13,1.1,1.1,0,0,1-.48-.4A1.17,1.17,0,0,1,33,45.5Z" style="fill:#00adee"/><path d="M37.08,46.56V43.65H36v-.39h2.62v.39h-1.1v2.91Z" style="fill:#00adee"/><path d="M39.06,46.56v-3.3h1.46a2,2,0,0,1,.68.09.72.72,0,0,1,.36.31,1,1,0,0,1,.14.5.82.82,0,0,1-.23.59,1.12,1.12,0,0,1-.7.31,1,1,0,0,1,.26.16,2.77,2.77,0,0,1,.37.44l.57.9h-.55L41,45.87a5.4,5.4,0,0,0-.31-.45.9.9,0,0,0-.22-.22l-.2-.09H39.5v1.46Zm.44-1.84h.94a1.38,1.38,0,0,0,.46-.06.54.54,0,0,0,.26-.2.53.53,0,0,0,.09-.3.5.5,0,0,0-.17-.38.79.79,0,0,0-.54-.15h-1Z" style="fill:#00adee"/><path d="M42,46.56l1.27-3.3h.47l1.35,3.3h-.5l-.38-1H42.85l-.37,1ZM43,45.21h1.12l-.34-.92c-.11-.28-.19-.5-.24-.68a4.91,4.91,0,0,1-.17.63Z" style="fill:#00adee"/><path d="M45.46,46.56v-3.3H46.6a2.75,2.75,0,0,1,.58.05,1.17,1.17,0,0,1,.49.23,1.45,1.45,0,0,1,.39.57,2.13,2.13,0,0,1,.13.78,2.26,2.26,0,0,1-.09.67,1.78,1.78,0,0,1-.22.48,1.24,1.24,0,0,1-.31.3,1.28,1.28,0,0,1-.39.17,2.73,2.73,0,0,1-.53.05Zm.44-.39h.7a1.69,1.69,0,0,0,.51-.06.72.72,0,0,0,.3-.17,1.06,1.06,0,0,0,.24-.42,1.91,1.91,0,0,0,.09-.63,1.59,1.59,0,0,0-.17-.8.82.82,0,0,0-.42-.37,1.51,1.51,0,0,0-.56-.07H45.9Z" style="fill:#00adee"/><path d="M48.43,46.56l1.26-3.3h.48l1.35,3.3H51l-.39-1H49.25l-.36,1Zm1-1.35H50.5l-.35-.92c-.1-.28-.18-.5-.23-.68a3.73,3.73,0,0,1-.18.63Z" style="fill:#00adee"/><path d="M51.72,45.5l.41,0a.9.9,0,0,0,.13.41.83.83,0,0,0,.34.26,1.35,1.35,0,0,0,.5.1,1.15,1.15,0,0,0,.44-.08.65.65,0,0,0,.29-.2.49.49,0,0,0,.09-.28.45.45,0,0,0-.09-.28.73.73,0,0,0-.29-.19A4.48,4.48,0,0,0,53,45a2.46,2.46,0,0,1-.64-.21.82.82,0,0,1-.35-.31.71.71,0,0,1-.12-.41.86.86,0,0,1,.14-.46.87.87,0,0,1,.42-.33,1.46,1.46,0,0,1,.6-.12,1.64,1.64,0,0,1,.65.12.95.95,0,0,1,.59.87l-.41,0a.7.7,0,0,0-.23-.47.87.87,0,0,0-.58-.16,1,1,0,0,0-.58.14.45.45,0,0,0-.18.35.42.42,0,0,0,.13.3,1.91,1.91,0,0,0,.66.23,4.42,4.42,0,0,1,.73.21,1.07,1.07,0,0,1,.43.34.83.83,0,0,1,.13.47.94.94,0,0,1-.15.5,1,1,0,0,1-.43.36,1.62,1.62,0,0,1-.64.13,2,2,0,0,1-.75-.13,1,1,0,0,1-.47-.4A1,1,0,0,1,51.72,45.5Z" style="fill:#00adee"/><rect x="1.02" y="47.88" width="57.06" height="0.86"/><path d="M0,54v-3.3H1.14a2.89,2.89,0,0,1,.58,0,1.32,1.32,0,0,1,.49.24,1.49,1.49,0,0,1,.39.56,2.18,2.18,0,0,1,.13.79,2.31,2.31,0,0,1-.09.67,1.78,1.78,0,0,1-.22.48,2.12,2.12,0,0,1-.3.3,1.34,1.34,0,0,1-.4.16,2.09,2.09,0,0,1-.53.06Zm.44-.39h.7a1.69,1.69,0,0,0,.51-.06.72.72,0,0,0,.3-.17A1.22,1.22,0,0,0,2.19,53a2,2,0,0,0,.09-.64,1.55,1.55,0,0,0-.17-.79.87.87,0,0,0-.41-.38,2,2,0,0,0-.57-.06H.44Z"/><path d="M4.92,53.27l.41,0a1,1,0,0,1-.36.57,1.15,1.15,0,0,1-.69.2,1.11,1.11,0,0,1-.83-.32,1.3,1.3,0,0,1-.31-.91,1.34,1.34,0,0,1,.31-.93,1,1,0,0,1,.81-.34,1,1,0,0,1,.78.33,1.27,1.27,0,0,1,.31.92.54.54,0,0,1,0,.11H3.56a1,1,0,0,0,.22.6.67.67,0,0,0,.5.21.65.65,0,0,0,.39-.12A.89.89,0,0,0,4.92,53.27Zm-1.34-.66H4.92a.85.85,0,0,0-.15-.45.62.62,0,0,0-.51-.23.67.67,0,0,0-.47.18A.82.82,0,0,0,3.58,52.61Z"/><path d="M5.83,54v-3.3h.41V54Z"/><path d="M8.5,53.27l.42,0a1.06,1.06,0,0,1-.36.57,1.15,1.15,0,0,1-.69.2A1.1,1.1,0,0,1,7,53.77a1.26,1.26,0,0,1-.31-.91A1.34,1.34,0,0,1,7,51.93a1,1,0,0,1,.81-.34,1,1,0,0,1,.78.33,1.31,1.31,0,0,1,.31.92.54.54,0,0,1,0,.11H7.15a1,1,0,0,0,.22.6.67.67,0,0,0,.5.21.6.6,0,0,0,.38-.12A.74.74,0,0,0,8.5,53.27Zm-1.33-.66H8.51a.77.77,0,0,0-.16-.45.59.59,0,0,0-.5-.23.67.67,0,0,0-.47.18A.82.82,0,0,0,7.17,52.61Z"/><path d="M9.36,54.24l.39,0a.37.37,0,0,0,.14.27.71.71,0,0,0,.41.11.74.74,0,0,0,.43-.11.48.48,0,0,0,.21-.32,2.72,2.72,0,0,0,0-.52.84.84,0,0,1-.66.32.89.89,0,0,1-.76-.36,1.35,1.35,0,0,1-.27-.85,1.61,1.61,0,0,1,.12-.63,1,1,0,0,1,.36-.45,1,1,0,0,1,.55-.16.88.88,0,0,1,.7.34v-.28h.37v2.06a1.94,1.94,0,0,1-.11.8.89.89,0,0,1-.36.36,1.25,1.25,0,0,1-.61.14,1.22,1.22,0,0,1-.69-.19A.66.66,0,0,1,9.36,54.24Zm.33-1.44a1,1,0,0,0,.19.69.59.59,0,0,0,.47.21.62.62,0,0,0,.47-.21,1.06,1.06,0,0,0,.19-.68,1,1,0,0,0-.2-.66.6.6,0,0,0-.47-.22.58.58,0,0,0-.46.22A1,1,0,0,0,9.69,52.8Z"/><path d="M13.56,53.74a1.42,1.42,0,0,1-.44.27,1.11,1.11,0,0,1-.44.08.86.86,0,0,1-.61-.19.64.64,0,0,1-.21-.49.57.57,0,0,1,.08-.32.61.61,0,0,1,.21-.24,1.11,1.11,0,0,1,.29-.13l.36-.06a3.94,3.94,0,0,0,.72-.14v-.11a.41.41,0,0,0-.11-.34.63.63,0,0,0-.46-.14.69.69,0,0,0-.42.1.57.57,0,0,0-.21.35l-.39-.05a.82.82,0,0,1,.18-.41.69.69,0,0,1,.35-.24,1.55,1.55,0,0,1,.55-.09,1.59,1.59,0,0,1,.49.07.64.64,0,0,1,.29.19.56.56,0,0,1,.12.27,2.92,2.92,0,0,1,0,.38V53a4.94,4.94,0,0,0,0,.71.77.77,0,0,0,.1.29h-.42A.7.7,0,0,1,13.56,53.74Zm0-.9a3,3,0,0,1-.66.15,1.29,1.29,0,0,0-.35.08.35.35,0,0,0-.16.13.36.36,0,0,0-.06.2.37.37,0,0,0,.12.27.53.53,0,0,0,.36.1.82.82,0,0,0,.42-.1.66.66,0,0,0,.27-.28,1,1,0,0,0,.06-.4Z"/><path d="M16.12,53.16l.4.05a1,1,0,0,1-.34.65,1,1,0,0,1-.66.23,1,1,0,0,1-.79-.32,1.33,1.33,0,0,1-.29-.92,1.79,1.79,0,0,1,.12-.68.88.88,0,0,1,.4-.43,1.1,1.1,0,0,1,.57-.15,1,1,0,0,1,.63.2.9.9,0,0,1,.32.56l-.39.06a.7.7,0,0,0-.2-.36.53.53,0,0,0-.35-.12.63.63,0,0,0-.5.22,1.37,1.37,0,0,0,0,1.39.58.58,0,0,0,.48.22.57.57,0,0,0,.4-.15A.79.79,0,0,0,16.12,53.16Zm-.94,1.18.12-.4h.3l-.07.24a.52.52,0,0,1,.28.12.26.26,0,0,1,.1.21.37.37,0,0,1-.16.3.75.75,0,0,1-.49.13,1.51,1.51,0,0,1-.32,0l0-.26h.21a.56.56,0,0,0,.3-.06.14.14,0,0,0,.06-.11.08.08,0,0,0,0-.07l-.1-.06Z"/><path d="M18.43,53.74A1.42,1.42,0,0,1,18,54a1.11,1.11,0,0,1-.44.08.86.86,0,0,1-.61-.19.64.64,0,0,1-.21-.49.57.57,0,0,1,.08-.32.61.61,0,0,1,.21-.24,1.11,1.11,0,0,1,.29-.13l.36-.06a3.94,3.94,0,0,0,.72-.14v-.11a.41.41,0,0,0-.11-.34.63.63,0,0,0-.46-.14.69.69,0,0,0-.42.1.57.57,0,0,0-.21.35l-.39-.05a.82.82,0,0,1,.18-.41.69.69,0,0,1,.35-.24,1.55,1.55,0,0,1,.55-.09,1.59,1.59,0,0,1,.49.07.64.64,0,0,1,.29.19.56.56,0,0,1,.12.27,2.92,2.92,0,0,1,0,.38V53a4.94,4.94,0,0,0,0,.71.77.77,0,0,0,.1.29h-.42A.7.7,0,0,1,18.43,53.74Zm-1.35-2.45a.51.51,0,0,1,.13-.37.42.42,0,0,1,.32-.14.9.9,0,0,1,.38.12.46.46,0,0,0,.22.07.15.15,0,0,0,.11,0,.37.37,0,0,0,.05-.16h.29a.53.53,0,0,1-.13.39.42.42,0,0,1-.31.13.91.91,0,0,1-.37-.13.66.66,0,0,0-.22-.08.21.21,0,0,0-.13.05.25.25,0,0,0,0,.16Zm1.31,1.55a3,3,0,0,1-.66.15,1.29,1.29,0,0,0-.35.08.35.35,0,0,0-.16.13.36.36,0,0,0-.06.2.37.37,0,0,0,.12.27.53.53,0,0,0,.36.1.82.82,0,0,0,.42-.1.66.66,0,0,0,.27-.28,1,1,0,0,0,.06-.4Z"/><path d="M19.28,52.84a1.21,1.21,0,0,1,.37-1,1.17,1.17,0,0,1,1.56.06,1.21,1.21,0,0,1,.31.89,1.56,1.56,0,0,1-.14.72A1,1,0,0,1,21,54a1.27,1.27,0,0,1-.58.14,1.08,1.08,0,0,1-.81-.32A1.26,1.26,0,0,1,19.28,52.84Zm.42,0a1,1,0,0,0,.2.69.66.66,0,0,0,1,0,1,1,0,0,0,.2-.7.94.94,0,0,0-.2-.67.66.66,0,0,0-1,0A1,1,0,0,0,19.7,52.84Z"/><path d="M23.33,54v-3.3h1.24a3.07,3.07,0,0,1,.5,0,1.1,1.1,0,0,1,.41.15.86.86,0,0,1,.27.32,1.14,1.14,0,0,1,.1.45,1,1,0,0,1-.27.71,1.26,1.26,0,0,1-1,.3h-.85V54Zm.43-1.73h.86a.94.94,0,0,0,.6-.16.56.56,0,0,0,.18-.44.61.61,0,0,0-.11-.36.47.47,0,0,0-.27-.19,1.88,1.88,0,0,0-.41,0h-.85Z"/><path d="M26.35,54V51.65h.36V52a1,1,0,0,1,.26-.34.47.47,0,0,1,.26-.08.89.89,0,0,1,.42.13l-.14.38a.58.58,0,0,0-.3-.09.41.41,0,0,0-.24.08.44.44,0,0,0-.15.22,1.47,1.47,0,0,0-.07.48V54Z"/><path d="M27.74,52.84a1.24,1.24,0,0,1,.36-1,1.12,1.12,0,0,1,.76-.27,1,1,0,0,1,.8.33,1.21,1.21,0,0,1,.32.89,1.56,1.56,0,0,1-.14.72,1,1,0,0,1-.41.42,1.2,1.2,0,0,1-.57.14,1.07,1.07,0,0,1-.81-.32A1.26,1.26,0,0,1,27.74,52.84Zm.41,0a1,1,0,0,0,.2.69.66.66,0,0,0,.51.23.64.64,0,0,0,.5-.23,1.06,1.06,0,0,0,.2-.7,1,1,0,0,0-.2-.67.67.67,0,0,0-1,0A1,1,0,0,0,28.15,52.84Z"/><path d="M31.12,54l-.91-2.39h.42l.52,1.43q.08.22.15.48.06-.2.15-.45L32,51.65h.42L31.49,54Z"/><path d="M32.76,51.2v-.46h.4v.46Zm0,2.84V51.65h.4V54Z"/><path d="M33.78,54V51.65h.37V52a.83.83,0,0,1,.76-.4,1,1,0,0,1,.39.08.64.64,0,0,1,.27.2.81.81,0,0,1,.13.3,2,2,0,0,1,0,.4V54h-.4V52.58a1.13,1.13,0,0,0,0-.37A.39.39,0,0,0,35.1,52a.51.51,0,0,0-.28-.08.68.68,0,0,0-.45.17.83.83,0,0,0-.18.62V54Z"/><path d="M37.91,53.16l.39.05a1,1,0,0,1-.33.65,1.1,1.1,0,0,1-1.45-.09,1.29,1.29,0,0,1-.3-.92,1.62,1.62,0,0,1,.13-.68.91.91,0,0,1,.39-.43,1.13,1.13,0,0,1,.57-.15,1,1,0,0,1,.64.2,1,1,0,0,1,.32.56l-.4.06a.63.63,0,0,0-.2-.36.5.5,0,0,0-.34-.12.62.62,0,0,0-.5.22,1,1,0,0,0-.19.69,1.11,1.11,0,0,0,.18.7.61.61,0,0,0,.48.22.55.55,0,0,0,.4-.15A.73.73,0,0,0,37.91,53.16Z"/><path d="M38.65,51.2v-.46h.41v.46Zm0,2.84V51.65h.41V54Z"/><path d="M41.24,53.74a1.54,1.54,0,0,1-.44.27,1.12,1.12,0,0,1-.45.08.85.85,0,0,1-.6-.19.64.64,0,0,1-.21-.49.57.57,0,0,1,.08-.32.61.61,0,0,1,.21-.24,1.11,1.11,0,0,1,.29-.13l.36-.06a3.94,3.94,0,0,0,.72-.14v-.11a.41.41,0,0,0-.11-.34.63.63,0,0,0-.46-.14.69.69,0,0,0-.42.1.57.57,0,0,0-.21.35l-.39-.05a.82.82,0,0,1,.18-.41.69.69,0,0,1,.35-.24,1.55,1.55,0,0,1,.55-.09,1.59,1.59,0,0,1,.49.07.6.6,0,0,1,.28.19.57.57,0,0,1,.13.27,2.92,2.92,0,0,1,0,.38V53a4.94,4.94,0,0,0,0,.71.77.77,0,0,0,.1.29h-.42A.7.7,0,0,1,41.24,53.74Zm0-.9a3,3,0,0,1-.66.15,1.29,1.29,0,0,0-.35.08.35.35,0,0,0-.16.13.36.36,0,0,0-.06.2.37.37,0,0,0,.12.27.53.53,0,0,0,.36.1.82.82,0,0,0,.42-.1.66.66,0,0,0,.27-.28,1,1,0,0,0,.06-.4Z"/><path d="M42.23,54v-3.3h.41V54Z"/><path d="M46.1,54v-.3a.77.77,0,0,1-.67.35.92.92,0,0,1-.53-.16,1,1,0,0,1-.37-.44,1.45,1.45,0,0,1-.13-.65,1.66,1.66,0,0,1,.12-.64.91.91,0,0,1,.36-.45.9.9,0,0,1,.53-.16.79.79,0,0,1,.38.09.73.73,0,0,1,.28.24V50.74h.4V54Zm-1.28-1.2a1,1,0,0,0,.19.69.59.59,0,0,0,.46.23.58.58,0,0,0,.45-.22,1,1,0,0,0,.18-.66,1.09,1.09,0,0,0-.19-.72.57.57,0,0,0-.91,0A1.09,1.09,0,0,0,44.82,52.84Z"/><path d="M48.75,53.27l.42,0a1.08,1.08,0,0,1-.37.57,1.15,1.15,0,0,1-.69.2,1.11,1.11,0,0,1-.83-.32,1.5,1.5,0,0,1,0-1.84,1,1,0,0,1,.8-.34,1,1,0,0,1,.79.33,1.31,1.31,0,0,1,.3.92V53H47.39a.91.91,0,0,0,.23.6.66.66,0,0,0,.5.21.64.64,0,0,0,.38-.12A.81.81,0,0,0,48.75,53.27Zm-1.33-.66h1.33a.85.85,0,0,0-.15-.45.61.61,0,0,0-.5-.23.64.64,0,0,0-.47.18A.72.72,0,0,0,47.42,52.61Z"/><path d="M51.77,54V51.13H50.68v-.39h2.61v.39H52.2V54Z"/><path d="M54.82,53.27l.41,0a1,1,0,0,1-.36.57,1.15,1.15,0,0,1-.69.2,1.11,1.11,0,0,1-.83-.32,1.3,1.3,0,0,1-.31-.91,1.34,1.34,0,0,1,.31-.93,1,1,0,0,1,.81-.34,1,1,0,0,1,.78.33,1.27,1.27,0,0,1,.31.92V53H53.46a.91.91,0,0,0,.23.6.66.66,0,0,0,.5.21.64.64,0,0,0,.38-.12A.89.89,0,0,0,54.82,53.27Zm-1.33-.66h1.33a.85.85,0,0,0-.15-.45.61.61,0,0,0-.5-.23.64.64,0,0,0-.47.18A.72.72,0,0,0,53.49,52.61Z"/><path d="M56.63,53.68l.06.35a1.25,1.25,0,0,1-.31,0A.64.64,0,0,1,56,54a.42.42,0,0,1-.17-.18,1.31,1.31,0,0,1,0-.48V52h-.3v-.31h.3v-.6l.4-.24v.84h.41V52h-.41v1.4a.82.82,0,0,0,0,.22.19.19,0,0,0,.07.08.26.26,0,0,0,.14,0Z"/><path d="M58.66,53.27l.42,0a1.08,1.08,0,0,1-.37.57,1.24,1.24,0,0,1-1.51-.12,1.26,1.26,0,0,1-.31-.91,1.29,1.29,0,0,1,.31-.93,1,1,0,0,1,.81-.34,1,1,0,0,1,.78.33,1.31,1.31,0,0,1,.3.92V53H57.31a.91.91,0,0,0,.22.6.67.67,0,0,0,.5.21.6.6,0,0,0,.38-.12A.74.74,0,0,0,58.66,53.27Zm-1.33-.66h1.34a.77.77,0,0,0-.16-.45.6.6,0,0,0-.5-.23.67.67,0,0,0-.47.18A.76.76,0,0,0,57.33,52.61Z"/></g></g></svg>