<svg xmlns="http://www.w3.org/2000/svg" viewBox="0 0 92.87 45.49"><title>IFPELAC</title><g id="a539802b-9ce7-4ed3-ac94-44006821bd1a" data-name="Layer 2"><g id="acfeb163-20d2-42c3-8314-ffcb3885a214" data-name="Layer 1"><rect width="92.87" height="45.49" style="fill:#7fcaad"/><path d="M3.17,6.89V4.56h.31V6.89Z" style="fill:#231f20"/><path d="M4,6.89V4.56h.32L5.56,6.39V4.56h.3V6.89H5.54L4.32,5.06V6.89Z" style="fill:#231f20"/><path d="M6.27,6.14l.3,0a.66.66,0,0,0,.09.29.58.58,0,0,0,.24.18,1,1,0,0,0,.36.07.78.78,0,0,0,.31-.06.38.38,0,0,0,.2-.14.37.37,0,0,0,.07-.2.32.32,0,0,0-.07-.19.43.43,0,0,0-.21-.14l-.41-.11a2.06,2.06,0,0,1-.45-.15.55.55,0,0,1-.25-.22.48.48,0,0,1-.09-.29.59.59,0,0,1,.4-.56,1.18,1.18,0,0,1,.43-.08,1.25,1.25,0,0,1,.45.08A.65.65,0,0,1,8,4.85a.67.67,0,0,1,.11.37l-.29,0a.52.52,0,0,0-.16-.34.69.69,0,0,0-.41-.11.72.72,0,0,0-.41.1.3.3,0,0,0-.13.25.27.27,0,0,0,.09.21,1.41,1.41,0,0,0,.47.17,3.16,3.16,0,0,1,.52.14A.93.93,0,0,1,8,5.9a.63.63,0,0,1,.09.33.65.65,0,0,1-.1.36.7.7,0,0,1-.31.25,1.06,1.06,0,0,1-.45.09,1.36,1.36,0,0,1-.53-.09.72.72,0,0,1-.34-.28A.83.83,0,0,1,6.27,6.14Z" style="fill:#231f20"/><path d="M9.15,6.89V4.83H8.38V4.56h1.85v.27H9.46V6.89Z" style="fill:#231f20"/><path d="M10.6,6.89V4.56h.31V6.89Z" style="fill:#231f20"/><path d="M12.05,6.89V4.83h-.77V4.56h1.85v.27h-.77V6.89Z" style="fill:#231f20"/><path d="M15,4.56h.31V5.91a1.71,1.71,0,0,1-.08.56.71.71,0,0,1-.29.33,1,1,0,0,1-.54.13,1.08,1.08,0,0,1-.54-.11.61.61,0,0,1-.3-.33,1.5,1.5,0,0,1-.09-.58V4.56h.31V5.91a1.18,1.18,0,0,0,.06.44.43.43,0,0,0,.19.23.71.71,0,0,0,.34.07.63.63,0,0,0,.48-.15A.86.86,0,0,0,15,5.91Z" style="fill:#231f20"/><path d="M16.4,6.89V4.83h-.77V4.56h1.85v.27h-.77V6.89Z" style="fill:#231f20"/><path d="M17.64,5.76A1.26,1.26,0,0,1,18,4.85a1,1,0,0,1,.8-.33,1.11,1.11,0,0,1,.58.15,1,1,0,0,1,.4.43,1.46,1.46,0,0,1,.14.63,1.28,1.28,0,0,1-.15.63,1,1,0,0,1-.4.43,1.15,1.15,0,0,1-.57.14,1.07,1.07,0,0,1-.59-.16,1,1,0,0,1-.39-.43A1.3,1.3,0,0,1,17.64,5.76Zm.32,0a1,1,0,0,0,.23.67.75.75,0,0,0,.57.24.72.72,0,0,0,.57-.25,1,1,0,0,0,.23-.69,1.12,1.12,0,0,0-.1-.5.75.75,0,0,0-.28-.33.74.74,0,0,0-.42-.12A.79.79,0,0,0,18.2,5,1,1,0,0,0,18,5.76Z" style="fill:#231f20"/><path d="M21.18,6.89V4.56H22a2.07,2.07,0,0,1,.41,0,.78.78,0,0,1,.34.17.88.88,0,0,1,.28.4,1.59,1.59,0,0,1,.09.55,1.63,1.63,0,0,1-.06.47,1.08,1.08,0,0,1-.16.34.89.89,0,0,1-.21.22.78.78,0,0,1-.28.11,1.48,1.48,0,0,1-.38,0Zm.31-.27H22a1.63,1.63,0,0,0,.36,0,.44.44,0,0,0,.21-.13.74.74,0,0,0,.17-.29,1.53,1.53,0,0,0,.06-.45,1.06,1.06,0,0,0-.12-.56.58.58,0,0,0-.29-.27,1.25,1.25,0,0,0-.4,0h-.49Z" style="fill:#231f20"/><path d="M23.54,6.89V4.56h1.69v.27H23.85v.72h1.29v.27H23.85v.8h1.44v.27Z" style="fill:#231f20"/><path d="M26.63,6.89V4.56h1.58v.27H26.94v.73H28v.27h-1.1V6.89Z" style="fill:#231f20"/><path d="M28.52,5.76a1.26,1.26,0,0,1,.31-.91,1.07,1.07,0,0,1,.81-.33,1.14,1.14,0,0,1,.58.15,1,1,0,0,1,.39.43,1.33,1.33,0,0,1,.14.63,1.39,1.39,0,0,1-.14.63,1,1,0,0,1-.41.43,1.1,1.1,0,0,1-.57.14,1,1,0,0,1-.58-.16,1,1,0,0,1-.4-.43A1.29,1.29,0,0,1,28.52,5.76Zm.32,0a1,1,0,0,0,.22.67.75.75,0,0,0,.57.24.73.73,0,0,0,.58-.25,1,1,0,0,0,.22-.69,1.28,1.28,0,0,0-.09-.5.78.78,0,0,0-.29-.33.73.73,0,0,0-.41-.12.81.81,0,0,0-.57.23A1,1,0,0,0,28.84,5.76Z" style="fill:#231f20"/><path d="M31.15,6.89V4.56h1a1.37,1.37,0,0,1,.47.06.51.51,0,0,1,.26.22.65.65,0,0,1,.1.36.56.56,0,0,1-.16.41.78.78,0,0,1-.5.22.78.78,0,0,1,.19.12,1.7,1.7,0,0,1,.26.31l.4.63h-.39l-.31-.48a3.3,3.3,0,0,0-.22-.32.6.6,0,0,0-.16-.16A.35.35,0,0,0,32,5.87h-.53v1Zm.31-1.3h.67a1.34,1.34,0,0,0,.33,0,.37.37,0,0,0,.18-.14.42.42,0,0,0,.06-.21.36.36,0,0,0-.12-.28.58.58,0,0,0-.38-.1h-.74Z" style="fill:#231f20"/><path d="M33.49,6.89V4.56H34l.55,1.65c.05.16.09.27.11.35l.13-.38.56-1.62h.41V6.89h-.3V4.94l-.67,1.95h-.28l-.68-2v2Z" style="fill:#231f20"/><path d="M36,6.89l.89-2.33h.33l1,2.33H37.8l-.27-.7h-1l-.26.7Zm.67-1h.79l-.24-.64c-.08-.2-.13-.36-.17-.49a3.74,3.74,0,0,1-.12.45Z" style="fill:#231f20"/><path d="M40.06,6.07l.31.08a1,1,0,0,1-.35.58.92.92,0,0,1-.61.2,1.14,1.14,0,0,1-.62-.15.91.91,0,0,1-.36-.45,1.59,1.59,0,0,1-.12-.62,1.31,1.31,0,0,1,.14-.64.91.91,0,0,1,.39-.41,1.23,1.23,0,0,1,.57-.14A1,1,0,0,1,40,4.7a.89.89,0,0,1,.33.5l-.3.07a.73.73,0,0,0-.24-.37.61.61,0,0,0-.39-.12.8.8,0,0,0-.45.13.69.69,0,0,0-.25.35,1.33,1.33,0,0,0-.07.45,1.62,1.62,0,0,0,.08.52.68.68,0,0,0,.27.33.83.83,0,0,0,.4.11.67.67,0,0,0,.44-.15A.76.76,0,0,0,40.06,6.07Zm-.93,1.07.09-.28h.21l0,.17a.34.34,0,0,1,.2.08.21.21,0,0,1,.07.15.26.26,0,0,1-.12.21.53.53,0,0,1-.34.09.82.82,0,0,1-.23,0l0-.18h.15a.36.36,0,0,0,.21,0,.08.08,0,0,0,0-.07.07.07,0,0,0,0-.06l-.06,0Z" style="fill:#231f20"/><path d="M40.5,6.89l.89-2.33h.34l1,2.33h-.35l-.27-.7h-1l-.26.7Zm.56-2.47a.38.38,0,0,1,.09-.27.29.29,0,0,1,.23-.1.6.6,0,0,1,.27.09.37.37,0,0,0,.15.05.11.11,0,0,0,.08,0,.23.23,0,0,0,0-.11h.2a.37.37,0,0,1-.09.27.29.29,0,0,1-.22.09.57.57,0,0,1-.26-.09.4.4,0,0,0-.16-.06.13.13,0,0,0-.09,0,.21.21,0,0,0,0,.12Zm.11,1.51H42l-.24-.64c-.08-.2-.13-.36-.17-.49a3.74,3.74,0,0,1-.12.45Z" style="fill:#231f20"/><path d="M42.84,5.76a1.26,1.26,0,0,1,.31-.91,1,1,0,0,1,.8-.33,1.18,1.18,0,0,1,.59.15,1,1,0,0,1,.39.43,1.46,1.46,0,0,1,.14.63,1.28,1.28,0,0,1-.15.63,1,1,0,0,1-.4.43,1.15,1.15,0,0,1-.57.14,1.09,1.09,0,0,1-.59-.16A1,1,0,0,1,43,6.34,1.29,1.29,0,0,1,42.84,5.76Zm.31,0a1,1,0,0,0,.23.67.75.75,0,0,0,.57.24.72.72,0,0,0,.57-.25,1,1,0,0,0,.23-.69,1.12,1.12,0,0,0-.1-.5.75.75,0,0,0-.28-.33A.74.74,0,0,0,44,4.78a.8.8,0,0,0-.56.23A1,1,0,0,0,43.15,5.76Z" style="fill:#231f20"/><path d="M46.37,6.89V4.56h.88l.36,0a.83.83,0,0,1,.29.11.53.53,0,0,1,.18.23.64.64,0,0,1,.07.31.76.76,0,0,1-.18.51.92.92,0,0,1-.69.2h-.6v.95Zm.31-1.22h.61a.66.66,0,0,0,.42-.11.43.43,0,0,0,.13-.32A.44.44,0,0,0,47.76,5a.38.38,0,0,0-.19-.14l-.29,0h-.6Z" style="fill:#231f20"/><path d="M48.55,6.89V4.56h1a1.41,1.41,0,0,1,.47.06.51.51,0,0,1,.26.22.65.65,0,0,1,.1.36.56.56,0,0,1-.16.41.78.78,0,0,1-.5.22A.78.78,0,0,1,50,6a1.35,1.35,0,0,1,.25.31l.41.63h-.39l-.31-.48a3.3,3.3,0,0,0-.22-.32.6.6,0,0,0-.16-.16.35.35,0,0,0-.14-.06h-.53v1Zm.31-1.3h.67a1.34,1.34,0,0,0,.33,0A.37.37,0,0,0,50,5.41a.42.42,0,0,0,.06-.21A.36.36,0,0,0,50,4.92a.58.58,0,0,0-.38-.1h-.74Z" style="fill:#231f20"/><path d="M50.81,5.76a1.26,1.26,0,0,1,.31-.91,1.07,1.07,0,0,1,.81-.33,1.14,1.14,0,0,1,.58.15,1,1,0,0,1,.4.43,1.45,1.45,0,0,1,.13.63,1.39,1.39,0,0,1-.14.63,1,1,0,0,1-.41.43,1.08,1.08,0,0,1-.56.14,1.07,1.07,0,0,1-.59-.16,1,1,0,0,1-.4-.43A1.29,1.29,0,0,1,50.81,5.76Zm.32,0a.93.93,0,0,0,.23.67.74.74,0,0,0,.56.24.73.73,0,0,0,.58-.25,1,1,0,0,0,.22-.69,1.28,1.28,0,0,0-.09-.5.83.83,0,0,0-.28-.33.79.79,0,0,0-.42-.12.81.81,0,0,0-.57.23A1,1,0,0,0,51.13,5.76Z" style="fill:#231f20"/><path d="M53.46,6.89V4.56H55v.27H53.77v.73h1.09v.27H53.77V6.89Z" style="fill:#231f20"/><path d="M55.49,6.89V4.56h.31V6.89Z" style="fill:#231f20"/><path d="M56.23,6.14l.3,0a.66.66,0,0,0,.09.29.58.58,0,0,0,.24.18,1,1,0,0,0,.36.07.78.78,0,0,0,.31-.06.38.38,0,0,0,.2-.14.37.37,0,0,0,.07-.2.32.32,0,0,0-.07-.19.43.43,0,0,0-.21-.14l-.41-.11a2.44,2.44,0,0,1-.46-.15.57.57,0,0,1-.24-.22.48.48,0,0,1-.09-.29.59.59,0,0,1,.4-.56,1.18,1.18,0,0,1,.43-.08,1.25,1.25,0,0,1,.45.08.65.65,0,0,1,.31.25.67.67,0,0,1,.11.37l-.29,0a.52.52,0,0,0-.16-.34.69.69,0,0,0-.41-.11.72.72,0,0,0-.41.1.3.3,0,0,0-.13.25.27.27,0,0,0,.09.21,1.41,1.41,0,0,0,.47.17,3.16,3.16,0,0,1,.52.14.93.93,0,0,1,.3.24.63.63,0,0,1,.09.33.65.65,0,0,1-.1.36.7.7,0,0,1-.31.25,1.06,1.06,0,0,1-.45.09,1.36,1.36,0,0,1-.53-.09.72.72,0,0,1-.34-.28A.83.83,0,0,1,56.23,6.14Z" style="fill:#231f20"/><path d="M58.41,6.14l.29,0a.83.83,0,0,0,.1.29.62.62,0,0,0,.23.18,1,1,0,0,0,.36.07.75.75,0,0,0,.31-.06.38.38,0,0,0,.2-.14.33.33,0,0,0,0-.39.48.48,0,0,0-.21-.14l-.42-.11a2.55,2.55,0,0,1-.45-.15.67.67,0,0,1-.25-.22.55.55,0,0,1-.08-.29.56.56,0,0,1,.1-.33.61.61,0,0,1,.29-.23,1.18,1.18,0,0,1,.43-.08,1.3,1.3,0,0,1,.46.08.7.7,0,0,1,.42.62l-.3,0a.48.48,0,0,0-.16-.34.67.67,0,0,0-.41-.11.69.69,0,0,0-.4.1.3.3,0,0,0-.13.25.27.27,0,0,0,.09.21,1.32,1.32,0,0,0,.46.17,2.66,2.66,0,0,1,.52.14.76.76,0,0,1,.3.24.56.56,0,0,1,.1.33.66.66,0,0,1-.11.36.68.68,0,0,1-.3.25,1.13,1.13,0,0,1-.45.09,1.42,1.42,0,0,1-.54-.09.69.69,0,0,1-.33-.28A.75.75,0,0,1,58.41,6.14Z" style="fill:#231f20"/><path d="M60.74,6.89V4.56h.31V6.89Z" style="fill:#231f20"/><path d="M61.5,5.76a1.26,1.26,0,0,1,.32-.91,1,1,0,0,1,.8-.33,1.11,1.11,0,0,1,.58.15,1,1,0,0,1,.4.43,1.46,1.46,0,0,1,.14.63,1.28,1.28,0,0,1-.15.63,1,1,0,0,1-.4.43,1.15,1.15,0,0,1-.57.14A1.07,1.07,0,0,1,62,6.77a1,1,0,0,1-.39-.43A1.3,1.3,0,0,1,61.5,5.76Zm.32,0a1,1,0,0,0,.23.67.75.75,0,0,0,.57.24.72.72,0,0,0,.57-.25,1,1,0,0,0,.23-.69,1.12,1.12,0,0,0-.1-.5A.75.75,0,0,0,63,4.9a.74.74,0,0,0-.42-.12.79.79,0,0,0-.56.23A1,1,0,0,0,61.82,5.76Z" style="fill:#231f20"/><path d="M64.13,6.89V4.56h.32l1.23,1.83V4.56H66V6.89h-.32L64.43,5.06V6.89Z" style="fill:#231f20"/><path d="M66.23,6.89l.9-2.33h.33l1,2.33h-.35l-.27-.7h-1l-.26.7Zm.68-1h.79l-.24-.64c-.08-.2-.13-.36-.17-.49a2.54,2.54,0,0,1-.13.45Z" style="fill:#231f20"/><path d="M68.65,6.89V4.56H69V6.62h1.15v.27Z" style="fill:#231f20"/><path d="M71.28,6.89V4.56H73v.27H71.59v.72h1.29v.27H71.59v.8H73v.27Z" style="fill:#231f20"/><path d="M74.36,6.89V4.56h1.69v.27H74.67v.72H76v.27H74.67v.8H76.1v.27Z" style="fill:#231f20"/><path d="M76.43,6.14l.29,0a.66.66,0,0,0,.09.29.58.58,0,0,0,.24.18,1,1,0,0,0,.36.07.78.78,0,0,0,.31-.06.38.38,0,0,0,.2-.14.37.37,0,0,0,.07-.2.26.26,0,0,0-.07-.19.43.43,0,0,0-.21-.14l-.41-.11a2.06,2.06,0,0,1-.45-.15.55.55,0,0,1-.25-.22.48.48,0,0,1-.09-.29.59.59,0,0,1,.4-.56,1.18,1.18,0,0,1,.43-.08,1.25,1.25,0,0,1,.45.08.65.65,0,0,1,.31.25.67.67,0,0,1,.11.37l-.29,0a.52.52,0,0,0-.16-.34.69.69,0,0,0-.41-.11.72.72,0,0,0-.41.1.33.33,0,0,0-.13.25.27.27,0,0,0,.09.21,1.41,1.41,0,0,0,.47.17,3.16,3.16,0,0,1,.52.14.93.93,0,0,1,.3.24.63.63,0,0,1,.09.33.65.65,0,0,1-.1.36.7.7,0,0,1-.31.25,1.06,1.06,0,0,1-.45.09,1.36,1.36,0,0,1-.53-.09.72.72,0,0,1-.34-.28A.74.74,0,0,1,76.43,6.14Z" style="fill:#231f20"/><path d="M79.3,6.89V4.83h-.77V4.56h1.85v.27h-.77V6.89Z" style="fill:#231f20"/><path d="M82.23,4.56h.31V5.91a1.71,1.71,0,0,1-.08.56.66.66,0,0,1-.29.33,1,1,0,0,1-.54.13,1.08,1.08,0,0,1-.54-.11.61.61,0,0,1-.3-.33,1.5,1.5,0,0,1-.09-.58V4.56H81V5.91a1.18,1.18,0,0,0,.06.44.48.48,0,0,0,.19.23.74.74,0,0,0,.34.07.67.67,0,0,0,.49-.15.92.92,0,0,0,.14-.59Z" style="fill:#231f20"/><path d="M83.05,6.89V4.56h.81a2.07,2.07,0,0,1,.41,0,.82.82,0,0,1,.35.17,1,1,0,0,1,.27.4,1.58,1.58,0,0,1,.1.55,1.61,1.61,0,0,1-.07.47.9.9,0,0,1-.16.34.74.74,0,0,1-.21.22.78.78,0,0,1-.28.11,1.4,1.4,0,0,1-.37,0Zm.31-.27h.5a1.49,1.49,0,0,0,.36,0,.44.44,0,0,0,.21-.13.76.76,0,0,0,.18-.29,1.53,1.53,0,0,0,.06-.45,1.06,1.06,0,0,0-.12-.56.6.6,0,0,0-.3-.27,1.21,1.21,0,0,0-.4,0h-.49Z" style="fill:#231f20"/><path d="M85.32,5.76a1.26,1.26,0,0,1,.31-.91,1.06,1.06,0,0,1,.8-.33,1.18,1.18,0,0,1,.59.15,1,1,0,0,1,.39.43,1.46,1.46,0,0,1,.14.63,1.39,1.39,0,0,1-.14.63,1.06,1.06,0,0,1-.41.43,1.12,1.12,0,0,1-.57.14,1.09,1.09,0,0,1-.59-.16,1,1,0,0,1-.39-.43A1.29,1.29,0,0,1,85.32,5.76Zm.31,0a1,1,0,0,0,.23.67.8.8,0,0,0,1.15,0,1,1,0,0,0,.22-.69,1.12,1.12,0,0,0-.1-.5.69.69,0,0,0-.28-.33.73.73,0,0,0-.41-.12.81.81,0,0,0-.57.23A1,1,0,0,0,85.63,5.76Z" style="fill:#231f20"/><path d="M87.84,6.14l.29,0a.83.83,0,0,0,.1.29.58.58,0,0,0,.24.18,1,1,0,0,0,.35.07.79.79,0,0,0,.32-.06.43.43,0,0,0,.2-.14.36.36,0,0,0,.06-.2.31.31,0,0,0-.06-.19.43.43,0,0,0-.21-.14l-.42-.11a2.55,2.55,0,0,1-.45-.15A.67.67,0,0,1,88,5.45a.55.55,0,0,1-.08-.29.64.64,0,0,1,.1-.33.66.66,0,0,1,.29-.23,1.22,1.22,0,0,1,.43-.08,1.26,1.26,0,0,1,.46.08.7.7,0,0,1,.31.25.67.67,0,0,1,.11.37l-.29,0a.49.49,0,0,0-.17-.34.64.64,0,0,0-.4-.11.7.7,0,0,0-.41.1.3.3,0,0,0-.13.25.27.27,0,0,0,.09.21,1.41,1.41,0,0,0,.47.17,2.72,2.72,0,0,1,.51.14.76.76,0,0,1,.3.24.56.56,0,0,1,.1.33.59.59,0,0,1-.11.36.68.68,0,0,1-.3.25,1.13,1.13,0,0,1-.45.09,1.36,1.36,0,0,1-.53-.09A.67.67,0,0,1,88,6.56.83.83,0,0,1,87.84,6.14Z" style="fill:#231f20"/><path d="M22.55,10.54V8.2h.31v2.06H24v.28Z" style="fill:#231f20"/><path d="M24.12,10.54,25,8.2h.33l1,2.34H26l-.27-.71h-1l-.26.71Zm.68-1h.79l-.24-.65c-.08-.19-.13-.36-.17-.48a2.23,2.23,0,0,1-.13.44Z" style="fill:#231f20"/><path d="M26.54,10.54V8.2h.88a1.24,1.24,0,0,1,.43.07.54.54,0,0,1,.25.22.59.59,0,0,1,.09.31.48.48,0,0,1-.08.28.57.57,0,0,1-.24.22.57.57,0,0,1,.32.21.55.55,0,0,1,.12.35.82.82,0,0,1-.07.31.74.74,0,0,1-.17.21.89.89,0,0,1-.26.12,1.92,1.92,0,0,1-.38,0Zm.31-1.36h.51a1.11,1.11,0,0,0,.29,0A.34.34,0,0,0,27.83,9a.32.32,0,0,0,.06-.2.37.37,0,0,0-.06-.21.25.25,0,0,0-.16-.12,1.33,1.33,0,0,0-.35,0h-.47Zm0,1.08h.79a.38.38,0,0,0,.18-.06.37.37,0,0,0,.12-.13.42.42,0,0,0,0-.2.45.45,0,0,0-.07-.23.33.33,0,0,0-.19-.13,1,1,0,0,0-.34,0h-.54Z" style="fill:#231f20"/><path d="M28.64,9.4A1.26,1.26,0,0,1,29,8.49a1.07,1.07,0,0,1,.81-.33,1.06,1.06,0,0,1,.58.16,1,1,0,0,1,.4.43,1.38,1.38,0,0,1,.13.62,1.47,1.47,0,0,1-.14.64.93.93,0,0,1-.41.42,1.09,1.09,0,0,1-.56.15,1.13,1.13,0,0,1-.59-.16,1,1,0,0,1-.4-.44A1.27,1.27,0,0,1,28.64,9.4Zm.32,0a.92.92,0,0,0,.22.66.78.78,0,0,0,.57.24.75.75,0,0,0,.58-.24,1,1,0,0,0,.22-.7,1.31,1.31,0,0,0-.09-.5.78.78,0,0,0-.29-.33.81.81,0,0,0-.41-.11.8.8,0,0,0-.57.22A1,1,0,0,0,29,9.41Z" style="fill:#231f20"/><path d="M31.27,10.54V8.2h1a1.13,1.13,0,0,1,.47.07.47.47,0,0,1,.26.22.6.6,0,0,1,.1.35.57.57,0,0,1-.16.42.9.9,0,0,1-.5.22.63.63,0,0,1,.19.11,1.64,1.64,0,0,1,.26.31l.4.64h-.39l-.31-.49a3.3,3.3,0,0,0-.22-.32,1.23,1.23,0,0,0-.15-.16.47.47,0,0,0-.15-.06h-.53v1Zm.31-1.31h.67a1,1,0,0,0,.33,0,.36.36,0,0,0,.24-.35.34.34,0,0,0-.12-.27.56.56,0,0,0-.38-.11h-.74Z" style="fill:#231f20"/><path d="M33.37,10.54l.9-2.34h.33l.95,2.34H35.2l-.27-.71H34l-.25.71Zm.67-1h.79l-.24-.65-.17-.48a2.2,2.2,0,0,1-.12.44Z" style="fill:#231f20"/><path d="M35.85,10.54V8.2h.31v2.34Z" style="fill:#231f20"/><path d="M36.6,9.79l.29,0a.7.7,0,0,0,.1.29.51.51,0,0,0,.24.18.78.78,0,0,0,.35.07,1,1,0,0,0,.32-.05.44.44,0,0,0,.2-.15.34.34,0,0,0,.06-.2.33.33,0,0,0-.06-.19.51.51,0,0,0-.21-.14l-.42-.11A1.92,1.92,0,0,1,37,9.31a.65.65,0,0,1-.25-.21.6.6,0,0,1-.08-.29.56.56,0,0,1,.1-.33.68.68,0,0,1,.29-.24,1.22,1.22,0,0,1,.43-.08,1.08,1.08,0,0,1,.46.09.62.62,0,0,1,.31.24.67.67,0,0,1,.11.37l-.3,0a.42.42,0,0,0-.16-.33.58.58,0,0,0-.4-.11.63.63,0,0,0-.41.1.3.3,0,0,0-.13.25.25.25,0,0,0,.09.2,1.21,1.21,0,0,0,.47.17,3.45,3.45,0,0,1,.51.15.62.62,0,0,1,.3.24.52.52,0,0,1,.1.33.58.58,0,0,1-.11.35.7.7,0,0,1-.3.26,1.13,1.13,0,0,1-.45.09,1.36,1.36,0,0,1-.53-.09.79.79,0,0,1-.34-.28A.9.9,0,0,1,36.6,9.79Z" style="fill:#231f20"/><path d="M39.36,10.54l.89-2.34h.34l.95,2.34h-.35l-.27-.71h-1l-.26.71Zm.67-1h.79l-.24-.65c-.08-.19-.13-.36-.17-.48a3.17,3.17,0,0,1-.12.44Z" style="fill:#231f20"/><path d="M41.78,10.54V8.2h.3v2.06h1.15v.28Z" style="fill:#231f20"/><path d="M43.59,10.54V8.2h.88a1.18,1.18,0,0,1,.42.07.56.56,0,0,1,.26.22.59.59,0,0,1,.09.31.57.57,0,0,1-.08.28.67.67,0,0,1-.25.22.63.63,0,0,1,.33.21.61.61,0,0,1,.11.35.67.67,0,0,1-.07.31.51.51,0,0,1-.17.21.83.83,0,0,1-.25.12,2,2,0,0,1-.38,0Zm.31-1.36h.5a1.15,1.15,0,0,0,.3,0A.34.34,0,0,0,44.88,9a.32.32,0,0,0,.06-.2.37.37,0,0,0-.06-.21.28.28,0,0,0-.16-.12,1.48,1.48,0,0,0-.36,0H43.9Zm0,1.08h.79a.48.48,0,0,0,.18-.06.37.37,0,0,0,.12-.13.42.42,0,0,0,0-.2A.44.44,0,0,0,45,9.63a.36.36,0,0,0-.19-.13,1,1,0,0,0-.34,0H43.9Z" style="fill:#231f20"/><path d="M45.78,10.54V8.2h1.69v.28H46.09v.71h1.29v.28H46.09v.79h1.44v.28Z" style="fill:#231f20"/><path d="M48,10.54V8.2h1a1.22,1.22,0,0,1,.48.07.5.5,0,0,1,.26.22.68.68,0,0,1,.09.35.57.57,0,0,1-.16.42.86.86,0,0,1-.49.22.7.7,0,0,1,.18.11,1.64,1.64,0,0,1,.26.31l.41.64h-.39l-.31-.49-.22-.32a.8.8,0,0,0-.16-.16.42.42,0,0,0-.14-.06h-.53v1Zm.31-1.31h.66a1,1,0,0,0,.33,0,.37.37,0,0,0,.18-.14.31.31,0,0,0,.07-.21.34.34,0,0,0-.12-.27A.57.57,0,0,0,49,8.46h-.74Z" style="fill:#231f20"/><path d="M50.85,10.54V8.48h-.77V8.2h1.85v.28h-.77v2.06Z" style="fill:#231f20"/><path d="M52.09,9.4a1.3,1.3,0,0,1,.31-.91,1.07,1.07,0,0,1,.81-.33,1,1,0,0,1,.58.16.93.93,0,0,1,.4.43,1.38,1.38,0,0,1,.14.62,1.34,1.34,0,0,1-.15.64.91.91,0,0,1-.4.42,1.16,1.16,0,0,1-1.16,0,1,1,0,0,1-.39-.44A1.27,1.27,0,0,1,52.09,9.4Zm.32,0a.93.93,0,0,0,.23.66.8.8,0,0,0,1.14,0,1,1,0,0,0,.23-.7,1.31,1.31,0,0,0-.1-.5.75.75,0,0,0-.28-.33.82.82,0,0,0-.42-.11.78.78,0,0,0-.56.22A1,1,0,0,0,52.41,9.41Z" style="fill:#231f20"/><path d="M57.3,9.72l.3.08a1.09,1.09,0,0,1-.34.58,1,1,0,0,1-.62.2,1.08,1.08,0,0,1-.62-.16,1.06,1.06,0,0,1-.36-.44,1.64,1.64,0,0,1-.12-.63,1.39,1.39,0,0,1,.14-.63,1,1,0,0,1,.4-.42,1.19,1.19,0,0,1,.56-.14.94.94,0,0,1,.59.18,1,1,0,0,1,.34.5l-.31.08A.75.75,0,0,0,57,8.54a.71.71,0,0,0-.39-.11.73.73,0,0,0-.45.13.68.68,0,0,0-.26.34,1.41,1.41,0,0,0-.07.45,1.38,1.38,0,0,0,.09.52.56.56,0,0,0,.27.33.68.68,0,0,0,.39.11.65.65,0,0,0,.44-.15A.79.79,0,0,0,57.3,9.72Z" style="fill:#231f20"/><path d="M57.73,10.54l.9-2.34H59l.95,2.34h-.35l-.27-.71h-1l-.25.71Zm.67-1h.79L59,8.93c-.07-.19-.13-.36-.16-.48a3.19,3.19,0,0,1-.13.44Z" style="fill:#231f20"/><path d="M60.06,9.79l.29,0a.59.59,0,0,0,.09.29.51.51,0,0,0,.24.18.83.83,0,0,0,.36.07,1,1,0,0,0,.31-.05.39.39,0,0,0,.2-.15.29.29,0,0,0,.07-.2.28.28,0,0,0-.07-.19.51.51,0,0,0-.21-.14l-.41-.11a1.63,1.63,0,0,1-.45-.15.59.59,0,0,1-.25-.21.51.51,0,0,1-.08-.29.56.56,0,0,1,.1-.33.58.58,0,0,1,.29-.24A1.18,1.18,0,0,1,61,8.16a1.14,1.14,0,0,1,.46.09.6.6,0,0,1,.3.24.67.67,0,0,1,.11.37l-.29,0a.49.49,0,0,0-.16-.33A.61.61,0,0,0,61,8.44a.65.65,0,0,0-.41.1.33.33,0,0,0-.13.25.25.25,0,0,0,.09.2,1.21,1.21,0,0,0,.47.17,4.18,4.18,0,0,1,.52.15.73.73,0,0,1,.3.24.59.59,0,0,1,.1.33.66.66,0,0,1-.11.35.72.72,0,0,1-.31.26,1.06,1.06,0,0,1-.45.09,1.36,1.36,0,0,1-.53-.09.93.93,0,0,1-.34-.28A.79.79,0,0,1,60.06,9.79Z" style="fill:#231f20"/><path d="M62.23,9.79l.29,0a.7.7,0,0,0,.1.29.51.51,0,0,0,.24.18.78.78,0,0,0,.35.07,1,1,0,0,0,.32-.05.44.44,0,0,0,.2-.15.34.34,0,0,0,.06-.2.33.33,0,0,0-.06-.19.51.51,0,0,0-.21-.14l-.42-.11a1.92,1.92,0,0,1-.45-.15.65.65,0,0,1-.25-.21.6.6,0,0,1-.08-.29.56.56,0,0,1,.1-.33.68.68,0,0,1,.29-.24,1.22,1.22,0,0,1,.43-.08,1.08,1.08,0,0,1,.46.09.62.62,0,0,1,.31.24.67.67,0,0,1,.11.37l-.3,0a.46.46,0,0,0-.16-.33.58.58,0,0,0-.4-.11.63.63,0,0,0-.41.1.3.3,0,0,0-.13.25.25.25,0,0,0,.09.2,1.14,1.14,0,0,0,.47.17,3.45,3.45,0,0,1,.51.15.62.62,0,0,1,.3.24.52.52,0,0,1,.1.33.58.58,0,0,1-.11.35.7.7,0,0,1-.3.26,1.13,1.13,0,0,1-.45.09,1.36,1.36,0,0,1-.53-.09.79.79,0,0,1-.34-.28A.9.9,0,0,1,62.23,9.79Z" style="fill:#231f20"/><path d="M64.57,10.54V8.2h.3v2.34Z" style="fill:#231f20"/><path d="M65.41,10.54V8.2h.46l.56,1.66.11.34c0-.08.07-.21.12-.37l.56-1.63h.42v2.34h-.3v-2l-.68,2h-.28l-.67-2v2Z" style="fill:#231f20"/><path d="M68,9.4a1.3,1.3,0,0,1,.31-.91,1.07,1.07,0,0,1,.81-.33,1,1,0,0,1,.58.16.93.93,0,0,1,.4.43,1.38,1.38,0,0,1,.14.62,1.34,1.34,0,0,1-.15.64.91.91,0,0,1-.4.42,1.16,1.16,0,0,1-1.16,0,1,1,0,0,1-.39-.44A1.27,1.27,0,0,1,68,9.4Zm.32,0a.93.93,0,0,0,.23.66.8.8,0,0,0,1.14,0,1,1,0,0,0,.23-.7,1.31,1.31,0,0,0-.1-.5.75.75,0,0,0-.28-.33.85.85,0,0,0-.42-.11.78.78,0,0,0-.56.22A1,1,0,0,0,68.36,9.41Z" style="fill:#231f20"/><path d="M3.84,30.44V18.6a2,2,0,0,1,.42-1.39,1.42,1.42,0,0,1,1.08-.46,1.49,1.49,0,0,1,1.12.46,2,2,0,0,1,.42,1.39V30.44a2,2,0,0,1-.42,1.39,1.46,1.46,0,0,1-1.12.46,1.41,1.41,0,0,1-1.08-.46A2,2,0,0,1,3.84,30.44Z" style="fill:#00a551"/><path d="M19.26,19.36h-6V23.2h5a1.5,1.5,0,0,1,1,.31,1.08,1.08,0,0,1,.34.84,1,1,0,0,1-.35.83,1.53,1.53,0,0,1-1,.31h-5v5a2,2,0,0,1-.43,1.4,1.43,1.43,0,0,1-1.09.45,1.41,1.41,0,0,1-1.1-.46,2,2,0,0,1-.43-1.39V18.88a2.57,2.57,0,0,1,.2-1.08,1.23,1.23,0,0,1,.61-.6A2.48,2.48,0,0,1,12.09,17h7.17a1.57,1.57,0,0,1,1.08.32,1.1,1.1,0,0,1,.36.85,1.08,1.08,0,0,1-.36.85A1.52,1.52,0,0,1,19.26,19.36Z" style="fill:#00a551"/><path d="M28.79,26.18H26v4.26a2,2,0,0,1-.43,1.38,1.53,1.53,0,0,1-2.2,0A2,2,0,0,1,23,30.46V18.88a1.94,1.94,0,0,1,.46-1.44A2.1,2.1,0,0,1,24.89,17h3.9a10.11,10.11,0,0,1,2.67.27,3.88,3.88,0,0,1,1.59.85,3.75,3.75,0,0,1,1,1.45,5.2,5.2,0,0,1,.35,1.94A4.29,4.29,0,0,1,33,25,6.46,6.46,0,0,1,28.79,26.18Zm-.73-6.88H26v4.59h2a6.2,6.2,0,0,0,1.8-.23,2.08,2.08,0,0,0,1.1-.74,2.22,2.22,0,0,0,.38-1.34A2.29,2.29,0,0,0,30.75,20,3.91,3.91,0,0,0,28.06,19.3Z" style="fill:#00a551"/><path d="M46.86,19.36H40v3.69h6.31a1.49,1.49,0,0,1,1,.31,1.05,1.05,0,0,1,.34.82,1.12,1.12,0,0,1-.33.84,1.52,1.52,0,0,1-1,.32H40v4.28H47.1a1.55,1.55,0,0,1,1.08.33,1.15,1.15,0,0,1,.36.89,1.12,1.12,0,0,1-.36.86A1.55,1.55,0,0,1,47.1,32H38.83A1.61,1.61,0,0,1,37,30.17V18.88a2.57,2.57,0,0,1,.2-1.08,1.23,1.23,0,0,1,.61-.6A2.48,2.48,0,0,1,38.83,17h8a1.61,1.61,0,0,1,1.09.32,1.12,1.12,0,0,1,.35.85A1.11,1.11,0,0,1,48,19,1.56,1.56,0,0,1,46.86,19.36Z" style="fill:#00a551"/><path d="M54,18.6V29.53h6.17a1.61,1.61,0,0,1,1.13.36,1.17,1.17,0,0,1,.39.9,1.14,1.14,0,0,1-.39.9,1.66,1.66,0,0,1-1.13.35H52.77a1.91,1.91,0,0,1-1.43-.45,2,2,0,0,1-.44-1.42V18.6a2,2,0,0,1,.42-1.39,1.41,1.41,0,0,1,1.09-.46,1.45,1.45,0,0,1,1.11.46A2,2,0,0,1,54,18.6Z" style="fill:#00a551"/><path d="M73,30.33l-.72-1.88H66.15l-.71,1.92a6.71,6.71,0,0,1-.72,1.53,1.14,1.14,0,0,1-1,.39,1.44,1.44,0,0,1-1-.42,1.3,1.3,0,0,1-.44-.95,2.08,2.08,0,0,1,.1-.64c.07-.22.18-.52.34-.91l3.84-9.76c.11-.28.25-.61.4-1a5.25,5.25,0,0,1,.49-1,2.21,2.21,0,0,1,.69-.63,2.09,2.09,0,0,1,1-.24,2.13,2.13,0,0,1,1.06.24,2.29,2.29,0,0,1,.69.62,5,5,0,0,1,.44.82c.12.29.27.68.45,1.16l3.93,9.7a4.78,4.78,0,0,1,.46,1.61,1.34,1.34,0,0,1-.44,1,1.43,1.43,0,0,1-1.05.43,1.28,1.28,0,0,1-.61-.13,1.13,1.13,0,0,1-.43-.35,3.16,3.16,0,0,1-.38-.67Zm-6-4.17h4.49L69.18,20Z" style="fill:#00a551"/><path d="M90.74,27.29a4.06,4.06,0,0,1-.35,1.55,5.66,5.66,0,0,1-1.11,1.64,5.82,5.82,0,0,1-1.94,1.31,7.07,7.07,0,0,1-2.75.5,9.63,9.63,0,0,1-2.16-.22,6,6,0,0,1-1.77-.71,5.86,5.86,0,0,1-1.46-1.25,7.17,7.17,0,0,1-1-1.59,8.07,8.07,0,0,1-.63-1.87,10.13,10.13,0,0,1-.21-2.11,9.43,9.43,0,0,1,.52-3.25,7,7,0,0,1,1.52-2.45,6.45,6.45,0,0,1,2.3-1.55,7.37,7.37,0,0,1,2.82-.54,7.1,7.1,0,0,1,3.25.73,5.91,5.91,0,0,1,2.18,1.8,3.52,3.52,0,0,1,.76,2,1.32,1.32,0,0,1-.37.93,1.18,1.18,0,0,1-.89.4,1.27,1.27,0,0,1-.88-.28,3.89,3.89,0,0,1-.65-1,4.46,4.46,0,0,0-1.4-1.67,3.38,3.38,0,0,0-2-.56,3.6,3.6,0,0,0-3,1.43,6.46,6.46,0,0,0-1.11,4,7.46,7.46,0,0,0,.49,2.91,3.68,3.68,0,0,0,1.4,1.74,3.85,3.85,0,0,0,2.11.57,3.69,3.69,0,0,0,2.22-.65A4,4,0,0,0,88,27.31a3,3,0,0,1,.48-1,1.08,1.08,0,0,1,.92-.37,1.26,1.26,0,0,1,.93.38A1.24,1.24,0,0,1,90.74,27.29Z" style="fill:#00a551"/><path d="M3.36,29.41V17.57a2,2,0,0,1,.42-1.38,1.41,1.41,0,0,1,1.09-.47A1.45,1.45,0,0,1,6,16.18a2,2,0,0,1,.43,1.39V29.41A2,2,0,0,1,6,30.8a1.42,1.42,0,0,1-1.11.46,1.39,1.39,0,0,1-1.08-.46A2,2,0,0,1,3.36,29.41Z" style="fill:#82c462"/><path d="M18.79,18.33h-6v3.84h5a1.56,1.56,0,0,1,1,.31,1.11,1.11,0,0,1,.34.84,1.06,1.06,0,0,1-.35.83,1.54,1.54,0,0,1-1,.31h-5v4.95a2,2,0,0,1-.42,1.4,1.56,1.56,0,0,1-2.2,0,2,2,0,0,1-.42-1.39V17.85a2.58,2.58,0,0,1,.19-1.08,1.27,1.27,0,0,1,.61-.6A2.51,2.51,0,0,1,11.61,16h7.18a1.6,1.6,0,0,1,1.08.32,1.09,1.09,0,0,1,.35.85,1.07,1.07,0,0,1-.35.85A1.55,1.55,0,0,1,18.79,18.33Z" style="fill:#82c462"/><path d="M28.32,25.15H25.53v4.26a2,2,0,0,1-.43,1.38,1.52,1.52,0,0,1-2.19,0,2,2,0,0,1-.42-1.37V17.85A1.9,1.9,0,0,1,23,16.41,2.1,2.1,0,0,1,24.42,16h3.9a10.22,10.22,0,0,1,2.67.27,4,4,0,0,1,1.59.85,3.75,3.75,0,0,1,1,1.45A5.2,5.2,0,0,1,34,20.49,4.26,4.26,0,0,1,32.53,24,6.41,6.41,0,0,1,28.32,25.15Zm-.74-6.88h-2v4.59h2a6.11,6.11,0,0,0,1.8-.23,2,2,0,0,0,1.1-.74,2.13,2.13,0,0,0,.38-1.34,2.28,2.28,0,0,0-.58-1.62A3.94,3.94,0,0,0,27.58,18.27Z" style="fill:#82c462"/><path d="M46.39,18.33H39.53V22h6.32a1.5,1.5,0,0,1,1,.31,1.06,1.06,0,0,1,.34.83,1.07,1.07,0,0,1-.34.83,1.43,1.43,0,0,1-1,.32H39.53v4.28h7.1a1.59,1.59,0,0,1,1.08.33,1.15,1.15,0,0,1,.36.89,1.12,1.12,0,0,1-.36.86,1.54,1.54,0,0,1-1.08.34H38.35a1.6,1.6,0,0,1-1.86-1.87V17.85a2.58,2.58,0,0,1,.19-1.08,1.27,1.27,0,0,1,.61-.6A2.51,2.51,0,0,1,38.35,16h8a1.58,1.58,0,0,1,1.08.32,1.09,1.09,0,0,1,.35.85,1.07,1.07,0,0,1-.35.85A1.53,1.53,0,0,1,46.39,18.33Z" style="fill:#82c462"/><path d="M53.47,17.57V28.5h6.17a1.61,1.61,0,0,1,1.13.36,1.16,1.16,0,0,1,.4.91,1.14,1.14,0,0,1-.39.89,1.67,1.67,0,0,1-1.14.35H52.29a1.6,1.6,0,0,1-1.86-1.87V17.57a2,2,0,0,1,.41-1.38,1.4,1.4,0,0,1,1.09-.47,1.49,1.49,0,0,1,1.12.46A2,2,0,0,1,53.47,17.57Z" style="fill:#82c462"/><path d="M72.51,29.3l-.72-1.88H65.68L65,29.35a6.8,6.8,0,0,1-.72,1.52,1.13,1.13,0,0,1-1,.39,1.42,1.42,0,0,1-1-.42,1.27,1.27,0,0,1-.44-.95,2.08,2.08,0,0,1,.1-.64c.07-.22.18-.52.34-.91l3.84-9.76c.11-.28.24-.61.39-1a5.12,5.12,0,0,1,.5-1,2,2,0,0,1,.68-.63,2.15,2.15,0,0,1,1-.25,2.1,2.1,0,0,1,1.06.25,1.88,1.88,0,0,1,.69.62,4,4,0,0,1,.44.81c.12.29.27.68.46,1.16l3.92,9.7a4.78,4.78,0,0,1,.46,1.61,1.33,1.33,0,0,1-.43,1,1.43,1.43,0,0,1-1,.43,1.32,1.32,0,0,1-.62-.13,1.3,1.3,0,0,1-.43-.34,3.63,3.63,0,0,1-.37-.68C72.72,29.81,72.6,29.54,72.51,29.3Zm-6-4.17H71l-2.27-6.2Z" style="fill:#82c462"/><path d="M90.27,26.26a3.9,3.9,0,0,1-.36,1.55,5.29,5.29,0,0,1-1.11,1.64,5.49,5.49,0,0,1-1.94,1.31,7,7,0,0,1-2.74.5A9.51,9.51,0,0,1,82,31a6,6,0,0,1-1.77-.71,5.68,5.68,0,0,1-1.46-1.25,7.38,7.38,0,0,1-1-1.58,8.31,8.31,0,0,1-.63-1.88,10.13,10.13,0,0,1-.21-2.11,9.43,9.43,0,0,1,.53-3.25,7,7,0,0,1,1.51-2.45,6.58,6.58,0,0,1,2.31-1.55A7.37,7.37,0,0,1,84,15.72a7.06,7.06,0,0,1,3.24.73,6,6,0,0,1,2.19,1.8,3.59,3.59,0,0,1,.76,2,1.37,1.37,0,0,1-.37.93,1.21,1.21,0,0,1-.89.4,1.25,1.25,0,0,1-.88-.28,3.63,3.63,0,0,1-.65-.95A4.55,4.55,0,0,0,86,18.7a3.42,3.42,0,0,0-2-.56,3.6,3.6,0,0,0-3,1.43A6.46,6.46,0,0,0,80,23.62a7.46,7.46,0,0,0,.49,2.91,3.67,3.67,0,0,0,1.39,1.74,3.88,3.88,0,0,0,2.11.57,3.65,3.65,0,0,0,2.22-.65,3.9,3.9,0,0,0,1.37-1.91,3.25,3.25,0,0,1,.48-1,1.09,1.09,0,0,1,.93-.37,1.26,1.26,0,0,1,.93.38A1.24,1.24,0,0,1,90.27,26.26Z" style="fill:#82c462"/><path d="M2.12,28.64V16.8a2,2,0,0,1,.42-1.39A1.43,1.43,0,0,1,3.63,15a1.42,1.42,0,0,1,1.11.46,2,2,0,0,1,.43,1.39V28.64A2,2,0,0,1,4.74,30a1.42,1.42,0,0,1-1.11.46A1.39,1.39,0,0,1,2.55,30,2,2,0,0,1,2.12,28.64Z" style="fill:#fff"/><path d="M2.12,28.64V16.8a2,2,0,0,1,.42-1.39A1.43,1.43,0,0,1,3.63,15a1.42,1.42,0,0,1,1.11.46,2,2,0,0,1,.43,1.39V28.64A2,2,0,0,1,4.74,30a1.42,1.42,0,0,1-1.11.46A1.39,1.39,0,0,1,2.55,30,2,2,0,0,1,2.12,28.64Z" style="fill:none;stroke:#000;stroke-miterlimit:22.92558479309082;stroke-width:0.5px"/><path d="M17.55,17.56h-6V21.4h5a1.49,1.49,0,0,1,1,.31,1.09,1.09,0,0,1,.35.84,1.06,1.06,0,0,1-.35.83,1.56,1.56,0,0,1-1,.3h-5v5A2,2,0,0,1,11.13,30a1.55,1.55,0,0,1-2.2,0,2,2,0,0,1-.42-1.39V17.07A2.56,2.56,0,0,1,8.7,16a1.23,1.23,0,0,1,.61-.6,2.51,2.51,0,0,1,1.06-.19h7.18a1.6,1.6,0,0,1,1.08.32,1.12,1.12,0,0,1,.35.85,1.11,1.11,0,0,1-.35.85A1.55,1.55,0,0,1,17.55,17.56Z" style="fill:#fff"/><path d="M17.55,17.56h-6V21.4h5a1.49,1.49,0,0,1,1,.31,1.09,1.09,0,0,1,.35.84,1.06,1.06,0,0,1-.35.83,1.56,1.56,0,0,1-1,.3h-5v5A2,2,0,0,1,11.13,30a1.55,1.55,0,0,1-2.2,0,2,2,0,0,1-.42-1.39V17.07A2.56,2.56,0,0,1,8.7,16a1.23,1.23,0,0,1,.61-.6,2.51,2.51,0,0,1,1.06-.19h7.18a1.6,1.6,0,0,1,1.08.32,1.12,1.12,0,0,1,.35.85,1.11,1.11,0,0,1-.35.85A1.55,1.55,0,0,1,17.55,17.56Z" style="fill:none;stroke:#000;stroke-miterlimit:22.92558479309082;stroke-width:0.5px"/><path d="M27.08,24.38H24.29v4.26A2,2,0,0,1,23.86,30a1.51,1.51,0,0,1-2.19,0,2,2,0,0,1-.42-1.36V17.07a1.88,1.88,0,0,1,.46-1.43,2.07,2.07,0,0,1,1.46-.43h3.91a10.08,10.08,0,0,1,2.66.27,3.92,3.92,0,0,1,1.6.85,3.86,3.86,0,0,1,1,1.45,5.2,5.2,0,0,1,.35,1.94,4.29,4.29,0,0,1-1.42,3.48A6.43,6.43,0,0,1,27.08,24.38Zm-.74-6.89H24.29v4.6h2.05a6.11,6.11,0,0,0,1.8-.23,2.1,2.1,0,0,0,1.1-.74,2.22,2.22,0,0,0,.38-1.34A2.28,2.28,0,0,0,29,18.16,3.93,3.93,0,0,0,26.34,17.49Z" style="fill:#fff"/><path d="M27.08,24.38H24.29v4.26A2,2,0,0,1,23.86,30a1.51,1.51,0,0,1-2.19,0,2,2,0,0,1-.42-1.36V17.07a1.88,1.88,0,0,1,.46-1.43,2.07,2.07,0,0,1,1.46-.43h3.91a10.08,10.08,0,0,1,2.66.27,3.92,3.92,0,0,1,1.6.85,3.86,3.86,0,0,1,1,1.45,5.2,5.2,0,0,1,.35,1.94,4.29,4.29,0,0,1-1.42,3.48A6.43,6.43,0,0,1,27.08,24.38Zm-.74-6.89H24.29v4.6h2.05a6.11,6.11,0,0,0,1.8-.23,2.1,2.1,0,0,0,1.1-.74,2.22,2.22,0,0,0,.38-1.34A2.28,2.28,0,0,0,29,18.16,3.93,3.93,0,0,0,26.34,17.49Z" style="fill:none;stroke:#000;stroke-miterlimit:22.92558479309082;stroke-width:0.5px"/><path d="M45.15,17.56H38.29v3.69h6.32a1.5,1.5,0,0,1,1,.31,1.18,1.18,0,0,1,0,1.66,1.49,1.49,0,0,1-1,.32H38.29v4.27h7.09a1.6,1.6,0,0,1,1.09.34,1.15,1.15,0,0,1,.36.88,1.12,1.12,0,0,1-.36.87,1.6,1.6,0,0,1-1.09.33H37.11a1.93,1.93,0,0,1-1.43-.44,2,2,0,0,1-.43-1.42V17.07A2.56,2.56,0,0,1,35.44,16a1.23,1.23,0,0,1,.61-.6,2.51,2.51,0,0,1,1.06-.19h8a1.6,1.6,0,0,1,1.08.32,1.09,1.09,0,0,1,.35.85,1.07,1.07,0,0,1-.35.85A1.55,1.55,0,0,1,45.15,17.56Z" style="fill:#fff"/><path d="M45.15,17.56H38.29v3.69h6.32a1.5,1.5,0,0,1,1,.31,1.18,1.18,0,0,1,0,1.66,1.49,1.49,0,0,1-1,.32H38.29v4.27h7.09a1.6,1.6,0,0,1,1.09.34,1.15,1.15,0,0,1,.36.88,1.12,1.12,0,0,1-.36.87,1.6,1.6,0,0,1-1.09.33H37.11a1.93,1.93,0,0,1-1.43-.44,2,2,0,0,1-.43-1.42V17.07A2.56,2.56,0,0,1,35.44,16a1.23,1.23,0,0,1,.61-.6,2.51,2.51,0,0,1,1.06-.19h8a1.6,1.6,0,0,1,1.08.32,1.09,1.09,0,0,1,.35.85,1.07,1.07,0,0,1-.35.85A1.55,1.55,0,0,1,45.15,17.56Z" style="fill:none;stroke:#000;stroke-miterlimit:22.92558479309082;stroke-width:0.5px"/><path d="M52.23,16.8V27.73H58.4a1.61,1.61,0,0,1,1.13.36,1.22,1.22,0,0,1,0,1.8,1.67,1.67,0,0,1-1.14.34H51.05a1.93,1.93,0,0,1-1.43-.44,2,2,0,0,1-.43-1.42V16.8a2.06,2.06,0,0,1,.41-1.39A1.43,1.43,0,0,1,50.69,15a1.46,1.46,0,0,1,1.12.46A2,2,0,0,1,52.23,16.8Z" style="fill:#fff"/><path d="M52.23,16.8V27.73H58.4a1.61,1.61,0,0,1,1.13.36,1.22,1.22,0,0,1,0,1.8,1.67,1.67,0,0,1-1.14.34H51.05a1.93,1.93,0,0,1-1.43-.44,2,2,0,0,1-.43-1.42V16.8a2.06,2.06,0,0,1,.41-1.39A1.43,1.43,0,0,1,50.69,15a1.46,1.46,0,0,1,1.12.46A2,2,0,0,1,52.23,16.8Z" style="fill:none;stroke:#000;stroke-miterlimit:22.92558479309082;stroke-width:0.5px"/><path d="M71.26,28.53l-.71-1.88H64.44l-.72,1.92A6.71,6.71,0,0,1,63,30.1a1.14,1.14,0,0,1-1,.39,1.46,1.46,0,0,1-1-.42,1.3,1.3,0,0,1-.44-.95,2.1,2.1,0,0,1,.11-.64c.06-.22.18-.52.33-.91l3.85-9.76c.11-.28.24-.61.39-1a5.94,5.94,0,0,1,.49-1,2.09,2.09,0,0,1,.69-.63,2.14,2.14,0,0,1,1-.24,2.11,2.11,0,0,1,1.06.24,2,2,0,0,1,.69.62,5,5,0,0,1,.44.82c.12.29.27.68.46,1.16l3.92,9.7a4.78,4.78,0,0,1,.46,1.61,1.32,1.32,0,0,1-.43.95,1.44,1.44,0,0,1-1,.44,1.32,1.32,0,0,1-.62-.13A1.21,1.21,0,0,1,72,30a2.8,2.8,0,0,1-.37-.67C71.47,29,71.36,28.77,71.26,28.53Zm-6-4.17h4.49l-2.27-6.2Z" style="fill:#fff"/><path d="M71.26,28.53l-.71-1.88H64.44l-.72,1.92A6.71,6.71,0,0,1,63,30.1a1.14,1.14,0,0,1-1,.39,1.46,1.46,0,0,1-1-.42,1.3,1.3,0,0,1-.44-.95,2.1,2.1,0,0,1,.11-.64c.06-.22.18-.52.33-.91l3.85-9.76c.11-.28.24-.61.39-1a5.94,5.94,0,0,1,.49-1,2.09,2.09,0,0,1,.69-.63,2.14,2.14,0,0,1,1-.24,2.11,2.11,0,0,1,1.06.24,2,2,0,0,1,.69.62,5,5,0,0,1,.44.82c.12.29.27.68.46,1.16l3.92,9.7a4.78,4.78,0,0,1,.46,1.61,1.32,1.32,0,0,1-.43.95,1.44,1.44,0,0,1-1,.44,1.32,1.32,0,0,1-.62-.13A1.21,1.21,0,0,1,72,30a2.8,2.8,0,0,1-.37-.67C71.47,29,71.36,28.77,71.26,28.53Zm-6-4.17h4.49l-2.27-6.2Z" style="fill:none;stroke:#000;stroke-miterlimit:22.92558479309082;stroke-width:0.5px"/><path d="M89,25.49A3.94,3.94,0,0,1,88.67,27a5.29,5.29,0,0,1-1.11,1.64A5.72,5.72,0,0,1,85.62,30a7,7,0,0,1-2.74.5,9.09,9.09,0,0,1-2.17-.23,6,6,0,0,1-1.76-.7,5.89,5.89,0,0,1-1.46-1.25,7.2,7.2,0,0,1-1-1.59,8.07,8.07,0,0,1-.63-1.87,10.13,10.13,0,0,1-.21-2.11,9.43,9.43,0,0,1,.53-3.25A6.88,6.88,0,0,1,77.67,17,6.49,6.49,0,0,1,80,15.49,7.36,7.36,0,0,1,82.79,15a7.1,7.1,0,0,1,3.25.73,6,6,0,0,1,2.19,1.8,3.57,3.57,0,0,1,.75,2,1.36,1.36,0,0,1-.36.93,1.21,1.21,0,0,1-.9.4,1.23,1.23,0,0,1-.87-.28,3.81,3.81,0,0,1-.65-.95,4.69,4.69,0,0,0-1.4-1.68,3.5,3.5,0,0,0-2-.55,3.58,3.58,0,0,0-3,1.43,6.45,6.45,0,0,0-1.11,4,7.51,7.51,0,0,0,.49,2.92A3.66,3.66,0,0,0,80.6,27.5a3.88,3.88,0,0,0,2.11.57,3.71,3.71,0,0,0,2.22-.65,3.9,3.9,0,0,0,1.37-1.91,3.25,3.25,0,0,1,.48-1,1.08,1.08,0,0,1,.92-.37,1.27,1.27,0,0,1,.94.38A1.24,1.24,0,0,1,89,25.49Z" style="fill:#fff"/><path d="M89,25.49A3.94,3.94,0,0,1,88.67,27a5.29,5.29,0,0,1-1.11,1.64A5.72,5.72,0,0,1,85.62,30a7,7,0,0,1-2.74.5,9.09,9.09,0,0,1-2.17-.23,6,6,0,0,1-1.76-.7,5.89,5.89,0,0,1-1.46-1.25,7.2,7.2,0,0,1-1-1.59,8.07,8.07,0,0,1-.63-1.87,10.13,10.13,0,0,1-.21-2.11,9.43,9.43,0,0,1,.53-3.25A6.88,6.88,0,0,1,77.67,17,6.49,6.49,0,0,1,80,15.49,7.36,7.36,0,0,1,82.79,15a7.1,7.1,0,0,1,3.25.73,6,6,0,0,1,2.19,1.8,3.57,3.57,0,0,1,.75,2,1.36,1.36,0,0,1-.36.93,1.21,1.21,0,0,1-.9.4,1.23,1.23,0,0,1-.87-.28,3.81,3.81,0,0,1-.65-.95,4.69,4.69,0,0,0-1.4-1.68,3.5,3.5,0,0,0-2-.55,3.58,3.58,0,0,0-3,1.43,6.45,6.45,0,0,0-1.11,4,7.51,7.51,0,0,0,.49,2.92A3.66,3.66,0,0,0,80.6,27.5a3.88,3.88,0,0,0,2.11.57,3.71,3.71,0,0,0,2.22-.65,3.9,3.9,0,0,0,1.37-1.91,3.25,3.25,0,0,1,.48-1,1.08,1.08,0,0,1,.92-.37,1.27,1.27,0,0,1,.94.38A1.24,1.24,0,0,1,89,25.49Z" style="fill:none;stroke:#000;stroke-miterlimit:22.92558479309082;stroke-width:0.5px"/><path d="M23.81,40.51V37.45h1.05a2.62,2.62,0,0,1,.55,0,1.18,1.18,0,0,1,.45.22,1.28,1.28,0,0,1,.36.52,2.11,2.11,0,0,1,.12.73,2.28,2.28,0,0,1-.08.62,1.89,1.89,0,0,1-.21.45,1.06,1.06,0,0,1-.28.28,1.5,1.5,0,0,1-.36.15,2.49,2.49,0,0,1-.5,0Zm.4-.36h.66a1.45,1.45,0,0,0,.47-.06.59.59,0,0,0,.28-.16.93.93,0,0,0,.22-.38,1.76,1.76,0,0,0,.08-.59,1.38,1.38,0,0,0-.16-.74.79.79,0,0,0-.38-.35,1.63,1.63,0,0,0-.52-.06h-.65Z" style="fill:#231f20"/><path d="M26.91,40.51V37.45h2.21v.36H27.31v.94H29v.36h-1.7v1h1.88v.36Z" style="fill:#231f20"/><path d="M29.74,40.51V37.45h.4v2.7h1.51v.36Z" style="fill:#231f20"/><path d="M32.14,40.51V37.45h2.22v.36H32.55v.94h1.69v.36H32.55v1h1.88v.36Z" style="fill:#231f20"/><path d="M36.42,39.31V39h1.3v1.13a2.32,2.32,0,0,1-.62.36,1.82,1.82,0,0,1-.65.12,1.71,1.71,0,0,1-.82-.19,1.26,1.26,0,0,1-.56-.56,1.8,1.8,0,0,1-.19-.82,2,2,0,0,1,.19-.83,1.32,1.32,0,0,1,.54-.58,1.73,1.73,0,0,1,.81-.18,1.64,1.64,0,0,1,.6.1,1.13,1.13,0,0,1,.42.3,1.36,1.36,0,0,1,.23.5l-.36.11a1.16,1.16,0,0,0-.18-.37.68.68,0,0,0-.29-.22,1.12,1.12,0,0,0-.42-.08,1.14,1.14,0,0,0-.48.09.87.87,0,0,0-.33.22,1.17,1.17,0,0,0-.19.3,1.59,1.59,0,0,0-.12.62,1.52,1.52,0,0,0,.14.68.86.86,0,0,0,.41.41,1.27,1.27,0,0,0,.58.14,1.54,1.54,0,0,0,.51-.1,1.31,1.31,0,0,0,.38-.22v-.57Z" style="fill:#231f20"/><path d="M38,40.51l1.17-3.06h.44l1.25,3.06h-.46L40,39.58H38.75l-.34.93Zm.88-1.26h1l-.32-.84c-.1-.26-.17-.47-.22-.64a3.83,3.83,0,0,1-.16.58Z" style="fill:#231f20"/><path d="M43.35,39.44l.41.1a1.39,1.39,0,0,1-.46.76,1.23,1.23,0,0,1-.81.26,1.38,1.38,0,0,1-.8-.2,1.26,1.26,0,0,1-.48-.58,2.26,2.26,0,0,1-.16-.82,1.86,1.86,0,0,1,.18-.84,1.29,1.29,0,0,1,.52-.54,1.6,1.6,0,0,1,.75-.18,1.18,1.18,0,0,1,1.21.89l-.4.09A1,1,0,0,0,43,37.9a.8.8,0,0,0-.51-.16,1,1,0,0,0-.59.17.86.86,0,0,0-.33.46,1.65,1.65,0,0,0-.1.58,2,2,0,0,0,.11.69.86.86,0,0,0,.36.43,1,1,0,0,0,.52.15A.86.86,0,0,0,43,40,1,1,0,0,0,43.35,39.44Zm-1.22,1.39.11-.37h.28l-.07.23a.42.42,0,0,1,.27.11.26.26,0,0,1,.09.19.35.35,0,0,1-.15.28.71.71,0,0,1-.45.12l-.3,0,0-.25h.2a.56.56,0,0,0,.27-.05.14.14,0,0,0,.06-.11.14.14,0,0,0,0-.06.19.19,0,0,0-.09,0A.57.57,0,0,0,42.13,40.83Z" style="fill:#231f20"/><path d="M43.92,40.51l1.18-3.06h.44l1.25,3.06h-.46L46,39.58H44.69l-.34.93Zm.74-3.25a.51.51,0,0,1,.12-.35.42.42,0,0,1,.3-.13.83.83,0,0,1,.36.12.45.45,0,0,0,.19.06.11.11,0,0,0,.1,0s0-.07.05-.14h.28a.54.54,0,0,1-.12.35.4.4,0,0,1-.29.12.86.86,0,0,1-.35-.11.51.51,0,0,0-.21-.08.16.16,0,0,0-.11,0,.18.18,0,0,0,0,.15Zm.15,2h1l-.31-.84c-.1-.26-.17-.47-.22-.64a3.86,3.86,0,0,1-.17.58Z" style="fill:#231f20"/><path d="M47,39a1.65,1.65,0,0,1,.41-1.19,1.38,1.38,0,0,1,1.06-.44,1.43,1.43,0,0,1,.76.21,1.28,1.28,0,0,1,.52.56,1.83,1.83,0,0,1,.18.82,1.79,1.79,0,0,1-.19.84,1.23,1.23,0,0,1-.53.55,1.49,1.49,0,0,1-.75.19,1.46,1.46,0,0,1-.77-.21,1.23,1.23,0,0,1-.51-.57A1.67,1.67,0,0,1,47,39Zm.42,0a1.21,1.21,0,0,0,.3.87,1,1,0,0,0,.74.32,1,1,0,0,0,.76-.32A1.35,1.35,0,0,0,49.5,39a1.45,1.45,0,0,0-.13-.65A.9.9,0,0,0,49,37.9a1,1,0,0,0-.55-.16,1,1,0,0,0-.74.3A1.31,1.31,0,0,0,47.41,39Z" style="fill:#231f20"/><path d="M51.63,40.51V37.45h1.06a2.52,2.52,0,0,1,.54,0,1.06,1.06,0,0,1,.45.22,1.28,1.28,0,0,1,.36.52,2.11,2.11,0,0,1,.12.73,1.94,1.94,0,0,1-.08.62,1.34,1.34,0,0,1-.21.45,1.06,1.06,0,0,1-.28.28,1.5,1.5,0,0,1-.36.15,2.46,2.46,0,0,1-.49,0Zm.41-.36h.65a1.45,1.45,0,0,0,.47-.06.59.59,0,0,0,.28-.16.83.83,0,0,0,.22-.38,1.76,1.76,0,0,0,.08-.59,1.49,1.49,0,0,0-.15-.74.86.86,0,0,0-.39-.35,1.63,1.63,0,0,0-.52-.06H52Z" style="fill:#231f20"/><path d="M54.73,40.51V37.45h2.21v.36H55.13v.94h1.7v.36h-1.7v1H57v.36Z" style="fill:#231f20"/><path d="M59.47,40.51v-2.7h-1v-.36h2.43v.36h-1v2.7Z" style="fill:#231f20"/><path d="M61.31,40.51V37.45h2.22v.36H61.72v.94h1.69v.36H61.72v1H63.6v.36Z" style="fill:#231f20"/><path d="M64.94,40.51v-2.7h-1v-.36h2.43v.36h-1v2.7Z" style="fill:#231f20"/><path d="M66.78,40.51V37.45H69v.36h-1.8v.94h1.69v.36H67.19v1h1.88v.36Z" style="fill:#231f20"/></g></g></svg>