<svg xmlns="http://www.w3.org/2000/svg" viewBox="0 0 65.52 63.56"><title>IFS</title><g id="b8dd96e4-0a84-461e-a7ef-a42198ebc7dc" data-name="Layer 2"><g id="b09bc16c-b9ff-402b-9db4-0c18af09f84c" data-name="Layer 1"><path d="M7.85,19.56C21.47-15.31,69.1.62,65.31,34.61c-1.79,16-9.85,25.9-22.36,27.89C36.62,64.32,32,63.85,29.56,60.6c-2.27-3.36-.46-7.22,3.56-7.83,3.07-.47,4.46,2.31,3.22,3.62s-.58,3,1.41,3.76c2.78,1.06,4.67-2.89,1.75-6.16-2.25-2.2-7.69-5.06-7.69-9,.15-5.77,3.56-9.19,9.7-10.67,5.84-.9,9.73.94,10.17,4.61s-2,6.67-5.77,5.84a2.42,2.42,0,0,1-2.09-2.19l1.08-1.1a2.54,2.54,0,0,0-2.68-3.88c-1.8.58-2.76,1.74-1.88,4.17.5,2.16,5.2,4.16,7.69,7.12,1.59,2.2,1.65,5,.68,8.14,2.12-1.61,3.77-3,7.67-9.58S60,19.36,47.52,12.26c-13.27-7.54-25.65-3-31.21,10.25-1.72-3.08-4.39-4.35-8.46-3" style="fill:#007ac0;fill-rule:evenodd"/><path d="M24.3,63.54l-10.16-.11,4.53-25.68H15.62l.08-2.68L19.45,35c.7-8,5.25-11.52,13-11.19q9.61.43,8.33,5.55c0,3.45-7.17,4.7-8.17,2.26-.25-.64,0-1.41.59-2.38a6.71,6.71,0,0,0,.37-.76c.71-2-2.61-2.55-3.52.08L28.94,35l4.35.24L33,38l-4.49,0Z" style="fill:#007ac0;fill-rule:evenodd"/><path d="M4,33.52c2.84,3.29,6,3.87,9.49,1.71L9.89,56.3a1.87,1.87,0,0,0,1.57,2.23c.38,6.76-12.85,7.28-11.34-3.18Z" style="fill:#007ac0;fill-rule:evenodd"/><path d="M10,21.65c2.81,0,5.08,2.66,5.08,5.93S12.79,33.52,10,33.52s-5.09-2.66-5.09-5.94S7.17,21.65,10,21.65" style="fill:red;fill-rule:evenodd"/></g></g></svg>