<svg xmlns="http://www.w3.org/2000/svg" viewBox="0 0 102.78 71.74"><title>IIP</title><g id="b062c455-b8b4-449e-ae36-2e447dc93349" data-name="Layer 2"><g id="eefb32e0-fe70-44ad-b490-a6143e22fbdd" data-name="Layer 1"><path d="M31.66,23.48,29.71,35.94l7.52,0,1.47-11.3h2.81l.2-1.14s-10,0-10,0m-.34-4.57h9.31V21.5H31.32Z" style="fill-rule:evenodd"/><path d="M42.67,23.48,41,35.94l7.3,0,1.26-11.3h2.81l.2-1.14Zm.63-4.57h9.31V21.5H43.3Z" style="fill-rule:evenodd"/><path d="M53.21,23.48,51.73,35.94l6.19,0,.5-4.6h6.93a6.23,6.23,0,0,0,6.21-6.21h0c0-3.42-1.87-6.21-5.29-6.21H54.42v1.94h8.82a4.27,4.27,0,0,1,0,8.53H58.63l.64-5.88Z" style="fill-rule:evenodd"/><path d="M76.22,38.34c-.36.84-.75,1.66-1.19,2.46-15.69-1-30.55.83-44.42,6.17h-.45a28,28,0,0,1-5.75-8.63Z" style="fill:blue;fill-rule:evenodd"/><path d="M74.5,41.73a27.05,27.05,0,0,1-2.56,3.61,65.14,65.14,0,0,0-33.82,7.31,27.92,27.92,0,0,1-6.84-4.6c15.14-5.11,29.65-7.64,43.22-6.32" style="fill:blue;fill-rule:evenodd"/><path d="M71.09,46.31A28.29,28.29,0,0,1,40.4,53.62c10.4-5.52,20.51-8.36,30.69-7.31" style="fill:blue;fill-rule:evenodd"/><path d="M50.32,0a27.87,27.87,0,0,1,28,27.7,27.22,27.22,0,0,1-2,10.16l-2.1-4.49-6.25-.14c5.87-4.91,6.29-10.25.65-16.07l-26.82,0,3.63-2.92c-7,3.64-13.29,3.82-18.47-1.62l2-.34-1.56-.68A28.13,28.13,0,0,1,50.32,0" style="fill:#808184;fill-rule:evenodd"/><path d="M34.77,9.68c.62,0,1.13.32,1.13.72s-.51.72-1.13.72-1.14-.32-1.14-.72.51-.72,1.14-.72" style="fill:#fff;fill-rule:evenodd"/><path d="M30.38,22.52,28.42,35l7.52-.06,1.48-11.3h2.81l.2-1.13S30.38,22.49,30.38,22.52ZM30,18h9.31v2.58H30Z" style="fill:#fff;fill-rule:evenodd"/><path d="M30.38,22.52,28.42,35l7.52-.06,1.48-11.3h2.81l.2-1.13S30.38,22.49,30.38,22.52ZM30,18h9.31v2.58H30Z" style="fill:none;stroke:#000;stroke-miterlimit:22.92558479309082;stroke-width:0.2160000056028366px"/><path d="M41.38,22.52,39.75,35l7.31-.06,1.26-11.3h2.81l.2-1.13ZM42,18h9.31v2.58H42Z" style="fill:#fff;fill-rule:evenodd"/><path d="M41.38,22.52,39.75,35l7.31-.06,1.26-11.3h2.81l.2-1.13ZM42,18h9.31v2.58H42Z" style="fill:none;stroke:#000;stroke-miterlimit:22.92558479309082;stroke-width:0.2160000056028366px"/><path d="M51.92,22.52,50.45,35l6.18-.06.5-4.6h6.94a6.23,6.23,0,0,0,6.21-6.21h0c0-3.41-1.88-6.21-5.29-6.21H53.14v2H62a4.26,4.26,0,1,1,0,8.52H57.34L58,22.49Z" style="fill:#fff;fill-rule:evenodd"/><path d="M51.92,22.52,50.45,35l6.18-.06.5-4.6h6.94a6.23,6.23,0,0,0,6.21-6.21h0c0-3.41-1.88-6.21-5.29-6.21H53.14v2H62a4.26,4.26,0,1,1,0,8.52H57.34L58,22.49Z" style="fill:none;stroke:#000;stroke-miterlimit:22.92558479309082;stroke-width:0.2160000056028366px"/><path d="M0,63.43v-5H1v5Z"/><path d="M2,63.43v-5H3l2,3.34V58.43H6v5h-1l-2-3.26v3.26Z"/><path d="M6.76,61.8l1-.09a1.13,1.13,0,0,0,.36.73,1.1,1.1,0,0,0,.73.23,1.1,1.1,0,0,0,.73-.21A.61.61,0,0,0,9.82,62a.44.44,0,0,0-.1-.3.75.75,0,0,0-.37-.22l-.81-.22a2.79,2.79,0,0,1-1.14-.49,1.33,1.33,0,0,1-.46-1A1.38,1.38,0,0,1,7.16,59a1.29,1.29,0,0,1,.62-.5,2.47,2.47,0,0,1,1-.18,2.09,2.09,0,0,1,1.42.42,1.48,1.48,0,0,1,.5,1.1l-1,0a.9.9,0,0,0-.28-.55,1,1,0,0,0-.64-.17,1.18,1.18,0,0,0-.69.18.36.36,0,0,0-.16.31.4.4,0,0,0,.15.31,3,3,0,0,0,.93.33,5.48,5.48,0,0,1,1.09.36,1.35,1.35,0,0,1,.55.51,1.49,1.49,0,0,1,.2.79,1.47,1.47,0,0,1-.24.81,1.42,1.42,0,0,1-.67.56,2.93,2.93,0,0,1-1.09.18,2.18,2.18,0,0,1-1.46-.44A1.92,1.92,0,0,1,6.76,61.8Z"/><path d="M12.81,63.43V59.28H11.32v-.85h4v.85H13.82v4.15Z"/><path d="M15.92,63.43v-5h1v5Z"/><path d="M19,63.43V59.28H17.53v-.85h4v.85H20v4.15Z"/><path d="M22.15,58.43h1v2.71a4.74,4.74,0,0,0,0,.83.83.83,0,0,0,.31.5,1.08,1.08,0,0,0,.66.18,1.05,1.05,0,0,0,.65-.17.69.69,0,0,0,.27-.43,5.77,5.77,0,0,0,0-.85V58.43h1v2.63a7.21,7.21,0,0,1-.08,1.27,1.54,1.54,0,0,1-.3.63,1.73,1.73,0,0,1-.59.41,2.61,2.61,0,0,1-1,.15,2.79,2.79,0,0,1-1.09-.17,1.56,1.56,0,0,1-.59-.43,1.44,1.44,0,0,1-.28-.55,5.82,5.82,0,0,1-.1-1.27Z"/><path d="M28.33,63.43V59.28H26.85v-.85h4v.85H29.34v4.15Z"/><path d="M31.14,61a3.19,3.19,0,0,1,.23-1.28,2.29,2.29,0,0,1,.47-.69,2,2,0,0,1,.64-.45,2.77,2.77,0,0,1,1.08-.2,2.33,2.33,0,0,1,1.77.69,3.08,3.08,0,0,1,0,3.8,2.33,2.33,0,0,1-1.77.69,2.37,2.37,0,0,1-1.77-.68A2.6,2.6,0,0,1,31.14,61Zm1,0a1.82,1.82,0,0,0,.4,1.28,1.24,1.24,0,0,0,1,.44,1.27,1.27,0,0,0,1-.43A1.92,1.92,0,0,0,35,60.91a1.88,1.88,0,0,0-.38-1.28,1.27,1.27,0,0,0-1-.42,1.29,1.29,0,0,0-1,.43A1.89,1.89,0,0,0,32.18,60.93Z"/><path d="M38.72,58.43h1.85a3.35,3.35,0,0,1,1,.1,1.55,1.55,0,0,1,.75.46,2.18,2.18,0,0,1,.48.81A3.66,3.66,0,0,1,42.91,61,3.3,3.3,0,0,1,42.76,62a2.09,2.09,0,0,1-.54.89,1.79,1.79,0,0,1-.71.4,3.07,3.07,0,0,1-.89.1h-1.9Zm1,.85v3.31h.75a2.92,2.92,0,0,0,.62-.05.85.85,0,0,0,.4-.21,1,1,0,0,0,.27-.48,3.21,3.21,0,0,0,.1-.92,3,3,0,0,0-.1-.89,1.18,1.18,0,0,0-.29-.48.92.92,0,0,0-.47-.24,5,5,0,0,0-.83,0Z"/><path d="M43.77,63.43v-5h3.71v.85h-2.7v1.1h2.51v.85H44.78v1.36h2.79v.84Z"/><path d="M50.34,63.43v-5h1v5Z"/><path d="M52.32,63.43v-5h1l2,3.34V58.43h.94v5h-1l-2-3.26v3.26Z"/><path d="M58.64,63.43l-1.79-5h1.09l1.27,3.7,1.22-3.7h1.08l-1.8,5Z"/><path d="M62,63.43v-5h3.71v.85H63v1.1h2.51v.85H63v1.36h2.8v.84Z"/><path d="M66.43,61.8l1-.09a1.23,1.23,0,0,0,.36.73,1.1,1.1,0,0,0,.73.23,1.13,1.13,0,0,0,.74-.21.63.63,0,0,0,.24-.48.44.44,0,0,0-.1-.3.77.77,0,0,0-.36-.22l-.81-.22a2.79,2.79,0,0,1-1.14-.49,1.3,1.3,0,0,1-.46-1,1.28,1.28,0,0,1,.84-1.22,2.42,2.42,0,0,1,1-.18,2.09,2.09,0,0,1,1.42.42,1.45,1.45,0,0,1,.5,1.1l-1,0a.85.85,0,0,0-.28-.55,1,1,0,0,0-.64-.17,1.18,1.18,0,0,0-.69.18.38.38,0,0,0-.16.31.4.4,0,0,0,.15.31,3,3,0,0,0,.93.33,5.26,5.26,0,0,1,1.09.36,1.29,1.29,0,0,1,.55.51,1.41,1.41,0,0,1,.2.79,1.55,1.55,0,0,1-.23.81,1.45,1.45,0,0,1-.68.56,2.85,2.85,0,0,1-1.09.18A2.19,2.19,0,0,1,67,63.08,1.91,1.91,0,0,1,66.43,61.8Z"/><path d="M72.47,63.43V59.28H71v-.85h4v.85H73.48v4.15Z"/><path d="M75.58,63.43v-5h1v5Z"/><path d="M79.88,61.59v-.84h2.18v2a2.57,2.57,0,0,1-.92.54,3.27,3.27,0,0,1-1.22.24,2.72,2.72,0,0,1-1.37-.33,2.16,2.16,0,0,1-.88-.94,3.16,3.16,0,0,1-.29-1.34,2.88,2.88,0,0,1,.33-1.39,2.21,2.21,0,0,1,1-.93,2.65,2.65,0,0,1,1.19-.25,2.35,2.35,0,0,1,1.46.4A1.76,1.76,0,0,1,82,59.81L81,60a1,1,0,0,0-.4-.58,1.21,1.21,0,0,0-.73-.21,1.36,1.36,0,0,0-1,.42,1.76,1.76,0,0,0-.39,1.24,1.93,1.93,0,0,0,.4,1.34,1.33,1.33,0,0,0,1,.44,1.81,1.81,0,0,0,.64-.12,2.22,2.22,0,0,0,.55-.3v-.64Z"/><path d="M87.5,63.43H86.4L86,62.29H84l-.41,1.14H82.48l2-5H85.5Zm-1.86-2L85,59.6l-.67,1.85Z"/><path d="M91.24,61.59l1,.31a2.26,2.26,0,0,1-.75,1.22,2.19,2.19,0,0,1-1.33.4,2.16,2.16,0,0,1-1.64-.68A2.62,2.62,0,0,1,87.86,61,2.71,2.71,0,0,1,88.5,59a2.2,2.2,0,0,1,1.7-.7,2.09,2.09,0,0,1,1.49.55,1.9,1.9,0,0,1,.51.92l-1,.24a1.06,1.06,0,0,0-.37-.62,1,1,0,0,0-.68-.22,1.16,1.16,0,0,0-.91.4,1.94,1.94,0,0,0-.34,1.29,2.09,2.09,0,0,0,.34,1.35,1.1,1.1,0,0,0,.89.4,1,1,0,0,0,.69-.25A1.55,1.55,0,0,0,91.24,61.59Zm-2.13,3.22V64.4a5.14,5.14,0,0,0,.65,0,.71.71,0,0,0,.45-.11.25.25,0,0,0,0-.41.5.5,0,0,0-.33-.09,1.76,1.76,0,0,0-.45.07l.09-.34a1.79,1.79,0,0,1,.57-.09,1,1,0,0,1,.65.19.58.58,0,0,1,.22.46.6.6,0,0,1-.24.49,1.54,1.54,0,0,1-1,.25A3.65,3.65,0,0,1,89.11,64.81Z"/><path d="M97.59,63.43h-1.1l-.43-1.14h-2l-.41,1.14H92.57l2-5h1.07Zm-3.33-5.28h-.43a.57.57,0,0,1,0-.12.78.78,0,0,1,.18-.55.55.55,0,0,1,.44-.19.86.86,0,0,1,.23,0l.37.15a1.14,1.14,0,0,0,.42.12.25.25,0,0,0,.19-.07.33.33,0,0,0,.09-.23h.44a1,1,0,0,1-.17.66.55.55,0,0,1-.43.2l-.23,0L95,58a1.53,1.53,0,0,0-.46-.12.24.24,0,0,0-.17.06A.42.42,0,0,0,94.26,58.15Zm1.47,3.3L95,59.6l-.67,1.85Z"/><path d="M97.92,61a3.19,3.19,0,0,1,.23-1.28,2.48,2.48,0,0,1,.47-.69,2,2,0,0,1,.64-.45,2.85,2.85,0,0,1,1.08-.2,2.33,2.33,0,0,1,1.77.69,2.64,2.64,0,0,1,.67,1.91,2.59,2.59,0,0,1-.66,1.89,2.33,2.33,0,0,1-1.76.69,2.37,2.37,0,0,1-1.78-.68A2.6,2.6,0,0,1,97.92,61Zm1,0a1.87,1.87,0,0,0,.4,1.28,1.34,1.34,0,0,0,2,0,1.92,1.92,0,0,0,.39-1.31,1.83,1.83,0,0,0-.38-1.28,1.39,1.39,0,0,0-2,0A1.84,1.84,0,0,0,99,60.93Z"/><path d="M31.35,71.24v-5H33a6.05,6.05,0,0,1,1.2.07,1.32,1.32,0,0,1,.72.49,1.57,1.57,0,0,1,.29,1,1.67,1.67,0,0,1-.17.78,1.35,1.35,0,0,1-.42.49,1.48,1.48,0,0,1-.53.24,5.55,5.55,0,0,1-1,.07h-.66v1.89Zm1-4.16V68.5h.55a2.71,2.71,0,0,0,.8-.08.62.62,0,0,0,.31-.24.65.65,0,0,0,.12-.39.65.65,0,0,0-.57-.67,3.83,3.83,0,0,0-.73,0Z"/><path d="M36,71.24v-5h3.71v.84H37v1.11h2.51V69H37v1.36h2.79v.85Z"/><path d="M40.41,69.61l1-.1a1.11,1.11,0,0,0,.36.73,1,1,0,0,0,.73.23,1.16,1.16,0,0,0,.73-.2.61.61,0,0,0,.25-.49.44.44,0,0,0-.1-.3.94.94,0,0,0-.37-.22l-.81-.21a2.78,2.78,0,0,1-1.14-.5,1.31,1.31,0,0,1-.24-1.72,1.37,1.37,0,0,1,.62-.51,2.66,2.66,0,0,1,1-.17,2.15,2.15,0,0,1,1.42.41,1.5,1.5,0,0,1,.5,1.1l-1,0a.93.93,0,0,0-.28-.56,1,1,0,0,0-.64-.16,1.18,1.18,0,0,0-.69.18.35.35,0,0,0-.16.31.37.37,0,0,0,.15.3,2.69,2.69,0,0,0,.93.34,4.43,4.43,0,0,1,1.09.36,1.4,1.4,0,0,1,.55.5,1.53,1.53,0,0,1,.2.8,1.5,1.5,0,0,1-.24.81,1.4,1.4,0,0,1-.67.55,2.91,2.91,0,0,1-1.09.19A2.18,2.18,0,0,1,41,70.89,1.92,1.92,0,0,1,40.41,69.61Z"/><path d="M49.36,70.6a3.24,3.24,0,0,0,.8.43l-.37.71a2.44,2.44,0,0,1-.44-.19s-.26-.16-.68-.44a2.72,2.72,0,0,1-1.09.21,2.35,2.35,0,0,1-1.8-.68,3.12,3.12,0,0,1,0-3.81,2.37,2.37,0,0,1,1.78-.68,2.33,2.33,0,0,1,1.76.68A2.62,2.62,0,0,1,50,68.74a3.33,3.33,0,0,1-.18,1.14A2.26,2.26,0,0,1,49.36,70.6ZM48.54,70a1.53,1.53,0,0,0,.3-.55,2.78,2.78,0,0,0,.09-.74,1.89,1.89,0,0,0-.38-1.3,1.29,1.29,0,0,0-1-.43,1.31,1.31,0,0,0-1,.43,1.89,1.89,0,0,0-.38,1.3,1.92,1.92,0,0,0,.38,1.31,1.24,1.24,0,0,0,1,.43,1.1,1.1,0,0,0,.41-.07,2.76,2.76,0,0,0-.62-.31l.28-.58A3.51,3.51,0,0,1,48.54,70Z"/><path d="M50.76,66.24h1v2.7a5,5,0,0,0,0,.84.76.76,0,0,0,.3.49,1.07,1.07,0,0,0,.67.19,1,1,0,0,0,.65-.18.65.65,0,0,0,.26-.43,5.35,5.35,0,0,0,.05-.85V66.24h1v2.62a7.13,7.13,0,0,1-.08,1.27,1.42,1.42,0,0,1-.9,1,2.54,2.54,0,0,1-1,.15,2.72,2.72,0,0,1-1.08-.16,1.59,1.59,0,0,1-.59-.43,1.35,1.35,0,0,1-.28-.56,5.76,5.76,0,0,1-.1-1.27Z"/><path d="M55.81,71.24v-5h3.71v.84h-2.7v1.11h2.51V69H56.82v1.36h2.8v.85Z"/><path d="M60.44,71.24v-5h1v5Z"/><path d="M62.42,71.24v-5h2.12a3.67,3.67,0,0,1,1.17.13,1.17,1.17,0,0,1,.58.48,1.4,1.4,0,0,1,.22.79,1.36,1.36,0,0,1-.33.93,1.59,1.59,0,0,1-1,.46,2.41,2.41,0,0,1,.54.42,5.6,5.6,0,0,1,.57.81l.61,1h-1.2L65,70.15a6.23,6.23,0,0,0-.54-.74.75.75,0,0,0-.3-.21,2.05,2.05,0,0,0-.51,0h-.2v2.09Zm1-2.89h.74a3.94,3.94,0,0,0,.91-.06.56.56,0,0,0,.29-.21.74.74,0,0,0,.1-.38.62.62,0,0,0-.14-.41A.63.63,0,0,0,65,67.1c-.08,0-.32,0-.73,0h-.79Z"/><path d="M72,71.24h-1.1l-.43-1.14h-2L68,71.24H67l2-5H70Zm-1.86-2-.69-1.86-.67,1.86Z"/></g></g></svg>