<svg xmlns="http://www.w3.org/2000/svg" xmlns:xlink="http://www.w3.org/1999/xlink" viewBox="0 0 99.17 73.85"><defs><clipPath id="b7fb3775-5f24-44c0-830c-d7a2486bb8eb"><path d="M49,62.89H90.84c1.82-.09,2-1.18,2-1.18a2.33,2.33,0,0,0-1.72-3.17h-22c-1.72-.19-2-1.27-2-1.27-.91-2.09,1.72-3.18,1.72-3.18H85.22c1.91-.09,2.09-1.36,2.09-1.36.72-2.53-2.09-2.9-2.09-2.9H73.89C72.44,49.74,72.08,48,72.08,48c-.37-2,1.9-2.44,1.9-2.44h5.8a1.82,1.82,0,0,0,1.91-1.9c-.09-2.27-1.82-2.36-1.82-2.36H73.62C74.8,15.2,51,14.38,51,14.38H7.52a3.77,3.77,0,0,0-1.26,1.18c-1,2.54,1.26,3,1.26,3l22.31.19c2.35.09,2.35,1.17,2.35,1.17a2.49,2.49,0,0,1-1.9,3.27l-16.59.09c-2.18.09-2,1.36-2,1.36-.19,3,2,2.81,2,2.81H24.48c2.54.09,2.27,1.27,2.27,1.27.72,2.45-1.27,3.08-1.27,3.08L19,31.88a1.53,1.53,0,0,0-1.54,1.36c-.18,2.72,1.9,2.81,1.9,2.81l6.08.09C25.48,62.62,49,62.89,49,62.89" style="fill:none;clip-rule:evenodd"/></clipPath></defs><title>ISTAL</title><g id="a3386abc-7492-4be9-ab72-acc89f125b1d" data-name="Layer 2"><g id="a9afc902-72c7-424a-9f76-0295d3c61a43" data-name="Layer 1"><g style="clip-path:url(#b7fb3775-5f24-44c0-830c-d7a2486bb8eb)"><rect x="5.26" y="14.38" width="88.4" height="48.5" style="fill:#ec1c24"/><path d="M49.75,38.64a.2.2,0,0,1-.21.2.2.2,0,0,1-.2-.2.2.2,0,0,1,.2-.21.21.21,0,0,1,.21.21" style="fill:#ec2024;fill-rule:evenodd"/><path d="M49.89,38.64a.35.35,0,0,1-.69,0,.35.35,0,1,1,.69,0m-.21,0a.14.14,0,0,0-.14-.14.13.13,0,0,0-.13.14.13.13,0,0,0,.13.13A.13.13,0,0,0,49.68,38.64Z" style="fill:#e92624;fill-rule:evenodd"/><path d="M50,38.64a.49.49,0,1,1-.49-.49.49.49,0,0,1,.49.49m-.21,0a.28.28,0,1,0-.55,0,.28.28,0,0,0,.55,0Z" style="fill:#e52c25;fill-rule:evenodd"/><path d="M50.16,38.64a.62.62,0,1,1-.62-.62.61.61,0,0,1,.62.62m-.2,0a.42.42,0,1,0-.42.41A.42.42,0,0,0,50,38.64Z" style="fill:#e32f26;fill-rule:evenodd"/><path d="M50.3,38.64a.76.76,0,1,1-.76-.76.76.76,0,0,1,.76.76m-.2,0a.56.56,0,1,0-.56.55A.56.56,0,0,0,50.1,38.64Z" style="fill:#e03427;fill-rule:evenodd"/><path d="M50.44,38.64a.9.9,0,1,1-.9-.9.89.89,0,0,1,.9.9m-.21,0a.69.69,0,1,0-1.37,0,.69.69,0,0,0,1.37,0Z" style="fill:#de3728;fill-rule:evenodd"/><path d="M50.58,38.64a1,1,0,1,1-1-1,1,1,0,0,1,1,1m-.21,0a.83.83,0,1,0-.83.82A.83.83,0,0,0,50.37,38.64Z" style="fill:#db3a29;fill-rule:evenodd"/><path d="M50.71,38.64a1.17,1.17,0,1,1-1.17-1.17,1.17,1.17,0,0,1,1.17,1.17m-.2,0a1,1,0,1,0-1,1A1,1,0,0,0,50.51,38.64Z" style="fill:#d93c2a;fill-rule:evenodd"/><path d="M50.85,38.64a1.31,1.31,0,1,1-1.31-1.31,1.3,1.3,0,0,1,1.31,1.31m-.2,0a1.11,1.11,0,1,0-1.11,1.1A1.11,1.11,0,0,0,50.65,38.64Z" style="fill:#d63f2c;fill-rule:evenodd"/><path d="M51,38.64a1.45,1.45,0,1,1-1.45-1.45A1.45,1.45,0,0,1,51,38.64m-.21,0a1.24,1.24,0,1,0-1.24,1.23A1.23,1.23,0,0,0,50.78,38.64Z" style="fill:#d4412d;fill-rule:evenodd"/><path d="M51.13,38.64a1.59,1.59,0,1,1-1.59-1.59,1.59,1.59,0,0,1,1.59,1.59m-.21,0A1.38,1.38,0,1,0,49.54,40,1.38,1.38,0,0,0,50.92,38.64Z" style="fill:#d1432e;fill-rule:evenodd"/><path d="M51.26,38.64a1.72,1.72,0,1,1-1.72-1.72,1.72,1.72,0,0,1,1.72,1.72m-.2,0a1.52,1.52,0,1,0-1.52,1.51A1.52,1.52,0,0,0,51.06,38.64Z" style="fill:#cf462f;fill-rule:evenodd"/><path d="M51.4,38.64a1.86,1.86,0,1,1-1.86-1.86,1.85,1.85,0,0,1,1.86,1.86m-.2,0a1.66,1.66,0,1,0-1.66,1.65A1.65,1.65,0,0,0,51.2,38.64Z" style="fill:#cc4731;fill-rule:evenodd"/><path d="M51.54,38.64a2,2,0,1,1-2-2,2,2,0,0,1,2,2m-.21,0a1.79,1.79,0,1,0-1.79,1.78A1.79,1.79,0,0,0,51.33,38.64Z" style="fill:#ca4a32;fill-rule:evenodd"/><path d="M51.68,38.64a2.14,2.14,0,1,1-2.14-2.14,2.14,2.14,0,0,1,2.14,2.14m-.21,0a1.93,1.93,0,1,0-1.93,1.92A1.92,1.92,0,0,0,51.47,38.64Z" style="fill:#c74b33;fill-rule:evenodd"/><path d="M51.81,38.64a2.27,2.27,0,1,1-2.27-2.27,2.27,2.27,0,0,1,2.27,2.27m-.2,0a2.07,2.07,0,1,0-2.07,2.06A2.07,2.07,0,0,0,51.61,38.64Z" style="fill:#c54d34;fill-rule:evenodd"/><path d="M52,38.64a2.41,2.41,0,1,1-2.41-2.41A2.4,2.4,0,0,1,52,38.64m-.2,0a2.21,2.21,0,1,0-2.21,2.2A2.2,2.2,0,0,0,51.75,38.64Z" style="fill:#c24e36;fill-rule:evenodd"/><path d="M52.09,38.64a2.55,2.55,0,1,1-2.55-2.55,2.55,2.55,0,0,1,2.55,2.55m-.21,0A2.34,2.34,0,1,0,49.54,41,2.33,2.33,0,0,0,51.88,38.64Z" style="fill:#c05037;fill-rule:evenodd"/><path d="M52.23,38.64A2.69,2.69,0,1,1,49.54,36a2.68,2.68,0,0,1,2.69,2.69m-.21,0a2.48,2.48,0,1,0-2.48,2.47A2.48,2.48,0,0,0,52,38.64Z" style="fill:#bd5038;fill-rule:evenodd"/><path d="M52.36,38.64a2.82,2.82,0,1,1-2.82-2.82,2.82,2.82,0,0,1,2.82,2.82m-.2,0a2.62,2.62,0,1,0-2.62,2.61A2.62,2.62,0,0,0,52.16,38.64Z" style="fill:#bb5239;fill-rule:evenodd"/><path d="M52.5,38.64a3,3,0,1,1-3-3,3,3,0,0,1,3,3m-.2,0a2.76,2.76,0,1,0-2.76,2.75A2.77,2.77,0,0,0,52.3,38.64Z" style="fill:#b8533a;fill-rule:evenodd"/><path d="M52.64,38.64a3.1,3.1,0,1,1-3.1-3.1,3.09,3.09,0,0,1,3.1,3.1m-.21,0a2.89,2.89,0,1,0-2.89,2.88A2.89,2.89,0,0,0,52.43,38.64Z" style="fill:#b6533b;fill-rule:evenodd"/><path d="M52.78,38.64a3.24,3.24,0,1,1-3.24-3.24,3.24,3.24,0,0,1,3.24,3.24m-.21,0a3,3,0,1,0-3,3A3,3,0,0,0,52.57,38.64Z" style="fill:#b3543c;fill-rule:evenodd"/><path d="M52.92,38.64a3.38,3.38,0,1,1-3.38-3.37,3.37,3.37,0,0,1,3.38,3.37m-.21,0a3.17,3.17,0,1,0-3.17,3.16A3.17,3.17,0,0,0,52.71,38.64Z" style="fill:#b1553d;fill-rule:evenodd"/><path d="M53.05,38.64a3.51,3.51,0,1,1-3.51-3.51,3.51,3.51,0,0,1,3.51,3.51m-.2,0a3.31,3.31,0,1,0-3.31,3.3A3.31,3.31,0,0,0,52.85,38.64Z" style="fill:#ae553e;fill-rule:evenodd"/><path d="M53.19,38.64A3.65,3.65,0,1,1,49.54,35a3.64,3.64,0,0,1,3.65,3.65m-.21,0a3.44,3.44,0,1,0-3.44,3.44A3.44,3.44,0,0,0,53,38.64Z" style="fill:#ac563f;fill-rule:evenodd"/><path d="M53.33,38.64a3.79,3.79,0,1,1-3.79-3.79,3.79,3.79,0,0,1,3.79,3.79m-.21,0a3.58,3.58,0,1,0-3.58,3.57A3.58,3.58,0,0,0,53.12,38.64Z" style="fill:#a95640;fill-rule:evenodd"/><path d="M53.47,38.64a3.93,3.93,0,1,1-3.93-3.92,3.93,3.93,0,0,1,3.93,3.92m-.21,0a3.72,3.72,0,1,0-3.72,3.71A3.71,3.71,0,0,0,53.26,38.64Z" style="fill:#a75740;fill-rule:evenodd"/><path d="M53.6,38.64a4.06,4.06,0,1,1-4.06-4.06,4,4,0,0,1,4.06,4.06m-.2,0a3.86,3.86,0,1,0-3.86,3.85A3.86,3.86,0,0,0,53.4,38.64Z" style="fill:#a45741;fill-rule:evenodd"/><path d="M53.74,38.64a4.2,4.2,0,1,1-4.2-4.2,4.2,4.2,0,0,1,4.2,4.2m-.21,0a4,4,0,1,0-4,4A4,4,0,0,0,53.53,38.64Z" style="fill:#a25742;fill-rule:evenodd"/><path d="M53.88,38.64a4.34,4.34,0,1,1-4.34-4.34,4.33,4.33,0,0,1,4.34,4.34m-.21,0a4.13,4.13,0,1,0-4.13,4.12A4.13,4.13,0,0,0,53.67,38.64Z" style="fill:#9f5742;fill-rule:evenodd"/><path d="M54,38.64a4.48,4.48,0,1,1-4.48-4.47A4.48,4.48,0,0,1,54,38.64m-.21,0a4.27,4.27,0,1,0-4.27,4.26A4.27,4.27,0,0,0,53.81,38.64Z" style="fill:#9d5843;fill-rule:evenodd"/><path d="M54.15,38.64A4.61,4.61,0,1,1,49.54,34a4.6,4.6,0,0,1,4.61,4.61m-.2,0A4.41,4.41,0,1,0,49.54,43,4.41,4.41,0,0,0,54,38.64Z" style="fill:#9a5743;fill-rule:evenodd"/><path d="M54.29,38.64a4.75,4.75,0,1,1-4.75-4.75,4.74,4.74,0,0,1,4.75,4.75m-.21,0a4.54,4.54,0,1,0-4.54,4.54A4.54,4.54,0,0,0,54.08,38.64Z" style="fill:#985844;fill-rule:evenodd"/><path d="M54.43,38.64a4.89,4.89,0,1,1-4.89-4.89,4.89,4.89,0,0,1,4.89,4.89m-.21,0a4.68,4.68,0,1,0-4.68,4.67A4.67,4.67,0,0,0,54.22,38.64Z" style="fill:#955744;fill-rule:evenodd"/><path d="M54.57,38.64a5,5,0,1,1-5-5,5,5,0,0,1,5,5m-.21,0a4.82,4.82,0,1,0-4.82,4.81A4.82,4.82,0,0,0,54.36,38.64Z" style="fill:#935845;fill-rule:evenodd"/><path d="M54.7,38.64a5.16,5.16,0,1,1-5.16-5.16,5.15,5.15,0,0,1,5.16,5.16m-.2,0a5,5,0,1,0-5,5A5,5,0,0,0,54.5,38.64Z" style="fill:#905845;fill-rule:evenodd"/><path d="M54.84,38.64a5.3,5.3,0,1,1-5.3-5.3,5.29,5.29,0,0,1,5.3,5.3m-.21,0a5.09,5.09,0,1,0-5.09,5.09A5.09,5.09,0,0,0,54.63,38.64Z" style="fill:#8f5745;fill-rule:evenodd"/><path d="M55,38.64a5.44,5.44,0,1,1-5.44-5.44A5.43,5.43,0,0,1,55,38.64m-.21,0a5.23,5.23,0,1,0-5.23,5.22A5.23,5.23,0,0,0,54.77,38.64Z" style="fill:#8e5745;fill-rule:evenodd"/><path d="M55.12,38.64a5.58,5.58,0,1,1-5.58-5.58,5.58,5.58,0,0,1,5.58,5.58m-.21,0A5.37,5.37,0,1,0,49.54,44,5.36,5.36,0,0,0,54.91,38.64Z" style="fill:#8e5846;fill-rule:evenodd"/><path d="M55.25,38.64a5.71,5.71,0,1,1-5.71-5.71,5.7,5.7,0,0,1,5.71,5.71m-.2,0a5.51,5.51,0,1,0-5.51,5.5A5.51,5.51,0,0,0,55.05,38.64Z" style="fill:#8d5846;fill-rule:evenodd"/><path d="M55.39,38.64a5.85,5.85,0,1,1-5.85-5.85,5.85,5.85,0,0,1,5.85,5.85m-.21,0a5.64,5.64,0,1,0-5.64,5.64A5.63,5.63,0,0,0,55.18,38.64Z" style="fill:#8c5746;fill-rule:evenodd"/><path d="M55.53,38.64a6,6,0,1,1-6-6,6,6,0,0,1,6,6m-.21,0a5.78,5.78,0,1,0-5.78,5.77A5.78,5.78,0,0,0,55.32,38.64Z" style="fill:#8b5746;fill-rule:evenodd"/><path d="M55.67,38.64a6.13,6.13,0,1,1-6.13-6.13,6.12,6.12,0,0,1,6.13,6.13m-.21,0a5.92,5.92,0,1,0-5.92,5.91A5.92,5.92,0,0,0,55.46,38.64Z" style="fill:#8a5746;fill-rule:evenodd"/><path d="M55.8,38.64a6.26,6.26,0,1,1-6.26-6.26,6.26,6.26,0,0,1,6.26,6.26m-.2,0a6.06,6.06,0,1,0-6.06,6A6.06,6.06,0,0,0,55.6,38.64Z" style="fill:#895746;fill-rule:evenodd"/><path d="M55.94,38.64a6.4,6.4,0,1,1-6.4-6.4,6.39,6.39,0,0,1,6.4,6.4m-.2,0a6.2,6.2,0,1,0-6.2,6.19A6.2,6.2,0,0,0,55.74,38.64Z" style="fill:#885746;fill-rule:evenodd"/><path d="M56.08,38.64a6.54,6.54,0,1,1-6.54-6.54,6.54,6.54,0,0,1,6.54,6.54m-.21,0A6.33,6.33,0,1,0,49.54,45,6.32,6.32,0,0,0,55.87,38.64Z" style="fill:#885747;fill-rule:evenodd"/><path d="M56.22,38.64A6.68,6.68,0,1,1,49.54,32a6.68,6.68,0,0,1,6.68,6.68m-.21,0a6.47,6.47,0,1,0-6.47,6.46A6.47,6.47,0,0,0,56,38.64Z" style="fill:#875747;fill-rule:evenodd"/><path d="M56.35,38.64a6.81,6.81,0,1,1-6.81-6.81,6.8,6.8,0,0,1,6.81,6.81m-.2,0a6.61,6.61,0,1,0-6.61,6.6A6.61,6.61,0,0,0,56.15,38.64Z" style="fill:#855747;fill-rule:evenodd"/><path d="M56.49,38.64a6.95,6.95,0,1,1-7-6.95,6.95,6.95,0,0,1,7,7m-.2,0a6.75,6.75,0,1,0-6.75,6.74A6.74,6.74,0,0,0,56.29,38.64Z" style="fill:#855747;fill-rule:evenodd"/><path d="M56.63,38.64a7.09,7.09,0,1,1-7.09-7.09,7.08,7.08,0,0,1,7.09,7.09m-.21,0a6.88,6.88,0,1,0-6.88,6.87A6.88,6.88,0,0,0,56.42,38.64Z" style="fill:#845747;fill-rule:evenodd"/><path d="M56.77,38.64a7.23,7.23,0,1,1-7.23-7.23,7.23,7.23,0,0,1,7.23,7.23m-.21,0a7,7,0,1,0-7,7A7,7,0,0,0,56.56,38.64Z" style="fill:#835647;fill-rule:evenodd"/><path d="M56.9,38.64a7.36,7.36,0,1,1-7.36-7.36,7.36,7.36,0,0,1,7.36,7.36m-.2,0a7.16,7.16,0,1,0-7.16,7.15A7.16,7.16,0,0,0,56.7,38.64Z" style="fill:#825647;fill-rule:evenodd"/><path d="M57,38.64a7.5,7.5,0,1,1-7.5-7.5,7.49,7.49,0,0,1,7.5,7.5m-.2,0a7.3,7.3,0,1,0-7.3,7.29A7.29,7.29,0,0,0,56.84,38.64Z" style="fill:#815647;fill-rule:evenodd"/><path d="M57.18,38.64A7.64,7.64,0,1,1,49.54,31a7.64,7.64,0,0,1,7.64,7.64m-.21,0a7.43,7.43,0,1,0-7.43,7.42A7.42,7.42,0,0,0,57,38.64Z" style="fill:#815648;fill-rule:evenodd"/><path d="M57.32,38.64a7.78,7.78,0,1,1-7.78-7.78,7.77,7.77,0,0,1,7.78,7.78m-.21,0a7.57,7.57,0,1,0-7.57,7.56A7.57,7.57,0,0,0,57.11,38.64Z" style="fill:#805648;fill-rule:evenodd"/><path d="M57.45,38.64a7.91,7.91,0,1,1-7.91-7.91,7.91,7.91,0,0,1,7.91,7.91m-.2,0a7.71,7.71,0,1,0-7.71,7.7A7.71,7.71,0,0,0,57.25,38.64Z" style="fill:#805648;fill-rule:evenodd"/><path d="M57.59,38.64a8,8,0,1,1-8.05-8,8,8,0,0,1,8.05,8.05m-.2,0a7.85,7.85,0,1,0-7.85,7.84A7.85,7.85,0,0,0,57.39,38.64Z" style="fill:#7f5648;fill-rule:evenodd"/><path d="M57.73,38.64a8.19,8.19,0,1,1-8.19-8.19,8.18,8.18,0,0,1,8.19,8.19m-.21,0a8,8,0,1,0-8,8A8,8,0,0,0,57.52,38.64Z" style="fill:#7e5548;fill-rule:evenodd"/><path d="M57.87,38.64a8.33,8.33,0,1,1-8.33-8.33,8.33,8.33,0,0,1,8.33,8.33m-.21,0a8.12,8.12,0,1,0-8.12,8.11A8.11,8.11,0,0,0,57.66,38.64Z" style="fill:#7d5548;fill-rule:evenodd"/><path d="M58,38.64a8.46,8.46,0,1,1-8.46-8.46A8.46,8.46,0,0,1,58,38.64m-.2,0a8.26,8.26,0,1,0-8.26,8.25A8.26,8.26,0,0,0,57.8,38.64Z" style="fill:#7c5548;fill-rule:evenodd"/><path d="M58.14,38.64a8.6,8.6,0,1,1-8.6-8.6,8.6,8.6,0,0,1,8.6,8.6m-.2,0A8.4,8.4,0,1,0,49.54,47,8.4,8.4,0,0,0,57.94,38.64Z" style="fill:#7b5548;fill-rule:evenodd"/><path d="M58.28,38.64a8.74,8.74,0,1,1-8.74-8.74,8.73,8.73,0,0,1,8.74,8.74m-.21,0a8.53,8.53,0,1,0-8.53,8.52A8.52,8.52,0,0,0,58.07,38.64Z" style="fill:#7a5548;fill-rule:evenodd"/><path d="M58.42,38.64a8.88,8.88,0,1,1-8.88-8.88,8.87,8.87,0,0,1,8.88,8.88m-.21,0a8.67,8.67,0,1,0-8.67,8.66A8.67,8.67,0,0,0,58.21,38.64Z" style="fill:#795548;fill-rule:evenodd"/><path d="M58.56,38.64a9,9,0,1,1-9-9,9,9,0,0,1,9,9m-.21,0a8.81,8.81,0,1,0-8.81,8.8A8.8,8.8,0,0,0,58.35,38.64Z" style="fill:#795448;fill-rule:evenodd"/><path d="M58.69,38.64a9.15,9.15,0,1,1-9.15-9.15,9.14,9.14,0,0,1,9.15,9.15m-.2,0a8.95,8.95,0,1,0-9,8.94A9,9,0,0,0,58.49,38.64Z" style="fill:#775448;fill-rule:evenodd"/><path d="M58.83,38.64a9.29,9.29,0,1,1-9.29-9.29,9.29,9.29,0,0,1,9.29,9.29m-.21,0a9.08,9.08,0,1,0-9.08,9.07A9.07,9.07,0,0,0,58.62,38.64Z" style="fill:#775448;fill-rule:evenodd"/><path d="M59,38.64a9.43,9.43,0,1,1-9.43-9.43A9.43,9.43,0,0,1,59,38.64m-.21,0a9.22,9.22,0,1,0-9.22,9.21A9.22,9.22,0,0,0,58.76,38.64Z" style="fill:#765448;fill-rule:evenodd"/><path d="M59.11,38.64a9.57,9.57,0,1,1-9.57-9.56,9.56,9.56,0,0,1,9.57,9.56m-.21,0A9.36,9.36,0,1,0,49.54,48,9.36,9.36,0,0,0,58.9,38.64Z" style="fill:#745448;fill-rule:evenodd"/><path d="M59.24,38.64a9.7,9.7,0,1,1-9.7-9.7,9.69,9.69,0,0,1,9.7,9.7m-.2,0a9.5,9.5,0,1,0-9.5,9.49A9.5,9.5,0,0,0,59,38.64Z" style="fill:#745348;fill-rule:evenodd"/><path d="M59.38,38.64a9.84,9.84,0,1,1-9.84-9.84,9.83,9.83,0,0,1,9.84,9.84m-.21,0a9.63,9.63,0,1,0-9.63,9.63A9.63,9.63,0,0,0,59.17,38.64Z" style="fill:#735348;fill-rule:evenodd"/><path d="M59.52,38.64a10,10,0,1,1-10-10,10,10,0,0,1,10,10m-.21,0a9.77,9.77,0,1,0-9.77,9.76A9.76,9.76,0,0,0,59.31,38.64Z" style="fill:#725348;fill-rule:evenodd"/><path d="M59.66,38.64A10.12,10.12,0,1,1,49.54,28.53,10.12,10.12,0,0,1,59.66,38.64m-.21,0a9.91,9.91,0,1,0-9.91,9.9A9.91,9.91,0,0,0,59.45,38.64Z" style="fill:#715248;fill-rule:evenodd"/><path d="M59.79,38.64A10.25,10.25,0,1,1,49.54,28.39,10.24,10.24,0,0,1,59.79,38.64m-.2,0a10,10,0,1,0-10.05,10A10.05,10.05,0,0,0,59.59,38.64Z" style="fill:#705248;fill-rule:evenodd"/><path d="M59.93,38.64A10.39,10.39,0,1,1,49.54,28.25,10.39,10.39,0,0,1,59.93,38.64m-.21,0A10.18,10.18,0,1,0,49.54,48.82,10.17,10.17,0,0,0,59.72,38.64Z" style="fill:#6f5248;fill-rule:evenodd"/><path d="M60.07,38.64A10.53,10.53,0,1,1,49.54,28.11,10.52,10.52,0,0,1,60.07,38.64m-.21,0A10.32,10.32,0,1,0,49.54,49,10.32,10.32,0,0,0,59.86,38.64Z" style="fill:#6e5248;fill-rule:evenodd"/><path d="M60.21,38.64A10.67,10.67,0,1,1,49.54,28,10.67,10.67,0,0,1,60.21,38.64m-.21,0A10.46,10.46,0,1,0,49.54,49.09,10.46,10.46,0,0,0,60,38.64Z" style="fill:#6d5148;fill-rule:evenodd"/><path d="M60.34,38.64a10.8,10.8,0,1,1-10.8-10.8,10.79,10.79,0,0,1,10.8,10.8m-.2,0a10.6,10.6,0,1,0-10.6,10.59A10.61,10.61,0,0,0,60.14,38.64Z" style="fill:#6c5147;fill-rule:evenodd"/><path d="M60.48,38.64A10.94,10.94,0,1,1,49.54,27.7,10.93,10.93,0,0,1,60.48,38.64m-.21,0A10.73,10.73,0,1,0,49.54,49.37,10.72,10.72,0,0,0,60.27,38.64Z" style="fill:#6c5147;fill-rule:evenodd"/><path d="M60.62,38.64A11.08,11.08,0,1,1,49.54,27.56,11.08,11.08,0,0,1,60.62,38.64m-.21,0A10.87,10.87,0,1,0,49.54,49.5,10.86,10.86,0,0,0,60.41,38.64Z" style="fill:#6a5047;fill-rule:evenodd"/><path d="M60.76,38.64A11.22,11.22,0,1,1,49.54,27.42,11.21,11.21,0,0,1,60.76,38.64m-.21,0a11,11,0,1,0-11,11A11,11,0,0,0,60.55,38.64Z" style="fill:#695047;fill-rule:evenodd"/><path d="M60.89,38.64A11.35,11.35,0,1,1,49.54,27.29,11.35,11.35,0,0,1,60.89,38.64m-.2,0A11.15,11.15,0,1,0,49.54,49.78,11.15,11.15,0,0,0,60.69,38.64Z" style="fill:#695047;fill-rule:evenodd"/><path d="M61,38.64A11.49,11.49,0,1,1,49.54,27.15,11.48,11.48,0,0,1,61,38.64m-.21,0A11.28,11.28,0,1,0,49.54,49.92,11.28,11.28,0,0,0,60.82,38.64Z" style="fill:#674f46;fill-rule:evenodd"/><path d="M61.17,38.64A11.63,11.63,0,1,1,49.54,27,11.63,11.63,0,0,1,61.17,38.64m-.21,0A11.42,11.42,0,1,0,49.54,50.05,11.42,11.42,0,0,0,61,38.64Z" style="fill:#664f46;fill-rule:evenodd"/><path d="M61.31,38.64A11.77,11.77,0,1,1,49.54,26.87,11.77,11.77,0,0,1,61.31,38.64m-.21,0A11.56,11.56,0,1,0,49.54,50.19,11.55,11.55,0,0,0,61.1,38.64Z" style="fill:#664e46;fill-rule:evenodd"/><path d="M61.44,38.64a11.9,11.9,0,1,1-11.9-11.9,11.9,11.9,0,0,1,11.9,11.9m-.2,0a11.7,11.7,0,1,0-11.7,11.69A11.7,11.7,0,0,0,61.24,38.64Z" style="fill:#644d46;fill-rule:evenodd"/><path d="M61.58,38.64a12,12,0,1,1-12-12,12,12,0,0,1,12,12m-.2,0A11.84,11.84,0,1,0,49.54,50.47,11.83,11.83,0,0,0,61.38,38.64Z" style="fill:#634d46;fill-rule:evenodd"/><path d="M61.72,38.64A12.18,12.18,0,1,1,49.54,26.46,12.17,12.17,0,0,1,61.72,38.64m-.21,0a12,12,0,1,0-12,12A12,12,0,0,0,61.51,38.64Z" style="fill:#624d46;fill-rule:evenodd"/><path d="M61.86,38.64A12.32,12.32,0,1,1,49.54,26.32,12.32,12.32,0,0,1,61.86,38.64m-.21,0a12.11,12.11,0,1,0-12.11,12.1A12.11,12.11,0,0,0,61.65,38.64Z" style="fill:#614d45;fill-rule:evenodd"/><path d="M62,38.64A12.45,12.45,0,1,1,49.54,26.19,12.45,12.45,0,0,1,62,38.64m-.2,0A12.25,12.25,0,1,0,49.54,50.88,12.24,12.24,0,0,0,61.79,38.64Z" style="fill:#604c45;fill-rule:evenodd"/><path d="M62.13,38.64A12.59,12.59,0,1,1,49.54,26.05,12.58,12.58,0,0,1,62.13,38.64m-.2,0A12.39,12.39,0,1,0,49.54,51,12.39,12.39,0,0,0,61.93,38.64Z" style="fill:#5f4c45;fill-rule:evenodd"/><path d="M62.27,38.64A12.73,12.73,0,1,1,49.54,25.91,12.73,12.73,0,0,1,62.27,38.64m-.21,0A12.52,12.52,0,1,0,49.54,51.15,12.51,12.51,0,0,0,62.06,38.64Z" style="fill:#5e4b44;fill-rule:evenodd"/><path d="M62.41,38.64A12.87,12.87,0,1,1,49.54,25.77,12.87,12.87,0,0,1,62.41,38.64m-.21,0A12.66,12.66,0,1,0,49.54,51.29,12.66,12.66,0,0,0,62.2,38.64Z" style="fill:#5d4a44;fill-rule:evenodd"/><path d="M62.54,38.64a13,13,0,1,1-13-13,13,13,0,0,1,13,13m-.2,0a12.8,12.8,0,1,0-12.8,12.79A12.8,12.8,0,0,0,62.34,38.64Z" style="fill:#5c4a44;fill-rule:evenodd"/><path d="M62.68,38.64A13.14,13.14,0,1,1,49.54,25.5,13.13,13.13,0,0,1,62.68,38.64m-.2,0A12.94,12.94,0,1,0,49.54,51.57,12.93,12.93,0,0,0,62.48,38.64Z" style="fill:#5b4a43;fill-rule:evenodd"/><path d="M62.82,38.64A13.28,13.28,0,1,1,49.54,25.36,13.27,13.27,0,0,1,62.82,38.64m-.21,0A13.07,13.07,0,1,0,49.54,51.7,13.07,13.07,0,0,0,62.61,38.64Z" style="fill:#5a4943;fill-rule:evenodd"/><path d="M63,38.64A13.42,13.42,0,1,1,49.54,25.22,13.42,13.42,0,0,1,63,38.64m-.21,0a13.21,13.21,0,1,0-13.21,13.2A13.2,13.2,0,0,0,62.75,38.64Z" style="fill:#584842;fill-rule:evenodd"/><path d="M63.09,38.64A13.55,13.55,0,1,1,49.54,25.09,13.55,13.55,0,0,1,63.09,38.64m-.2,0A13.35,13.35,0,1,0,49.54,52,13.35,13.35,0,0,0,62.89,38.64Z" style="fill:#584842;fill-rule:evenodd"/><path d="M63.23,38.64A13.69,13.69,0,1,1,49.54,25,13.68,13.68,0,0,1,63.23,38.64m-.2,0A13.49,13.49,0,1,0,49.54,52.12,13.49,13.49,0,0,0,63,38.64Z" style="fill:#574742;fill-rule:evenodd"/><path d="M63.37,38.64A13.83,13.83,0,1,1,49.54,24.81,13.83,13.83,0,0,1,63.37,38.64m-.21,0A13.62,13.62,0,1,0,49.54,52.25,13.61,13.61,0,0,0,63.16,38.64Z" style="fill:#554641;fill-rule:evenodd"/><path d="M63.51,38.64a14,14,0,1,1-14-14,14,14,0,0,1,14,14m-.21,0A13.76,13.76,0,1,0,49.54,52.39,13.76,13.76,0,0,0,63.3,38.64Z" style="fill:#544541;fill-rule:evenodd"/><path d="M63.65,38.64a14.11,14.11,0,1,1-14.11-14.1,14.11,14.11,0,0,1,14.11,14.1m-.21,0a13.9,13.9,0,1,0-13.9,13.89A13.9,13.9,0,0,0,63.44,38.64Z" style="fill:#534540;fill-rule:evenodd"/><path d="M63.78,38.64A14.24,14.24,0,1,1,49.54,24.4,14.23,14.23,0,0,1,63.78,38.64m-.2,0a14,14,0,1,0-14,14A14,14,0,0,0,63.58,38.64Z" style="fill:#524540;fill-rule:evenodd"/><path d="M63.92,38.64A14.38,14.38,0,1,1,49.54,24.26,14.37,14.37,0,0,1,63.92,38.64m-.21,0A14.17,14.17,0,1,0,49.54,52.8,14.16,14.16,0,0,0,63.71,38.64Z" style="fill:#51433f;fill-rule:evenodd"/><path d="M64.06,38.64A14.52,14.52,0,1,1,49.54,24.12,14.52,14.52,0,0,1,64.06,38.64m-.21,0a14.31,14.31,0,1,0-14.31,14.3A14.3,14.3,0,0,0,63.85,38.64Z" style="fill:#50433f;fill-rule:evenodd"/><path d="M64.2,38.64A14.66,14.66,0,1,1,49.54,24,14.65,14.65,0,0,1,64.2,38.64m-.21,0A14.45,14.45,0,1,0,49.54,53.08,14.45,14.45,0,0,0,64,38.64Z" style="fill:#4f433e;fill-rule:evenodd"/><path d="M64.33,38.64A14.79,14.79,0,1,1,49.54,23.85,14.79,14.79,0,0,1,64.33,38.64m-.2,0A14.59,14.59,0,1,0,49.54,53.22,14.59,14.59,0,0,0,64.13,38.64Z" style="fill:#4d413d;fill-rule:evenodd"/><path d="M64.47,38.64A14.93,14.93,0,1,1,49.54,23.71,14.92,14.92,0,0,1,64.47,38.64m-.21,0A14.72,14.72,0,1,0,49.54,53.36,14.72,14.72,0,0,0,64.26,38.64Z" style="fill:#4c413d;fill-rule:evenodd"/><path d="M64.61,38.64A15.07,15.07,0,1,1,49.54,23.57,15.07,15.07,0,0,1,64.61,38.64m-.21,0A14.86,14.86,0,1,0,49.54,53.49,14.86,14.86,0,0,0,64.4,38.64Z" style="fill:#4b403d;fill-rule:evenodd"/><path d="M64.75,38.64a15.21,15.21,0,1,1-15.21-15.2,15.21,15.21,0,0,1,15.21,15.2m-.21,0a15,15,0,1,0-15,15A15,15,0,0,0,64.54,38.64Z" style="fill:#493f3c;fill-rule:evenodd"/><path d="M64.88,38.64A15.34,15.34,0,1,1,49.54,23.3,15.33,15.33,0,0,1,64.88,38.64m-.2,0A15.14,15.14,0,1,0,49.54,53.77,15.14,15.14,0,0,0,64.68,38.64Z" style="fill:#483e3b;fill-rule:evenodd"/><path d="M65,38.64A15.48,15.48,0,1,1,49.54,23.16,15.48,15.48,0,0,1,65,38.64m-.21,0A15.27,15.27,0,1,0,49.54,53.91,15.26,15.26,0,0,0,64.81,38.64Z" style="fill:#473d3b;fill-rule:evenodd"/><path d="M65.16,38.64A15.62,15.62,0,1,1,49.54,23,15.61,15.61,0,0,1,65.16,38.64m-.21,0A15.41,15.41,0,1,0,49.54,54,15.41,15.41,0,0,0,65,38.64Z" style="fill:#463d3a;fill-rule:evenodd"/><path d="M65.3,38.64A15.76,15.76,0,1,1,49.54,22.89,15.76,15.76,0,0,1,65.3,38.64m-.21,0A15.55,15.55,0,1,0,49.54,54.18,15.55,15.55,0,0,0,65.09,38.64Z" style="fill:#453b39;fill-rule:evenodd"/><path d="M65.43,38.64A15.89,15.89,0,1,1,49.54,22.75,15.88,15.88,0,0,1,65.43,38.64m-.2,0A15.69,15.69,0,1,0,49.54,54.32,15.69,15.69,0,0,0,65.23,38.64Z" style="fill:#443b38;fill-rule:evenodd"/><path d="M65.57,38.64a16,16,0,1,1-16-16,16,16,0,0,1,16,16m-.21,0A15.82,15.82,0,1,0,49.54,54.46,15.82,15.82,0,0,0,65.36,38.64Z" style="fill:#433a38;fill-rule:evenodd"/><path d="M65.71,38.64A16.17,16.17,0,1,1,49.54,22.47,16.17,16.17,0,0,1,65.71,38.64m-.21,0a16,16,0,1,0-16,16A16,16,0,0,0,65.5,38.64Z" style="fill:#413937;fill-rule:evenodd"/><path d="M65.85,38.64A16.31,16.31,0,1,1,49.54,22.33,16.31,16.31,0,0,1,65.85,38.64m-.21,0a16.1,16.1,0,1,0-16.1,16.09A16.1,16.1,0,0,0,65.64,38.64Z" style="fill:#403836;fill-rule:evenodd"/><path d="M66,38.64A16.44,16.44,0,1,1,49.54,22.2,16.44,16.44,0,0,1,66,38.64m-.2,0A16.24,16.24,0,1,0,49.54,54.87,16.24,16.24,0,0,0,65.78,38.64Z" style="fill:#3f3736;fill-rule:evenodd"/><path d="M66.12,38.64A16.58,16.58,0,1,1,49.54,22.06,16.57,16.57,0,0,1,66.12,38.64m-.21,0A16.37,16.37,0,1,0,49.54,55,16.36,16.36,0,0,0,65.91,38.64Z" style="fill:#3e3735;fill-rule:evenodd"/><path d="M66.26,38.64A16.72,16.72,0,1,1,49.54,21.92,16.71,16.71,0,0,1,66.26,38.64m-.21,0a16.51,16.51,0,1,0-16.51,16.5A16.51,16.51,0,0,0,66.05,38.64Z" style="fill:#3c3534;fill-rule:evenodd"/><path d="M66.4,38.64A16.86,16.86,0,1,1,49.54,21.78,16.86,16.86,0,0,1,66.4,38.64m-.21,0A16.65,16.65,0,1,0,49.54,55.28,16.64,16.64,0,0,0,66.19,38.64Z" style="fill:#3b3433;fill-rule:evenodd"/><path d="M66.53,38.64a17,17,0,1,1-17-17,17,17,0,0,1,17,17m-.2,0A16.79,16.79,0,1,0,49.54,55.42,16.79,16.79,0,0,0,66.33,38.64Z" style="fill:#3a3332;fill-rule:evenodd"/><path d="M66.67,38.64A17.13,17.13,0,1,1,49.54,21.51,17.13,17.13,0,0,1,66.67,38.64m-.21,0A16.92,16.92,0,1,0,49.54,55.56,16.91,16.91,0,0,0,66.46,38.64Z" style="fill:#373130;fill-rule:evenodd"/><path d="M66.81,38.64A17.27,17.27,0,1,1,49.54,21.37,17.27,17.27,0,0,1,66.81,38.64m-.21,0a17.06,17.06,0,1,0-17.06,17A17.06,17.06,0,0,0,66.6,38.64Z" style="fill:#363030;fill-rule:evenodd"/><path d="M67,38.64A17.41,17.41,0,1,1,49.54,21.23,17.4,17.4,0,0,1,67,38.64m-.21,0a17.2,17.2,0,1,0-17.2,17.19A17.2,17.2,0,0,0,66.74,38.64Z" style="fill:#352f2f;fill-rule:evenodd"/><path d="M67.08,38.64A17.54,17.54,0,1,1,49.54,21.1,17.54,17.54,0,0,1,67.08,38.64m-.2,0A17.34,17.34,0,1,0,49.54,56,17.34,17.34,0,0,0,66.88,38.64Z" style="fill:#342f2e;fill-rule:evenodd"/><path d="M67.22,38.64A17.68,17.68,0,1,1,49.54,21,17.67,17.67,0,0,1,67.22,38.64m-.2,0A17.48,17.48,0,1,0,49.54,56.11,17.48,17.48,0,0,0,67,38.64Z" style="fill:#322c2c;fill-rule:evenodd"/><path d="M67.36,38.64A17.82,17.82,0,1,1,49.54,20.82,17.82,17.82,0,0,1,67.36,38.64m-.21,0a17.61,17.61,0,1,0-17.61,17.6A17.6,17.6,0,0,0,67.15,38.64Z" style="fill:#302b2b;fill-rule:evenodd"/><path d="M67.5,38.64a18,18,0,1,1-18-18,18,18,0,0,1,18,18m-.21,0A17.75,17.75,0,1,0,49.54,56.38,17.75,17.75,0,0,0,67.29,38.64Z" style="fill:#2f2a2a;fill-rule:evenodd"/><path d="M67.63,38.64A18.09,18.09,0,1,1,49.54,20.55,18.08,18.08,0,0,1,67.63,38.64m-.2,0A17.89,17.89,0,1,0,49.54,56.52,17.89,17.89,0,0,0,67.43,38.64Z" style="fill:#2d2828;fill-rule:evenodd"/><path d="M67.77,38.64A18.23,18.23,0,1,1,49.54,20.41,18.23,18.23,0,0,1,67.77,38.64m-.2,0a18,18,0,1,0-18,18A18,18,0,0,0,67.57,38.64Z" style="fill:#2c2727;fill-rule:evenodd"/><path d="M67.91,38.64A18.37,18.37,0,1,1,49.54,20.27,18.36,18.36,0,0,1,67.91,38.64m-.21,0A18.16,18.16,0,1,0,49.54,56.79,18.16,18.16,0,0,0,67.7,38.64Z" style="fill:#2a2626;fill-rule:evenodd"/><path d="M68.05,38.64A18.51,18.51,0,1,1,49.54,20.13,18.51,18.51,0,0,1,68.05,38.64m-.21,0a18.3,18.3,0,1,0-18.3,18.29A18.3,18.3,0,0,0,67.84,38.64Z" style="fill:#2a2626;fill-rule:evenodd"/><path d="M68.18,38.64A18.64,18.64,0,1,1,49.54,20,18.64,18.64,0,0,1,68.18,38.64m-.2,0A18.44,18.44,0,1,0,49.54,57.07,18.44,18.44,0,0,0,68,38.64Z" style="fill:#2c2727;fill-rule:evenodd"/><path d="M68.32,38.64A18.78,18.78,0,1,1,49.54,19.86,18.77,18.77,0,0,1,68.32,38.64m-.2,0A18.58,18.58,0,1,0,49.54,57.21,18.57,18.57,0,0,0,68.12,38.64Z" style="fill:#2d2828;fill-rule:evenodd"/><path d="M68.46,38.64A18.92,18.92,0,1,1,49.54,19.72,18.92,18.92,0,0,1,68.46,38.64m-.21,0a18.71,18.71,0,1,0-18.71,18.7A18.7,18.7,0,0,0,68.25,38.64Z" style="fill:#2f2a2a;fill-rule:evenodd"/><path d="M68.6,38.64A19.06,19.06,0,1,1,49.54,19.58,19.05,19.05,0,0,1,68.6,38.64m-.21,0A18.85,18.85,0,1,0,49.54,57.48,18.85,18.85,0,0,0,68.39,38.64Z" style="fill:#302b2b;fill-rule:evenodd"/><path d="M68.73,38.64A19.19,19.19,0,1,1,49.54,19.45,19.19,19.19,0,0,1,68.73,38.64m-.2,0a19,19,0,1,0-19,19A19,19,0,0,0,68.53,38.64Z" style="fill:#322c2c;fill-rule:evenodd"/><path d="M68.87,38.64A19.33,19.33,0,1,1,49.54,19.31,19.32,19.32,0,0,1,68.87,38.64m-.2,0A19.13,19.13,0,1,0,49.54,57.76,19.13,19.13,0,0,0,68.67,38.64Z" style="fill:#342e2e;fill-rule:evenodd"/><path d="M69,38.64A19.47,19.47,0,1,1,49.54,19.17,19.46,19.46,0,0,1,69,38.64m-.21,0A19.26,19.26,0,1,0,49.54,57.89,19.26,19.26,0,0,0,68.8,38.64Z" style="fill:#352f2f;fill-rule:evenodd"/><path d="M69.15,38.64A19.61,19.61,0,1,1,49.54,19,19.61,19.61,0,0,1,69.15,38.64m-.21,0A19.4,19.4,0,1,0,49.54,58,19.39,19.39,0,0,0,68.94,38.64Z" style="fill:#363030;fill-rule:evenodd"/><path d="M69.29,38.64A19.75,19.75,0,1,1,49.54,18.9,19.74,19.74,0,0,1,69.29,38.64m-.21,0A19.54,19.54,0,1,0,49.54,58.17,19.54,19.54,0,0,0,69.08,38.64Z" style="fill:#383231;fill-rule:evenodd"/><path d="M69.42,38.64A19.88,19.88,0,1,1,49.54,18.76,19.88,19.88,0,0,1,69.42,38.64m-.2,0A19.68,19.68,0,1,0,49.54,58.31,19.68,19.68,0,0,0,69.22,38.64Z" style="fill:#3a3332;fill-rule:evenodd"/><path d="M69.56,38.64a20,20,0,1,1-20-20,20,20,0,0,1,20,20m-.21,0a19.81,19.81,0,1,0-19.81,19.8A19.8,19.8,0,0,0,69.35,38.64Z" style="fill:#3b3433;fill-rule:evenodd"/><path d="M69.7,38.64A20.16,20.16,0,1,1,49.54,18.48,20.16,20.16,0,0,1,69.7,38.64m-.21,0A19.95,19.95,0,1,0,49.54,58.58,19.95,19.95,0,0,0,69.49,38.64Z" style="fill:#3d3634;fill-rule:evenodd"/><path d="M69.84,38.64a20.3,20.3,0,1,1-20.3-20.29,20.3,20.3,0,0,1,20.3,20.29m-.21,0A20.09,20.09,0,1,0,49.54,58.72,20.08,20.08,0,0,0,69.63,38.64Z" style="fill:#3e3635;fill-rule:evenodd"/><path d="M70,38.64A20.43,20.43,0,1,1,49.54,18.21,20.42,20.42,0,0,1,70,38.64m-.2,0A20.23,20.23,0,1,0,49.54,58.86,20.23,20.23,0,0,0,69.77,38.64Z" style="fill:#3f3736;fill-rule:evenodd"/><path d="M70.11,38.64A20.57,20.57,0,1,1,49.54,18.07,20.57,20.57,0,0,1,70.11,38.64m-.21,0A20.36,20.36,0,1,0,49.54,59,20.35,20.35,0,0,0,69.9,38.64Z" style="fill:#413937;fill-rule:evenodd"/><path d="M70.25,38.64A20.71,20.71,0,1,1,49.54,17.93,20.71,20.71,0,0,1,70.25,38.64m-.21,0a20.5,20.5,0,1,0-20.5,20.49A20.5,20.5,0,0,0,70,38.64Z" style="fill:#423937;fill-rule:evenodd"/><path d="M70.39,38.64A20.85,20.85,0,1,1,49.54,17.8,20.85,20.85,0,0,1,70.39,38.64m-.21,0A20.64,20.64,0,1,0,49.54,59.27,20.64,20.64,0,0,0,70.18,38.64Z" style="fill:#433a38;fill-rule:evenodd"/><path d="M70.52,38.64a21,21,0,1,1-21-21,21,21,0,0,1,21,21m-.2,0A20.78,20.78,0,1,0,49.54,59.41,20.78,20.78,0,0,0,70.32,38.64Z" style="fill:#453b39;fill-rule:evenodd"/><path d="M70.66,38.64A21.12,21.12,0,1,1,49.54,17.52,21.11,21.11,0,0,1,70.66,38.64m-.21,0A20.91,20.91,0,1,0,49.54,59.55,20.91,20.91,0,0,0,70.45,38.64Z" style="fill:#453c3a;fill-rule:evenodd"/><path d="M70.8,38.64A21.26,21.26,0,1,1,49.54,17.38,21.26,21.26,0,0,1,70.8,38.64m-.21,0a21,21,0,1,0-21.05,21A21,21,0,0,0,70.59,38.64Z" style="fill:#463d3a;fill-rule:evenodd"/><path d="M70.94,38.64a21.4,21.4,0,1,1-21.4-21.39,21.4,21.4,0,0,1,21.4,21.39m-.21,0A21.19,21.19,0,1,0,49.54,59.82,21.19,21.19,0,0,0,70.73,38.64Z" style="fill:#483e3b;fill-rule:evenodd"/><path d="M71.07,38.64A21.53,21.53,0,1,1,49.54,17.11,21.52,21.52,0,0,1,71.07,38.64m-.2,0A21.33,21.33,0,1,0,49.54,60,21.33,21.33,0,0,0,70.87,38.64Z" style="fill:#493f3c;fill-rule:evenodd"/><path d="M71.21,38.64A21.67,21.67,0,1,1,49.54,17,21.67,21.67,0,0,1,71.21,38.64m-.21,0A21.46,21.46,0,1,0,49.54,60.1,21.45,21.45,0,0,0,71,38.64Z" style="fill:#4a3f3c;fill-rule:evenodd"/><path d="M71.35,38.64A21.81,21.81,0,1,1,49.54,16.83,21.8,21.8,0,0,1,71.35,38.64m-.21,0a21.6,21.6,0,1,0-21.6,21.59A21.6,21.6,0,0,0,71.14,38.64Z" style="fill:#4c413d;fill-rule:evenodd"/><path d="M71.49,38.64A21.95,21.95,0,1,1,49.54,16.69a22,22,0,0,1,21.95,22m-.21,0A21.74,21.74,0,1,0,49.54,60.37,21.74,21.74,0,0,0,71.28,38.64Z" style="fill:#4d413d;fill-rule:evenodd"/><path d="M71.62,38.64A22.08,22.08,0,1,1,49.54,16.56,22.07,22.07,0,0,1,71.62,38.64m-.2,0A21.88,21.88,0,1,0,49.54,60.51,21.89,21.89,0,0,0,71.42,38.64Z" style="fill:#4e423e;fill-rule:evenodd"/><path d="M71.76,38.64A22.22,22.22,0,1,1,49.54,16.42,22.21,22.21,0,0,1,71.76,38.64m-.21,0a22,22,0,1,0-22,22A22,22,0,0,0,71.55,38.64Z" style="fill:#50433f;fill-rule:evenodd"/><path d="M71.9,38.64A22.36,22.36,0,1,1,49.54,16.28,22.36,22.36,0,0,1,71.9,38.64m-.21,0A22.15,22.15,0,1,0,49.54,60.78,22.14,22.14,0,0,0,71.69,38.64Z" style="fill:#51433f;fill-rule:evenodd"/><path d="M72,38.64a22.5,22.5,0,1,1-22.5-22.5A22.49,22.49,0,0,1,72,38.64m-.21,0A22.29,22.29,0,1,0,49.54,60.92,22.29,22.29,0,0,0,71.83,38.64Z" style="fill:#524440;fill-rule:evenodd"/><path d="M72.17,38.64A22.63,22.63,0,1,1,49.54,16,22.63,22.63,0,0,1,72.17,38.64m-.2,0A22.43,22.43,0,1,0,49.54,61.06,22.43,22.43,0,0,0,72,38.64Z" style="fill:#534540;fill-rule:evenodd"/><path d="M72.31,38.64A22.77,22.77,0,1,1,49.54,15.87,22.76,22.76,0,0,1,72.31,38.64m-.2,0A22.57,22.57,0,1,0,49.54,61.2,22.57,22.57,0,0,0,72.11,38.64Z" style="fill:#544541;fill-rule:evenodd"/><path d="M72.45,38.64A22.91,22.91,0,1,1,49.54,15.73,22.91,22.91,0,0,1,72.45,38.64m-.21,0a22.7,22.7,0,1,0-22.7,22.69A22.7,22.7,0,0,0,72.24,38.64Z" style="fill:#564641;fill-rule:evenodd"/><path d="M72.59,38.64a23,23,0,1,1-23.05-23A23,23,0,0,1,72.59,38.64m-.21,0A22.84,22.84,0,1,0,49.54,61.47,22.83,22.83,0,0,0,72.38,38.64Z" style="fill:#574742;fill-rule:evenodd"/><path d="M72.72,38.64A23.18,23.18,0,1,1,49.54,15.46,23.18,23.18,0,0,1,72.72,38.64m-.2,0a23,23,0,1,0-23,23A23,23,0,0,0,72.52,38.64Z" style="fill:#584742;fill-rule:evenodd"/><path d="M72.86,38.64A23.32,23.32,0,1,1,49.54,15.32,23.32,23.32,0,0,1,72.86,38.64m-.2,0A23.12,23.12,0,1,0,49.54,61.75,23.11,23.11,0,0,0,72.66,38.64Z" style="fill:#594843;fill-rule:evenodd"/><path d="M73,38.64A23.46,23.46,0,1,1,49.54,15.18,23.45,23.45,0,0,1,73,38.64m-.21,0A23.25,23.25,0,1,0,49.54,61.88,23.25,23.25,0,0,0,72.79,38.64Z" style="fill:#5a4943;fill-rule:evenodd"/><path d="M73.14,38.64A23.6,23.6,0,1,1,49.54,15a23.6,23.6,0,0,1,23.6,23.6m-.21,0A23.39,23.39,0,1,0,49.54,62,23.39,23.39,0,0,0,72.93,38.64Z" style="fill:#5b4943;fill-rule:evenodd"/><path d="M73.27,38.64A23.73,23.73,0,1,1,49.54,14.91,23.73,23.73,0,0,1,73.27,38.64m-.2,0A23.53,23.53,0,1,0,49.54,62.16,23.52,23.52,0,0,0,73.07,38.64Z" style="fill:#5d4a44;fill-rule:evenodd"/><path d="M73.41,38.64A23.87,23.87,0,1,1,49.54,14.77,23.86,23.86,0,0,1,73.41,38.64m-.2,0A23.67,23.67,0,1,0,49.54,62.3,23.66,23.66,0,0,0,73.21,38.64Z" style="fill:#5d4a44;fill-rule:evenodd"/><path d="M73.55,38.64a24,24,0,1,1-24-24,24,24,0,0,1,24,24m-.21,0a23.8,23.8,0,1,0-23.8,23.79A23.79,23.79,0,0,0,73.34,38.64Z" style="fill:#5e4b44;fill-rule:evenodd"/><path d="M73.69,38.64A24.15,24.15,0,1,1,49.54,14.49,24.14,24.14,0,0,1,73.69,38.64m-.21,0A23.94,23.94,0,1,0,49.54,62.57,23.94,23.94,0,0,0,73.48,38.64Z" style="fill:#604c45;fill-rule:evenodd"/><path d="M73.82,38.64A24.28,24.28,0,1,1,49.54,14.36,24.28,24.28,0,0,1,73.82,38.64m-.2,0A24.08,24.08,0,1,0,49.54,62.71,24.08,24.08,0,0,0,73.62,38.64Z" style="fill:#614c45;fill-rule:evenodd"/><path d="M74,38.64A24.42,24.42,0,1,1,49.54,14.22,24.41,24.41,0,0,1,74,38.64m-.2,0A24.22,24.22,0,1,0,49.54,62.85,24.21,24.21,0,0,0,73.76,38.64Z" style="fill:#614c45;fill-rule:evenodd"/><path d="M74.1,38.64A24.56,24.56,0,1,1,49.54,14.08,24.55,24.55,0,0,1,74.1,38.64m-.21,0A24.35,24.35,0,1,0,49.54,63,24.35,24.35,0,0,0,73.89,38.64Z" style="fill:#634d46;fill-rule:evenodd"/><path d="M74.24,38.64a24.7,24.7,0,1,1-24.7-24.7,24.7,24.7,0,0,1,24.7,24.7m-.21,0A24.49,24.49,0,1,0,49.54,63.12,24.48,24.48,0,0,0,74,38.64Z" style="fill:#644d46;fill-rule:evenodd"/><path d="M74.37,38.64A24.83,24.83,0,1,1,49.54,13.81,24.83,24.83,0,0,1,74.37,38.64m-.2,0A24.63,24.63,0,1,0,49.54,63.26,24.63,24.63,0,0,0,74.17,38.64Z" style="fill:#654e46;fill-rule:evenodd"/><path d="M74.51,38.64a25,25,0,1,1-25-25,25,25,0,0,1,25,25m-.2,0A24.77,24.77,0,1,0,49.54,63.4,24.77,24.77,0,0,0,74.31,38.64Z" style="fill:#664e46;fill-rule:evenodd"/><path d="M74.65,38.64A25.11,25.11,0,1,1,49.54,13.53,25.11,25.11,0,0,1,74.65,38.64m-.21,0a24.9,24.9,0,1,0-24.9,24.89A24.89,24.89,0,0,0,74.44,38.64Z" style="fill:#674f46;fill-rule:evenodd"/><path d="M74.79,38.64A25.25,25.25,0,1,1,49.54,13.39,25.24,25.24,0,0,1,74.79,38.64m-.21,0a25,25,0,1,0-25,25A25,25,0,0,0,74.58,38.64Z" style="fill:#684f47;fill-rule:evenodd"/><path d="M74.92,38.64A25.38,25.38,0,1,1,49.54,13.26,25.38,25.38,0,0,1,74.92,38.64m-.2,0A25.18,25.18,0,1,0,49.54,63.81,25.18,25.18,0,0,0,74.72,38.64Z" style="fill:#695047;fill-rule:evenodd"/><path d="M75.06,38.64A25.52,25.52,0,1,1,49.54,13.12,25.51,25.51,0,0,1,75.06,38.64m-.2,0A25.32,25.32,0,1,0,49.54,64,25.32,25.32,0,0,0,74.86,38.64Z" style="fill:#6a5047;fill-rule:evenodd"/><path d="M75.2,38.64A25.66,25.66,0,1,1,49.54,13,25.65,25.65,0,0,1,75.2,38.64m-.21,0A25.45,25.45,0,1,0,49.54,64.09,25.44,25.44,0,0,0,75,38.64Z" style="fill:#6b5047;fill-rule:evenodd"/><path d="M75.34,38.64a25.8,25.8,0,1,1-25.8-25.8,25.8,25.8,0,0,1,25.8,25.8m-.21,0A25.59,25.59,0,1,0,49.54,64.22,25.59,25.59,0,0,0,75.13,38.64Z" style="fill:#6c5147;fill-rule:evenodd"/><path d="M75.48,38.64A25.94,25.94,0,1,1,49.54,12.71,25.93,25.93,0,0,1,75.48,38.64m-.21,0A25.73,25.73,0,1,0,49.54,64.36,25.73,25.73,0,0,0,75.27,38.64Z" style="fill:#6d5147;fill-rule:evenodd"/><path d="M75.61,38.64A26.07,26.07,0,1,1,49.54,12.57,26.07,26.07,0,0,1,75.61,38.64m-.2,0A25.87,25.87,0,1,0,49.54,64.5,25.87,25.87,0,0,0,75.41,38.64Z" style="fill:#6e5147;fill-rule:evenodd"/><path d="M75.75,38.64A26.21,26.21,0,1,1,49.54,12.43,26.2,26.2,0,0,1,75.75,38.64m-.21,0a26,26,0,1,0-26,26A26,26,0,0,0,75.54,38.64Z" style="fill:#6f5248;fill-rule:evenodd"/><path d="M75.89,38.64A26.35,26.35,0,1,1,49.54,12.29,26.34,26.34,0,0,1,75.89,38.64m-.21,0A26.14,26.14,0,1,0,49.54,64.77,26.14,26.14,0,0,0,75.68,38.64Z" style="fill:#705248;fill-rule:evenodd"/><path d="M76,38.64A26.49,26.49,0,1,1,49.54,12.16,26.49,26.49,0,0,1,76,38.64m-.21,0A26.28,26.28,0,1,0,49.54,64.91,26.28,26.28,0,0,0,75.82,38.64Z" style="fill:#715248;fill-rule:evenodd"/><path d="M76.16,38.64A26.62,26.62,0,1,1,49.54,12,26.61,26.61,0,0,1,76.16,38.64m-.2,0A26.42,26.42,0,1,0,49.54,65.05,26.42,26.42,0,0,0,76,38.64Z" style="fill:#725348;fill-rule:evenodd"/><path d="M76.3,38.64A26.76,26.76,0,1,1,49.54,11.88,26.76,26.76,0,0,1,76.3,38.64m-.21,0A26.55,26.55,0,1,0,49.54,65.19,26.54,26.54,0,0,0,76.09,38.64Z" style="fill:#735348;fill-rule:evenodd"/><path d="M76.44,38.64a26.9,26.9,0,1,1-26.9-26.9,26.89,26.89,0,0,1,26.9,26.9m-.21,0A26.69,26.69,0,1,0,49.54,65.32,26.69,26.69,0,0,0,76.23,38.64Z" style="fill:#745348;fill-rule:evenodd"/><path d="M76.58,38.64a27,27,0,1,1-27-27,27,27,0,0,1,27,27m-.21,0A26.83,26.83,0,1,0,49.54,65.46,26.83,26.83,0,0,0,76.37,38.64Z" style="fill:#755348;fill-rule:evenodd"/><path d="M76.71,38.64A27.17,27.17,0,1,1,49.54,11.47,27.16,27.16,0,0,1,76.71,38.64m-.2,0a27,27,0,1,0-27,27A27,27,0,0,0,76.51,38.64Z" style="fill:#765348;fill-rule:evenodd"/><path d="M76.85,38.64A27.31,27.31,0,1,1,49.54,11.33,27.3,27.3,0,0,1,76.85,38.64m-.21,0a27.1,27.1,0,1,0-27.1,27.1A27.1,27.1,0,0,0,76.64,38.64Z" style="fill:#775448;fill-rule:evenodd"/><path d="M77,38.64A27.45,27.45,0,1,1,49.54,11.19,27.45,27.45,0,0,1,77,38.64m-.21,0A27.24,27.24,0,1,0,49.54,65.87,27.23,27.23,0,0,0,76.78,38.64Z" style="fill:#785448;fill-rule:evenodd"/><path d="M77.13,38.64A27.59,27.59,0,1,1,49.54,11.05,27.58,27.58,0,0,1,77.13,38.64m-.21,0A27.38,27.38,0,1,0,49.54,66,27.38,27.38,0,0,0,76.92,38.64Z" style="fill:#795448;fill-rule:evenodd"/><path d="M77.26,38.64A27.72,27.72,0,1,1,49.54,10.92,27.72,27.72,0,0,1,77.26,38.64m-.2,0A27.52,27.52,0,1,0,49.54,66.15,27.52,27.52,0,0,0,77.06,38.64Z" style="fill:#7a5448;fill-rule:evenodd"/><path d="M77.4,38.64A27.86,27.86,0,1,1,49.54,10.78,27.85,27.85,0,0,1,77.4,38.64m-.21,0A27.65,27.65,0,1,0,49.54,66.29,27.64,27.64,0,0,0,77.19,38.64Z" style="fill:#7b5548;fill-rule:evenodd"/><path d="M77.54,38.64a28,28,0,1,1-28-28,28,28,0,0,1,28,28m-.21,0A27.79,27.79,0,1,0,49.54,66.42,27.79,27.79,0,0,0,77.33,38.64Z" style="fill:#7b5548;fill-rule:evenodd"/><path d="M77.68,38.64A28.14,28.14,0,1,1,49.54,10.5,28.14,28.14,0,0,1,77.68,38.64m-.21,0A27.93,27.93,0,1,0,49.54,66.56,27.92,27.92,0,0,0,77.47,38.64Z" style="fill:#7d5548;fill-rule:evenodd"/><path d="M77.81,38.64A28.27,28.27,0,1,1,49.54,10.37,28.26,28.26,0,0,1,77.81,38.64m-.2,0A28.07,28.07,0,1,0,49.54,66.7,28.07,28.07,0,0,0,77.61,38.64Z" style="fill:#7e5548;fill-rule:evenodd"/><path d="M78,38.64A28.41,28.41,0,1,1,49.54,10.23,28.41,28.41,0,0,1,78,38.64m-.2,0a28.21,28.21,0,1,0-28.21,28.2A28.2,28.2,0,0,0,77.75,38.64Z" style="fill:#7e5548;fill-rule:evenodd"/><path d="M78.09,38.64A28.55,28.55,0,1,1,49.54,10.09,28.54,28.54,0,0,1,78.09,38.64m-.21,0A28.34,28.34,0,1,0,49.54,67,28.34,28.34,0,0,0,77.88,38.64Z" style="fill:#805547;fill-rule:evenodd"/><path d="M78.23,38.64A28.69,28.69,0,1,1,49.54,10,28.68,28.68,0,0,1,78.23,38.64m-.21,0A28.48,28.48,0,1,0,49.54,67.11,28.48,28.48,0,0,0,78,38.64Z" style="fill:#805547;fill-rule:evenodd"/><path d="M78.36,38.64A28.82,28.82,0,1,1,49.54,9.82,28.82,28.82,0,0,1,78.36,38.64m-.2,0A28.62,28.62,0,1,0,49.54,67.25,28.62,28.62,0,0,0,78.16,38.64Z" style="fill:#805647;fill-rule:evenodd"/><path d="M78.5,38.64a29,29,0,1,1-29-29,29,29,0,0,1,29,29m-.2,0A28.76,28.76,0,1,0,49.54,67.39,28.76,28.76,0,0,0,78.3,38.64Z" style="fill:#815647;fill-rule:evenodd"/><path d="M78.64,38.64a29.1,29.1,0,1,1-29.1-29.1,29.1,29.1,0,0,1,29.1,29.1m-.21,0A28.89,28.89,0,1,0,49.54,67.52,28.88,28.88,0,0,0,78.43,38.64Z" style="fill:#825647;fill-rule:evenodd"/><path d="M78.78,38.64A29.24,29.24,0,1,1,49.54,9.4,29.24,29.24,0,0,1,78.78,38.64m-.21,0a29,29,0,1,0-29,29A29,29,0,0,0,78.57,38.64Z" style="fill:#835647;fill-rule:evenodd"/><path d="M78.91,38.64A29.37,29.37,0,1,1,49.54,9.27,29.36,29.36,0,0,1,78.91,38.64m-.2,0A29.17,29.17,0,1,0,49.54,67.8,29.17,29.17,0,0,0,78.71,38.64Z" style="fill:#845647;fill-rule:evenodd"/><path d="M79.05,38.64A29.51,29.51,0,1,1,49.54,9.13,29.51,29.51,0,0,1,79.05,38.64m-.2,0a29.31,29.31,0,1,0-29.31,29.3A29.3,29.3,0,0,0,78.85,38.64Z" style="fill:#855647;fill-rule:evenodd"/><path d="M79.19,38.64A29.65,29.65,0,1,1,49.54,9,29.64,29.64,0,0,1,79.19,38.64m-.21,0A29.44,29.44,0,1,0,49.54,68.07,29.44,29.44,0,0,0,79,38.64Z" style="fill:#855647;fill-rule:evenodd"/><path d="M79.33,38.64A29.79,29.79,0,1,1,49.54,8.85,29.79,29.79,0,0,1,79.33,38.64m-.21,0A29.58,29.58,0,1,0,49.54,68.21,29.58,29.58,0,0,0,79.12,38.64Z" style="fill:#875646;fill-rule:evenodd"/><path d="M79.46,38.64A29.92,29.92,0,1,1,49.54,8.72,29.92,29.92,0,0,1,79.46,38.64m-.2,0A29.72,29.72,0,1,0,49.54,68.35,29.72,29.72,0,0,0,79.26,38.64Z" style="fill:#875646;fill-rule:evenodd"/><path d="M79.6,38.64A30.06,30.06,0,1,1,49.54,8.58,30.05,30.05,0,0,1,79.6,38.64m-.2,0A29.86,29.86,0,1,0,49.54,68.49,29.85,29.85,0,0,0,79.4,38.64Z" style="fill:#885646;fill-rule:evenodd"/><path d="M79.74,38.64a30.2,30.2,0,1,1-30.2-30.2,30.2,30.2,0,0,1,30.2,30.2m-.21,0a30,30,0,1,0-30,30A30,30,0,0,0,79.53,38.64Z" style="fill:#895746;fill-rule:evenodd"/><path d="M79.88,38.64A30.34,30.34,0,1,1,49.54,8.3,30.33,30.33,0,0,1,79.88,38.64m-.21,0A30.13,30.13,0,1,0,49.54,68.76,30.13,30.13,0,0,0,79.67,38.64Z" style="fill:#8a5746;fill-rule:evenodd"/><path d="M80,38.64A30.47,30.47,0,1,1,49.54,8.17,30.47,30.47,0,0,1,80,38.64m-.2,0A30.27,30.27,0,1,0,49.54,68.9,30.27,30.27,0,0,0,79.81,38.64Z" style="fill:#8b5746;fill-rule:evenodd"/><path d="M80.15,38.64A30.61,30.61,0,1,1,49.54,8,30.6,30.6,0,0,1,80.15,38.64m-.2,0A30.41,30.41,0,1,0,49.54,69,30.42,30.42,0,0,0,80,38.64Z" style="fill:#8c5746;fill-rule:evenodd"/><path d="M80.29,38.64A30.75,30.75,0,1,1,49.54,7.89,30.74,30.74,0,0,1,80.29,38.64m-.21,0A30.54,30.54,0,1,0,49.54,69.17,30.54,30.54,0,0,0,80.08,38.64Z" style="fill:#8d5745;fill-rule:evenodd"/><path d="M80.43,38.64A30.89,30.89,0,1,1,49.54,7.75,30.89,30.89,0,0,1,80.43,38.64m-.21,0A30.68,30.68,0,1,0,49.54,69.31,30.67,30.67,0,0,0,80.22,38.64Z" style="fill:#8e5745;fill-rule:evenodd"/><path d="M80.57,38.64a31,31,0,1,1-31-31,31,31,0,0,1,31,31m-.21,0A30.82,30.82,0,1,0,49.54,69.45,30.82,30.82,0,0,0,80.36,38.64Z" style="fill:#8f5745;fill-rule:evenodd"/><path d="M80.7,38.64A31.16,31.16,0,1,1,49.54,7.48,31.16,31.16,0,0,1,80.7,38.64m-.2,0a31,31,0,1,0-31,31A31,31,0,0,0,80.5,38.64Z" style="fill:#905745;fill-rule:evenodd"/><path d="M80.84,38.64a31.3,31.3,0,1,1-31.3-31.3,31.29,31.29,0,0,1,31.3,31.3m-.21,0A31.09,31.09,0,1,0,49.54,69.73,31.08,31.08,0,0,0,80.63,38.64Z" style="fill:#925745;fill-rule:evenodd"/><path d="M81,38.64A31.44,31.44,0,1,1,49.54,7.2,31.44,31.44,0,0,1,81,38.64m-.21,0A31.23,31.23,0,1,0,49.54,69.86,31.23,31.23,0,0,0,80.77,38.64Z" style="fill:#955744;fill-rule:evenodd"/><path d="M81.12,38.64A31.58,31.58,0,1,1,49.54,7.07,31.58,31.58,0,0,1,81.12,38.64m-.21,0A31.37,31.37,0,1,0,49.54,70,31.36,31.36,0,0,0,80.91,38.64Z" style="fill:#985744;fill-rule:evenodd"/><path d="M81.25,38.64A31.71,31.71,0,1,1,49.54,6.93,31.7,31.7,0,0,1,81.25,38.64m-.2,0a31.51,31.51,0,1,0-31.51,31.5A31.51,31.51,0,0,0,81.05,38.64Z" style="fill:#9a5743;fill-rule:evenodd"/><path d="M81.39,38.64A31.85,31.85,0,1,1,49.54,6.79,31.85,31.85,0,0,1,81.39,38.64m-.21,0A31.64,31.64,0,1,0,49.54,70.28,31.63,31.63,0,0,0,81.18,38.64Z" style="fill:#9e5742;fill-rule:evenodd"/><path d="M81.53,38.64a32,32,0,1,1-32-32,32,32,0,0,1,32,32m-.21,0A31.78,31.78,0,1,0,49.54,70.41,31.78,31.78,0,0,0,81.32,38.64Z" style="fill:#a15641;fill-rule:evenodd"/><path d="M81.67,38.64A32.13,32.13,0,1,1,49.54,6.52,32.13,32.13,0,0,1,81.67,38.64m-.21,0A31.92,31.92,0,1,0,49.54,70.55,31.92,31.92,0,0,0,81.46,38.64Z" style="fill:#a45641;fill-rule:evenodd"/><path d="M81.8,38.64A32.26,32.26,0,1,1,49.54,6.38,32.25,32.25,0,0,1,81.8,38.64m-.2,0A32.06,32.06,0,1,0,49.54,70.69,32.06,32.06,0,0,0,81.6,38.64Z" style="fill:#a75640;fill-rule:evenodd"/><path d="M81.94,38.64a32.4,32.4,0,1,1-32.4-32.4,32.39,32.39,0,0,1,32.4,32.4m-.21,0A32.19,32.19,0,1,0,49.54,70.83,32.19,32.19,0,0,0,81.73,38.64Z" style="fill:#aa553f;fill-rule:evenodd"/><path d="M82.08,38.64A32.54,32.54,0,1,1,49.54,6.1,32.54,32.54,0,0,1,82.08,38.64m-.21,0A32.33,32.33,0,1,0,49.54,71,32.32,32.32,0,0,0,81.87,38.64Z" style="fill:#ad543e;fill-rule:evenodd"/><path d="M82.22,38.64A32.68,32.68,0,1,1,49.54,6,32.68,32.68,0,0,1,82.22,38.64m-.21,0A32.47,32.47,0,1,0,49.54,71.1,32.47,32.47,0,0,0,82,38.64Z" style="fill:#b0543d;fill-rule:evenodd"/><path d="M82.35,38.64A32.81,32.81,0,1,1,49.54,5.83,32.8,32.8,0,0,1,82.35,38.64m-.2,0a32.61,32.61,0,1,0-32.61,32.6A32.61,32.61,0,0,0,82.15,38.64Z" style="fill:#b3533c;fill-rule:evenodd"/><path d="M82.49,38.64A32.95,32.95,0,1,1,49.54,5.69a32.95,32.95,0,0,1,32.95,33m-.21,0A32.74,32.74,0,1,0,49.54,71.38,32.73,32.73,0,0,0,82.28,38.64Z" style="fill:#b7523b;fill-rule:evenodd"/><path d="M82.63,38.64A33.09,33.09,0,1,1,49.54,5.55,33.08,33.08,0,0,1,82.63,38.64m-.21,0A32.88,32.88,0,1,0,49.54,71.51,32.88,32.88,0,0,0,82.42,38.64Z" style="fill:#ba5139;fill-rule:evenodd"/><path d="M82.77,38.64A33.23,33.23,0,1,1,49.54,5.41,33.23,33.23,0,0,1,82.77,38.64m-.21,0a33,33,0,1,0-33,33A33,33,0,0,0,82.56,38.64Z" style="fill:#bc4f38;fill-rule:evenodd"/><path d="M82.9,38.64A33.36,33.36,0,1,1,49.54,5.28,33.35,33.35,0,0,1,82.9,38.64m-.2,0A33.16,33.16,0,1,0,49.54,71.79,33.16,33.16,0,0,0,82.7,38.64Z" style="fill:#bf4e37;fill-rule:evenodd"/><path d="M83,38.64a33.5,33.5,0,1,1-33.5-33.5A33.49,33.49,0,0,1,83,38.64m-.21,0A33.29,33.29,0,1,0,49.54,71.93,33.28,33.28,0,0,0,82.83,38.64Z" style="fill:#c34c35;fill-rule:evenodd"/><path d="M83.18,38.64A33.64,33.64,0,1,1,49.54,5,33.64,33.64,0,0,1,83.18,38.64m-.21,0A33.43,33.43,0,1,0,49.54,72.06,33.42,33.42,0,0,0,83,38.64Z" style="fill:#c64a34;fill-rule:evenodd"/><path d="M83.32,38.64A33.78,33.78,0,1,1,49.54,4.86,33.77,33.77,0,0,1,83.32,38.64m-.21,0A33.57,33.57,0,1,0,49.54,72.2,33.57,33.57,0,0,0,83.11,38.64Z" style="fill:#c94832;fill-rule:evenodd"/><path d="M83.45,38.64A33.91,33.91,0,1,1,49.54,4.73,33.91,33.91,0,0,1,83.45,38.64m-.2,0a33.71,33.71,0,1,0-33.71,33.7A33.71,33.71,0,0,0,83.25,38.64Z" style="fill:#cc4631;fill-rule:evenodd"/><path d="M83.59,38.64a34,34,0,1,1-34.05-34A34,34,0,0,1,83.59,38.64m-.2,0A33.85,33.85,0,1,0,49.54,72.48,33.85,33.85,0,0,0,83.39,38.64Z" style="fill:#cf432f;fill-rule:evenodd"/><path d="M83.73,38.64A34.19,34.19,0,1,1,49.54,4.45,34.18,34.18,0,0,1,83.73,38.64m-.21,0a34,34,0,1,0-34,34A34,34,0,0,0,83.52,38.64Z" style="fill:#d2412e;fill-rule:evenodd"/><path d="M83.87,38.64A34.33,34.33,0,1,1,49.54,4.31,34.33,34.33,0,0,1,83.87,38.64m-.21,0A34.12,34.12,0,1,0,49.54,72.75,34.11,34.11,0,0,0,83.66,38.64Z" style="fill:#d53e2c;fill-rule:evenodd"/><path d="M84,38.64A34.46,34.46,0,1,1,49.54,4.18,34.46,34.46,0,0,1,84,38.64m-.2,0A34.26,34.26,0,1,0,49.54,72.89,34.26,34.26,0,0,0,83.8,38.64Z" style="fill:#d73b2b;fill-rule:evenodd"/><path d="M84.14,38.64A34.6,34.6,0,1,1,49.54,4a34.6,34.6,0,0,1,34.6,34.6m-.2,0A34.4,34.4,0,1,0,49.54,73,34.39,34.39,0,0,0,83.94,38.64Z" style="fill:#db3729;fill-rule:evenodd"/><path d="M84.28,38.64A34.74,34.74,0,1,1,49.54,3.9,34.73,34.73,0,0,1,84.28,38.64m-.21,0A34.53,34.53,0,1,0,49.54,73.16,34.53,34.53,0,0,0,84.07,38.64Z" style="fill:#de3328;fill-rule:evenodd"/><path d="M84.42,38.64A34.88,34.88,0,1,1,49.54,3.76,34.88,34.88,0,0,1,84.42,38.64m-.21,0A34.67,34.67,0,1,0,49.54,73.3,34.67,34.67,0,0,0,84.21,38.64Z" style="fill:#e12f27;fill-rule:evenodd"/><path d="M84.55,38.64a35,35,0,1,1-35-35,35,35,0,0,1,35,35m-.2,0a34.81,34.81,0,1,0-34.81,34.8A34.8,34.8,0,0,0,84.35,38.64Z" style="fill:#e32a26;fill-rule:evenodd"/><path d="M84.69,38.64A35.15,35.15,0,1,1,49.54,3.49,35.14,35.14,0,0,1,84.69,38.64m-.2,0A34.95,34.95,0,1,0,49.54,73.58,34.94,34.94,0,0,0,84.49,38.64Z" style="fill:#e72325;fill-rule:evenodd"/><path d="M84.76,38.64A35.22,35.22,0,1,1,49.54,3.42,35.21,35.21,0,0,1,84.76,38.64m-.14,0A35.08,35.08,0,1,0,49.54,73.71,35.07,35.07,0,0,0,84.62,38.64Z" style="fill:#ec1c24;fill-rule:evenodd"/></g><path d="M66.9,38.64A17.4,17.4,0,1,1,49.5,21,17.51,17.51,0,0,1,66.9,38.64" style="fill:#fff"/><path d="M66.9,38.64A17.4,17.4,0,1,1,49.5,21,17.51,17.51,0,0,1,66.9,38.64Z" style="fill:none;stroke:#231f20;stroke-miterlimit:10.000000953674316"/><path d="M64.4,38.64A14.9,14.9,0,1,1,49.5,23.55,15,15,0,0,1,64.4,38.64"/><path d="M64.4,38.64A14.9,14.9,0,1,1,49.5,23.55,15,15,0,0,1,64.4,38.64Z" style="fill:none;stroke:#231f20;stroke-miterlimit:10.000000953674316;stroke-width:0.5px"/><path d="M3.26,16.56a1.63,1.63,0,1,1-1.63-1.63,1.63,1.63,0,0,1,1.63,1.63" style="fill:#ec2024"/><path d="M14.42,34.06a1.64,1.64,0,1,1-1.64-1.63,1.63,1.63,0,0,1,1.64,1.63" style="fill:#ec2024"/><path d="M87.85,43.31a1.63,1.63,0,1,1-1.63-1.64,1.63,1.63,0,0,1,1.63,1.64" style="fill:#ec2024"/><path d="M93.84,52.09a1.64,1.64,0,1,1-1.64-1.63,1.64,1.64,0,0,1,1.64,1.63" style="fill:#ec2024"/><path d="M99.09,60.89a1.63,1.63,0,1,1-1.63-1.64,1.63,1.63,0,0,1,1.63,1.64" style="fill:#ec2024"/><path d="M8.45,25.26A2.45,2.45,0,1,1,6,22.82a2.45,2.45,0,0,1,2.45,2.44" style="fill:#ec2024"/><path d="M35.81,36.69v4S48,38.86,43.43,51l4.08,1.45S49.77,40,59.11,48.38l2.63-3.44s-11-6.35,0-12.51L58.93,28.8S51,37.32,47.14,25.26l-4.08,1.27s6.17,10.75-7.25,10.16" style="fill:#8d8d8d"/><path d="M35.81,36.69v4S48,38.86,43.43,51l4.08,1.45S49.77,40,59.11,48.38l2.63-3.44s-11-6.35,0-12.51L58.93,28.8S51,37.32,47.14,25.26l-4.08,1.27S49.23,37.28,35.81,36.69Z" style="fill:none;stroke:#000;stroke-miterlimit:10.000000953674316;stroke-width:0.5px"/><path d="M53,38.64a3.4,3.4,0,1,1-3.4-3.49A3.46,3.46,0,0,1,53,38.64"/><path d="M95.48,66.44h3.41c.19,0,.28.09.28.27v.19a.25.25,0,0,1-.28.28H95.48a.56.56,0,0,0-.39.13.42.42,0,0,0-.17.33.39.39,0,0,0,.17.32.56.56,0,0,0,.39.14h2.21a1.64,1.64,0,0,1,1,.35,1.05,1.05,0,0,1,.43.85,1.06,1.06,0,0,1-.43.85,1.64,1.64,0,0,1-1,.35H94.28a.24.24,0,0,1-.28-.28V70a.24.24,0,0,1,.28-.28h3.41a.58.58,0,0,0,.39-.13.41.41,0,0,0,0-.66.58.58,0,0,0-.39-.13H95.48a1.64,1.64,0,0,1-1-.35,1.06,1.06,0,0,1-.43-.85,1.05,1.05,0,0,1,.43-.85,1.59,1.59,0,0,1,1-.35m-5.54.74a1,1,0,0,0-.66.21.64.64,0,0,0-.27.52v.19h2.77a.56.56,0,0,0,.39-.14.39.39,0,0,0,.17-.32.42.42,0,0,0-.17-.33.56.56,0,0,0-.39-.13Zm1.84-.74a1.59,1.59,0,0,1,1,.35,1.05,1.05,0,0,1,.43.85,1.06,1.06,0,0,1-.43.85,1.64,1.64,0,0,1-1,.35H89V69a.63.63,0,0,0,.27.52,1,1,0,0,0,.66.22h3a.24.24,0,0,1,.28.28v.18a.24.24,0,0,1-.28.28h-3a2,2,0,0,1-1.31-.43,1.31,1.31,0,0,1-.54-1V67.91a1.29,1.29,0,0,1,.54-1,2,2,0,0,1,1.31-.43Zm-4.43,3.78a.24.24,0,0,1-.28.28H86.7c-.18,0-.27-.09-.27-.28V66.71a.24.24,0,0,1,.27-.27h.37c.19,0,.28.09.28.27Zm0-4.43a.24.24,0,0,1-.28.28H86.7c-.18,0-.27-.09-.27-.28v-.18c0-.19.09-.28.27-.28h.37a.24.24,0,0,1,.28.28Zm-4.62,2.12a1.27,1.27,0,0,1,.55-1,2,2,0,0,1,1.3-.43h.83c.19,0,.28.09.28.27v.19a.25.25,0,0,1-.28.28h-.83a1,1,0,0,0-.65.21.64.64,0,0,0-.27.52v2.31a.24.24,0,0,1-.28.28H83a.25.25,0,0,1-.28-.28ZM82,69a1.31,1.31,0,0,1-.54,1,2,2,0,0,1-1.31.43H78.67a2,2,0,0,1-1.3-.43,1.29,1.29,0,0,1-.55-1V67.91a1.27,1.27,0,0,1,.55-1,2,2,0,0,1,1.3-.43h1.48a2,2,0,0,1,1.31.43,1.29,1.29,0,0,1,.54,1Zm-4.25,0a.63.63,0,0,0,.27.52,1,1,0,0,0,.65.22h1.48a1,1,0,0,0,.65-.22.63.63,0,0,0,.27-.52V67.91a.64.64,0,0,0-.27-.52,1,1,0,0,0-.65-.21H78.67a1,1,0,0,0-.65.21.64.64,0,0,0-.27.52Zm-5.36-2.58h3.42a.25.25,0,0,1,.28.27v.19a.25.25,0,0,1-.28.28H72.39a.59.59,0,0,0-.39.13.41.41,0,0,0-.16.33A.38.38,0,0,0,72,68a.6.6,0,0,0,.39.14h2.22a1.61,1.61,0,0,1,1,.35,1.06,1.06,0,0,1,.44.85,1.08,1.08,0,0,1-.44.85,1.61,1.61,0,0,1-1,.35H71.19c-.18,0-.27-.09-.27-.28V70c0-.19.09-.28.27-.28h3.42a.59.59,0,0,0,.39-.13A.42.42,0,0,0,75,69a.59.59,0,0,0-.39-.13H72.39a1.61,1.61,0,0,1-1-.35,1.06,1.06,0,0,1-.43-.85,1.05,1.05,0,0,1,.43-.85A1.56,1.56,0,0,1,72.39,66.44Zm-5.91,0H69.9c.19,0,.28.09.28.27v.19a.25.25,0,0,1-.28.28H66.48a.59.59,0,0,0-.39.13.41.41,0,0,0-.16.33.38.38,0,0,0,.16.32.6.6,0,0,0,.39.14H68.7a1.59,1.59,0,0,1,1,.35,1.06,1.06,0,0,1,.44.85,1.08,1.08,0,0,1-.44.85,1.59,1.59,0,0,1-1,.35H65.28c-.18,0-.27-.09-.27-.28V70c0-.19.09-.28.27-.28H68.7a.59.59,0,0,0,.39-.13.42.42,0,0,0,0-.66.59.59,0,0,0-.39-.13H66.48a1.61,1.61,0,0,1-1-.35,1.06,1.06,0,0,1-.43-.85,1.05,1.05,0,0,1,.43-.85A1.56,1.56,0,0,1,66.48,66.44Zm-5.54.74a1,1,0,0,0-.65.21.64.64,0,0,0-.27.52v.19h2.77a.6.6,0,0,0,.39-.14.38.38,0,0,0,.16-.32.41.41,0,0,0-.16-.33.59.59,0,0,0-.39-.13Zm1.85-.74a1.59,1.59,0,0,1,1.05.35,1.05,1.05,0,0,1,.43.85,1.06,1.06,0,0,1-.43.85,1.64,1.64,0,0,1-1.05.35H60V69a.63.63,0,0,0,.27.52,1,1,0,0,0,.65.22H64a.24.24,0,0,1,.28.28v.18a.24.24,0,0,1-.28.28H60.94a2,2,0,0,1-1.3-.43,1.31,1.31,0,0,1-.54-1V67.91a1.29,1.29,0,0,1,.54-1,2,2,0,0,1,1.3-.43Zm-4.71,0c.19,0,.28.09.28.27v.19a.25.25,0,0,1-.28.28H55a1,1,0,0,0-.65.21.64.64,0,0,0-.27.52V69a.63.63,0,0,0,.27.52,1,1,0,0,0,.65.22h3a.24.24,0,0,1,.28.28v.18a.24.24,0,0,1-.28.28H55a2,2,0,0,1-1.3-.43,1.31,1.31,0,0,1-.54-1V67.91a1.29,1.29,0,0,1,.54-1,2,2,0,0,1,1.3-.43Zm-5.91,0c.19,0,.28.09.28.27v.19a.25.25,0,0,1-.28.28H49.12a1,1,0,0,0-.65.21.64.64,0,0,0-.27.52V69a.63.63,0,0,0,.27.52,1,1,0,0,0,.65.22h3.05a.24.24,0,0,1,.28.28v.18a.24.24,0,0,1-.28.28H49.12a2,2,0,0,1-1.3-.43,1.31,1.31,0,0,1-.54-1V67.91a1.29,1.29,0,0,1,.54-1,2,2,0,0,1,1.3-.43Zm-7.39,2.21-1.2-2.25-1.19,2.25ZM42,69.39l-.45.83c-.12.19-.24.28-.37.28h-.27c-.19,0-.28-.09-.28-.27a.68.68,0,0,1,.09-.28l2.4-4.34c.07-.19.16-.28.28-.28h.37c.12,0,.21.09.28.28L46.45,70a.69.69,0,0,1,.09.27.24.24,0,0,1-.28.28H46c-.13,0-.25-.09-.38-.28l-.44-.83Zm-7.52-1.84h1.44c.19,0,.28.09.28.27V68c0,.18-.09.27-.28.27H32.87a1,1,0,0,0-.65.22A.64.64,0,0,0,32,69a.63.63,0,0,0,.27.52,1,1,0,0,0,.65.22h3.79a.25.25,0,0,1,.28.28v.18a.25.25,0,0,1-.28.28H32.87a2,2,0,0,1-1.3-.43,1.29,1.29,0,0,1,0-2.09l.09-.07s0,0-.08-.06a1.29,1.29,0,0,1-.54-1,1.31,1.31,0,0,1,.54-1,2,2,0,0,1,1.3-.43,2,2,0,0,1,1.31.43,1.31,1.31,0,0,1,.54,1A1.23,1.23,0,0,1,34.48,67.55Zm-1.61-1.48a1,1,0,0,0-.65.21.66.66,0,0,0-.27.53.64.64,0,0,0,.27.52,1.09,1.09,0,0,0,1.31,0,.64.64,0,0,0,.27-.52.66.66,0,0,0-.27-.53A1,1,0,0,0,32.87,66.07Zm-9.23.37h3.41c.19,0,.28.09.28.27v.19a.25.25,0,0,1-.28.28H23.64a.59.59,0,0,0-.39.13.41.41,0,0,0-.16.33.38.38,0,0,0,.16.32.6.6,0,0,0,.39.14h2.22a1.63,1.63,0,0,1,1,.35,1.05,1.05,0,0,1,.43.85,1.06,1.06,0,0,1-.43.85,1.63,1.63,0,0,1-1,.35H22.44a.24.24,0,0,1-.28-.28V70a.24.24,0,0,1,.28-.28h3.42a.59.59,0,0,0,.39-.13.42.42,0,0,0,0-.66.59.59,0,0,0-.39-.13H23.64a1.59,1.59,0,0,1-1-.35,1.08,1.08,0,0,1-.44-.85,1.06,1.06,0,0,1,.44-.85A1.54,1.54,0,0,1,23.64,66.44Zm-5.54.74a1,1,0,0,0-.65.21.64.64,0,0,0-.27.52v.19H20a.6.6,0,0,0,.39-.14.38.38,0,0,0,.16-.32.41.41,0,0,0-.16-.33.59.59,0,0,0-.39-.13ZM20,66.44a1.58,1.58,0,0,1,1,.35,1.05,1.05,0,0,1,.43.85,1.06,1.06,0,0,1-.43.85,1.63,1.63,0,0,1-1,.35H17.18V69a.63.63,0,0,0,.27.52,1,1,0,0,0,.65.22h3c.18,0,.27.09.27.28v.18c0,.19-.09.28-.27.28h-3a2,2,0,0,1-1.3-.43,1.29,1.29,0,0,1-.55-1V67.91a1.27,1.27,0,0,1,.55-1,2,2,0,0,1,1.3-.43Zm-7.39,1.47a1.29,1.29,0,0,1,.54-1,2,2,0,0,1,1.3-.43h.84a.24.24,0,0,1,.27.27v.19a.25.25,0,0,1-.27.28H14.4a1,1,0,0,0-.65.21.64.64,0,0,0-.27.52v2.31a.24.24,0,0,1-.28.28h-.36a.24.24,0,0,1-.28-.28ZM8.5,70.5a2,2,0,0,1-1.31-.43,1.31,1.31,0,0,1-.54-1V66.71c0-.18.09-.27.28-.27h.36c.19,0,.28.09.28.27V69a.63.63,0,0,0,.27.52,1,1,0,0,0,.66.22h2.4V66.71a.24.24,0,0,1,.27-.27h.37c.19,0,.28.09.28.27V70.5a1.31,1.31,0,0,1-.54,1A2.08,2.08,0,0,1,10,72H9.14c-.18,0-.27-.09-.27-.28v-.18c0-.19.09-.28.27-.28H10a1,1,0,0,0,.66-.22.64.64,0,0,0,.27-.52Zm-6-4.43H.28A.24.24,0,0,1,0,65.79v-.18a.24.24,0,0,1,.28-.28H5.63a.24.24,0,0,1,.28.28v.18a.24.24,0,0,1-.28.28H3.42v4.15a.25.25,0,0,1-.28.28H2.77a.25.25,0,0,1-.28-.28Z" style="fill:#231f20"/><polygon points="9.76 4.61 6 11 12.27 11 18.82 0.92 9.76 4.61" style="fill:#231f20"/><polygon points="12.41 0 10.39 3.43 18.54 0 12.41 0" style="fill:#ec2024"/><path d="M60.79,1.29,56.94,8.5a.42.42,0,0,0,0,.3c0,.12.12.18.26.18h4.69l-1,1.85-.13.17H53.34a2.42,2.42,0,0,1-1-.16,1.27,1.27,0,0,1-.59-.42.92.92,0,0,1-.2-.57,1.38,1.38,0,0,1,.19-.68L56,1.29ZM47,3.66,45.85,5.81h.06c.34-.16.7-.31,1.07-.47a3.69,3.69,0,0,1,1.23-.26l1.84-3.4V1.57s0,0,0-.06a12.17,12.17,0,0,0-1.62,1A7.92,7.92,0,0,0,47,3.65ZM43.12,11H38.48l4-7.46a4.73,4.73,0,0,1,1-.92A7.46,7.46,0,0,1,46,1.51a8.05,8.05,0,0,1,1.2-.22H54.9L49.7,11H45l2.11-3.94H45.23ZM30,11l3.26-6.08a1.51,1.51,0,0,1,.41-.44,5.68,5.68,0,0,1,.6-.4l.66-.38a5.81,5.81,0,0,0,.61-.38H31.76l1.09-2H42.6l-1.08,2H39.13L35,11ZM16.26,9.15a1.7,1.7,0,0,0,.42,1,2,2,0,0,0,.87.56,4.16,4.16,0,0,0,1.2.26c.46,0,.93.06,1.43.06h.9c.35,0,.79,0,1.33-.06a9.68,9.68,0,0,0,1.73-.3A8.63,8.63,0,0,0,26,9.93a6.13,6.13,0,0,0,1.7-1.34L28,8.27a1.46,1.46,0,0,0,.17-.22,1.59,1.59,0,0,0,.13-.22,3.73,3.73,0,0,0,.2-.56q.06-.27.12-.6a1.12,1.12,0,0,0-.27-1,2.38,2.38,0,0,0-.91-.56,6.24,6.24,0,0,0-1.22-.28c-.44,0-.86-.11-1.24-.17a5.48,5.48,0,0,1-1-.23c-.27-.09-.4-.23-.4-.42V3.9s0-.06,0-.07a.43.43,0,0,1,0-.05.24.24,0,0,1,.05-.12,3.35,3.35,0,0,1,1.24-1.21c.57-.35,1.14-.66,1.71-.94q.09,0,.09.06v.11L25.31,4.13h4.63l.41-.73c0-.08,0-.13,0-.14l.11-.45A1,1,0,0,0,30.26,2a1.83,1.83,0,0,0-.77-.45,5.24,5.24,0,0,0-1.13-.18c-.42,0-.85,0-1.29,0H23.76a7.3,7.3,0,0,0-1.19.21,7.92,7.92,0,0,0-1.3.43,6.92,6.92,0,0,0-1.22.68,4.47,4.47,0,0,0-1,.92L18.83,4a2.81,2.81,0,0,0-.21.43,1.35,1.35,0,0,0-.11.45l-.06.6a1,1,0,0,0,.55.69,3.45,3.45,0,0,0,1,.38,8.23,8.23,0,0,0,1.19.19c.41,0,.79.1,1.12.16a3.14,3.14,0,0,1,.81.24.48.48,0,0,1,.29.48v.05s0,0,0,0l0,.11L23,8.47a1.16,1.16,0,0,1-.39.46,1.38,1.38,0,0,1-.78.18A1.49,1.49,0,0,1,21.34,9a.26.26,0,0,1-.23-.26.15.15,0,0,1,0-.06s0,0,0-.05l.59-1.08V7.43H17a.44.44,0,0,1-.05.09l-.12.16a6.9,6.9,0,0,0-.36.72A2.06,2.06,0,0,0,16.26,9.15Z" style="fill:#231f20"/></g></g></svg>