<svg xmlns="http://www.w3.org/2000/svg" viewBox="0 0 104.69 40.53"><title>JFS</title><g id="eab73245-5896-4fb0-b772-4ce91157df91" data-name="Layer 2"><g id="ea6bf608-b59a-4c1c-b26d-c4c09161d353" data-name="Layer 1"><path d="M28.11.82C24-1.64,14.94,2.24,14.94,2.24S5.38,6,1.89,10.49c-1.75,2.27-3,5-.44,15.23s5.65,13,5.65,13,4.64,4,15.66.09,13.5-9.42,13.5-9.42,2-3.87-.06-13.72S32.25,3.28,28.11.82m3.27,31.91c-3,2.37-14.82,8.08-22.14.93-6.64-6.48-9-18.09-6.5-22.11,3.13-5.08,14.2-9.82,22.63-6,0,0,6.33,2.55,9.23,12.3S34.42,30.37,31.38,32.73Z" style="fill:#007dc2"/><path d="M12.74,12.05a1.47,1.47,0,0,1,1.08-.45,1.5,1.5,0,0,1,1.52,1.53,1.45,1.45,0,0,1-.45,1.07,1.54,1.54,0,0,1-2.6-1.07,1.47,1.47,0,0,1,.45-1.08M28.07,26a6.26,6.26,0,0,1-3.77,1,6,6,0,0,1-3.19-.78,2.23,2.23,0,0,1-1.26-1.88,1.28,1.28,0,0,1,.36-.94,1.3,1.3,0,0,1,.94-.36,1.88,1.88,0,0,1,1.3.74c.12.14.22.24.29.31a2.08,2.08,0,0,0,.8.5,3.64,3.64,0,0,0,1.13.15A2.54,2.54,0,0,0,26,24.44a.9.9,0,0,0,.47-.8c0-.45-.56-.81-1.67-1.08l-.07,0-1.11-.26A6.83,6.83,0,0,1,20.72,21a2.54,2.54,0,0,1-.86-2,3.65,3.65,0,0,1,.23-1.32h-.88v7.75a1.8,1.8,0,0,1-.36,1.22,1.38,1.38,0,0,1-1.09.4,1.37,1.37,0,0,1-1.08-.4,1.8,1.8,0,0,1-.36-1.22V17.71H15.26V27.4A4.06,4.06,0,0,1,14.58,30a2.73,2.73,0,0,1-2.19.8A2.28,2.28,0,0,1,11,30.5a1.25,1.25,0,0,1-.18-1.78,1.09,1.09,0,0,1,.78-.29.78.78,0,0,0,.56-.18.81.81,0,0,0,.18-.58V17.06a1.78,1.78,0,0,1,.36-1.22,1.35,1.35,0,0,1,1.09-.41h2.5v-.67A4.07,4.07,0,0,1,17,12.14a2.7,2.7,0,0,1,2.19-.81,2.26,2.26,0,0,1,1.36.34,1.25,1.25,0,0,1,.18,1.78,1.06,1.06,0,0,1-.78.3.78.78,0,0,0-.56.17.81.81,0,0,0-.18.58v.94H24.3a6.12,6.12,0,0,1,3,.68,2,2,0,0,1,1.2,1.65,1.1,1.1,0,0,1-.34.83,1.18,1.18,0,0,1-.86.33A2.56,2.56,0,0,1,26,18.26l-.23-.18a1.85,1.85,0,0,0-.63-.3,2.86,2.86,0,0,0-.79-.12,2.24,2.24,0,0,0-1.2.25.84.84,0,0,0-.41.76.7.7,0,0,0,.37.61,7.4,7.4,0,0,0,1.69.5l.89.2a6.71,6.71,0,0,1,2.89,1.19,2.58,2.58,0,0,1,.84,2A3.3,3.3,0,0,1,28.07,26Z" style="fill:#828386"/><path d="M44.88,11.94h-.33a.94.94,0,0,1-.62-.18.69.69,0,0,1-.21-.55.67.67,0,0,1,.21-.54.94.94,0,0,1,.62-.18h.33V9.43a1.26,1.26,0,0,1,.26-.86.93.93,0,0,1,.76-.29,1,1,0,0,1,.78.29,1.27,1.27,0,0,1,.28.87v1.05h.52a1,1,0,0,1,.63.17.71.71,0,0,1,.2.55.69.69,0,0,1-.21.55.92.92,0,0,1-.62.18H47v4.28a.62.62,0,0,0,.09.39.47.47,0,0,0,.35.1h.36a.73.73,0,0,1,.53.19.71.71,0,0,1,.2.53.82.82,0,0,1-.34.72,2.07,2.07,0,0,1-1.09.22,2.43,2.43,0,0,1-1.71-.46,2.47,2.47,0,0,1-.47-1.76Z" style="fill:#828386"/><path d="M51,14.9a2.16,2.16,0,0,0,.46,1.39,1.55,1.55,0,0,0,1.21.48,2.21,2.21,0,0,0,.65-.1,1.62,1.62,0,0,0,.53-.3l.15-.13a1.49,1.49,0,0,1,.92-.48.8.8,0,0,1,.58.23.75.75,0,0,1,.23.56,1.07,1.07,0,0,1-.12.48,1.83,1.83,0,0,1-.39.48,3.35,3.35,0,0,1-1.19.73,4.47,4.47,0,0,1-1.53.25,3.38,3.38,0,0,1-2.67-1.13,4.52,4.52,0,0,1-1-3.06,4.39,4.39,0,0,1,1-3,3.33,3.33,0,0,1,2.65-1.1,3.58,3.58,0,0,1,2.69,1,3.76,3.76,0,0,1,1,2.77,1,1,0,0,1-.18.7,1.45,1.45,0,0,1-.93.19H51Zm3-1.36a1.76,1.76,0,0,0-.42-1.19,1.47,1.47,0,0,0-1.11-.41,1.42,1.42,0,0,0-1.07.41A1.93,1.93,0,0,0,51,13.54ZM53.72,8,52.54,9.33a.71.71,0,0,1-.23.19.68.68,0,0,1-.26,0,.6.6,0,0,1-.43-.16A.54.54,0,0,1,51.45,9a.67.67,0,0,1,0-.18,2.15,2.15,0,0,1,.11-.25L52.51,7a.75.75,0,0,1,.26-.27.7.7,0,0,1,.35-.09.86.86,0,0,1,.61.22.74.74,0,0,1,.24.56.81.81,0,0,1-.06.31A1,1,0,0,1,53.72,8Z" style="fill:#828386"/><path d="M63.68,12.39a.77.77,0,0,1-.27.6,1,1,0,0,1-1.14.12,2.38,2.38,0,0,1-.5-.48,2.16,2.16,0,0,0-.6-.54,1.49,1.49,0,0,0-.66-.14,1.26,1.26,0,0,0-1.14.61A3.5,3.5,0,0,0,59,14.37a3.15,3.15,0,0,0,.39,1.72,1.29,1.29,0,0,0,1.14.6,1.34,1.34,0,0,0,.58-.11,1.3,1.3,0,0,0,.46-.37,2.1,2.1,0,0,0,.22-.28,1.27,1.27,0,0,1,1-.65.9.9,0,0,1,.66.27.83.83,0,0,1,.28.65,1.5,1.5,0,0,1-.19.7,2.89,2.89,0,0,1-.57.69,3.78,3.78,0,0,1-1.13.68,3.83,3.83,0,0,1-1.33.22,3.35,3.35,0,0,1-2.66-1.1,4.48,4.48,0,0,1-1-3.05,4.4,4.4,0,0,1,1-3,3.42,3.42,0,0,1,2.69-1.1,3.76,3.76,0,0,1,2.24.66,1.89,1.89,0,0,1,.93,1.52" style="fill:#828386"/><path d="M67,17.21a1.23,1.23,0,0,1-.26.86,1.21,1.21,0,0,1-1.55,0,1.28,1.28,0,0,1-.26-.86V11.5a1.29,1.29,0,0,1,.26-.87,1,1,0,0,1,.77-.29.9.9,0,0,1,.69.23,1.09,1.09,0,0,1,.27.72l0,.26a2.61,2.61,0,0,1,2.35-1.34,2.5,2.5,0,0,1,1.91.69,2.9,2.9,0,0,1,.65,2v4.26a1.28,1.28,0,0,1-.26.86,1.21,1.21,0,0,1-1.55,0,1.23,1.23,0,0,1-.26-.86V13.55a2,2,0,0,0-.28-1.19,1.11,1.11,0,0,0-.92-.36,1.54,1.54,0,0,0-1.16.44A1.65,1.65,0,0,0,67,13.63Z" style="fill:#828386"/><path d="M73.37,8.69a1.13,1.13,0,0,1,1.1-1.1,1.1,1.1,0,0,1,.77,1.87,1.07,1.07,0,0,1-.77.32,1.06,1.06,0,0,1-.77-.33,1,1,0,0,1-.33-.76m2.13,8.52a1.23,1.23,0,0,1-.26.86,1.21,1.21,0,0,1-1.55,0,1.28,1.28,0,0,1-.26-.86V11.5a1.29,1.29,0,0,1,.26-.87,1.18,1.18,0,0,1,1.55,0,1.24,1.24,0,0,1,.26.87Z" style="fill:#828386"/><path d="M83.51,12.39a.77.77,0,0,1-.27.6,1,1,0,0,1-1.14.12,2.38,2.38,0,0,1-.5-.48,2.16,2.16,0,0,0-.6-.54,1.49,1.49,0,0,0-.66-.14,1.24,1.24,0,0,0-1.13.61,3.39,3.39,0,0,0-.38,1.81,3.15,3.15,0,0,0,.39,1.72,1.29,1.29,0,0,0,1.14.6,1.22,1.22,0,0,0,1-.48,2.1,2.1,0,0,0,.22-.28,1.27,1.27,0,0,1,.95-.65.9.9,0,0,1,.67.27.86.86,0,0,1,.27.65,1.5,1.5,0,0,1-.19.7,2.89,2.89,0,0,1-.57.69,3.55,3.55,0,0,1-2.46.9,3.35,3.35,0,0,1-2.66-1.1,4.48,4.48,0,0,1-1-3.05,4.4,4.4,0,0,1,1-3,3.42,3.42,0,0,1,2.69-1.1,3.76,3.76,0,0,1,2.24.66,1.89,1.89,0,0,1,.93,1.52" style="fill:#828386"/><path d="M91.19,12.39v4.4c0,.16,0,.34,0,.55a3.27,3.27,0,0,1,0,.37.73.73,0,0,1-.24.58.92.92,0,0,1-.65.21,1.1,1.1,0,0,1-.85-.3,1.34,1.34,0,0,1-.28-.93,2.61,2.61,0,0,1-1,.92,3.25,3.25,0,0,1-1.47.31A2.31,2.31,0,0,1,85,17.87a2.43,2.43,0,0,1-.61-1.77,2.32,2.32,0,0,1,.52-1.64,3.25,3.25,0,0,1,1.76-.83c.32-.06.72-.13,1.22-.19a5,5,0,0,0,.95-.16.41.41,0,0,0,.25-.2.86.86,0,0,0,.07-.38.74.74,0,0,0-.29-.67,1.7,1.7,0,0,0-1-.21,2.16,2.16,0,0,0-.65.1,1.62,1.62,0,0,0-.53.3,2.88,2.88,0,0,0-.23.24,1.37,1.37,0,0,1-.92.53.81.81,0,0,1-.6-.24.89.89,0,0,1-.24-.6,1.64,1.64,0,0,1,.9-1.36,3.92,3.92,0,0,1,2.2-.58,4.64,4.64,0,0,1,2.49.56,1.84,1.84,0,0,1,.86,1.62m-2,2A5.74,5.74,0,0,1,88,14.8l-.68.14a1.72,1.72,0,0,0-.76.4.91.91,0,0,0-.21.64.85.85,0,0,0,.28.69,1.21,1.21,0,0,0,.8.25,1.67,1.67,0,0,0,1.26-.48,1.76,1.76,0,0,0,.48-1.29Z" style="fill:#828386"/><path d="M43.9,21.41a1,1,0,0,1,.32-.77,1,1,0,0,1,.77-.33,1.08,1.08,0,0,1,1.09,1.1,1,1,0,0,1-.32.77,1.07,1.07,0,0,1-1.54,0,1.07,1.07,0,0,1-.32-.76M46,29.92a1.24,1.24,0,0,1-.26.86,1.19,1.19,0,0,1-1.56,0,1.24,1.24,0,0,1-.25-.86v-5.7a1.27,1.27,0,0,1,.25-.87,1.16,1.16,0,0,1,1.56,0,1.27,1.27,0,0,1,.26.87Z" style="fill:#828386"/><path d="M49.69,29.92a1.24,1.24,0,0,1-.26.86,1.18,1.18,0,0,1-1.55,0,1.2,1.2,0,0,1-.26-.86v-5.7a1.22,1.22,0,0,1,.26-.87,1,1,0,0,1,.77-.3.93.93,0,0,1,.69.24,1.08,1.08,0,0,1,.26.72l0,.25A2.69,2.69,0,0,1,52,22.92a2.5,2.5,0,0,1,1.91.7,2.9,2.9,0,0,1,.65,2.05v4.25a1.24,1.24,0,0,1-.26.86,1.19,1.19,0,0,1-1.56,0,1.24,1.24,0,0,1-.26-.86V26.26a1.89,1.89,0,0,0-.28-1.18,1.07,1.07,0,0,0-.91-.36,1.51,1.51,0,0,0-1.16.44,1.61,1.61,0,0,0-.43,1.19Z" style="fill:#828386"/><path d="M61.14,21.46a1.26,1.26,0,0,1,.25-.86,1.13,1.13,0,0,1,1.51,0,1.26,1.26,0,0,1,.25.86v8.46a1.27,1.27,0,0,1-.26.87,1,1,0,0,1-.77.28.93.93,0,0,1-.7-.24,1,1,0,0,1-.24-.71V29.9a3.15,3.15,0,0,1-1,1,2.65,2.65,0,0,1-1.31.32,2.78,2.78,0,0,1-2.31-1.14,4.61,4.61,0,0,1-.89-3,4.74,4.74,0,0,1,.89-3,2.71,2.71,0,0,1,2.28-1.16,2.63,2.63,0,0,1,2.31,1.22ZM59.4,24.73a1.46,1.46,0,0,0-1.22.61A2.79,2.79,0,0,0,57.73,27a3.12,3.12,0,0,0,.43,1.79,1.43,1.43,0,0,0,1.24.62,1.53,1.53,0,0,0,1.3-.61,3.1,3.1,0,0,0,.44-1.8,2.68,2.68,0,0,0-.46-1.69A1.51,1.51,0,0,0,59.4,24.73Z" style="fill:#828386"/><path d="M69.54,24.22a1.27,1.27,0,0,1,.26-.87,1.15,1.15,0,0,1,1.55,0,1.23,1.23,0,0,1,.27.87v5.7a1.27,1.27,0,0,1-.26.87,1,1,0,0,1-.78.28.89.89,0,0,1-.68-.23,1,1,0,0,1-.27-.72l0-.26a2.58,2.58,0,0,1-1,1,2.82,2.82,0,0,1-1.38.33,2.53,2.53,0,0,1-1.92-.67,2.82,2.82,0,0,1-.63-2V24.22a1.22,1.22,0,0,1,.26-.87,1,1,0,0,1,.77-.3,1,1,0,0,1,.78.3,1.27,1.27,0,0,1,.26.87v3.66A1.91,1.91,0,0,0,67,29.06a1.1,1.1,0,0,0,.91.35A1.54,1.54,0,0,0,69.11,29a1.6,1.6,0,0,0,.43-1.18Z" style="fill:#828386"/><path d="M75.61,27.84A4.92,4.92,0,0,1,73.54,27a1.82,1.82,0,0,1-.61-1.45,2.29,2.29,0,0,1,.85-1.88,3.63,3.63,0,0,1,2.33-.7,4.25,4.25,0,0,1,2.15.5,1.39,1.39,0,0,1,.87,1.18.82.82,0,0,1-.25.6.87.87,0,0,1-.61.23,1.83,1.83,0,0,1-1-.48l-.16-.13a1.41,1.41,0,0,0-.46-.22,1.87,1.87,0,0,0-.56-.09,1.69,1.69,0,0,0-.87.18.63.63,0,0,0-.29.55.48.48,0,0,0,.27.44,4.43,4.43,0,0,0,1.21.36l.64.15a4.72,4.72,0,0,1,2.07.85,1.85,1.85,0,0,1,.6,1.47,2.36,2.36,0,0,1-.93,2,4.48,4.48,0,0,1-2.7.69,4.32,4.32,0,0,1-2.29-.56,1.6,1.6,0,0,1-.91-1.35.89.89,0,0,1,.93-.94,1.35,1.35,0,0,1,.94.54l.2.22a1.53,1.53,0,0,0,.58.36,2.59,2.59,0,0,0,.81.11,1.89,1.89,0,0,0,.95-.2.65.65,0,0,0,.33-.58c0-.32-.4-.58-1.19-.77l0,0Z" style="fill:#828386"/><path d="M81.15,24.65h-.34a.94.94,0,0,1-.62-.18.67.67,0,0,1-.21-.54.71.71,0,0,1,.21-.55.94.94,0,0,1,.62-.18h.34V22.15a1.29,1.29,0,0,1,.25-.87,1,1,0,0,1,.77-.28,1,1,0,0,1,.78.28,1.38,1.38,0,0,1,.27.88v1h.53a.9.9,0,0,1,.62.18.68.68,0,0,1,.2.55.67.67,0,0,1-.2.54.94.94,0,0,1-.62.18h-.53v4.29a.55.55,0,0,0,.1.39.5.5,0,0,0,.35.1H84a.72.72,0,0,1,.53.19.69.69,0,0,1,.19.52.8.8,0,0,1-.34.73,2,2,0,0,1-1.09.22,2.4,2.4,0,0,1-1.7-.46,2.49,2.49,0,0,1-.47-1.77Z" style="fill:#828386"/><path d="M87.4,24.65a3.24,3.24,0,0,1,.78-1.17,1.47,1.47,0,0,1,1-.43,1.13,1.13,0,0,1,.81.29,1.06,1.06,0,0,1,.29.78,1.19,1.19,0,0,1-.08.44.94.94,0,0,1-.26.34,1.18,1.18,0,0,1-.71.2,3.92,3.92,0,0,0-.46,0,1.39,1.39,0,0,0-.91.54,2,2,0,0,0-.31,1.17v3.07a1.24,1.24,0,0,1-.26.86,1.18,1.18,0,0,1-1.55,0,1.24,1.24,0,0,1-.26-.86v-5.7a1.27,1.27,0,0,1,.25-.87.93.93,0,0,1,.75-.3.89.89,0,0,1,.68.25.9.9,0,0,1,.24.67v.68Z" style="fill:#828386"/><path d="M91,21.41a1.13,1.13,0,0,1,1.1-1.1,1.09,1.09,0,0,1,1.09,1.1,1.09,1.09,0,0,1-1.09,1.09,1.06,1.06,0,0,1-.77-.33,1,1,0,0,1-.33-.76m2.13,8.51a1.24,1.24,0,0,1-.26.86,1.18,1.18,0,0,1-1.55,0,1.2,1.2,0,0,1-.26-.86v-5.7a1.22,1.22,0,0,1,.26-.87,1.15,1.15,0,0,1,1.55,0,1.27,1.27,0,0,1,.26.87Z" style="fill:#828386"/><path d="M101.12,25.11v4.4q0,.24,0,.54a3.34,3.34,0,0,1,0,.38A.73.73,0,0,1,101,31a.92.92,0,0,1-.65.21,1.08,1.08,0,0,1-.85-.3,1.37,1.37,0,0,1-.28-.94,2.61,2.61,0,0,1-1,.92,3.25,3.25,0,0,1-1.47.32,2.31,2.31,0,0,1-1.73-.63,2.47,2.47,0,0,1-.62-1.78,2.32,2.32,0,0,1,.53-1.63,3.25,3.25,0,0,1,1.76-.83c.32-.07.72-.13,1.21-.19a5.93,5.93,0,0,0,1-.16.47.47,0,0,0,.25-.21.79.79,0,0,0,.07-.37.76.76,0,0,0-.29-.68,1.82,1.82,0,0,0-1-.2,2,2,0,0,0-.66.1,1.66,1.66,0,0,0-.52.29c0,.05-.13.13-.23.25a1.37,1.37,0,0,1-.92.53.79.79,0,0,1-.6-.25.81.81,0,0,1-.24-.6,1.63,1.63,0,0,1,.9-1.35,3.91,3.91,0,0,1,2.19-.59,4.5,4.5,0,0,1,2.49.57,1.8,1.8,0,0,1,.87,1.62m-2,2a5.18,5.18,0,0,1-1.17.38l-.68.15a1.63,1.63,0,0,0-.76.39.94.94,0,0,0-.22.65.88.88,0,0,0,.29.69,1.19,1.19,0,0,0,.8.24,1.69,1.69,0,0,0,1.26-.48,1.74,1.74,0,0,0,.48-1.28Z" style="fill:#828386"/><path d="M102.62,21.46a1.26,1.26,0,0,1,.25-.86,1,1,0,0,1,.78-.29,1,1,0,0,1,.78.29,1.26,1.26,0,0,1,.26.86v8.46a1.24,1.24,0,0,1-.26.86,1,1,0,0,1-.78.29,1,1,0,0,1-.78-.29,1.24,1.24,0,0,1-.25-.86Z" style="fill:#828386"/></g></g></svg>