<svg xmlns="http://www.w3.org/2000/svg" viewBox="0 0 53.53 65.8"><title>MARGIN</title><g id="bfb723d3-1c64-452a-b557-a0d0bceb1e47" data-name="Layer 2"><g id="b19e5ad7-5953-47f8-9e6c-e6a2dd91f2dc" data-name="Layer 1"><path d="M26.08,0,23,15.81l4.51-.39L24.33,25.66l5.42-.39L25.17,40.72l5.42,5.35L27.53,49.2C18.27,38.6,6.52,31.33,7.9,18.55,9.47,7.94,15.35,1.57,26.08,0" style="fill:#1cb7d2;fill-rule:evenodd"/><path d="M10.32,20.67A31,31,0,0,1,18.26,5.48c-5.76,3.39-8.18,8.58-7.94,15.19" style="fill:#fff;fill-rule:evenodd"/><path d="M34.75,1.34,33.07,6.75l4.5.07-6.64,13.3,4.66-.2L25.17,40.72l5.42,5.35c8.91-9.46,17.75-15.42,16.68-27.84C46.16,9.61,41.56,4.4,34.75,1.34" style="fill:#328390;fill-rule:evenodd"/><path d="M17.45,56.15l-1.35,4.5h2.67Zm-5,9.52h2.38l.7-3h3.68l.74,3h2.21l-3.52-13H16.3Zm12.92-11v3.73h2c.49,0,.8.08,1.13-.36a2.75,2.75,0,0,0-.15-3.17c-.37-.31-.75-.23-1.19-.23ZM25.29,65.8H23.24v-13h4.54c.81,0,1.42-.12,2.06.47,1.66,1.53,1.6,6.22-.57,7.26l2.07,5.22H29l-1.88-5.06-1.74-.29Zm18.1,0h-2v-13h2.07Zm10.11,0h-2l-4.26-8.39,0,8.39h-2v-13h2.08l4.24,8.09V52.79h2.08ZM37.85,60.13l-1.69,0,0-1.41L40,58.42l0,7.22H38.32l-.38-.7c-2.15,1-4,.71-5-.59a3.78,3.78,0,0,1-.78-2.87l.1-6c0-2,1.68-3.52,7.29-2.31L39.61,55c-.62-.23-5.8-1.72-5.51,1.26v5.92c0,1.58,3.79,2.07,3.77-.18ZM2,65.67H0L.9,52.79H3.78l2,8.41,1.77-8.41h2.84l1.07,13H9.5l-.77-8.06L6.86,65.6H4.58L2.51,57.39Z" style="fill:#328390;fill-rule:evenodd"/></g></g></svg>