<svg xmlns="http://www.w3.org/2000/svg" viewBox="0 0 127.48 41.09"><title>MLB</title><g id="b078a384-65a1-405f-a157-1a1d75e037ec" data-name="Layer 2"><g id="b09118f7-e5b8-4f82-870d-9c6506433ae4" data-name="Layer 1"><path d="M64.07.38a9.78,9.78,0,0,1,9.4,10.12,9.71,9.71,0,1,1-19.4-.6A9.75,9.75,0,0,1,64.07.38Z" style="fill:none;stroke:#183668;stroke-miterlimit:2.613126039505005;stroke-width:0.75px"/><path d="M64,.38c4,.15,7.14,4.67,7,10.1s-3.5,9.7-7.5,9.55-7.14-4.67-7-10.1S60,.23,64,.38Z" style="fill:none;stroke:#183668;stroke-miterlimit:2.613126039505005;stroke-width:0.75px"/><path d="M64,.38C66.23.51,68,5,67.9,10.45s-2,9.71-4.31,9.58-4-4.64-3.94-10.07S61.68.24,64,.38Z" style="fill:none;stroke:#183668;stroke-miterlimit:2.613126039505005;stroke-width:0.75px"/><line x1="54.19" y1="10.19" x2="73.4" y2="10.38" style="fill:none;stroke:#183668;stroke-miterlimit:22.92558479309082;stroke-width:0.75px"/><line x1="55.02" y1="6.06" x2="72.66" y2="6.24" style="fill:none;stroke:#183668;stroke-miterlimit:22.92558479309082;stroke-width:0.75px"/><line x1="55.07" y1="14.46" x2="72.44" y2="14.64" style="fill:none;stroke:#183668;stroke-miterlimit:22.92558479309082;stroke-width:0.75px"/><path d="M69.92.87c7.13,5.37,7.28,13.33-.19,18.87" style="fill:none;stroke:#183668;stroke-miterlimit:22.92558479309082;stroke-width:0.75px"/><path d="M57.76.74C50.52,6,50.2,13.93,57.57,19.61" style="fill:none;stroke:#183668;stroke-miterlimit:22.92558479309082;stroke-width:0.75px"/><path d="M75.71,4.29a11.57,11.57,0,0,1-.57,12.77" style="fill:none;stroke:#183668;stroke-miterlimit:22.92558479309082;stroke-width:0.75px"/><path d="M51.9,4.05a11.55,11.55,0,0,0,.31,12.77" style="fill:none;stroke:#183668;stroke-miterlimit:22.92558479309082;stroke-width:0.75px"/><path d="M79,7.49a11.14,11.14,0,0,1-.14,6" style="fill:none;stroke:#183668;stroke-miterlimit:22.92558479309082;stroke-width:0.75px"/><path d="M48.55,7.18a11.23,11.23,0,0,0,0,6" style="fill:none;stroke:#183668;stroke-miterlimit:22.92558479309082;stroke-width:0.75px"/><line x1="63.9" y1="0.63" x2="63.7" y2="20.03" style="fill:none;stroke:#183668;stroke-miterlimit:22.92558479309082;stroke-width:0.75px"/><path d="M43.13,21.35l2.43,0V22l-.65.12,0,3.8a1.23,1.23,0,0,0,2.44,0l0-3.79-.63-.13v-.67l2.45,0v.66l-.62.13,0,3.8c-.12,2.64-4.76,2.57-4.81-.05l0-3.79L43.1,22Z" style="fill:#183668;fill-rule:evenodd"/><path d="M49.88,23.11l1.38,0,.15.45c1.18-.79,2.57-.73,2.86.45l0,3,.56.15v.61l-2.22,0v-.6l.61-.15,0-2.61c-.09-.73-1-.63-1.67-.28l0,2.87.59.16v.6l-2.24,0v-.6l.58-.15,0-3.16-.58-.14Z" style="fill:#183668;fill-rule:evenodd"/><polygon points="56.03 24.06 55.45 23.91 55.45 23.3 56.97 23.33 57.04 23.41 57.01 27.12 57.58 27.26 57.58 27.87 55.41 27.85 55.42 27.23 56 27.12 56.03 24.06" style="fill:#183668;fill-rule:evenodd"/><path d="M56.52,21.36a.69.69,0,0,1,.69.68.69.69,0,0,1-1.38,0,.67.67,0,0,1,.69-.66" style="fill:#183668;fill-rule:evenodd"/><polygon points="83.76 21.68 83.85 21.77 83.79 27.38 84.38 27.54 84.37 28.15 83.78 28.14 82.14 28.12 82.15 27.51 82.75 27.37 82.8 22.52 82.19 22.39 82.19 21.77 83.76 21.68" style="fill:#183668;fill-rule:evenodd"/><polygon points="59.54 23.93 60.38 27.12 61.2 23.94 60.77 23.85 60.77 23.22 62.73 23.24 62.72 23.88 62.14 23.95 60.93 27.91 59.52 27.89 58.45 23.92 57.88 23.82 57.88 23.19 60.13 23.21 60.12 23.85 59.54 23.93" style="fill:#183668;fill-rule:evenodd"/><path d="M66.42,25c.18-1.54-1.78-1.61-2,0Zm.94.66c.32-1.66-.54-2.61-2-2.53-1.24.14-1.91,1-2,2.42a2.2,2.2,0,0,0,1.52,2.33,4.49,4.49,0,0,0,2.56-.16L67.27,27c-1.62.4-2.77.2-2.83-1.38Z" style="fill:#183668;fill-rule:evenodd"/><path d="M68.19,23.3h1.4l.19.59a2.3,2.3,0,0,1,1.53-.69l.07.09,0,.94-.08.06a2.79,2.79,0,0,0-1.45.24l0,2.68.75.16V28l-2.4,0v-.63l.58-.14,0-3.15-.59-.13Z" style="fill:#183668;fill-rule:evenodd"/><path d="M72.43,26.41h.79l.06.84a2.22,2.22,0,0,0,1,.07.61.61,0,0,0,0-1.19c-.6-.33-1.88-.35-1.9-1.57.11-1.42,1.63-1.66,3.33-1.16l-.09,1.31-.84,0,0-.79c-.71-.12-1.23-.06-1.3.44-.1.75,1.26.72,1.87,1.18a1.35,1.35,0,0,1-.43,2.38,4.42,4.42,0,0,1-2.56-.15Z" style="fill:#183668;fill-rule:evenodd"/><path d="M79.62,25.9v1.29c-.7.32-1.51.19-1.67-.39a.68.68,0,0,1,.71-.9Zm.12,1.81a1.8,1.8,0,0,1-2.87-.86c-.08-1,.47-1.46,1.44-1.54h1.33v-.4c-.06-1.06-1.18-.93-2.38-.71l-.12-.72a6.05,6.05,0,0,1,2-.27,1.45,1.45,0,0,1,1.51,1.26v2.68a.3.3,0,0,0,.31.25l.32,0V28C80.65,28.16,80.05,28.18,79.74,27.71Z" style="fill:#183668;fill-rule:evenodd"/><path d="M47.61,31.18h0l-.8.38-.11-.43,1-.47h.53l0,4.15h-.6Z" style="fill:#183668"/><path d="M52.89,32.74c0,1.41-.6,2.18-1.61,2.17s-1.49-.78-1.49-2.15.69-2.15,1.61-2.14S52.91,31.42,52.89,32.74Zm-2.48,0c0,1.08.35,1.7.91,1.7s.94-.66,1-1.71-.27-1.7-.91-1.7S50.42,31.65,50.41,32.77Z" style="fill:#183668"/><path d="M56.5,32.77c0,1.41-.6,2.19-1.61,2.17s-1.49-.77-1.49-2.14.68-2.15,1.61-2.14S56.51,31.45,56.5,32.77Zm-2.48,0c0,1.08.35,1.7.91,1.7s.94-.66,1-1.72-.27-1.69-.91-1.7S54,31.68,54,32.81Z" style="fill:#183668"/><path d="M61.3,34.94l0-1.82-1.47-2.49h.69l.66,1.2c.18.32.32.59.46.89h0c.13-.28.3-.56.48-.88l.7-1.18h.69l-1.61,2.46,0,1.83Z" style="fill:#183668"/><path d="M66.53,33l-1.85,0v1.55l2,0V35l-2.67,0,0-4.3,2.56,0v.47l-2,0V32.5l1.84,0Z" style="fill:#183668"/><path d="M68.29,33.66,67.78,35h-.63l1.66-4.28h.73L71.12,35h-.66L70,33.67Zm1.56-.42L69.4,32c-.1-.28-.17-.54-.24-.79h0c-.08.25-.16.52-.25.78l-.48,1.24Z" style="fill:#183668"/><path d="M71.86,30.8A6.87,6.87,0,0,1,73,30.73a2.06,2.06,0,0,1,1.37.36,1,1,0,0,1,.36.82,1.14,1.14,0,0,1-.9,1.09v0a1.11,1.11,0,0,1,.69.87,6.28,6.28,0,0,0,.35,1.19h-.63A4.84,4.84,0,0,1,74,34c-.13-.59-.38-.82-.94-.84h-.58v1.86h-.62Zm.59,2h.62c.66,0,1.08-.32,1.08-.81s-.43-.8-1.08-.81a2.73,2.73,0,0,0-.61,0Z" style="fill:#183668"/><path d="M75.52,34.41a2.33,2.33,0,0,0,1.09.29c.63,0,1-.29,1-.72s-.24-.64-.88-.87-1.25-.62-1.24-1.23.62-1.16,1.54-1.15a2.28,2.28,0,0,1,1,.22l-.17.45a2,2,0,0,0-.9-.21c-.65,0-.9.34-.9.63s.28.61.93.84,1.21.65,1.2,1.28-.55,1.23-1.67,1.22a2.66,2.66,0,0,1-1.21-.29Z" style="fill:#183668"/><path d="M126.31,39h-1.16l.58-1.34Zm-.3-2h-.54L124,40.31h.6l.35-.81h1.58l.34.81h.62Zm-3.67,1.71a1.29,1.29,0,0,1-.08.45,1.1,1.1,0,0,1-.6.6,1.51,1.51,0,0,1-.48.08h-.66V37.49h.66a1.24,1.24,0,0,1,.48.09,1.1,1.1,0,0,1,.6.6A1.34,1.34,0,0,1,122.34,38.64Zm.62,0a1.59,1.59,0,0,0-.13-.66,1.54,1.54,0,0,0-.37-.53,1.69,1.69,0,0,0-.56-.36,2.09,2.09,0,0,0-.72-.12h-1.25v3.35h1.25a2.09,2.09,0,0,0,.72-.13,1.69,1.69,0,0,0,.56-.36,1.54,1.54,0,0,0,.37-.53A1.62,1.62,0,0,0,123,38.63Zm-5.62.35h-1.15l.57-1.34Zm-.29-2h-.55L115,40.31h.6l.35-.81h1.58l.34.81h.62Zm-3.82.57h1.06V37h-2.72v.54h1.06v2.81h.6ZM109.49,37v3.35h.59V37Zm-2.32.94v2.41h.59V37h-.63l-1,1.58-1-1.58h-.62v3.35h.58v-2.4l1,1.57h0Zm-5-.94v3.35h.59V37Zm-3.83,3.35h2.35v-.54H98.91V37h-.59Zm-5-1.67a1.44,1.44,0,0,1-.08.46,1.6,1.6,0,0,1-.23.38,1.16,1.16,0,0,1-.36.25,1.14,1.14,0,0,1-.46.09,1.06,1.06,0,0,1-.82-.35,1.14,1.14,0,0,1-.23-.38,1.22,1.22,0,0,1-.09-.46,1.14,1.14,0,0,1,.09-.46,1,1,0,0,1,.23-.38,1.19,1.19,0,0,1,.36-.26,1.1,1.1,0,0,1,.45-.09,1,1,0,0,1,.46.1,1.16,1.16,0,0,1,.36.25,1.28,1.28,0,0,1,.24.39A1.34,1.34,0,0,1,93.28,38.64Zm.62,0a1.67,1.67,0,0,0-.13-.67,1.75,1.75,0,0,0-.36-.55,1.62,1.62,0,0,0-.55-.37,1.8,1.8,0,0,0-.71-.14,1.83,1.83,0,0,0-.71.14,1.77,1.77,0,0,0-.55.37,1.58,1.58,0,0,0-.36.56,1.67,1.67,0,0,0-.13.67,1.7,1.7,0,0,0,.13.67,1.67,1.67,0,0,0,.35.55,1.9,1.9,0,0,0,.55.37,1.83,1.83,0,0,0,.71.13,1.8,1.8,0,0,0,.71-.13,2,2,0,0,0,.56-.38,1.87,1.87,0,0,0,.36-.55A1.7,1.7,0,0,0,93.9,38.63Zm-4.71,1.14-.38-.38a2.14,2.14,0,0,1-.44.32,1.17,1.17,0,0,1-.52.11,1.13,1.13,0,0,1-.45-.09,1.14,1.14,0,0,1-.58-.64,1.39,1.39,0,0,1-.08-.46,1.45,1.45,0,0,1,.08-.47,1.16,1.16,0,0,1,.23-.37,1.28,1.28,0,0,1,.35-.26,1.13,1.13,0,0,1,.45-.09,1.07,1.07,0,0,1,.51.12,1.68,1.68,0,0,1,.43.3l.37-.44a1.69,1.69,0,0,0-.54-.37,1.3,1.3,0,0,0-.35-.11,1.87,1.87,0,0,0-.42,0,1.78,1.78,0,0,0-.7.14,1.58,1.58,0,0,0-.54.37,1.69,1.69,0,0,0-.36.55,1.84,1.84,0,0,0,0,1.36,1.7,1.7,0,0,0,.36.54,1.58,1.58,0,0,0,.54.37,1.68,1.68,0,0,0,.68.13,2,2,0,0,0,.43,0,1,1,0,0,0,.35-.12,1.92,1.92,0,0,0,.31-.18A3.08,3.08,0,0,0,89.19,39.77Zm-4.27,0-.38-.38a2.44,2.44,0,0,1-.44.32,1.17,1.17,0,0,1-.52.11,1.13,1.13,0,0,1-.45-.09,1.14,1.14,0,0,1-.58-.64,1.39,1.39,0,0,1-.08-.46,1.45,1.45,0,0,1,.08-.47,1.16,1.16,0,0,1,.23-.37,1.28,1.28,0,0,1,.35-.26,1.13,1.13,0,0,1,.45-.09,1.07,1.07,0,0,1,.51.12,1.48,1.48,0,0,1,.42.3l.38-.44a1.69,1.69,0,0,0-.54-.37,1.3,1.3,0,0,0-.35-.11,1.87,1.87,0,0,0-.42,0,1.62,1.62,0,0,0-.7.14,1.58,1.58,0,0,0-.54.37A1.54,1.54,0,0,0,82,38a1.84,1.84,0,0,0,0,1.36,1.7,1.7,0,0,0,.36.54,1.58,1.58,0,0,0,.54.37,1.65,1.65,0,0,0,.68.13,2,2,0,0,0,.43,0,1.12,1.12,0,0,0,.35-.12,1.92,1.92,0,0,0,.31-.18A3.08,3.08,0,0,0,84.92,39.77ZM79.62,39H78.47L79,37.64Zm-.3-2h-.54L77.3,40.31h.61l.34-.81h1.59l.34.81h.62Zm-4.46,2.85h-1v-.91h.93a.89.89,0,0,1,.52.12.37.37,0,0,1,.17.33.39.39,0,0,1-.17.35A.8.8,0,0,1,74.86,39.78Zm-.18-1.41h-.8v-.89h.85a.79.79,0,0,1,.44.11.38.38,0,0,1,.15.32.39.39,0,0,1-.18.35A.84.84,0,0,1,74.68,38.37ZM74.8,37H73.3v3.35h1.55a2,2,0,0,0,.51-.06,1.17,1.17,0,0,0,.39-.18.86.86,0,0,0,.25-.29.84.84,0,0,0,.09-.4.73.73,0,0,0,0-.3.65.65,0,0,0-.13-.23.83.83,0,0,0-.21-.16,1.69,1.69,0,0,0-.27-.13l.18-.11a.77.77,0,0,0,.15-.16.54.54,0,0,0,.1-.2.79.79,0,0,0,0-.28.73.73,0,0,0-.29-.62A1.26,1.26,0,0,0,74.8,37Zm-3.66,1.68a1.22,1.22,0,0,1-.09.46,1.14,1.14,0,0,1-.23.38,1.16,1.16,0,0,1-.36.25,1.13,1.13,0,0,1-.45.09,1.14,1.14,0,0,1-.46-.09,1.19,1.19,0,0,1-.36-.26,1.36,1.36,0,0,1-.24-.38,1.39,1.39,0,0,1,0-.93,1.16,1.16,0,0,1,.23-.37,1.19,1.19,0,0,1,.36-.26,1.14,1.14,0,0,1,.46-.09,1,1,0,0,1,.46.1,1.16,1.16,0,0,1,.36.25,1.14,1.14,0,0,1,.23.38A1.23,1.23,0,0,1,71.14,38.64Zm.61,0a1.67,1.67,0,0,0-.13-.67,1.46,1.46,0,0,0-.36-.55,1.53,1.53,0,0,0-.55-.37,1.62,1.62,0,0,0-.7-.14,1.8,1.8,0,0,0-.71.14,1.82,1.82,0,0,0-.56.37,1.92,1.92,0,0,0-.36.56,1.67,1.67,0,0,0-.13.67,1.7,1.7,0,0,0,.13.67,1.87,1.87,0,0,0,.36.55,1.66,1.66,0,0,0,.55.37,1.8,1.8,0,0,0,.71.13,1.67,1.67,0,0,0,.71-.14,1.72,1.72,0,0,0,.55-.37,1.54,1.54,0,0,0,.36-.55A1.7,1.7,0,0,0,71.75,38.63ZM66.06,37.5h1.06V37H64.4v.54h1.07v2.81h.59ZM60.29,37H57.8v3.35h.59V38.94h1.69v-.53H58.39v-.92h1.9Zm-5.08,2H54.06l.57-1.34Zm-.3-2h-.54L52.9,40.31h.6l.34-.81h1.59l.34.81h.62Zm-3.29,0H49.14v3.35h2.51v-.53H49.73v-.9h1.68v-.53H49.73v-.87h1.89Zm-6.28,3.35h2.35v-.54H45.93V37h-.59Zm-3-3.35H39.87v3.35h2.5v-.53H40.45v-.9h1.68v-.53H40.45v-.87h1.9Zm-4.13,0h-.59v1.92a1,1,0,0,1-.22.7.81.81,0,0,1-.62.24.79.79,0,0,1-.62-.25,1,1,0,0,1-.23-.71V37h-.58v1.92a1.76,1.76,0,0,0,.1.64,1.12,1.12,0,0,0,.28.46,1.18,1.18,0,0,0,.45.28,1.59,1.59,0,0,0,.59.1,1.64,1.64,0,0,0,.6-.1,1.11,1.11,0,0,0,.45-.28,1.29,1.29,0,0,0,.29-.47,1.89,1.89,0,0,0,.1-.65Zm-5.53,2.7a1.11,1.11,0,0,1-.27.12,1,1,0,0,1-.31,0,1.06,1.06,0,0,1-.82-.35,1.14,1.14,0,0,1-.23-.38,1.22,1.22,0,0,1-.09-.46,1.23,1.23,0,0,1,.09-.47,1,1,0,0,1,.23-.37,1,1,0,0,1,.36-.26,1.13,1.13,0,0,1,.45-.09,1.14,1.14,0,0,1,.46.09,1.19,1.19,0,0,1,.36.26,1.36,1.36,0,0,1,.24.38,1.45,1.45,0,0,1,.08.47,1.19,1.19,0,0,1,0,.33,1,1,0,0,1-.13.3l-.58-.53-.38.43Zm.83,0a1.83,1.83,0,0,0,.25-.48,1.71,1.71,0,0,0,.09-.55,1.67,1.67,0,0,0-.13-.67,1.75,1.75,0,0,0-.36-.55,1.69,1.69,0,0,0-.55-.38,1.8,1.8,0,0,0-.71-.13,1.59,1.59,0,0,0-.7.14,1.66,1.66,0,0,0-.56.37,1.5,1.5,0,0,0-.36.56,1.67,1.67,0,0,0-.13.67,1.74,1.74,0,0,0,.13.67,1.54,1.54,0,0,0,.36.55,1.66,1.66,0,0,0,.55.37,1.78,1.78,0,0,0,.7.13,1.74,1.74,0,0,0,1-.31l.4.36L33.9,40ZM28.19,37v3.35h.59V37Zm-2.77,2.82h-1v-.92h.93a.89.89,0,0,1,.52.12.38.38,0,0,1,.17.34.39.39,0,0,1-.17.35A.88.88,0,0,1,25.42,39.78Zm-.17-1.41h-.81v-.89h.85a.7.7,0,0,1,.44.11.37.37,0,0,1,.15.32.38.38,0,0,1-.17.34A.81.81,0,0,1,25.25,38.37ZM25.37,37H23.86v3.35h1.55a2,2,0,0,0,.51-.06,1.17,1.17,0,0,0,.39-.18.76.76,0,0,0,.25-.29.87.87,0,0,0,.09-.4.73.73,0,0,0,0-.3.58.58,0,0,0-.13-.23.83.83,0,0,0-.21-.16,1.69,1.69,0,0,0-.27-.13l.18-.11a.75.75,0,0,0,.15-.16,1,1,0,0,0,.11-.21,1.1,1.1,0,0,0,0-.27.77.77,0,0,0-.3-.63A1.31,1.31,0,0,0,25.37,37Zm-3.79.94v2.4h.59V37h-.63l-1,1.58L19.5,37h-.63V40.3h.58V37.91l1.05,1.57h0ZM16.29,39H15.13l.58-1.34Zm-.3-2h-.54L14,40.3h.6l.35-.8H16.5l.34.8h.62Zm-4.88,3.4-.38.55.51.21.31-.73a2,2,0,0,0,.39-.06,1.61,1.61,0,0,0,.33-.12,1.34,1.34,0,0,0,.28-.18l.26-.23-.38-.38a2,2,0,0,1-.44.31,1.05,1.05,0,0,1-.52.12,1.13,1.13,0,0,1-.45-.09,1.1,1.1,0,0,1-.35-.26,1.21,1.21,0,0,1-.23-.38,1.39,1.39,0,0,1-.08-.46,1.4,1.4,0,0,1,.08-.47,1.16,1.16,0,0,1,.23-.37,1.1,1.1,0,0,1,.35-.26,1.13,1.13,0,0,1,.45-.09,1.19,1.19,0,0,1,.51.11,2,2,0,0,1,.42.3l.38-.43a1.64,1.64,0,0,0-.25-.21,1.69,1.69,0,0,0-.29-.17,1.79,1.79,0,0,0-.35-.1,1.87,1.87,0,0,0-.42,0,1.78,1.78,0,0,0-.7.13,1.6,1.6,0,0,0-.54.38,1.54,1.54,0,0,0-.36.55,1.9,1.9,0,0,0-.13.67,2,2,0,0,0,.1.61,1.8,1.8,0,0,0,.72.88A1.74,1.74,0,0,0,11.11,40.33Zm-3.38-1.7a1.23,1.23,0,0,1-.09.47,1,1,0,0,1-.23.37,1,1,0,0,1-.36.26,1.13,1.13,0,0,1-.45.09,1.14,1.14,0,0,1-.46-.09,1.19,1.19,0,0,1-.36-.26,1.36,1.36,0,0,1-.24-.38,1.39,1.39,0,0,1,0-.93,1.16,1.16,0,0,1,.23-.37,1,1,0,0,1,.36-.26,1.14,1.14,0,0,1,.46-.09,1.06,1.06,0,0,1,.82.35,1.14,1.14,0,0,1,.23.38A1.22,1.22,0,0,1,7.73,38.63Zm.61,0A1.65,1.65,0,0,0,8.21,38a1.61,1.61,0,0,0-.35-.56A1.82,1.82,0,0,0,7.3,37a1.75,1.75,0,0,0-.7-.13,1.64,1.64,0,0,0-.71.14,1.66,1.66,0,0,0-.56.37A1.87,1.87,0,0,0,5,38a1.74,1.74,0,0,0-.13.67A1.67,1.67,0,0,0,5,39.3a1.75,1.75,0,0,0,.36.55,1.65,1.65,0,0,0,1.26.51,1.59,1.59,0,0,0,.7-.14,1.66,1.66,0,0,0,.56-.37,1.5,1.5,0,0,0,.36-.56A1.67,1.67,0,0,0,8.34,38.62ZM2.7,37.9v2.4h.59V37H2.67l-1,1.59L.63,37H0V40.3H.58V37.91l1,1.57h0Z" style="fill:#183668"/></g></g></svg>