<svg xmlns="http://www.w3.org/2000/svg" viewBox="0 0 96.61 45.37"><title>MMF</title><g id="b8e890ee-15d0-42c1-ae16-d35ec4959c7c" data-name="Layer 2"><g id="a364a6c7-be9a-4409-bc5b-ad7e43b16cae" data-name="Layer 1"><path d="M12.17,3.86h6.28L23.06,20a62.28,62.28,0,0,0-9,2.91L10.17,9.7Z" style="fill:#b21e24;fill-rule:evenodd"/><path d="M8.37,17.63l1.82,6.75A22.28,22.28,0,0,0,0,31.54a17.33,17.33,0,0,1,6.75-7.1Z" style="fill:#b21e24;fill-rule:evenodd"/><path d="M12.51,24.65c-2.22,1-18.43,9-8.28,10.18L3.68,36.5h9.8L13,35.24l4.17-.53.63,1.79h9.81l-1-4,6.93-2.09L31.91,36.5h9.62l-2.07-8.95L43,26l2.9,10.5H55.6L51.47,21.4l3.46-1.77L59.27,36.5H69.9L64,13.94l2.11-1.47,6,24h10V23.16H94.38V16.7H81.93V11.06H96.61V3.31H72.07C70.17-1.3,61.6-.3,54.52,1.55c6.79-.91,11.7-1,11.92.71-1.62,8-39.58,30.68-59.29,30.16-1,0-2.92.21-2.55-1.19.41-1.56,3.65-3.92,7.91-6.58" style="fill-rule:evenodd"/><path d="M6.34,31A15.28,15.28,0,0,1,11,27.09l.88,3.61A18.66,18.66,0,0,1,6.34,31" style="fill:#b21e24;fill-rule:evenodd"/><path d="M14.75,25.18l1.17,4.64A31.25,31.25,0,0,0,25,27.38L23.5,22l2.38-2.35a40.14,40.14,0,0,0-11.13,5.55" style="fill:#b21e24;fill-rule:evenodd"/><polygon points="24.61 9.83 29.02 26.03 30.51 25.3 34.53 9.8 32.95 3.75 25.96 3.69 24.61 9.83" style="fill:#b21e24;fill-rule:evenodd"/><path d="M35.21,23.16a11.3,11.3,0,0,0,2.56-1.38l-1.3-4Z" style="fill:#b21e24;fill-rule:evenodd"/><path d="M41.35,20a74.3,74.3,0,0,0,8.42-5.14l-3-11H40.17l-1.61,6Z" style="fill:#b21e24;fill-rule:evenodd"/><path d="M53,12.67l-.3-1.2,1.56-8h7l.55,2.26a72.87,72.87,0,0,1-8.83,7" style="fill:#b21e24;fill-rule:evenodd"/><path d="M3.83,40.56c0-.42,0-.78,0-1.12h.68l0,.67h0a1.5,1.5,0,0,1,1.35-.76,1.26,1.26,0,0,1,1.21.83h0a1.69,1.69,0,0,1,.48-.54,1.49,1.49,0,0,1,1-.29c.57,0,1.41.36,1.41,1.8v2.44H9.2V41.24c0-.8-.31-1.28-.93-1.28a1,1,0,0,0-.93.69,1.38,1.38,0,0,0-.06.38v2.56H6.52V41.1c0-.66-.3-1.14-.9-1.14a1.06,1.06,0,0,0-1,.76.9.9,0,0,0-.07.37v2.5H3.83Z"/><path d="M13.61,43.59l-.07-.53h0a1.61,1.61,0,0,1-1.31.62,1.21,1.21,0,0,1-1.32-1.19c0-1,.93-1.55,2.58-1.54v-.09a.86.86,0,0,0-1-1,2.18,2.18,0,0,0-1.12.31l-.18-.49a2.68,2.68,0,0,1,1.41-.37A1.49,1.49,0,0,1,14.25,41v1.55a5.17,5.17,0,0,0,.07,1Zm-.12-2.12c-.85,0-1.82.13-1.82.93a.68.68,0,0,0,.74.72,1.07,1.07,0,0,0,1-.69,1,1,0,0,0,0-.24Z"/><path d="M15.4,42.81a2.06,2.06,0,0,0,1,.3c.57,0,.83-.27.83-.61s-.22-.56-.8-.76c-.77-.27-1.13-.68-1.13-1.18,0-.66.56-1.21,1.48-1.21a2.33,2.33,0,0,1,1.06.25l-.2.55a1.75,1.75,0,0,0-.88-.24c-.46,0-.72.26-.72.57s.26.49.82.7c.75.27,1.13.63,1.13,1.25s-.59,1.24-1.61,1.24a2.5,2.5,0,0,1-1.2-.28Z"/><path d="M20,38.25v1.19h1.12V40H20v2.23c0,.51.15.8.59.8A1.64,1.64,0,0,0,21,43l0,.57a2,2,0,0,1-.69.1,1.09,1.09,0,0,1-.84-.32,1.49,1.49,0,0,1-.3-1.07V40h-.67v-.58h.67v-1Z"/><path d="M22.39,41.65a1.35,1.35,0,0,0,1.47,1.44,2.89,2.89,0,0,0,1.19-.22l.13.54a3.52,3.52,0,0,1-1.42.26,2,2,0,0,1-2.11-2.09,2,2,0,0,1,2-2.23,1.77,1.77,0,0,1,1.77,1.95,2.53,2.53,0,0,1,0,.35Zm2.29-.54a1.08,1.08,0,0,0-1.08-1.22,1.27,1.27,0,0,0-1.2,1.22Z"/><path d="M26.4,40.73c0-.48,0-.9,0-1.29h.68l0,.81h0a1.29,1.29,0,0,1,1.19-.9l.22,0v.71l-.27,0a1.07,1.07,0,0,0-1,1,1.78,1.78,0,0,0,0,.35v2.21H26.4Z"/><path d="M31.18,40.56c0-.42,0-.78,0-1.12h.68l0,.67h0a1.5,1.5,0,0,1,1.35-.76,1.26,1.26,0,0,1,1.21.83h0a1.82,1.82,0,0,1,.48-.54,1.49,1.49,0,0,1,.95-.29c.57,0,1.41.36,1.41,1.8v2.44h-.76V41.24c0-.8-.31-1.28-.93-1.28a1,1,0,0,0-.93.69,1.38,1.38,0,0,0-.06.38v2.56h-.76V41.1c0-.66-.3-1.14-.9-1.14a1.06,1.06,0,0,0-1,.76.9.9,0,0,0-.07.37v2.5h-.76Z"/><path d="M39.45,38.28a.45.45,0,0,1-.5.46.46.46,0,0,1-.47-.46.47.47,0,0,1,.49-.47A.45.45,0,0,1,39.45,38.28Zm-.87,5.31V39.44h.78v4.15Z"/><path d="M40.66,40.56c0-.42,0-.78,0-1.12h.69l0,.69h0a1.56,1.56,0,0,1,1.41-.78c.6,0,1.52.34,1.52,1.76v2.48h-.78V41.2c0-.67-.26-1.23-1-1.23a1.1,1.1,0,0,0-1,.77,1.29,1.29,0,0,0-.05.35v2.5h-.78Z"/><path d="M46.45,38.28a.49.49,0,0,1-1,0,.47.47,0,0,1,.49-.47A.45.45,0,0,1,46.45,38.28Zm-.87,5.31V39.44h.78v4.15Z"/><path d="M47.66,40.56c0-.42,0-.78,0-1.12h.69l0,.69h0a1.56,1.56,0,0,1,1.41-.78c.6,0,1.52.34,1.52,1.76v2.48h-.78V41.2c0-.67-.26-1.23-1-1.23a1.1,1.1,0,0,0-1,.77,1.29,1.29,0,0,0-.05.35v2.5h-.78Z"/><path d="M56.28,39.44c0,.3,0,.64,0,1.14V43a2.32,2.32,0,0,1-.61,1.89,2.36,2.36,0,0,1-1.56.49A2.91,2.91,0,0,1,52.64,45l.2-.57a2.5,2.5,0,0,0,1.26.32,1.26,1.26,0,0,0,1.38-1.44v-.47h0a1.54,1.54,0,0,1-1.36.7,1.88,1.88,0,0,1-1.83-2,2,2,0,0,1,1.93-2.2,1.41,1.41,0,0,1,1.34.72h0l0-.63Zm-.81,1.64a1.29,1.29,0,0,0,0-.35,1.13,1.13,0,0,0-1.09-.79c-.75,0-1.28.61-1.28,1.56S53.49,43,54.33,43a1.13,1.13,0,0,0,1.08-.77,1.34,1.34,0,0,0,.06-.4Z"/><path d="M63.19,43.59,62.63,43a2.5,2.5,0,0,1-1.75.66,1.66,1.66,0,0,1-1.83-1.62,1.88,1.88,0,0,1,1.17-1.68v0a2,2,0,0,1-.5-1.21,1.43,1.43,0,0,1,1.52-1.42A1.23,1.23,0,0,1,62.56,39c0,.6-.36,1.08-1.31,1.54v0c.5.57,1.07,1.2,1.45,1.61a4.12,4.12,0,0,0,.58-1.69H64a4.38,4.38,0,0,1-.86,2.14c.32.32.63.65,1,1Zm-.94-1c-.36-.37-1-1.08-1.68-1.81A1.4,1.4,0,0,0,59.79,42,1.16,1.16,0,0,0,61,43.11,1.69,1.69,0,0,0,62.25,42.59Zm-1.82-3.52a1.64,1.64,0,0,0,.45,1c.61-.33,1-.64,1-1.13a.7.7,0,0,0-.69-.75A.77.77,0,0,0,60.43,39.07Z"/><path d="M66.75,43.59V40h-.6v-.58h.6v-.19a1.88,1.88,0,0,1,.5-1.45,1.49,1.49,0,0,1,1-.39,1.87,1.87,0,0,1,.67.12l-.11.59a1.07,1.07,0,0,0-.5-.1c-.66,0-.83.57-.83,1.2v.22h1V40h-1v3.57Z"/><path d="M71.64,43.59l-.07-.53h0a1.61,1.61,0,0,1-1.32.62,1.21,1.21,0,0,1-1.31-1.19c0-1,.93-1.55,2.58-1.54v-.09a.86.86,0,0,0-1-1,2.18,2.18,0,0,0-1.12.31l-.18-.49a2.68,2.68,0,0,1,1.41-.37A1.49,1.49,0,0,1,72.27,41v1.55a5.13,5.13,0,0,0,.08,1Zm-.12-2.12c-.85,0-1.82.13-1.82.93a.68.68,0,0,0,.74.72,1.07,1.07,0,0,0,1-.69,1,1,0,0,0,0-.24Z"/><path d="M76.59,43.43a3,3,0,0,1-1.23.24,2,2,0,0,1-2.13-2.11,2.14,2.14,0,0,1,2.3-2.2,2.73,2.73,0,0,1,1.08.21l-.18.58a1.85,1.85,0,0,0-.9-.19,1.56,1.56,0,0,0,0,3.11,2.34,2.34,0,0,0,1-.2Z"/><path d="M78.45,38.25v1.19h1.12V40H78.45v2.23c0,.51.15.8.58.8a1.67,1.67,0,0,0,.46,0l0,.57a2,2,0,0,1-.69.1,1.09,1.09,0,0,1-.84-.32,1.49,1.49,0,0,1-.3-1.07V40H77v-.58h.67v-1Z"/><path d="M84.33,41.48a2.06,2.06,0,0,1-2.14,2.2,2,2,0,0,1-2-2.13,2.05,2.05,0,0,1,2.12-2.2A2,2,0,0,1,84.33,41.48Zm-3.4,0a1.42,1.42,0,0,0,1.3,1.59,1.43,1.43,0,0,0,1.3-1.61c0-.7-.36-1.59-1.28-1.59S80.93,40.73,80.93,41.52Z"/><path d="M85.32,40.73c0-.48,0-.9,0-1.29H86l0,.81h0a1.27,1.27,0,0,1,1.18-.9l.23,0v.71l-.27,0a1.08,1.08,0,0,0-1,1,3.27,3.27,0,0,0,0,.35v2.21h-.77Z"/><path d="M88.11,42.81a2.06,2.06,0,0,0,1,.3c.57,0,.83-.27.83-.61s-.22-.56-.79-.76c-.78-.27-1.14-.68-1.14-1.18,0-.66.56-1.21,1.48-1.21a2.3,2.3,0,0,1,1.06.25l-.2.55a1.75,1.75,0,0,0-.88-.24c-.46,0-.71.26-.71.57s.25.49.81.7c.75.27,1.13.63,1.13,1.25s-.59,1.24-1.61,1.24a2.5,2.5,0,0,1-1.2-.28Z"/></g></g></svg>