<svg xmlns="http://www.w3.org/2000/svg" viewBox="0 0 78.3 67.82"><title>MOZCHEM</title><g id="f520afaf-6395-4409-9c93-eba3bbdc65a0" data-name="Layer 2"><g id="f731f398-c6b3-49a3-9821-cb11cded8dd2" data-name="Layer 1"><path d="M16.83,60.59h4a.81.81,0,0,1,.81.81v3.71a.81.81,0,0,1-.81.81h-4a.81.81,0,0,1-.81-.81V61.4a.81.81,0,0,1,.81-.81m.34-1.78h3.29a2.65,2.65,0,0,1,2.65,2.65v3.59a2.65,2.65,0,0,1-2.65,2.65H17.17a2.65,2.65,0,0,1-2.64-2.65V61.46A2.65,2.65,0,0,1,17.17,58.81Z" style="fill:#13beeb;fill-rule:evenodd"/><path d="M59.17,60.69h4a.9.9,0,0,1,.9.9v.95H58.26v-.95a.9.9,0,0,1,.91-.9m.69,5H65a.58.58,0,0,1,.59.59v.92a.58.58,0,0,1-.59.59H59.24a2.5,2.5,0,0,1-2.49-2.49v-4a2.51,2.51,0,0,1,2.49-2.5h3.88a2.51,2.51,0,0,1,2.49,2.5V63.4c0,.71-.34,1-1.15,1H58.38v.68a.65.65,0,0,0,.64.65Z" style="fill:#13beeb;fill-rule:evenodd"/><path d="M41,56.47h4.54a.58.58,0,0,1,.57.58v.68a.58.58,0,0,1-.57.58H39.74a1,1,0,0,0-1,1V65a1,1,0,0,0,1,1h5.84a.58.58,0,0,1,.57.57v.69a.58.58,0,0,1-.57.57H40.07a2.9,2.9,0,0,1-2.89-2.89V59.37a2.91,2.91,0,0,1,2.89-2.9Z" style="fill:#13beeb;fill-rule:evenodd"/><path d="M29.76,60.74h-5.4a.51.51,0,0,1-.51-.51V59.15a.51.51,0,0,1,.51-.51h7.12a1.09,1.09,0,0,1,1.08,1.09c0,.58,0,.69-.37,1.05l-5.16,5h5a.51.51,0,0,1,.51.51v1.07a.51.51,0,0,1-.51.51H24.94a1.09,1.09,0,0,1-1.09-1.08,1.38,1.38,0,0,1,.52-1l.06-.06.08-.07Z" style="fill:#13beeb;fill-rule:evenodd"/><path d="M48.82,58.88h5.1a2.3,2.3,0,0,1,2.3,2.3v6.64H54.76V61.23a.39.39,0,0,0-.38-.39H49.2a.39.39,0,0,0-.38.39v6.59H47.35V62h0V56.52h1.47Z" style="fill:#13beeb;fill-rule:evenodd"/><path d="M68.69,58.83h2.08a2,2,0,0,1,1.52.7,2,2,0,0,1,1.53-.7H75.9a2.42,2.42,0,0,1,2.4,2.41v6.58H76.7v-6.3a.79.79,0,0,0-.79-.78H73.73a.57.57,0,0,0-.57.56v6.52H71.58V61.3a.57.57,0,0,0-.57-.56H68.68a.79.79,0,0,0-.79.78v6.3H66.28V61.24a2.42,2.42,0,0,1,2.41-2.41" style="fill:#13beeb;fill-rule:evenodd"/><path d="M.58,56.51H1a.58.58,0,0,1,.54.37L6.8,65.34,12,56.87a1.4,1.4,0,0,1,.1-.16.59.59,0,0,1,.44-.2H13a.58.58,0,0,1,.58.58V67.82H12v-7.7L7.75,67.33a1.44,1.44,0,0,1-1.88,0L1.59,60v7.84H0V57.09a.58.58,0,0,1,.58-.58" style="fill:#13beeb;fill-rule:evenodd"/><path d="M26.48,34.33l.43,3.18,1.45-.13,1,2.34-1,.94,2.57,2.79.88-.81L34.05,44l-.33,1.34,3.17.92.76-1,2.85-.15.17,1.21,3.52-1.19-.47-.79L46,42.7l1,.79,2.46-2.74-1-.78,1.15-2.45,1.25.17.5-3.38-5.68-.22-.24,1.45h-.73l-.42,1.12.4.58-1.39,1.6-.51-.38-1,.6v.8l-1.9.52-.28-.57H38.42l-.5.58-1.81-.53,0-.69L35,38.37l-.5.37-1.32-1.68.39-.42-.43-1.09-.85,0-.24-1.48Zm-6.35.33.66,5.18,1.88-.25L24.45,43,23,44.41l3.81,4.07,1.42-1,3.3,1.93-.66,1.93,5.53,1.68.56-1.63,3.76-.1.76,2,5.39-1.67-.36-2,3-2L51.21,49l3.66-4.57-1.52-1.16L55,39.84l2.08,0,.82-5.28,14.47,1.58C54.18,30.39,22.72,30.93,6.27,36Z" style="fill:#b2b2b2;fill-rule:evenodd"/><path d="M22.61,31.07a198.64,198.64,0,0,1,32.91.1C53.48,21.7,39.61,13.44,39,0,37.73,13.56,24.79,21.17,22.61,31.07" style="fill:#13beeb;fill-rule:evenodd"/><path d="M54.21,31.07h0C50.9,23.18,43.07,16.16,39,7.56c.7,7.87,8.54,16.15,11.26,23.24,1.31.07,2.61.16,3.92.27" style="fill:#fff;fill-rule:evenodd"/></g></g></svg>