<svg xmlns="http://www.w3.org/2000/svg" viewBox="0 0 114.05 59.46"><title>O PEDAÇO</title><g id="a76b490e-a2b0-4175-94d2-ce547f75ff67" data-name="Layer 2"><g id="e98ffc48-a5b8-4c5b-9742-0bfc9fa9c4b5" data-name="Layer 1"><path d="M97.76,43l8.72-.08c3,9.28,10.19-5.06.57-2.24,2.09-2.56,7.46-.53,7,3.56A4.39,4.39,0,0,1,111,48c-2,.57-4.33-.46-6-2.77H96.6l.15-.92ZM0,47.12a13.42,13.42,0,0,1,6.65-1.85H16.81l.13-1.43-.05-.47-8.09.09C5.42,43.61,1.44,45,0,47.12Z" style="fill:#3b2414;fill-rule:evenodd"/><path d="M30.92,42.75c0,5-3.5,7.59-7.78,7.59s-7.52-3-7.52-7.32c0-4.57,3.3-7.57,7.77-7.57S30.92,38.47,30.92,42.75Zm-13,.23c0,3.08,1.93,5.84,5.34,5.84s5.36-2.71,5.36-6C28.63,40,26.89,37,23.29,37S17.93,39.82,17.93,43Z" style="fill:#9a0816"/><path d="M39,35.86a28.85,28.85,0,0,1,4.14-.28,7.66,7.66,0,0,1,4.7,1.2,3.63,3.63,0,0,1,1.47,3A3.89,3.89,0,0,1,48,42.87a7.59,7.59,0,0,1-5.11,1.59,8.33,8.33,0,0,1-1.74-.13v5.78H39Zm2.16,7A8.18,8.18,0,0,0,43,43c2.6,0,4.19-1.09,4.19-3.08s-1.56-2.82-4-2.82a10.06,10.06,0,0,0-2,.15Z" style="fill:#9a0816"/><path d="M56.11,45h-5v4h5.54v1.2H49.49v-11h6.9v1.19H51.14v3.48h5Z" style="fill:#9a0816"/><path d="M58.82,39.25A27.54,27.54,0,0,1,62.33,39a8.12,8.12,0,0,1,5.18,1.37,4.73,4.73,0,0,1,1.8,4,5.37,5.37,0,0,1-1.84,4.28c-1.19,1-3.17,1.58-5.65,1.58-1.18,0-2.16-.05-3-.13ZM60.47,49a13.11,13.11,0,0,0,1.67.08c3.53,0,5.45-1.7,5.45-4.67,0-2.6-1.69-4.24-5.18-4.24a11.19,11.19,0,0,0-1.94.14Z" style="fill:#9a0816"/><path d="M71.85,46.64l-1.33,3.47h-1.7l4.34-11h2l4.36,11H77.75l-1.37-3.47ZM76,45.53l-1.25-3.16c-.28-.72-.47-1.38-.66-2h0c-.19.65-.4,1.32-.65,2l-1.25,3.18Z" style="fill:#9a0816"/><path d="M90,49.75a9.22,9.22,0,0,1-3.35.52l-.44.65c.7.12,1.33.56,1.33,1.23,0,.94-1,1.32-2,1.32a3.28,3.28,0,0,1-1.34-.28l.26-.73a2.6,2.6,0,0,0,1.06.21c.44,0,.8-.15.8-.49s-.59-.62-1.48-.7l.8-1.26c-3.13-.33-5.37-2.24-5.37-5.52,0-3.44,2.71-5.78,6.68-5.78a7.92,7.92,0,0,1,3,.49l-.4,1.16A6.81,6.81,0,0,0,87,40.11c-3,0-5,1.65-5,4.54,0,2.7,1.8,4.43,4.91,4.43a7.47,7.47,0,0,0,2.69-.46Z" style="fill:#9a0816"/><path d="M103,44.49c0,3.79-2.68,5.79-5.94,5.79a5.4,5.4,0,0,1-5.75-5.58,5.6,5.6,0,0,1,5.94-5.78A5.37,5.37,0,0,1,103,44.49Zm-9.92.18c0,2.35,1.48,4.46,4.07,4.46s4.1-2.08,4.1-4.58c0-2.18-1.33-4.47-4.08-4.47S93.05,42.25,93.05,44.67Z" style="fill:#9a0816"/><path d="M49.8,16.83a11.65,11.65,0,0,1,0-4s.9,1.37,1.63,1.6-.12-2.1.73-3a4,4,0,0,0,1-3.47c-.36-.94,1.17.69,1.37,2A7.27,7.27,0,0,0,55.7,13.2c.46.53.53-2.45.69-3s1.83,3,2.17,2.7-.14-3.52,1-4.62c0,0,1.62,3.16,2.77,3.38,0,0-.44-2.55.5-3.65s2.76-.46,3.26-.21-1.57-.14-1.44.64a7.83,7.83,0,0,0,2,3.09c.71.61.78.78.78,1a6.63,6.63,0,0,0,.8-2.17c.11-.78.23.25.79,1.28s1.71,3.4,1.37,4.7-1,1.35-1,1.35.57-2.1,0-2.88a10.25,10.25,0,0,0-.92-1.14s-.8,3-1.27,3,.54-2.15-1.1-3.4S63.9,9.66,63.7,9s-.05-.73-.05-.73A2.86,2.86,0,0,0,63.17,11c.6,1.26,1.26,2.6,1.26,2.6s-3.63-1.14-4.82-3.11c0,0-.33,3.11,1.14,4.82A6.2,6.2,0,0,1,57,12.6a17.61,17.61,0,0,0-.24,3.29c.17.71-2.61-2.37-2.72-3.08s-.28-2.2-.28-2.2-1.25,1.58-1,2.59.43,3.15.61,3.36a8.31,8.31,0,0,1-2.19-1.35,8.23,8.23,0,0,0-.94-.8Z" style="fill:#9a0816;fill-rule:evenodd"/><path d="M53.9,13.65s1.57,2.19,1.83,2.46.05.27-.41.37-.53-.07-.8-.65a15.82,15.82,0,0,1-.62-2.18m3.61.74A7.39,7.39,0,0,0,57.93,16a9.64,9.64,0,0,0,1.67,0s-.88-.7-1.16-1A4.45,4.45,0,0,0,57.51,14.39Zm3-1.13s2.08,2.34,2.71,2.5.46.56.46.56-1.55-.06-1.94-.49A15.58,15.58,0,0,1,60.52,13.26Zm4.29.74a5.26,5.26,0,0,1,.07,1.46c-.13.29-.52.73,0,1.07a.55.55,0,0,0,.92-.43A9.25,9.25,0,0,0,64.81,14Zm3.8,1.55s0,.91-.26,1.07-.52.34-.41.58S69,17.47,69,17,69,15.55,68.61,15.55Zm-16.72,2,1-.34a8.26,8.26,0,0,1-1.29-.91c-.33-.35-.31.16-.19.39S51.89,17.54,51.89,17.54Z" style="fill:#3b2414;fill-rule:evenodd"/><path d="M65.2,34.59a21.64,21.64,0,0,0,4.09-2.08s5.48-2.91,7.25-8.46c0,0-.92,9.88-12,12.71Zm9.74-24.23a9,9,0,0,1,3.1,6c.39,3.92-.43,2.39-.43,2.39a64.67,64.67,0,0,0-2-6.8Zm-1.45.39s-3.77-6.22-9.18-7-5.76-.6-5.76-.6l-2.17-.29,1.42-.92s-7.22-.07-12.59,9.74l-.39-.42s-5.9,11.66,3.13,20A17.42,17.42,0,0,0,58.9,35.68a21.15,21.15,0,0,0,6.3-1.09l-.35,1.19-.15.48-.15.5a32.12,32.12,0,0,1-6.28.76,35.69,35.69,0,0,1-3.63-.17s-6.33-.64-10.25-8S38.92,19.85,43.33,9.9,59.62-1.91,65.16,1.72l-1.63.21s4.19.89,5.83,2.38S67.62,4,67.62,4,72.49,6.91,73.49,10.75Z" style="fill:#ad7c49;fill-rule:evenodd"/><path d="M74.45,21.6l7-.06a12.49,12.49,0,0,0,4.67-.9H74.68l0,.45Zm-39.85-1c-1-3.75-5.85-3.81-6.64.08A2.67,2.67,0,0,0,32.51,23c-6.44,1.38-1.18-8.45,1-1l10.68-.1V20.63Z" style="fill:#3b2414;fill-rule:evenodd"/><path d="M73,22.07s-.85.34-1.09.41-.12,1,.29.89a1.77,1.77,0,0,0,1.1-.89c.07-.32-.3-.41-.3-.41m-6-.21s-.19.71-.67.87-.47.53,0,.51,1.12-.07,1.17-.37a1.87,1.87,0,0,0,0-.64Zm-6.63-2.17c-.27,0-.45.07-.46.35s-.11.45,0,.73.43.8.43.8a6.21,6.21,0,0,0,.41-1.06,5.51,5.51,0,0,1,.05-.56Zm-12.61-.84c-.29.28-.62.52-.41.82s.21.37.66.37.78-.21.66-.39A9.75,9.75,0,0,0,47.77,18.85Zm-1.9,1.33a2.72,2.72,0,0,0-.47,1.39c.09.55.77.84.89.5a7.34,7.34,0,0,0,.13-1.17,3.13,3.13,0,0,0,0-.48ZM73,19.94s-.89.6-1,.9.15.57.52.5.71-.11.85-.46a1.49,1.49,0,0,0,.09-.73ZM44.62,22.38a4.27,4.27,0,0,1-.09-2.14c.3-.84,2-2.92,2.55-2.79a13.45,13.45,0,0,1,2.59,2.15s-2,3.29-2,3.57a.51.51,0,0,1-.36.38l-1.38-.25.53.67,2.9.41.14-2.4,2.38,0-.51,1.51c-.13.35.43.44.43.44l1.76.29,1.49,1.17S57,22.55,57.14,22s.16-.26.16-.26l1.6.08a26.75,26.75,0,0,1,.48,3.31c-.05.6.68.08,1-.18s3.06-3.27,3.06-3.27l0,1.65a6.9,6.9,0,0,0,.61-1.65,6.76,6.76,0,0,1,1.24-3.19c.66-.51.71.25.48.45a5.8,5.8,0,0,0-1,2.2c.07.34,1-2.11,1.62-2.26s1.6-.07,1.55.29.26,4.71.26,4.71l-3.11.5s3.88.21,3.88-.2a9.26,9.26,0,0,1,.12-2.36c.2-.19.38-.29.52-.09S70.34,24.31,72,25c0,0-1.66-2.12-1.32-3.13A4.2,4.2,0,0,1,73,19.13c1.21-.39,1.27-.19,1.27-.19s0,4.75.17,5a5.18,5.18,0,0,1,.29.89l.14-3.26.29-4.1a4.59,4.59,0,0,0-2,.07,17.53,17.53,0,0,0-3.86,3.25,5.64,5.64,0,0,1-.15-1.44,4.3,4.3,0,0,0-.24-1.17s-3.65-1-4-1a.75.75,0,0,0-.73.61c-.07.33-.37,2.4-.37,2.4s-.61.57-.79.57-1.47-3.52-4.16-3.35c0,0,2.64,1.09,2.67,2.87s-.55,2.79-1.08,2.75-.66-1-.84-1.34S58.56,19.35,58,19s.56,1.32.44,1.76-.37.15-.73-.21-2.44-3.5-3-3.56a13.22,13.22,0,0,0-2.81.91s1.84-.32,2.6.46S56.09,20,56,20.63a8.3,8.3,0,0,1-1.12,3.09c-.46.47,0-.66.09-1A4.81,4.81,0,0,0,54.74,20s0,2.44-.37,3-.64.6-.64.6a3.63,3.63,0,0,0,.19-1.15c0-.6,0-1.25,0-1.25s-.48,2.3-1,2.24-.73.08-.59-.42a6.18,6.18,0,0,0,0-2.74,2.93,2.93,0,0,0-.93-.94,2.55,2.55,0,0,1,.52,1.35H50.12l.74-1.42s-3.52-3.19-4.6-2.69a4.39,4.39,0,0,0-2.37,3.9C44.11,22.05,43.72,22.49,44.62,22.38Z" style="fill:#3b2414;fill-rule:evenodd"/><path d="M16.52,58l-.46,1.39h-.6L17,54.94h.69l1.52,4.44h-.61L18.09,58ZM18,57.54l-.43-1.28a7.8,7.8,0,0,1-.23-.81h0c-.06.26-.13.53-.22.8l-.43,1.29Z" style="fill:#3b2414"/><path d="M19.74,58.79a1.52,1.52,0,0,0,.76.23c.42,0,.62-.21.62-.47s-.16-.43-.59-.59-.84-.52-.84-.9a1,1,0,0,1,1.1-.94,1.54,1.54,0,0,1,.78.2l-.14.42a1.27,1.27,0,0,0-.66-.18c-.34,0-.53.19-.53.43s.19.38.61.54.83.49.83,1-.43,1-1.19,1a1.76,1.76,0,0,1-.9-.22Z" style="fill:#3b2414"/><path d="M22.35,58.79a1.56,1.56,0,0,0,.77.23c.42,0,.61-.21.61-.47s-.16-.43-.59-.59-.84-.52-.84-.9a1,1,0,0,1,1.1-.94,1.54,1.54,0,0,1,.78.2l-.14.42a1.26,1.26,0,0,0-.65-.18c-.35,0-.54.19-.54.43s.19.38.61.54.83.49.83,1-.43,1-1.19,1a1.76,1.76,0,0,1-.9-.22Z" style="fill:#3b2414"/><path d="M26.81,59.38l0-.4h0a1.18,1.18,0,0,1-1,.48.91.91,0,0,1-1-.92c0-.77.69-1.19,1.92-1.19v-.06a.65.65,0,0,0-.72-.74,1.53,1.53,0,0,0-.83.24L25,56.41a1.93,1.93,0,0,1,1.05-.29c1,0,1.21.67,1.21,1.31v1.19a4.26,4.26,0,0,0,.06.76Zm-.09-1.62c-.63,0-1.35.1-1.35.72a.51.51,0,0,0,.55.55.8.8,0,0,0,.77-.54.52.52,0,0,0,0-.18Z" style="fill:#3b2414"/><path d="M31,54.7v3.86c0,.28,0,.61,0,.82h-.52l0-.55h0a1.16,1.16,0,0,1-1.08.63A1.46,1.46,0,0,1,28,57.84a1.53,1.53,0,0,1,1.43-1.72,1,1,0,0,1,1,.49h0V54.7Zm-.58,2.79a1,1,0,0,0,0-.24.84.84,0,0,0-.84-.67c-.6,0-1,.52-1,1.23s.31,1.18.94,1.18a.87.87,0,0,0,.85-.69,1,1,0,0,0,0-.25Z" style="fill:#3b2414"/><path d="M34.83,57.76a1.57,1.57,0,0,1-1.59,1.7,1.52,1.52,0,0,1-1.53-1.64,1.56,1.56,0,0,1,1.59-1.7A1.51,1.51,0,0,1,34.83,57.76Zm-2.53,0c0,.69.4,1.22,1,1.22s1-.52,1-1.24c0-.54-.27-1.22-1-1.22S32.3,57.19,32.3,57.8Z" style="fill:#3b2414"/><path d="M35.49,58.79a1.52,1.52,0,0,0,.76.23c.42,0,.62-.21.62-.47s-.16-.43-.59-.59-.85-.52-.85-.9a1,1,0,0,1,1.11-.94,1.54,1.54,0,0,1,.78.2l-.15.42a1.2,1.2,0,0,0-.65-.18c-.34,0-.53.19-.53.43s.19.38.6.54.84.49.84,1-.43,1-1.19,1a1.76,1.76,0,0,1-.9-.22Z" style="fill:#3b2414"/><path d="M41.84,55.43H40.49v-.49h3.29v.49H42.42v4h-.58Z" style="fill:#3b2414"/><path d="M46,59.38l0-.4h0a1.2,1.2,0,0,1-1,.48.91.91,0,0,1-1-.92c0-.77.69-1.19,1.92-1.19v-.06a.65.65,0,0,0-.72-.74,1.53,1.53,0,0,0-.83.24l-.13-.38a1.87,1.87,0,0,1,1-.29c1,0,1.22.67,1.22,1.31v1.19a4.33,4.33,0,0,0,0,.76Zm-.08-1.62c-.64,0-1.36.1-1.36.72a.52.52,0,0,0,.55.55.79.79,0,0,0,.77-.54.53.53,0,0,0,0-.18Z" style="fill:#3b2414"/><path d="M47.44,54.7H48v4.68h-.58Z" style="fill:#3b2414"/><path d="M49,54.7h.58v2h0a1,1,0,0,1,.41-.41,1.19,1.19,0,0,1,.59-.17c.43,0,1.12.27,1.12,1.37v1.89h-.58V57.55c0-.51-.19-.95-.74-.95a.84.84,0,0,0-.78.58.79.79,0,0,0,0,.28v1.92H49Z" style="fill:#3b2414"/><path d="M55.54,57.76A1.57,1.57,0,0,1,54,59.46a1.52,1.52,0,0,1-1.53-1.64A1.56,1.56,0,0,1,54,56.12,1.51,1.51,0,0,1,55.54,57.76ZM53,57.8c0,.69.4,1.22,1,1.22s1-.52,1-1.24c0-.54-.27-1.22-1-1.22S53,57.19,53,57.8Z" style="fill:#3b2414"/><path d="M59.09,55a5.86,5.86,0,0,1,1-.09,1.86,1.86,0,0,1,1.22.32.94.94,0,0,1,.37.79A1.05,1.05,0,0,1,61,57h0a1.16,1.16,0,0,1,.92,1.12,1.22,1.22,0,0,1-.38.89,2.26,2.26,0,0,1-1.54.41,6.37,6.37,0,0,1-.89-.05Zm.58,1.82h.52c.6,0,1-.32,1-.74s-.4-.73-1-.73a2.35,2.35,0,0,0-.5,0Zm0,2.13a2.88,2.88,0,0,0,.48,0c.59,0,1.14-.22,1.14-.87s-.52-.85-1.15-.85h-.47Z" style="fill:#3b2414"/><path d="M63,57.9a1,1,0,0,0,1.1,1.1,2.16,2.16,0,0,0,.88-.16l.1.41a2.62,2.62,0,0,1-1.06.2,1.49,1.49,0,0,1-1.57-1.61,1.55,1.55,0,0,1,1.5-1.72,1.35,1.35,0,0,1,1.31,1.5,1.8,1.8,0,0,1,0,.28Zm1.7-.42a.82.82,0,0,0-.8-.94,1,1,0,0,0-.89.94Z" style="fill:#3b2414"/><path d="M65.93,59.38c0-.21,0-.54,0-.82V54.7h.57v2h0a1.2,1.2,0,0,1,1.09-.59c.79,0,1.35.66,1.34,1.63a1.51,1.51,0,0,1-1.43,1.71,1.12,1.12,0,0,1-1.06-.6h0l0,.52Zm.6-1.27a.76.76,0,0,0,0,.21.89.89,0,0,0,.87.68c.6,0,1-.5,1-1.23s-.32-1.19-.94-1.19a.93.93,0,0,0-.89.71,1.57,1.57,0,0,0,0,.24Z" style="fill:#3b2414"/><path d="M70.36,55.3a.35.35,0,0,1-.37.35.34.34,0,0,1-.35-.35.35.35,0,0,1,.36-.36A.34.34,0,0,1,70.36,55.3Zm-.65,4.08V56.19h.58v3.19Z" style="fill:#3b2414"/><path d="M74,54.7v3.86c0,.28,0,.61,0,.82h-.53l0-.55h0a1.18,1.18,0,0,1-1.09.63A1.46,1.46,0,0,1,71,57.84a1.54,1.54,0,0,1,1.43-1.72,1.08,1.08,0,0,1,1,.49h0V54.7Zm-.58,2.79a1,1,0,0,0,0-.24.84.84,0,0,0-.83-.67c-.6,0-1,.52-1,1.23s.32,1.18.94,1.18a.87.87,0,0,0,.85-.69,1,1,0,0,0,0-.25Z" style="fill:#3b2414"/><path d="M76.74,59.38l0-.4h0a1.2,1.2,0,0,1-1,.48.91.91,0,0,1-1-.92c0-.77.69-1.19,1.92-1.19v-.06a.65.65,0,0,0-.72-.74,1.53,1.53,0,0,0-.83.24L75,56.41a1.87,1.87,0,0,1,1-.29c1,0,1.22.67,1.22,1.31v1.19a4.33,4.33,0,0,0,0,.76Zm-.08-1.62c-.64,0-1.36.1-1.36.72a.52.52,0,0,0,.55.55.79.79,0,0,0,.77-.54.53.53,0,0,0,0-.18Z" style="fill:#3b2414"/><path d="M78.08,58.79a1.52,1.52,0,0,0,.76.23c.42,0,.62-.21.62-.47s-.16-.43-.59-.59c-.58-.2-.85-.52-.85-.9a1,1,0,0,1,1.1-.94,1.55,1.55,0,0,1,.79.2l-.15.42a1.2,1.2,0,0,0-.65-.18c-.34,0-.53.19-.53.43s.19.38.6.54.84.49.84,1-.44,1-1.19,1a1.76,1.76,0,0,1-.9-.22Z" style="fill:#3b2414"/><line x1="46.21" y1="55.28" x2="46.21" y2="59.28" style="fill:none;stroke:#ad7c49;stroke-miterlimit:2.613126039505005"/><line x1="70.39" y1="55.28" x2="70.39" y2="59.28" style="fill:none;stroke:#ad7c49;stroke-miterlimit:2.613126039505005"/><path d="M53.8,33.52V31.71h1.34V32h-1v.4h.9v.3h-.9v.5h1v.3Z" style="fill:#231f20"/><path d="M55.36,33.15l.35-.06a.24.24,0,0,0,.09.16.33.33,0,0,0,.19,0,.34.34,0,0,0,.2,0,.11.11,0,0,0,.05-.09.09.09,0,0,0,0-.07.25.25,0,0,0-.11,0,1.76,1.76,0,0,1-.53-.17.33.33,0,0,1-.16-.3.34.34,0,0,1,.13-.28.62.62,0,0,1,.42-.12.72.72,0,0,1,.4.09.41.41,0,0,1,.18.26l-.33.06a.2.2,0,0,0-.08-.12.25.25,0,0,0-.16,0,.35.35,0,0,0-.2,0,.08.08,0,0,0,0,.07.07.07,0,0,0,0,.06,1.3,1.3,0,0,0,.32.1,1.05,1.05,0,0,1,.39.15.33.33,0,0,1,.1.26.4.4,0,0,1-.15.31.63.63,0,0,1-.44.13.72.72,0,0,1-.42-.11A.47.47,0,0,1,55.36,33.15Z" style="fill:#231f20"/><path d="M57.49,32.21v.28h-.24V33a.67.67,0,0,0,0,.18s0,0,0,0h.06l.14,0,0,.27a.82.82,0,0,1-.28,0,.47.47,0,0,1-.17,0,.31.31,0,0,1-.11-.08.46.46,0,0,1-.05-.14s0-.12,0-.24v-.57h-.16v-.28h.16V32l.35-.2v.46Z" style="fill:#231f20"/><path d="M57.73,33.52v-.35h.34v.35Z" style="fill:#231f20"/><path d="M60.23,33.2v.32H59a.91.91,0,0,1,.12-.35,3.1,3.1,0,0,1,.39-.43,2.45,2.45,0,0,0,.29-.29.51.51,0,0,0,.07-.22.24.24,0,0,0-.06-.17.23.23,0,0,0-.18-.07.24.24,0,0,0-.17.07.3.3,0,0,0-.07.22l-.35,0a.56.56,0,0,1,.2-.41.63.63,0,0,1,.4-.12.56.56,0,0,1,.42.14.5.5,0,0,1,.16.36.59.59,0,0,1,0,.23.83.83,0,0,1-.14.23,1.43,1.43,0,0,1-.22.23l-.21.2-.07.1Z" style="fill:#231f20"/><path d="M61.05,31.71a.51.51,0,0,1,.41.18,1.28,1.28,0,0,1,.17.74,1.2,1.2,0,0,1-.18.74.48.48,0,0,1-.4.18.54.54,0,0,1-.43-.2,1.2,1.2,0,0,1-.16-.72,1.18,1.18,0,0,1,.18-.74A.48.48,0,0,1,61.05,31.71Zm0,.28a.25.25,0,0,0-.12,0,.35.35,0,0,0-.07.15,1.62,1.62,0,0,0,0,.45,2.15,2.15,0,0,0,0,.44.26.26,0,0,0,.08.15.17.17,0,0,0,.12,0,.17.17,0,0,0,.11,0,.2.2,0,0,0,.07-.14,1.62,1.62,0,0,0,0-.45,2.15,2.15,0,0,0,0-.44.34.34,0,0,0-.08-.16A.25.25,0,0,0,61.05,32Z" style="fill:#231f20"/><path d="M62.06,32.48l.06-.31a2.19,2.19,0,0,0,.71-.47h.22l-.39,1.82h-.35l.26-1.25a1.46,1.46,0,0,1-.25.13A1.23,1.23,0,0,1,62.06,32.48Z" style="fill:#231f20"/><path d="M63.27,33.1l.34,0a.34.34,0,0,0,.06.15.22.22,0,0,0,.14.05.24.24,0,0,0,.18-.1.8.8,0,0,0,.1-.41.43.43,0,0,1-.33.15.5.5,0,0,1-.37-.16.7.7,0,0,1,0-.88.61.61,0,0,1,.87.05,1.07,1.07,0,0,1,.18.7,1,1,0,0,1-.19.71.57.57,0,0,1-.47.22.54.54,0,0,1-.35-.11A.64.64,0,0,1,63.27,33.1Zm.79-.75a.38.38,0,0,0-.08-.26.21.21,0,0,0-.18-.1.23.23,0,0,0-.16.08.4.4,0,0,0-.06.25.36.36,0,0,0,.07.25.21.21,0,0,0,.17.09.23.23,0,0,0,.17-.08A.32.32,0,0,0,64.06,32.35Z" style="fill:#231f20"/></g></g></svg>