<svg xmlns="http://www.w3.org/2000/svg" viewBox="0 0 79.23 79.65"><title>UNIVERSIDADE DE PUNGUE</title><g id="eaccd32f-c051-4acc-9fd6-bf0ad008c88a" data-name="Layer 2"><g id="b6680b29-8d5e-447d-9ac4-de7db70de806" data-name="Layer 1"><path d="M15.08,50.72,18.5,50,32,50.94l7,1.87.62.27,1.23-.25,9.19-2.41,14.18,0a26.76,26.76,0,0,1-49.18.26Z" style="fill:#fff100;fill-rule:evenodd"/><path d="M15.08,50.72,18.5,50,32,50.94l7,1.87.62.27,1.23-.25,9.19-2.41,14.18,0a26.76,26.76,0,0,1-49.18.26Z" style="fill:none;stroke:#231f20;stroke-miterlimit:2.613126039505005;stroke-width:0.5px"/><path d="M26.49,32s1.06.13,1.06.43v.76c0,.42.17.76,0,.7s-.19,0-.34-.49-.41-.36-.6-.61a1.36,1.36,0,0,1-.12-.79m1.78.68A2.76,2.76,0,0,0,28.22,34a3.4,3.4,0,0,0,.62,1.23c.3.32.53.85.72,1a3.27,3.27,0,0,0,.87.38,3.33,3.33,0,0,0,.89-.06.79.79,0,0,0,.34-.49,1.09,1.09,0,0,0-.3-1.06,9.33,9.33,0,0,0-.74-.87A5.46,5.46,0,0,0,30,33.5a3.41,3.41,0,0,0-.75-.43A8.44,8.44,0,0,0,28.27,32.67ZM28.75,25a3.9,3.9,0,0,0-.84.76c-.15.28-.45.79-.56,1A5.2,5.2,0,0,0,27.06,28a2.7,2.7,0,0,0,.06,1.46c.23.4.11.93.45,1.08s.51,0,.46-.45a2.45,2.45,0,0,1,.11-1.27c.17-.23.3-.27.3,0s0,.68,0,1-.36.28-.1.81.68.84,1.08.74.47.17.47-.53a4.31,4.31,0,0,0-.13-1.47,2.75,2.75,0,0,1-.15-1.27A5.18,5.18,0,0,0,29.9,27c0-.32.23-.72.13-1s0-.29-.26-.48S29,25,29,25Zm1.66,1.21s.08,1.48,0,2.1-.27.8,0,1.31.25.78.49,1.27a1.22,1.22,0,0,0,1,.76,2.16,2.16,0,0,0,1.28-.27,2.24,2.24,0,0,0,.69-1A7.09,7.09,0,0,0,33.52,28a6.13,6.13,0,0,0-.7-.55,6.78,6.78,0,0,0-.91-.6c-.34-.17-.76-.29-1-.4A4.58,4.58,0,0,0,30.41,26.25Zm6.31.61a.6.6,0,0,0-.61.55,1.63,1.63,0,0,0,.7,1.49,3,3,0,0,0,2,.7A1.92,1.92,0,0,0,40,29a8.07,8.07,0,0,0,.93-1.4,6.71,6.71,0,0,0,.28-1.18c0-.24-.11-2.69-.11-2.69s-.55-.51-.59-.34a3.49,3.49,0,0,1-.41,1c-.21.3-1,1.21-1.2,1.4s-.26.41-.64.55S36.72,26.86,36.72,26.86Zm0-3.49A5.72,5.72,0,0,0,36,25c0,.43-.1.83.23.89a1.92,1.92,0,0,0,1.32-.19c.4-.25,1.21-.84,1.46-1a5.91,5.91,0,0,0,.7-.77,7.39,7.39,0,0,0,.7-1.74c0-.5-.15-1.1-.28-.89a3.48,3.48,0,0,1-.89.83c-.4.3-.53.66-1.1.83a4.4,4.4,0,0,1-1,.25C36.91,23.13,36.68,23.37,36.68,23.37Zm2.23-5.16s-.85,2.46-1.13,2.95-.27.87-.59,1-.64.53-.76.15a2.51,2.51,0,0,1-.17-1.15c0-.59.08-2.65.1-2.92a1.48,1.48,0,0,1,.6-.89c.31-.26.42-.72,1-.81s.55-.15,1,0,.82.4.91.74.12,1,.23,1.55.38,1.38,0,1.76A3.34,3.34,0,0,1,39,21.5c-.4.17-.79.19-.7-.09s.38-.63.55-1.08a5.09,5.09,0,0,0,.25-1.48A1.84,1.84,0,0,0,38.91,18.21Zm1.65-.5s0,1,.08,1.29a8,8,0,0,1,0,.93,4.29,4.29,0,0,0,.68-.66c.12-.21.36-.29.36-.53s-.41-.63-.41-.63Zm1.5,1.63s-1.22,1.08-1.29,1.4a2.42,2.42,0,0,0,.32,1,6.1,6.1,0,0,0,.55-1c.13-.38.32-.43.34-.81A2.93,2.93,0,0,1,42.06,19.34Zm.49,1s-.36.76-.51,1.1-.36.57-.44.82-.23.3-.17.77a3.49,3.49,0,0,0,.51,1.31c.19.28.21.83.53.85s.57.15.74-.45a9.18,9.18,0,0,0,.21-1.5c.06-.4.38-.7.21-1.25s-.08-.55-.31-.91A3.74,3.74,0,0,0,42.55,20.36Zm8.88-.2a5.1,5.1,0,0,0-1.88.28,12.8,12.8,0,0,0-1.7,1.12c-.3.22-.59.36-.7.79a1.21,1.21,0,0,0,.19,1.08,9.29,9.29,0,0,0,.83,1.44c.34.32.51.47.68.32A6.63,6.63,0,0,0,50,23.94c.15-.34.51-1.1.68-1.44a9.75,9.75,0,0,0,.53-1.17C51.26,21,51.43,20.16,51.43,20.16ZM46.3,22.81s-1.76.94-2,1.89-.21,2.16,0,2.25,1.25.63,1.44.68a2,2,0,0,0,1.13.14c.42-.14.44-.53.44-1a3.9,3.9,0,0,0,0-1.34,3.63,3.63,0,0,0-.47-.68,1.87,1.87,0,0,1-.32-1A6.56,6.56,0,0,0,46.3,22.81Zm-.14,5.71s-2-1-2.31-.85a3.92,3.92,0,0,0-1.3,1.4,1.79,1.79,0,0,0-.15,1.14,2.1,2.1,0,0,0,.68.87A2.42,2.42,0,0,0,44.52,31a5.61,5.61,0,0,0,1.32-1.23c.15-.27.44-.48.38-.84Zm2.14.5a6.89,6.89,0,0,0-1.49.79c-.23.27-1.14,1.23-1.31,1.5a1.24,1.24,0,0,0-.17.89c.06.3.85.53,1.19.34a7.52,7.52,0,0,0,1-.78,6.33,6.33,0,0,0,.79-1.34s.21-.74.23-1S48.3,29,48.3,29Zm4.3-3.81a10.75,10.75,0,0,0-1.46.91,3.32,3.32,0,0,0-1,1.17c-.08.36-.29.65-.13.65s.49-.25.68-.38a10.24,10.24,0,0,0,1.15-.8,4.87,4.87,0,0,0,.7-1.08A1.07,1.07,0,0,0,52.6,25.21Zm-.06,1.27a21,21,0,0,1-1.68,1.91c-.44.36-1.4.63-1.59,1a1.47,1.47,0,0,0-.19,1.1c.09.53.38.89.81.68s1.46-.81,1.63-1.25.57-1.38.8-1.83a1.87,1.87,0,0,0,.32-1A1.48,1.48,0,0,0,52.54,26.48Zm4.64,1.63a10.47,10.47,0,0,0-2.08.51c-.51.28-1.14.72-1.44.85s-.89.23-.95.55-.32.66-.05.87a1.8,1.8,0,0,0,1.57-.15c.32-.27,1.25-.72,1.7-1a4.73,4.73,0,0,0,.8-.74A3.81,3.81,0,0,0,57.18,28.11ZM31.75,46.67s.3-4.75.51-5.68-.12-1.24-.71-1.75-3.67-3.66-3.93-3.93-1.74-3-2-3.05-1.11.48-1.49.74a6.39,6.39,0,0,0-1.25,1.14,3.85,3.85,0,0,0-.46.81s-.34-.34-.17-.55a3.1,3.1,0,0,0,.27-1s-1.19.43-1.36.53a8.4,8.4,0,0,1-2.9.38c-.49-.19.42-.17.85-.25A6.06,6.06,0,0,0,21,33.59c.19-.23.15-.32.15-.32a3.65,3.65,0,0,1-.8-.29c-.24-.15-.85-.64-1-.7s-.68-.19-1-.28-1.32-.82-1.19-1a.44.44,0,0,1,.59,0c.07.12,1.47.87,1.23.46s-.55-1-.38-.89,1.12,1.66,1.78,1.85,1.1.7,2.38,0,1.33-1.06,1-1.4a5.43,5.43,0,0,0-1.52-1.18c-.44-.11-.81-.18-1.13-.28s-.88-.44-1.07-.51A3.56,3.56,0,0,0,19,28.8a6.06,6.06,0,0,1-1-.1c-.13-.05-.19-.19.23-.18l1,0a1.06,1.06,0,0,0,.2-.44c0-.17.09-.38.22-.3a.5.5,0,0,1,.24.46c0,.24.07.3.34.46s1.71.73,1.88.57,0-.4-.1-.5-1.91-1.88-2-1.93-1,0-1.47,0-.53-.27-.53-.27.92-.09,1.17-.09.45,0,.28-.13-.28-.21-.32-.34-.34-.5-.07-.5.81.74,1,.86,2.38,2.38,2.91,2.82,1.06,1,1.42,1.21.67.36.59,0A14.39,14.39,0,0,0,23.78,28a20.31,20.31,0,0,0-2.35-2.27,3,3,0,0,0-1.1-.28c-.13,0-.13-.21.1-.21a6.6,6.6,0,0,1,1.28.15,7.93,7.93,0,0,1,1.56,1.32c.26.36.77,1.2.79.74s.27-.85.1-1.11-.4-.67-.25-.67a1.48,1.48,0,0,1,.59,1,4,4,0,0,0,.13,1s-.19.13,0,.74a12.54,12.54,0,0,0,.53,1.38c.15.23.05,1.08.38,1.08a.55.55,0,0,0,.58-.61A3.57,3.57,0,0,0,26,29.24c-.11-.22-.34-.72-.4-.89a3.45,3.45,0,0,1-.24-1,8.38,8.38,0,0,0-.08-1.25c-.06-.23-.55-1.25-.55-1.25s.15-.27-.49-.34-.7-.13-1.67-.25a14.8,14.8,0,0,1-1.72-.24c-.26-.08-.26-.25-.06-.25s.72.11,1,.11a13.22,13.22,0,0,0,2,.14c.43-.08.45-.19.24-.33s-1-.49-1.27-.66a1.82,1.82,0,0,0-1-.32c-.4,0-.89-.08-1.08-.08s-.13-.26.23-.26h1c.19,0,0-.1-.11-.38s.11-.47.38-.17a4,4,0,0,0,.57.61c.2.13.56.28.47,0a2.34,2.34,0,0,1-.08-.51,2.74,2.74,0,0,1,.74.68c.29.43,1.21,1.57,1.35,1.8a6.05,6.05,0,0,1,.89,1.89c.05.57.24,1.46.24,1.46s.44-.91.61-1.23.64-.74.45-1.14S26.5,24.32,26.35,24s-.32-.55-.19-.63.34.32.51.55a4.54,4.54,0,0,0,.89.91c.17.06.21.15.57,0s.19-.81,0-1a6.35,6.35,0,0,1-1.51-1.42,5.53,5.53,0,0,0-.78-1.35,2,2,0,0,0-.74-.4,8.22,8.22,0,0,0-1.47-.43c-.57-.08-.55-.21-.55-.21s.83,0,1.06,0,.26-.11.32-.26.29-.25.37.16.16.31.36.25.17-.12.33-.24.19-.37.36-.17.12.36.1.7.09.35.21.57.38.53.47.41a.55.55,0,0,0,0-.45,2.41,2.41,0,0,1,0-.71,4.44,4.44,0,0,0,0-.63c0-.23,0-.46,0-.59s.05-.28.12-.28.12,0,.17.35a9.1,9.1,0,0,1,.11,1.29c0,.39.05.9.05,1.24s-.11.48.08.76a1.25,1.25,0,0,0,.4.42c.18.15.43.22.53-.09a4.9,4.9,0,0,0,.42-1.24,3.44,3.44,0,0,1,0-.91c.07-.23.21-.48.26-.3a6.85,6.85,0,0,1,0,1.06,3.69,3.69,0,0,1-.11.93,3.72,3.72,0,0,0-.17.74,3,3,0,0,0,.24,1,.59.59,0,0,0,.66.41c.21,0,.21-.2.22-.55s0-1.19-.06-1.4-.17-.5-.1-.7.18-.45.3-.29A5.72,5.72,0,0,1,30,22.88c0,.19.15.26.3,0a3,3,0,0,1,.4-.64c.16-.14.45-.59.56-.63s.3-.16.22.09a8.81,8.81,0,0,1-.57,1.06,6.74,6.74,0,0,0-.54.85c-.17.34-.31.66,0,.45s.77-.36,1-.48a4,4,0,0,1,.83-.47c.32-.1.54-.06.48.06s-.23.27-.58.49a5.23,5.23,0,0,1-1.24.75c-.51.17-.63.12-.69.43a.51.51,0,0,0,.33.6A24,24,0,0,0,33.7,27c.81.17,1,.1,1-.6A3.49,3.49,0,0,0,34.55,25a4,4,0,0,0-.7-1.21A7.59,7.59,0,0,1,33,22.71a4,4,0,0,1-.53-1.06c-.14-.43-.27-.81-.46-.85a5,5,0,0,0-1.32.09c-.4.08-.44-.24,0-.37s1.06,0,1.1-.29.15-.15-.21-.36-.91-.32-1.44-.57a13.87,13.87,0,0,1-1.5-.79c-.62-.38-.87-.49-.68-.51a1.05,1.05,0,0,1,.85.19,7.45,7.45,0,0,0,1.8.74c.34.09,1.16.43,1.29.43s.34.08.34-.06a1.22,1.22,0,0,0-.23-.51,4,4,0,0,0-.72-.81,3.12,3.12,0,0,0-1.28-.4,8.06,8.06,0,0,0-1.5-.28c-.7,0-.74,0-1.29,0a2.69,2.69,0,0,0-1.08.15c-.2.08-.05-.38.38-.49a11.16,11.16,0,0,1,1.42-.13,5,5,0,0,1,1.33.05c.13.08,2,.53,2.14.57s.17-.26-.19-.47-.29-.29-.87-.38-.89-.44-1.27-.42-.3-.32,0-.32a2.34,2.34,0,0,1,.83.17c.4.13.74.17.82,0a2.69,2.69,0,0,0,.15-.59c0-.17.21-.11.62.12a2.88,2.88,0,0,0,.89.32s-.19.45-.32.3-.55-.15-.55-.15-.32.19,0,.44a1.68,1.68,0,0,1,.59,1c0,.28.4.59.49.91s0,.62.19.72.36-.08.55-.25.53-.42.53-.42.34.31.13.48A2.9,2.9,0,0,0,33,20.08c-.08.44-.21.3-.08.64a8,8,0,0,0,.61,1.2c.24.36.58,1.13,1,1.38s.89.13.89-.27.15-1.13.15-1.59a23.91,23.91,0,0,0,.23-2.4c-.08-.38-.34-.66-.44-1a2.69,2.69,0,0,0-.49-1c-.27-.36-.66-.79-.87-1a2.53,2.53,0,0,1-.42-.87c0-.19.13,0,.44.4a6.46,6.46,0,0,0,.85.83c.28.21.64.93.91,1s.32,0,.41-.15.44-.51.55-.74.29-.43.06-.49-.34.08-.74-.19-.55-.41-.81-.58-.17-.33-.17-.33a3.68,3.68,0,0,0,.79.42,2.14,2.14,0,0,0,.55.17v-.74c0-.19-.17-.74-.17-.87s.68-.38.68-.38a1,1,0,0,0-.17.51c-.07.38-.13.36,0,.61s.25.42.46.85.09.59.38.51.09-.15.47-.41.81-.51,1.17-.72.38-1.08.51-.84-.2.44.21.61a1.66,1.66,0,0,0,.76.17c.17,0,.47.11.25.21a1.55,1.55,0,0,1-.61.19c-.4.09-.55.28-.51.47s0,.72.11.91.48.42.68.34.31-.81.46-1,.74-1.5.87-1.57.3-.08.19.26a13.8,13.8,0,0,1-.7,1.48,6,6,0,0,0-.25.81c-.09.27.23.65.23.65a.73.73,0,0,0,.55-.27,13.56,13.56,0,0,0,.64-1.42l-.24,1.12a7.62,7.62,0,0,0-.19,1c0,.15.62.74.68.51s.28-.85.34-1.08a2,2,0,0,1,.3-.77c.13-.1,0,.64-.09.92a7.08,7.08,0,0,0-.31,1.69c.06.45.4.93.8.87s.47-.32.66-.55.57-.47.25-.81a4.76,4.76,0,0,1-.61-.63,1.77,1.77,0,0,1-.17-.7s.55.83.76.68a.86.86,0,0,0,.34-.62c0-.25.21-.36,0-.63s-.59-.68-.59-.68-1.7-2-1.91-2.14-.68-.36-.55-.45.84.28.95.45a8.73,8.73,0,0,0,.64.7l.23-.51a1.93,1.93,0,0,1,.44.85c.07.42.07.4.17.57s.51.68.73.51a5.15,5.15,0,0,0,.46-.47c.21-.21.11-.51.64-.64a4.08,4.08,0,0,1,.8-.12,4.3,4.3,0,0,1-.46.4,1.64,1.64,0,0,0-.72.62c-.22.38-.66.48-.2.55a1.68,1.68,0,0,0,1-.22,5.63,5.63,0,0,1,.68-.17,1.4,1.4,0,0,0,.61-.44,1.78,1.78,0,0,1,1.11-.25c.46.12.63.31.46.38a4.21,4.21,0,0,1-.85.15c-.17,0-.38.16,0,.27s.7.17,1.21.3,1.46.36,1.44.53-.44.21-.65.08a9,9,0,0,0-1.43-.32,4.39,4.39,0,0,0-1.18-.14,2.5,2.5,0,0,0-1.55.38c-.47.34-.78.61-.81.85s-.33.42.07.82-.32.28-.4.45-.19,1.46-.24,1.65-.12.15-.23.55-.3.68,0,.85.44.11.8-.11a2,2,0,0,0,.75-.91.82.82,0,0,0,0-.7,4.44,4.44,0,0,0-.4-.91c-.09-.13.17-.32.17-.32s.29.11.36,0a9.66,9.66,0,0,1,.78-.93s.42.19.06.55-.48.51-.44.63.85,0,.93-.29a6.32,6.32,0,0,0,.17-.66s-.11-.49.11-.49.06.36.44.53.38.07.81,0,1.08-.15,1.08-.15a.78.78,0,0,1-.62.47,7.06,7.06,0,0,0-1.08.23,4.16,4.16,0,0,1-.55.3c-.25.11-1.21.38-1.25.68s-.42,1-.08,1a1.65,1.65,0,0,0,.89-.47c.23-.19.31-.59.46-.78s.17-.36.3-.39,0,.28.25.37a3.55,3.55,0,0,0,.94,0,2.72,2.72,0,0,0,1.18-.17,2,2,0,0,0,.79-.83,5.48,5.48,0,0,1,.59-.83s.34.15.11.57-.36.7-.32.83.42.13,1,.13h1.31c.38,0,.15.17-.21.23s-.89.17-1.19.21-.57-.19-.89.07-.7,1-.55,1.1.34.15.72,0a3.69,3.69,0,0,1,1.08-.4c.32,0,.62-.09.41.14a1.91,1.91,0,0,1-1,.55c-.49.11-1,.05-1.11.37s-.42.36-.42.67.09.6.59.36,1.32-.27,1.68-.42.47-.66.7-.78.91,0,.55.36-.81.44-.81.78-.1.7-.38.64a3.93,3.93,0,0,0-1.25-.22c-.21.09-1.29.3-1.63.87a15.62,15.62,0,0,1-1.78,2.33,4.23,4.23,0,0,0-.87,1.43c-.15.38.45.42.45.42s.57-.26.57-.4a9.8,9.8,0,0,1,1-1.34,10.45,10.45,0,0,0,1-1.25,6.14,6.14,0,0,1,.49-1.06c.17-.19.57-.36.44,0s-.38.64-.15.66a1.68,1.68,0,0,0,1-.34,7.51,7.51,0,0,1,.66-.74c.17-.11.38.21.38.21s.55-.53.68-.53a5.26,5.26,0,0,0,.93-.7,14.22,14.22,0,0,1,1.16-.89l.45-.28s.21.28-.19.45-.57.44-.19.49a12,12,0,0,0,1.38.12c.53,0,1-.12,1,.05s-.08.4-.85.31a12.53,12.53,0,0,0-1.71-.08c-.72,0-1.47,1-1.8,1.21s-.94,1.08-.56.72a4.33,4.33,0,0,1,1.38-.68c.24-.09.68,0,.32.27a9.12,9.12,0,0,1-1.44,1.17c-.4.17-1,.51-1,.81a7.31,7.31,0,0,0-.25,1.18c0,.43.1.74.48.83a2.62,2.62,0,0,0,1.4-.51c.3-.19.64-.06.64-.78A4.74,4.74,0,0,1,56.45,25a1.81,1.81,0,0,1,.19,1,5,5,0,0,1-.24,1c-.14.4-.63.49-.08.55s1.08-.19,1.08-.7.09-.72.09-1.06a12.25,12.25,0,0,1,.14-1.31c0-.28.28-.87.47-.93s.4-.22.23.12a2.71,2.71,0,0,0-.31,1A3.57,3.57,0,0,0,58,25.82c.09.15.15.13.79-.14s.74-.47.78-.34a.49.49,0,0,1-.34.65,3,3,0,0,0-1,.51c-.28.26-.74.45-.32.47a2.88,2.88,0,0,0,1.19-.38c.25-.13.44-.43.48-.22s0,.49-.5.66a2.07,2.07,0,0,0-1,.62c-.19.27-.3.46-.13.61s.66,0,1-.19a8.54,8.54,0,0,0,1.35-.68c.36-.27,1-1,.77-.4s-.32.68-.79.87-.57.25-.72.42.43.45.68.6a5.83,5.83,0,0,0,1.74.38c.47,0,.85.1.8.27s-.57.22-1,.17a3.43,3.43,0,0,1-1.32-.42c-.48-.26-.7-.47-1.18-.43a2.89,2.89,0,0,0-1.42.43c-.36.27-2,.87-1.64,1.36s.58.74,1.11.74A2.74,2.74,0,0,0,58.67,31a2.39,2.39,0,0,1,1-.45c.48-.08,1.06-.08.91,0s-.59.13-.7.32a1.68,1.68,0,0,1-1.1.44c-.41,0-1.25.2-.58.3a11.41,11.41,0,0,0,1.89.13c.62,0,1.46,0,1.57.19s-.55.53-1.38.34a7.35,7.35,0,0,0-1.71-.19,1.9,1.9,0,0,1-1-.09c-.53-.19-.59-.27-.91-.4s-.23-.34-.81-.38-.63.34-1.14.38a4,4,0,0,0-1,.17c-.36.11-.78,0-.85.34s.43.55.89.83a7.94,7.94,0,0,0,1.74.65,2.89,2.89,0,0,0,1.08.09c.4-.07,1.23-.17,1.7-.3a5.5,5.5,0,0,1,1.42-.06c.25,0,.53.48.53.48s.15.41.29.47.22.55-.17.3-.46-.51-.7-.55-.78-.07-1.2-.13a3.86,3.86,0,0,0-1.7.08,4.88,4.88,0,0,1-.83.34A3.55,3.55,0,0,1,57,35c.29.34,0,.25.76.21a3.83,3.83,0,0,1,1.55.26c.72.17.91.12.89.27s-.45.15-.66.15a6.13,6.13,0,0,1-1-.21c-.51-.13-.72-.38-.72-.11s.68.51,1,.68,1.42.28,1.65.55.4.81.11.62-.83-.17-1.19-.41-.89-.4-1.08-.53a.85.85,0,0,0-.53,0,1.58,1.58,0,0,1,.08.62c0,.21-.4,0-.44-.3s0-.34-.34-.66a6.28,6.28,0,0,0-1.08-.8c-.34-.24-.36-.56-1.1-.89a13.7,13.7,0,0,1-1.53-.75,3.11,3.11,0,0,0-1.51-.55,2.76,2.76,0,0,0-1.48.72c-.21.26-.51.32-.25.79a2.17,2.17,0,0,0,.65.93,2,2,0,0,0,1.28.55c.29,0,.33-.1.76-.34A4.44,4.44,0,0,1,54,35.23c.19,0,0,.43-.11.49s-.53.11-.68.26-.63.23-.1.31,1-.1,1,.07,0,.32-.46.32-.43-.13-1.06-.15a5.71,5.71,0,0,0-1.36,0c-.44.08-.76-.28-.51.36s.07.78.53,1.1.89.44.85.7.15.42-.08.4a1.66,1.66,0,0,1-.85-.42c-.21-.21-.77-.7-.85-1s.15-.68-.25-1.36-.36-.76-.73-1.08a1.7,1.7,0,0,0-1.08-.47c-.31,0-.31.79-.61,1.17a6.9,6.9,0,0,0-.49,2.46c0,.34.31,9.06.31,9.06l-.52.5L42,51l-.76,1.49-1,.59L39,52.81s-1.44-2.12-1.52-2.38A34.23,34.23,0,0,0,34,48.27l-2.34-1.18Z" style="fill:gray;fill-rule:evenodd"/><path d="M39.3,53.17s-9.44,1.08-8.89,3.28,3.14,3.9,3.94,4.24,4.82,2.83,5.82,6.09a26.61,26.61,0,0,0,11.62-2.93C51.08,63.07,48,60,41.43,59c-7.54-1.15-3.18-5.52,0-6.19l-.72,0L40,53l-.14-.09Z" style="fill:#00adee;fill-rule:evenodd"/><path d="M54,43.89c2.41-1.08,3.23,1.24,1.72,1.52a35.34,35.34,0,0,0-12.95,5.18,48.9,48.9,0,0,1,14.12-4.4c2.18-.48,3.1,2.15.86,2.25a35.76,35.76,0,0,0-14.07,2.73,74.14,74.14,0,0,1,18.86-2.25c1.54,0,2.86,2.63,0,2.42a58.56,58.56,0,0,0-21.84,1.83l-1.18,0C40.9,49.87,45.8,46.77,54,43.89" style="fill:#00adee;fill-rule:evenodd"/><path d="M25.28,43.89c-2.41-1.08-3.23,1.24-1.72,1.52a35.34,35.34,0,0,1,13,5.18,48.9,48.9,0,0,0-14.12-4.4c-2.18-.48-3.1,2.15-.86,2.25A35.76,35.76,0,0,1,35.6,51.17a74.14,74.14,0,0,0-18.86-2.25c-1.54,0-2.86,2.63,0,2.42a58.56,58.56,0,0,1,21.84,1.83l1.18,0c-1.41-3.34-6.31-6.44-14.52-9.32" style="fill:#00adee;fill-rule:evenodd"/><ellipse cx="39.61" cy="39.82" rx="26.82" ry="26.96" style="fill:none;stroke:#000;stroke-miterlimit:2.613126039505005;stroke-width:0.75px"/><ellipse cx="39.61" cy="39.82" rx="28.48" ry="28.64" style="fill:none;stroke:#000;stroke-miterlimit:2.613126039505005;stroke-width:0.75px"/><ellipse cx="39.61" cy="39.82" rx="37.33" ry="37.53" style="fill:none;stroke:#000;stroke-miterlimit:2.613126039505005;stroke-width:0.75px"/><ellipse cx="39.61" cy="39.82" rx="39.11" ry="39.32" style="fill:none;stroke:#000;stroke-miterlimit:2.613126039505005"/><polygon points="7.23 43.53 7.84 45.24 9.81 45.24 8.21 46.29 8.83 47.99 7.23 46.93 5.64 47.99 6.25 46.29 4.66 45.24 6.63 45.24 7.23 43.53" style="fill-rule:evenodd"/><polygon points="72.55 43.53 73.15 45.24 75.12 45.24 73.53 46.29 74.14 47.99 72.55 46.93 70.95 47.99 71.56 46.29 69.97 45.24 71.94 45.24 72.55 43.53" style="fill-rule:evenodd"/><path d="M41.49,4.61l2.19.28a2.82,2.82,0,0,1,1.93,1,2.39,2.39,0,0,1,.51,1.89,2.3,2.3,0,0,1-1,1.72,3.15,3.15,0,0,1-2.23.39l-2.05-.25Zm1.13,1.07-.4,3.15.81.1a1.48,1.48,0,0,0,1.82-1.37,1.57,1.57,0,0,0-.28-1.21,1.67,1.67,0,0,0-1.16-.57Z"/><path d="M37.63,4.7l2.6,4.83-1.34.11-.49-1-2.23.17-.3,1-1.32.1,1.64-5.16ZM38,7.83,37,6l-.58,2Z"/><path d="M50.57,10.63l-.25.89-3.55-1,1.36-4.82,3.51,1-.25.88-2.31-.65-.29,1,2.2.62-.25.89-2.2-.62L48.22,10Z"/><path d="M28.33,6.47l2.13-.6A2.78,2.78,0,0,1,32.6,6a2.38,2.38,0,0,1,1.21,1.54,2.3,2.3,0,0,1-.23,2,3.18,3.18,0,0,1-1.89,1.23l-2,.56ZM29.78,7l.87,3.06.78-.23a1.48,1.48,0,0,0,1.14-2,1.52,1.52,0,0,0-.73-1,1.65,1.65,0,0,0-1.29-.08Z"/><path d="M26.76,7.11l1.83,4.66-1.16.46L25.59,7.56Z"/><path d="M55.66,8.51l1.93,1.12a1.68,1.68,0,0,1,.83,1,1.48,1.48,0,0,1-1.06,1.83,1.61,1.61,0,0,1-1.27-.22l-.86-.5-1,1.74-1.08-.62Zm.62,1.42-.58,1,.5.29c.45.26.77.22,1-.11a.49.49,0,0,0,.05-.5,1.51,1.51,0,0,0-.55-.47Z"/><path d="M24,8.62l.49.84a4.46,4.46,0,0,0-1.6.41,1.12,1.12,0,0,0-.4.37.34.34,0,0,0,0,.36.37.37,0,0,0,.27.16,2.36,2.36,0,0,0,.77-.06,7.31,7.31,0,0,1,1-.12,1.81,1.81,0,0,1,.75.14,1.3,1.3,0,0,1,.61.58,1.32,1.32,0,0,1,.1,1.22,2.2,2.2,0,0,1-1,1.06,3.79,3.79,0,0,1-1.81.49l-.54-.94a4.75,4.75,0,0,0,1,0,2.14,2.14,0,0,0,.79-.28c.42-.24.56-.5.4-.77a.39.39,0,0,0-.28-.18,2.41,2.41,0,0,0-.78.06,7.6,7.6,0,0,1-1,.13,1.72,1.72,0,0,1-.73-.14,1.3,1.3,0,0,1-.62-.59,1.27,1.27,0,0,1-.08-1.17,2.28,2.28,0,0,1,1-1A4.16,4.16,0,0,1,24,8.62Z"/><path d="M63.39,14l.94.82L62.47,17a2.1,2.1,0,0,1-1.59.83,2.76,2.76,0,0,1-1.77-.8,2.72,2.72,0,0,1-1-1.64,2.11,2.11,0,0,1,.59-1.68l1.88-2.15.94.82L59.61,14.5a1.12,1.12,0,0,0-.3.86,1.29,1.29,0,0,0,.47.83,1.39,1.39,0,0,0,.91.37,1.23,1.23,0,0,0,.87-.47Zm1-1.22H62.74l-.41-.36L63.45,12Z"/><path d="M16.32,13.46l1.76-1.38a1.69,1.69,0,0,1,1.19-.4,1.32,1.32,0,0,1,1,.52,1.3,1.3,0,0,1,.08,1.5,1.77,1.77,0,0,1,1.14.28l1.39.71-1.08.85-.91-.48a3,3,0,0,0-1-.38.7.7,0,0,0-.48.13l-.29.23,1.26,1.59-1,.78Zm1.55,0,.71.89.52-.41a.83.83,0,0,0,.3-.42.54.54,0,0,0-.12-.45c-.23-.3-.54-.3-.91,0Z"/><path d="M68.9,20.35l-4,3.08-.65-.83.84-4.16-2.54,2-.77-1,4-3.08.71.9-.78,4,2.42-1.88Z"/><path d="M18,17.48l.69.6-2.4,2.8-3.81-3.26,2.38-2.77.69.6-1.56,1.82.8.69,1.49-1.74.7.6-1.49,1.73.91.79Z"/><path d="M71.84,26.64l-1,.49a4.2,4.2,0,0,0-.43-1.88,1.94,1.94,0,0,0-1-1,1.48,1.48,0,0,0-1.23.09,1.35,1.35,0,0,0-.74.91,1.86,1.86,0,0,0,.2,1.3,2.12,2.12,0,0,0,.54.66l.52-.26-.33-.65.82-.42.9,1.77-1.83.92a2.06,2.06,0,0,1-.84-.58,4.16,4.16,0,0,1-.72-1,3.2,3.2,0,0,1-.32-2.25,2.29,2.29,0,0,1,1.26-1.58,2.36,2.36,0,0,1,2-.09,3.19,3.19,0,0,1,1.62,1.62A4.53,4.53,0,0,1,71.84,26.64Z"/><path d="M11.55,18.62l3,4.69-.29.46-5.58-.7.73-1.14,3.13.42-1.74-2.6Z"/><path d="M8.14,24.35l4.57,2.06-.51,1.14L7.63,25.49Z"/><path d="M73.86,32.45l.28,1.22-2.78.62A2.07,2.07,0,0,1,69.59,34a2.77,2.77,0,0,1-1-1.68,2.82,2.82,0,0,1,.15-1.94,2.1,2.1,0,0,1,1.47-1L73,28.78,73.31,30l-2.81.64a1.11,1.11,0,0,0-.75.51,1.46,1.46,0,0,0,.41,1.78,1.21,1.21,0,0,0,1,.14Z"/><path d="M6.74,27.28l4.83,1.35-.29,1-3.84,1.8,3.1.87-.34,1.2L5.37,32.16l.31-1.1L9.35,29.3,6.4,28.48Z"/><path d="M70.6,39.54l-.91.06-.28-3.68,5-.38.27,3.64-.92.07-.18-2.39-1,.08.17,2.27-.92.07L71.62,37l-1.2.1ZM76,36l.09,1.21-1,.62,0-.54Z"/><path d="M4.82,35.5l.09-1.24,2.84.21a2.11,2.11,0,0,1,1.61.77,2.77,2.77,0,0,1,.42,1.9,2.7,2.7,0,0,1-.71,1.8,2.07,2.07,0,0,1-1.69.53l-2.85-.22L4.63,38l2.87.22a1,1,0,0,0,.86-.28,1.42,1.42,0,0,0,.13-1.81,1.17,1.17,0,0,0-.89-.42Z"/><path d="M69.8,52.65a.87.87,0,0,0,0,.74,1,1,0,0,0,.53.53A.93.93,0,0,0,71,54a1,1,0,0,0,.54-.53,1,1,0,0,0-1.23-1.31,1,1,0,0,0-.54.54m-.47-.25a1.55,1.55,0,0,1,.86-.83,1.45,1.45,0,0,1,1.17,0,1.35,1.35,0,0,1,.78.84,1.61,1.61,0,0,1-.09,1.21,1.52,1.52,0,0,1-.84.83,1.51,1.51,0,0,1-1.95-.88A1.65,1.65,0,0,1,69.33,52.4Zm-2.24,1.26a.94.94,0,0,1,.45.43.38.38,0,0,1,0,.37,1.3,1.3,0,0,1-.33.37,1.25,1.25,0,0,0-.31.34.18.18,0,0,0,0,.16.39.39,0,0,0,.14.15l-.12.24a1.16,1.16,0,0,1-.45-.44.44.44,0,0,1,0-.37,2.16,2.16,0,0,1,.42-.46.87.87,0,0,0,.22-.24.22.22,0,0,0,0-.16.38.38,0,0,0-.15-.17ZM70.26,56l-.79-.39,0,.42a1.15,1.15,0,0,0,0,.48.4.4,0,0,0,.21.25.45.45,0,0,0,.32,0,.46.46,0,0,0,.24-.22A.79.79,0,0,0,70.26,56Zm-.81-1,1.12.56c.09.05.15,0,.18,0a.77.77,0,0,0,0-.36l.31.15a1.52,1.52,0,0,1,0,.36.67.67,0,0,1-.07.24q-.17.33-.45.27a1.23,1.23,0,0,1-.1.83.68.68,0,0,1-.41.37.71.71,0,0,1-.55,0,.77.77,0,0,1-.36-.41,1.28,1.28,0,0,1,0-.66l.1-.78-.14-.07a.46.46,0,0,0-.71.24,1.28,1.28,0,0,0,0,1l-.56-.28a1.19,1.19,0,0,1,.07-1,1.06,1.06,0,0,1,.57-.57.54.54,0,0,1,.27-.06.65.65,0,0,1,.28,0Zm0,3.79,0,0a.49.49,0,0,1,.29-.14.37.37,0,0,1,.27.07.48.48,0,0,1,.24.39.91.91,0,0,1-.19.61l-.13.17-.3-.2.12-.17a.4.4,0,0,0,.09-.27.13.13,0,0,0,0-.11.18.18,0,0,0-.14,0c-.06,0-.11.08-.18.17l0,.07L69.18,59a1.54,1.54,0,0,1-.78.41,1.46,1.46,0,0,1-1.06-.28,1.53,1.53,0,0,1-.72-.94,1.39,1.39,0,0,1,.22-1.12,1.44,1.44,0,0,1,.26-.32,2.19,2.19,0,0,1,.38-.29l.52.33a1.63,1.63,0,0,0-.69.54.88.88,0,0,0-.12.7,1.07,1.07,0,0,0,.46.6,1,1,0,0,0,.75.16,1,1,0,0,0,.63-.48,2,2,0,0,0,.25-.75l.49.31a2.47,2.47,0,0,1-.34.81Zm-4.66,1.42.29.23a1.18,1.18,0,0,1,.2-1,1,1,0,0,1,.43-.31.87.87,0,0,1,.53,0,1.72,1.72,0,0,1,.69.38l1.33,1-.36.46-1.32-1a1.24,1.24,0,0,0-.6-.29.55.55,0,0,0-.43.25.85.85,0,0,0-.11.8L67.06,62l-.36.46-2.32-1.8Zm-1.13,3,1-1.06a.85.85,0,0,0-.54-.23.76.76,0,0,0-.69.73A.92.92,0,0,0,63.62,63.18Zm1.67-1.24-1.43,1.49a1,1,0,0,0,.69.27.92.92,0,0,0,.64-.32,1.69,1.69,0,0,0,.48-1l.41.39a2.3,2.3,0,0,1-.18.56,2.25,2.25,0,0,1-.38.49,1.31,1.31,0,0,1-.69.43,1.48,1.48,0,0,1-.72,0,1.65,1.65,0,0,1-.69-.41,1.55,1.55,0,0,1-.53-1,1.28,1.28,0,0,1,.38-1,1.17,1.17,0,0,1,.94-.39,1.61,1.61,0,0,1,1,.51ZM61.9,63.25l.45-.43,1.12,3.05-.15.14-3-1.26.46-.44,1.82.77Zm-2.79,2.42.41.52v-.06c-.06-.53,0-.88.25-1.06a1,1,0,0,1,.74-.16l.08.59a.86.86,0,0,0-.62.12.62.62,0,0,0-.22.52,1,1,0,0,0,.23.62l1,1.21-.45.36L58.65,66Zm-1.86,2.69,1.24-.8a.78.78,0,0,0-.46-.34.67.67,0,0,0-.52.11.69.69,0,0,0-.33.43A1,1,0,0,0,57.25,68.36Zm1.91-.82-1.73,1.11a1,1,0,0,0,.6.42.9.9,0,0,0,.7-.15,1.77,1.77,0,0,0,.7-.87l.31.48a2.23,2.23,0,0,1-.31.5,2.19,2.19,0,0,1-.48.39,1.39,1.39,0,0,1-.77.26,1.52,1.52,0,0,1-.7-.2,1.71,1.71,0,0,1-.58-.56,1.59,1.59,0,0,1-.27-1.13,1.29,1.29,0,0,1,.61-.89,1.16,1.16,0,0,1,1-.16,1.68,1.68,0,0,1,.89.74Zm-4.82,1.74.4-1.48.31.52.8-.47.26.45-.8.47L56,70c.18.29.38.36.62.22a1.3,1.3,0,0,0,.47-.51l.27.46a1.52,1.52,0,0,1-.53.54,1,1,0,0,1-.7.13.6.6,0,0,1-.19-.06l-.2-.15a2.85,2.85,0,0,1-.31-.45l-.66-1.12-.44.25Zm-2,.35.15.33a1.17,1.17,0,0,1,.63-.75,1.06,1.06,0,0,1,.53-.08.87.87,0,0,1,.48.21,1.83,1.83,0,0,1,.43.67l.69,1.53-.53.24L54,70.25a1.18,1.18,0,0,0-.38-.53.52.52,0,0,0-.5,0,.83.83,0,0,0-.47.66l.86,1.92-.54.24-1.2-2.68Zm-2.4-.69.59-.23,1.62,4.15-.59.24Zm-2.89,3a.9.9,0,0,0-.61.42,1,1,0,0,0-.1.74.88.88,0,0,0,.42.61,1,1,0,0,0,.75.1.93.93,0,0,0,.62-.42A1,1,0,0,0,47.78,72,1,1,0,0,0,47,71.91Zm-.09-.52a1.54,1.54,0,0,1,1.18.17,1.45,1.45,0,0,1,.68,1,1.37,1.37,0,0,1-.2,1.13,1.59,1.59,0,0,1-1,.66,1.52,1.52,0,0,1-1.17-.16,1.52,1.52,0,0,1-.48-2.09A1.59,1.59,0,0,1,46.93,71.39Zm-2.06-1.07a.94.94,0,0,1-.11.62.37.37,0,0,1-.31.2,1.19,1.19,0,0,1-.48-.07,1.33,1.33,0,0,0-.46-.07.18.18,0,0,0-.13.08.25.25,0,0,0-.05.2l-.27,0a1.26,1.26,0,0,1,.11-.62.47.47,0,0,1,.32-.19,2,2,0,0,1,.62.1,1.3,1.3,0,0,0,.32.05.25.25,0,0,0,.14-.08.35.35,0,0,0,.06-.23Zm-.21,3.93-.1-.87-.37.19a1.22,1.22,0,0,0-.39.29.42.42,0,0,0-.09.31.43.43,0,0,0,.15.28.39.39,0,0,0,.32.08A.71.71,0,0,0,44.66,74.25ZM45.09,73l.15,1.24c0,.1,0,.15.11.14a.68.68,0,0,0,.31-.19l0,.35a1.52,1.52,0,0,1-.29.2.62.62,0,0,1-.24.08.39.39,0,0,1-.47-.24A1.23,1.23,0,0,1,44,75a.66.66,0,0,1-.53-.14.73.73,0,0,1-.27-.48.75.75,0,0,1,.14-.52,1.38,1.38,0,0,1,.52-.41l.71-.35,0-.15a.46.46,0,0,0-.59-.46,1.25,1.25,0,0,0-.86.59L43,72.41a1.22,1.22,0,0,1,.92-.51,1.12,1.12,0,0,1,.79.16.71.71,0,0,1,.2.19.85.85,0,0,1,.13.25C45,72.59,45.06,72.75,45.09,73Zm-3.17,2.16,0,0a.44.44,0,0,1,.28.14.42.42,0,0,1,.12.26.55.55,0,0,1-.16.43,1,1,0,0,1-.61.21.74.74,0,0,1-.21,0l0-.36h.21a.55.55,0,0,0,.28-.09.16.16,0,0,0,0-.11.19.19,0,0,0-.07-.13.41.41,0,0,0-.24,0h-.08l.11-.4a1.51,1.51,0,0,1-.79-.37,1.44,1.44,0,0,1-.43-1,1.55,1.55,0,0,1,.32-1.14,1.41,1.41,0,0,1,1-.51,1.92,1.92,0,0,1,.42,0,3.86,3.86,0,0,1,.46.13l0,.62a1.51,1.51,0,0,0-.84-.22.82.82,0,0,0-.63.33,1,1,0,0,0-.2.72,1,1,0,0,0,.33.7,1,1,0,0,0,.76.2,1.83,1.83,0,0,0,.75-.25l.05.57a2.51,2.51,0,0,1-.85.23Zm-2.8-.55,0-.88-.4.14a1.53,1.53,0,0,0-.43.22.42.42,0,0,0-.13.3.39.39,0,0,0,.1.3.46.46,0,0,0,.3.13A.81.81,0,0,0,39.12,74.61Zm.61-1.17,0,1.25c0,.1,0,.15.1.16a.8.8,0,0,0,.33-.14v.34a1.87,1.87,0,0,1-.32.16.69.69,0,0,1-.25,0c-.25,0-.39-.11-.43-.3a1.28,1.28,0,0,1-.8.26.7.7,0,0,1-.69-.74.72.72,0,0,1,.22-.49,1.27,1.27,0,0,1,.57-.33l.76-.23v-.16a.48.48,0,0,0-.51-.55,1.26,1.26,0,0,0-.94.46l0-.63a1.2,1.2,0,0,1,1-.37,1.15,1.15,0,0,1,.76.28.63.63,0,0,1,.16.22.72.72,0,0,1,.09.27C39.73,73,39.73,73.19,39.73,73.44ZM37.1,72.18l.62.07L36.1,75.07l-.21,0-1-3.12.63.08.57,1.88Zm-3.82,0a.94.94,0,0,0-.72.14,1,1,0,0,0-.4.64,1,1,0,0,0,.14.73,1.08,1.08,0,0,0,1.39.26,1,1,0,0,0,.39-.63.88.88,0,0,0-.15-.74A1,1,0,0,0,33.28,72.15Zm.13-.51a1.53,1.53,0,0,1,1,.64,1.44,1.44,0,0,1,.24,1.15,1.39,1.39,0,0,1-.64.95,1.57,1.57,0,0,1-1.19.2,1.53,1.53,0,0,1-1-.62,1.49,1.49,0,0,1,.41-2.1A1.55,1.55,0,0,1,33.41,71.64Zm-3.72-.93-.1.35a1.16,1.16,0,0,1,1-.18,1,1,0,0,1,.45.28.92.92,0,0,1,.24.47,2.07,2.07,0,0,1-.09.79L30.7,74l-.56-.16.46-1.61a1.19,1.19,0,0,0,0-.66.53.53,0,0,0-.39-.31.81.81,0,0,0-.79.21l-.56,2-.58-.16.79-2.82Zm-1.14-2,.6.24-1.66,4.14-.6-.24ZM24,70.9l.4-.78-.42,0a1.4,1.4,0,0,0-.48,0,.44.44,0,0,0-.28.54.41.41,0,0,0,.22.23A.68.68,0,0,0,24,70.9Zm1-.8-.57,1.12q-.06.14,0,.18a.77.77,0,0,0,.36,0l-.16.31a1.43,1.43,0,0,1-.35,0,.72.72,0,0,1-.25-.07.39.39,0,0,1-.26-.45,1.29,1.29,0,0,1-.83-.1.69.69,0,0,1-.37-.42.64.64,0,0,1,.05-.54.68.68,0,0,1,.4-.36,1.38,1.38,0,0,1,.66-.06l.78.11.07-.14a.47.47,0,0,0-.23-.71,1.28,1.28,0,0,0-1.05,0l.28-.57a1.23,1.23,0,0,1,1.05.08,1.21,1.21,0,0,1,.57.57,1.07,1.07,0,0,1,.06.27,1.27,1.27,0,0,1,0,.28C25.26,69.72,25.19,69.88,25.08,70.1Zm-2.17-2.51.5.29-1.49,2.53-.5-.29Zm.87-.92a.34.34,0,0,1,.16.21.3.3,0,0,1,0,.26.37.37,0,0,1-.21.16.36.36,0,0,1-.27,0,.37.37,0,0,1-.15-.21.34.34,0,0,1,0-.26.28.28,0,0,1,.21-.15A.27.27,0,0,1,23.78,66.67Zm-2.55,2.55-.33.47a2.54,2.54,0,0,1-.8-.36,1.41,1.41,0,0,1-.38-2.1,1.59,1.59,0,0,1,1-.69,1.38,1.38,0,0,1,1.11.26,2.26,2.26,0,0,1,.32.27,2.55,2.55,0,0,1,.27.39L22,68a1.6,1.6,0,0,0-.52-.71.83.83,0,0,0-.69-.14,1,1,0,0,0-.62.43,1,1,0,0,0-.18.75,1,1,0,0,0,.45.64A2,2,0,0,0,21.23,69.22Zm-2.52-4.64-.22.29a1.13,1.13,0,0,1,1,.21,1,1,0,0,1,.31.42,1,1,0,0,1,0,.53,2,2,0,0,1-.39.7l-1,1.32-.46-.36,1-1.32a1.17,1.17,0,0,0,.29-.59.51.51,0,0,0-.24-.44.85.85,0,0,0-.8-.11l-1.3,1.66-.47-.37,1.81-2.31Zm-.3-2.51-.25,1.14L17.91,63l0-.8-.79,0-.25-.25L18,61.65Zm-2.66,1.31,1.06,1a.85.85,0,0,0,.23-.53.73.73,0,0,0-.23-.49.78.78,0,0,0-.5-.22A1,1,0,0,0,15.75,63.38ZM17,65.05,15.5,63.62a.94.94,0,0,0-.27.68.93.93,0,0,0,.31.65,1.77,1.77,0,0,0,1,.48l-.4.41a1.78,1.78,0,0,1-.55-.19,2,2,0,0,1-.5-.37,1.46,1.46,0,0,1-.43-.69,1.4,1.4,0,0,1,0-.73,1.65,1.65,0,0,1,.41-.69,1.58,1.58,0,0,1,1-.52,1.26,1.26,0,0,1,1,.38,1.18,1.18,0,0,1,.39.94A1.71,1.71,0,0,1,17,65Zm-.39-4.74.39.44-3.34,3-.38-.44ZM13,60.11l.9,1.18a.8.8,0,0,0,.3-.49.62.62,0,0,0-.15-.51.72.72,0,0,0-.46-.3A1,1,0,0,0,13,60.11Zm1,1.84-1.26-1.64a1,1,0,0,0-.36.64,1,1,0,0,0,.2.69,1.81,1.81,0,0,0,.93.62l-.45.35a1.82,1.82,0,0,1-.52-.27,2.1,2.1,0,0,1-.44-.45,1.37,1.37,0,0,1-.32-.74,1.48,1.48,0,0,1,.14-.71,1.71,1.71,0,0,1,.52-.63,1.57,1.57,0,0,1,1.1-.36,1.28,1.28,0,0,1,.93.53,1.14,1.14,0,0,1,.24,1,1.61,1.61,0,0,1-.65.94Zm-2.5-2-.49.3a2.54,2.54,0,0,1-.59-.64,1.51,1.51,0,0,1-.23-1.16,1.44,1.44,0,0,1,.71-.93A1.64,1.64,0,0,1,12,57.29a1.41,1.41,0,0,1,.92.68,1.34,1.34,0,0,1,.17.37,2.24,2.24,0,0,1,.1.47l-.52.33a1.51,1.51,0,0,0-.2-.85.81.81,0,0,0-.58-.41,1,1,0,0,0-.73.15,1,1,0,0,0-.47.61,1,1,0,0,0,.17.77A1.79,1.79,0,0,0,11.43,60Zm.16-4.06.37.64-1.85-.32L9.47,58.1l-.37-.64.44-1.32-1.35-.23-.37-.63,1.92.32.61-1.8.37.63-.43,1.26Zm-.73-5,1,2.32-.52.23L10.6,51.7l-1.24.55.74,1.67-.52.23-.74-1.67-1.28.57.79,1.78-.52.23-1-2.37Z"/></g></g></svg>