<svg xmlns="http://www.w3.org/2000/svg" viewBox="0 0 121.4 45.73"><title>WFP</title><g id="b33aa6e9-7467-4930-8c54-e367e6a62a54" data-name="Layer 2"><g id="e267847f-9163-4a23-9849-170ef9f13d9d" data-name="Layer 1"><path d="M20.82,15.26c-.1-.15-.15-.1-.21-.22s.07-.36-.23-.63c-.47-.41-.1-.22-.36-.5-.1-.11-.15-.1-.23-.2s-.06-.22-.26-.42-.18-.38-.63-.47-.37-.24-.67-.24-.17.06-.37,0-.21-.07-.35-.08c-.31,0-.41.21-.6.3s-.27,0-.55.31c-.09.1,0,0-.1.09s-.26.06-.38.35a2.5,2.5,0,0,0-.17,1c-.05.17-.09.16-.08.35,0,.41-.12.41-.12.69a.82.82,0,0,1,0,.36c0,.12-.1.26-.11.37-.06.35.17.35.08.65a.7.7,0,0,0,.1.72,10.68,10.68,0,0,1-1.3-1.23l-.71-.58A6.77,6.77,0,0,0,12,15a6.64,6.64,0,0,0-3.23-.66c.05.17,0,.12.3.29l.35.23a5.4,5.4,0,0,1,.68.46,15.37,15.37,0,0,1,2.82,2.93,30.62,30.62,0,0,1,2.6,4.38L16.6,25a8.45,8.45,0,0,1,3-1c1.21-.12,2.63,0,3.92-.05a10.11,10.11,0,0,0-.17-1.5,17.92,17.92,0,0,1,0-3.28,23.74,23.74,0,0,1,.77-4.36,3.31,3.31,0,0,0-.44-2.62l-.09-.11a8,8,0,0,0,.14.83A3.77,3.77,0,0,1,23,15.15c-.28.39-.54.71-.81,1.11l-.58.85c-.1.15-.09.21-.26.26a9.43,9.43,0,0,1,.87-1.47c.66-1,1.57-1.9,1.25-3.29-.12-.51-.51-1.24-1-1.37a2.62,2.62,0,0,1-.14,1.83,9.84,9.84,0,0,0-1.25,1.71,4.33,4.33,0,0,1-.28.48m-3.45-2c-.34,0-.17-.59.22-.46S17.69,13.25,17.37,13.25Zm1.05-.14a.56.56,0,0,1-.29.14c-.33,0-.37-.58.29-.42Zm.29.24c0-.13,0-.19.14-.25s.22-.07.27,0S18.91,13.45,18.71,13.35Zm-2.1.05c0-.19,0-.27.19-.29s.23.05.23.24a1.31,1.31,0,0,1-.28.09Zm1.53,0c.07,0,.26-.16.37-.14.28.06.14.53-.23.47C18.09,13.75,18.14,13.66,18.14,13.45Zm-.72.43c-.08-.13-.25-.23-.06-.39a.72.72,0,0,1,.49-.14l.14.24C17.85,13.84,17.8,13.87,17.42,13.88Zm-1.28-.07c-.06,0-.05,0-.06-.12s0,0,.05-.1.52,0,.34.2A.38.38,0,0,1,16.14,13.81Zm.61-.22s0-.05.19-.05.13,0,.18.06a.19.19,0,0,1,0,.29C16.85,14.06,16.43,13.82,16.75,13.59Zm2.2.19c0-.15.06-.18.19-.24.29-.13.38,0,.38.29C19.18,14,19.1,14.05,19,13.78Zm-.67.38c.24-.44.63-.35.71,0a.63.63,0,0,1-.56.29A.8.8,0,0,1,18.28,14.16Zm-2.34-.09a.81.81,0,0,1,.51,0l.06.18,0,0,0,.05,0,0a.46.46,0,0,1-.44,0Zm3.3.19c.19-.34.66-.48.66.09a.73.73,0,0,1-.52.19A.57.57,0,0,1,19.24,14.26Zm-2.58.19c0-.56.5-.29.53-.25C17.32,14.39,17.1,14.66,16.66,14.45Zm.71-.23c.29-.2.42-.28.76-.05v.28a.61.61,0,0,1-.52.19C17.35,14.61,17.38,14.5,17.37,14.22Zm-1.48.47c.17-.08.47-.17.61.06a.23.23,0,0,1-.14.36h-.28C15.85,15.08,15.89,15,15.89,14.69Zm2.63.05a.83.83,0,0,1,.62-.19l.13.15V15C19,15.16,18.51,15.37,18.52,14.74Zm1.06.38c0-.28,0-.41.22-.49.56-.22.76.36.28.57A.4.4,0,0,1,19.58,15.12Zm-2.26,0c-.43.11-.85.13-.57-.42a.72.72,0,0,1,.48,0A.32.32,0,0,1,17.32,15.16Zm.91-.37.13.15c0,.28,0,.39-.2.49-.55.28-.88-.28-.58-.53A1.08,1.08,0,0,1,18.23,14.79Zm.48.81c0-.35.91-.6.95,0,0,.34-.61.46-.8.32A.85.85,0,0,1,18.71,15.6Zm-3,.14c0-.28,0-.39.24-.42C16.94,15.18,16.55,16.3,15.75,15.74Zm4.73-.38c.39.62-.42.67-.49.64a.29.29,0,0,1-.1-.46C20,15.36,20.17,15.37,20.48,15.36Zm-3.06.48c-.25.16-.21.14-.62.14-.14-.2-.26-.43.12-.54C17.52,15.26,17.42,15.74,17.42,15.84Zm.24.19c-.07-.4.86-.67.9-.14s-.57.47-.72.39A.61.61,0,0,1,17.66,16Zm-2,.43c-.1-.51.82-.55.93-.11.06.25-.15.38-.36.39l-.37,0C15.72,16.65,15.68,16.61,15.65,16.46Zm3.4.33a.46.46,0,0,1-.14-.33c0-.35.38-.37.75-.38.11.17.32.33.09.56S19.36,16.79,19.05,16.79Zm1.81-.23c-.22.37-1.14.35-.87-.26a.74.74,0,0,1,.59-.27A.36.36,0,0,1,20.86,16.56Zm-3.3-.33a1.3,1.3,0,0,1,.05.47C16.53,17.29,16.31,15.93,17.56,16.23Zm1.05.23c.09.15.32.36.11.58-.39.4-1.17,0-.83-.4C18,16.46,18.3,16.47,18.61,16.46Zm-2.39,1.15a.75.75,0,0,1-.47-.09l-.05,0c0-.58.33-.69.71-.55S16.75,17.61,16.22,17.61Zm2.88-.29c0-.44.28-.36.75-.38.15.24.29.51-.11.65S19.1,17.69,19.1,17.32Zm1.24.33c-.14-.19-.14-.18-.14-.52a1.14,1.14,0,0,1,.8-.24.81.81,0,0,1,.15.52A1.05,1.05,0,0,1,20.34,17.65Zm-3.54-.28c0-.38.6-.43.9-.28.21.8-.6.65-.7.61A.4.4,0,0,1,16.8,17.37Zm1.2.38c0-.36.94-.7,1-.08C19,18.12,18.05,18.31,18,17.75Zm2.39.34c.23-.33,1.1-.67.73-.08-.07.12-.21.44-.33.49S20.43,18.25,20.39,18.09Zm-1.15.05c0-.48,1-.54.94,0C20.15,18.39,19.39,18.82,19.24,18.14ZM15.84,18a.78.78,0,0,1,.9,0c0,.44.07.59-.41.57S15.84,18.28,15.84,18Zm1.3.66c-.18-.2-.14-.08-.15-.52.2-.13.82-.37.94,0a.33.33,0,0,1-.19.44A1.27,1.27,0,0,1,17.14,18.61Zm1.19.34-.13-.16c0-.33,0-.41.23-.5s.43-.16.61,0S19.43,19,18.33,19Zm-1.91-.19c.06,0,0,0,.1,0,.36,0,.44.31.32.63a1.29,1.29,0,0,1-.39-.44c0-.05,0,0,0-.08Zm3.11.19c0-.33,1-.67.95,0C20.46,19.38,19.59,19.53,19.53,19Zm-1.44.33a.67.67,0,0,1-.62.24c-.59,0-.35-.84.33-.76A.37.37,0,0,1,18.09,19.28Zm.24.29c-.07-.44,1.15-.75,1.14-.05,0,.3-.31.38-.57.43S18.38,19.91,18.33,19.57Zm1.62.72-.07-.11c-.26-.42-.07-.76.45-.75A1.55,1.55,0,0,1,20,20.29Zm-2.77-.43c.28-.2.91-.23,1,0a.53.53,0,0,1-.08.53c-.14.14-.34.1-.6.1A2.59,2.59,0,0,1,17.18,19.86Zm1.39.76c-.11-.55,1-.82,1.14-.17S18.7,21.25,18.57,20.62Zm-.86.15c.28-.06.6-.16.73.13a.54.54,0,0,1,0,.39c-.07.19-.15.2-.33.24a.78.78,0,0,1-.24-.33Zm1.1.57a1,1,0,0,1,.35-.21,2.51,2.51,0,0,1,.55-.07C19.73,22.13,18.82,22.34,18.81,21.34Zm-.53.44c.08-.06,0,0,.11-.05h.16a.26.26,0,0,1,.18.16.73.73,0,0,1,0,.3.38.38,0,0,1-.1.24c-.2-.06-.26-.25-.35-.51l0-.11v0S18.29,21.78,18.28,21.78ZM19.19,23s0,0-.06-.08c-.12-.27-.12-.59.25-.68Z" style="fill:#003398;fill-rule:evenodd"/><path d="M8.51,42.11c.31.45,2.32,1,2.8,1a15.46,15.46,0,0,0,6.77-.61,8.66,8.66,0,0,1,3.4-.47,2.67,2.67,0,0,1-.3.17,19.36,19.36,0,0,0-2.6,1.7l-.77.67c-.12.12-.69.67-.68.8s.57.39.75.28A14.69,14.69,0,0,0,19,44.47c.57-.73,2.77-2.3,3.58-2.34s2.34,1.19,3,1.71,1.12,1.28,1.74,1.81c.24.2.56,0,.81-.19-.06-.28-.67-.79-.9-1A17.48,17.48,0,0,0,25,42.77c-.43-.3-1.1-.58-1.25-.7a11.92,11.92,0,0,1,2.64.22c.29.08.47.16.72.24,2.69.8,6.38,1.26,9,0,.21-.11.51-.21.63-.39-.64,0-1.28.11-1.87.14-2,.11-3.27-.61-5.1-1A18.84,18.84,0,0,0,26,41c-.23,0-.21,0-.43,0a12,12,0,0,0-2.15.4c-.1,0-.75.22-.82.22L21,41.22A11,11,0,0,0,19.29,41a18.73,18.73,0,0,0-6.15.93c-2.38.69-2.78.2-4.63.22" style="fill:#003398;fill-rule:evenodd"/><path d="M12.15,30.2c.31-.07.59-.21.9-.31,2.6-.85,5.31-.65,8-.65h6.17c.47,0,.79.06,1.05-.2s.87-2.17-.86-2.15H18.76a9.24,9.24,0,0,0-5.38,2.05l-.67.57c-.16.16-.51.47-.56.69" style="fill:#003398;fill-rule:evenodd"/><path d="M11.05,31.4a9.61,9.61,0,0,1,5.47-.11,7.92,7.92,0,0,0,3.29.58h7.66c.52,0,.74,0,1-.34a1.44,1.44,0,0,0,.21-1c-.17-1-.65-1-1.55-1H19.43a19,19,0,0,0-5.88.49,7.62,7.62,0,0,0-1.76.82,2.25,2.25,0,0,0-.74.57" style="fill:#003398;fill-rule:evenodd"/><path d="M11.72,31.68a9.39,9.39,0,0,1,1.71.26,8.28,8.28,0,0,1,1.48.52,6.38,6.38,0,0,1,1.9,1.07,4.45,4.45,0,0,0,.64.37,6.62,6.62,0,0,0,3.37.61h6.5c.62,0,.86,0,1.1-.4.35-.66.32-1.7-.6-1.92-.43-.1-7.59,0-8.73,0a9.33,9.33,0,0,1-2.37-.54,7.8,7.8,0,0,0-2.51-.41,7.25,7.25,0,0,0-1.36.12l-.89.21c-.18.06-.15,0-.24.15" style="fill:#003398;fill-rule:evenodd"/><path d="M14,28.09a13.53,13.53,0,0,1,3.34-1.3c1.73-.28,7-.18,9.1-.18h1.15c.46,0,.6-.07.79-.36.41-.62.41-2.05-.93-2s-7.22-.08-8,.07a8.17,8.17,0,0,0-3.27,1.37A7.46,7.46,0,0,0,14,28.09" style="fill:#003398;fill-rule:evenodd"/><path d="M22.35,0h-1.2L20,4.73a11.21,11.21,0,0,1-.28-1.2c-.09-.41-.18-.76-.26-1.17L19,0H17.27l-1,4.78L15.13,0H13.82l1.63,6H17l1.05-4.74L19.19,6h1.58Z" style="fill:#003398;fill-rule:evenodd"/><path d="M31.15,11.05c-.09-.11-.07-.06-.09-.23-.08-.5,0-.81,0-.91-.14.26-.08.7-.21,1s-.16.18-.23.4a.92.92,0,0,0,0,.52c.2.53.28.45-.34,1.25a29.57,29.57,0,0,0-2.57,4.18c-.06.16-.13.27-.2.42-.3.76-.62,1.42-.88,2.23A12.77,12.77,0,0,0,25.74,24h1.44l.8-1.59a7.18,7.18,0,0,1,1.66-2c.43-.34.52-.08.9,0a1.23,1.23,0,0,0,.85-.32c.28-.16.67-.15,1-.29,0,0,0,0,0,0s0,0,0,0a6.18,6.18,0,0,1-.9.07c-.37,0-.55-.23-.91-.24a8.28,8.28,0,0,1,0-1c0-.31.22-.57.23-.86-.15.11-.24.47-.36.68s-.32.23-.5.56.14.89-.28,1.2A6.73,6.73,0,0,0,28,21.77c-.08.11-.14.18-.22.31s-.28.45-.45.65a17.19,17.19,0,0,1,1.23-3.13c.27-.48.51-.92.79-1.4.15-.23.29-.42.45-.66a17.77,17.77,0,0,1,1.68-2.1l.89-.78a4.6,4.6,0,0,1,1.37-.83,4.92,4.92,0,0,1,2-.25c-.58-.46-2.26,0-3,.42A8,8,0,0,0,31,15.18c-.39.38-.51.46-.93.93l-1.32,1.56-.39.51A9.82,9.82,0,0,0,27.28,20c-.06-.09,0-.13,0-.24l.27-.79c.13-.37.25-.69.4-1,.3-.68.58-1.26.91-1.91.16-.33.32-.61.49-.9l.53-.91a9.55,9.55,0,0,1,.88-1.27c.15-.19.19-.16.31-.4.7,0,.95,0,1.25-.48s.85-.46,1.05-.72a7.64,7.64,0,0,0-.83.32,4.55,4.55,0,0,1-1.13.07Z" style="fill:#003398;fill-rule:evenodd"/><path d="M35.65,38.14a3.47,3.47,0,0,0,.71-.2c.22-.06.47-.15.69-.22,2.18-.72,4.7-2.37,5.73-4.46a6.63,6.63,0,0,0,.77-2.06,13.3,13.3,0,0,1-2.24,1.93,14.4,14.4,0,0,0-1.61,1.21c-.45.46-1.68,1.84-2.23,2,.3-1.17.57-1.12,1-2.81A11.26,11.26,0,0,0,38.62,30c-.49.31-1.61,2.94-1.82,3.74s-.4,1.41-.56,2.22a15.77,15.77,0,0,1-.59,2.23" style="fill:#003398;fill-rule:evenodd"/><path d="M30.86,40.44h0l2.14.44a7.25,7.25,0,0,0,6.05-1.76,8,8,0,0,0,1.27-1.4,4.31,4.31,0,0,0,.36-.55L39,38.12a18.23,18.23,0,0,1-3.16.9,19.76,19.76,0,0,1-3.13.93c.12-.45,1.36-1.45,1.71-1.87,1.07-1.29,1.15-2.62,1.61-3.79a3.25,3.25,0,0,0,.17-.46,7.92,7.92,0,0,0-2.92,3,26.68,26.68,0,0,1-1.66,2.79c-.23.29-.57.53-.74.8" style="fill:#003398;fill-rule:evenodd"/><path d="M1.67,31.2a4.88,4.88,0,0,0,.48,1.39A8.46,8.46,0,0,0,3.6,34.88a13.92,13.92,0,0,0,2.65,2,4.75,4.75,0,0,0,.59.31,19.88,19.88,0,0,0,2.73,1L9.26,37c-.31-1.2-.44-2-.81-3.35-.21-.75-1.3-3.39-1.84-3.76-.18,5,1.16,5.37,1.14,6.41-.57-.13-1.89-1.84-3-2.61A24.45,24.45,0,0,1,2.36,31.9a6.57,6.57,0,0,0-.69-.7" style="fill:#003398;fill-rule:evenodd"/><path d="M9.09,33.88l.3.89a11,11,0,0,0,1,2.61,15.71,15.71,0,0,0,2,2.2c.11.14.18.14.19.37A21.65,21.65,0,0,1,9.41,39a16.14,16.14,0,0,1-3.58-1.11l-1.29-.73a7,7,0,0,0,1,1.33l.43.43c.11.09.13.09.24.19A7.14,7.14,0,0,0,11.35,41a7.53,7.53,0,0,0,.83-.08c.49-.09,1.84-.4,2.23-.4a5.68,5.68,0,0,0-.73-.81,10.75,10.75,0,0,1-1.13-1.84A10,10,0,0,0,10,34.46a3.94,3.94,0,0,0-.9-.58" style="fill:#003398;fill-rule:evenodd"/><path d="M42.4,25.26c-.22-.41-.24-1.44-.47-2.26a5.82,5.82,0,0,0-1.83-2.71c-.45,1.92.77,4.14,1.38,5.65l.45,1.37c0,.08,0,.16.07.21l.09.21s0,0,0,0c.21-.31.41-.64.61-1s.21-.3.32-.49a12.57,12.57,0,0,0,2.12-5.2,5.21,5.21,0,0,0-.08-2.86c0,.07,0,0-.06.09l-.26.79c-.58,2.05-1.53,2.53-2.08,5.19a3,3,0,0,1-.28,1" style="fill:#003398;fill-rule:evenodd"/><path d="M0,18.85v1.78s0,0,0,0a11.94,11.94,0,0,0,1.2,3.88c.57,1.14,1.06,1.78,1.67,2.82.06.09.08.14.13.21l.13.16,0,0L3.76,26a17.77,17.77,0,0,0,1.3-3.49,5.1,5.1,0,0,0,.09-2.13l0-.06a6.31,6.31,0,0,0-1.55,2,6.16,6.16,0,0,0-.52,2.2,6,6,0,0,1-.18.73c-.17-.14-.22-.59-.29-.9a11.06,11.06,0,0,0-.93-2.7c-.27-.55-.6-1-.83-1.57-.15-.38-.51-1.66-.63-1.81-.12.16-.1.29-.16.5,0,0,0,0,0,0a0,0,0,0,1,0,0" style="fill:#003398;fill-rule:evenodd"/><path d="M4.49,30.72a3.1,3.1,0,0,1-.27-.34,27.29,27.29,0,0,0-1.69-2.19l-.94-1q-.13-.17-.27-.36a4.5,4.5,0,0,1-.25-.41L.19,24.69a6.23,6.23,0,0,0,.56,2.69,10.82,10.82,0,0,0,2.78,4A14.91,14.91,0,0,0,5.36,33a7,7,0,0,1,.2-2.16,11.87,11.87,0,0,0,.18-4.31A8.56,8.56,0,0,0,5.48,25a3.24,3.24,0,0,1-.16-.47c-.1,0-.1,0-.18.27a11.7,11.7,0,0,0-.71,4.26,9.11,9.11,0,0,1,.06,1.65" style="fill:#003398;fill-rule:evenodd"/><path d="M7.66,36.13c0,.18-1.2-1.08-1.33-1.21a11.65,11.65,0,0,0-1.9-1.61,11.87,11.87,0,0,1-2.34-1.89,1,1,0,0,0-.16-.19c-.14-.14-.11-.13-.35-.08a5.56,5.56,0,0,0,.67,2,8,8,0,0,0,1.47,2.08l2,1.54c.07.05.35.49-.42.47-.15,0-.08,0-.27.07L5,37.3a.67.67,0,0,0-.53-.21c0,.34,0,.27.29.66A8,8,0,0,0,9.67,41,8.21,8.21,0,0,0,13,40.83l1.13-.2a.74.74,0,0,0,.42-.15c-.07-.35-.45-.58-.75-.92a1.73,1.73,0,0,1-.17-.21l-.34-.51c-.21-.32-.43-.8-.6-1.08l-1.48-2.31a6,6,0,0,0-1.53-1.4c-.27-.17,0,0-.13-.18s.15.09-.07-.06-.3,0-.55-.05h0c-.16,0,0,0-.28.11A12.27,12.27,0,0,0,7.3,30.71L6.86,30c-.14-.19,0-.13-.26-.19-.11.14-.09.18-.09.43a6.39,6.39,0,0,0,0,1.39,10.53,10.53,0,0,0,.61,3.19Zm-6-4.93a6.57,6.57,0,0,1,.69.7,24.45,24.45,0,0,0,2.41,1.81c1.09.77,2.41,2.48,3,2.61,0-1-1.32-1.37-1.14-6.41.54.37,1.63,3,1.84,3.76C8.82,35,9,35.82,9.26,37l.31,1.12a19.88,19.88,0,0,1-2.73-1,4.75,4.75,0,0,1-.59-.31,13.92,13.92,0,0,1-2.65-2,8.46,8.46,0,0,1-1.45-2.29A4.88,4.88,0,0,1,1.67,31.2Zm7.42,2.68a3.94,3.94,0,0,1,.9.58,10,10,0,0,1,2.56,3.38,10.75,10.75,0,0,0,1.13,1.84,5.68,5.68,0,0,1,.73.81c-.39,0-1.74.31-2.23.4a7.53,7.53,0,0,1-.83.08,7.14,7.14,0,0,1-5.17-1.84c-.11-.1-.13-.1-.24-.19l-.43-.43a7,7,0,0,1-1-1.33l1.29.73A16.14,16.14,0,0,0,9.41,39a21.65,21.65,0,0,0,3.12.93c0-.23-.08-.23-.19-.37a15.71,15.71,0,0,1-2-2.2,11,11,0,0,1-1-2.61Z" style="fill:#fbfbfb;fill-rule:evenodd"/><path d="M39.86,33a1.67,1.67,0,0,0,.48-.34c.52-.4.73-.66,1.14-1l.65-.6a11.69,11.69,0,0,0,1.81-2.44,9.37,9.37,0,0,0,1.15-3.71L45,24.69a19.39,19.39,0,0,1-1.14,2.17l-3,3.67c-.24.32-.18-.11-.18-.53a4.14,4.14,0,0,1,.07-.69,6.83,6.83,0,0,0,0-.79,12.53,12.53,0,0,0-.81-4c-.47.3-.67,3.6-.6,4.13l.11,1.09c0,.37.09.66.16,1A6.08,6.08,0,0,1,39.86,33" style="fill:#003398;fill-rule:evenodd"/><path d="M24.79,17a19.13,19.13,0,0,1,1.34-3.77l.18-.35c.3-.6.91-1.4,1-1.52a.38.38,0,0,0-.35.18l-.72.86a1.18,1.18,0,0,0-.21.32c-.14.28,0,.12-.21.31a1.53,1.53,0,0,0-.32.69c-.1.2-.26.16-.39.66-.21.83-.1.21-.33.73-.07.16-.06.24-.12.41s-.11.17-.18.34,0,.54-.19.81-.12.39-.27.79c-.28.74-.07.61-.22,1.35,0,.13,0,.3-.06.47a7.48,7.48,0,0,0,0,.93A13.17,13.17,0,0,0,23.92,24h1.49c0-.3,0-.37-.05-.67l.18-1.92a11.38,11.38,0,0,1,.5-1.66,2.62,2.62,0,0,0,.19-.49c-.17,0-.17.08-.29.2a9,9,0,0,0-1.1,2,5.3,5.3,0,0,1,1.25-3.14l.59-.51c.14-.11.08,0,.17-.18a1.53,1.53,0,0,0-1.14.5c-.12.11-.18.13-.29.24-.27.23-.16.26-.39.47-.44.4-.24.54-.52.76A8.39,8.39,0,0,1,26,16a5.87,5.87,0,0,1,1.1-1.19c.21-.16.33-.2.38-.34-.58,0-.56.19-.9.39a1.12,1.12,0,0,0-.36.32c-.06.08-.06.13-.13.2s-.08,0-.16.13-.15.27-.27.4-.2.16-.33.29c-.27.28-.12.45-.53.75" style="fill:#003398;fill-rule:evenodd"/><path d="M2.78,22.4l1-1.58a29,29,0,0,0,2.07-3.14,13.23,13.23,0,0,0,.84-1.8L5,17.35c-.74.75-1.51,2.2-1.8,2.41a9.18,9.18,0,0,1,.1-1.67A14.76,14.76,0,0,0,3.16,16a10.6,10.6,0,0,1,.1-2.92c-.16,0-.11,0-.21.13l-.46.7c-.73,1.59-1.27,4.73-.63,6.3.24.59.42,1.33.67,2l.12.22,0,0" style="fill:#003398;fill-rule:evenodd"/><path d="M42.11,19.76A10.15,10.15,0,0,1,41,18.17a10.09,10.09,0,0,0-1.33-1.44l-.77-.62a.69.69,0,0,0-.3-.17,20.47,20.47,0,0,0,1.28,2.59A14.13,14.13,0,0,0,40.93,20l1.29,2a1.1,1.1,0,0,0,.28.4l1-2.72c.05-.21.06-.39.1-.66a13.79,13.79,0,0,0-.22-2.74c-.17-.92-.59-2.76-1.34-3.22,0,.25.08.49.1.77a15.19,15.19,0,0,1,0,2.53,11.12,11.12,0,0,0,0,2.51,6.58,6.58,0,0,1,0,.89" style="fill:#003398;fill-rule:evenodd"/><path d="M29.23,0H27.32V6h1.25V3.74a3.63,3.63,0,0,0,1.85-.26A1.81,1.81,0,0,0,30.35.23,3.85,3.85,0,0,0,29.23,0m-.66,1a2.27,2.27,0,0,1,1.09.15.82.82,0,0,1,.44.8c0,.91-1,.86-1.53.86Z" style="fill:#003398;fill-rule:evenodd"/><path d="M23.11,39.87a8.11,8.11,0,0,1,1.2-.82c0-.62-.36-1.09-.11-1.6a6.16,6.16,0,0,0,.54-2.71H20.67c-1,0-1-.13.26,1.52.24.3.54.55.8.82l.69.56a.44.44,0,0,1,.2.23L23,39.75l0,0,.06.09" style="fill:#003398;fill-rule:evenodd"/><path d="M40.14,14.88a8.36,8.36,0,0,1-.93-.78l-.7-.6a2.75,2.75,0,0,0-.28-.19c-.33-.25-.73-.46-1.09-.68a2.87,2.87,0,0,1-.49-.37,3.37,3.37,0,0,0-.48-.45c0,.93,1.4,2.49,2.2,3.08l.74.55a11,11,0,0,1,1.43,1.2l.57.57c.19.11.12-.18.16-.49a3.82,3.82,0,0,0,0-.59,9,9,0,0,0-.37-3.36,6.71,6.71,0,0,0-2-3c.06.28.32.77.44,1.1a4,4,0,0,1,.17.59,18.64,18.64,0,0,0,.34,2.05,6.76,6.76,0,0,1,.24,1.33" style="fill:#003398;fill-rule:evenodd"/><path d="M4,17.28c.16-.1,1.39-1.34,2.1-1.83a8.3,8.3,0,0,0,2.09-1.88,4.68,4.68,0,0,0,.89-1.8c-.27.16-.19.34-.95.83a12.27,12.27,0,0,0-2.33,1.69l-.74.64.23-1.29A16.23,16.23,0,0,1,6,10.43a1.37,1.37,0,0,0,.24-.58c-.16.05,0,0-.19.11a8.93,8.93,0,0,0-1,1.19,6.42,6.42,0,0,0-1,2.64,4.68,4.68,0,0,0-.08.54c0,.2,0,.38,0,.58A12.09,12.09,0,0,0,4,17.28" style="fill:#003398;fill-rule:evenodd"/><polygon points="26.47 0 23.11 0 23.11 6.03 24.31 6.03 24.31 3.4 26.37 3.4 26.37 2.44 24.31 2.44 24.31 0.96 26.47 0.96 26.47 0" style="fill:#003398;fill-rule:evenodd"/><path d="M30.55,11.17a1.26,1.26,0,0,0-.07.5c.06.52.44.3,0,1l-.19.25c-.09.11,0,0-.06.08a1,1,0,0,1-.12.16L29,14.85a17.08,17.08,0,0,0-1.14,1.92l-.66,1.45v0l-.39,1v0l-.9,3.12a5.32,5.32,0,0,0-.15,1.7h1.55a11.86,11.86,0,0,1,1.26-2.34c.39-.49,1.14-1.48,1.65-1.37s.56.23,1.12-.12A1.78,1.78,0,0,1,32,20c.23,0,.37,0,.4-.22l-.21,0a7.56,7.56,0,0,1-.88.08c.22-.13.36,0,.68-.27a3,3,0,0,1,.93-.36c.22-.09.13,0,.16-.18-.18-.14-.63.08-.83.1,0,0,0,0,0,0l.49-.39c.25-.14-.21.09.06,0s.91-.14,1-.38c-.24-.14-.5,0-.69.07a4.18,4.18,0,0,1-.75.13s0,0,0,0,0,0,0,0c.32-.16.36-.28.5-.6a1.07,1.07,0,0,0,.11-.33.33.33,0,0,0-.14,0h-.09a1.55,1.55,0,0,0-.77.28,1.91,1.91,0,0,1,.3-.69l.1-.19c.05-.12.12-.21,0-.36-.15,0-.05,0-.16.12a.93.93,0,0,0-.09.2.83.83,0,0,1-.11.17l-.32.54c-.12.13-.2.24-.36.25,0-.24.15-.35.2-.56l0-.2c-.18,0-.18.15-.27.31a2.26,2.26,0,0,1-.79,1,4.49,4.49,0,0,0,.19-.72c-.31,0-.38.7-.72.94l-.32.44a1,1,0,0,0,0,.47c0,.66-.1.54-.49.85l-.35.28c-.17.18-.34.32-.49.51l-.86,1.13a2.06,2.06,0,0,1,.17-.57c0-.1,0-.08.09-.2L28.36,20a13.79,13.79,0,0,1,.81-1.49l.65-1a17.26,17.26,0,0,1,1.06-1.38l.49-.56a8.73,8.73,0,0,1,1.31-1.18l1.3-.66a5.38,5.38,0,0,1,1.48-.14l.25-.06c-.16-.34-1.24-.23-1.5-.19a4.64,4.64,0,0,0-1.38.43l-1.37.88a2.53,2.53,0,0,0-.26.22,2.08,2.08,0,0,0-.22.21L29.22,17a1.24,1.24,0,0,0-.21.27l-1.55,2.11a.84.84,0,0,1,.06-.24l.35-.94A1.73,1.73,0,0,0,28,18L30.72,13l0,0,0,0a1.3,1.3,0,0,0,.32-.44c.89.07.94,0,1.28-.5s.63-.35.94-.59l0,0c0-.05,0,0,0-.1a.33.33,0,0,0-.33,0l-.1,0a2.88,2.88,0,0,1-.45.19,2,2,0,0,1,.3-.35,1.74,1.74,0,0,1,.34-.32l.18-.1.31-.18c.19-.09.21,0,.23-.31a3.84,3.84,0,0,0-.78.34c-.08,0,0,0-.13,0a4.15,4.15,0,0,1,.42-.52l.25-.18h0l.18-.11c.2-.1.41-.17.46-.42a.51.51,0,0,0-.22,0l-.46.25a2.09,2.09,0,0,1-.68.35.82.82,0,0,0,.24-.41,1.66,1.66,0,0,0,0-.6,1.11,1.11,0,0,0-.77.37.6.6,0,0,0-.12.24,9,9,0,0,0,.08-1.27c-.25.07-.22.59-.28.81a1.87,1.87,0,0,1-.42.7c0-.28.12-.56,0-.76-.21.07-.16.49-.25.81a2.76,2.76,0,0,1-.28.49c-.11.19,0,.08-.14.13,0-.26.07-.45,0-.61s0,0,0-.11c-.24.12-.19.42-.23.7s-.17.37-.28.62m.6-.12a1,1,0,0,1,.2-.76c.36-.58.13-.29.29-.9,0-.09,0,0,0-.11s0,0,.05-.09c0,.41-.05.69-.05,1.15l.06-.14c.05-.18,0-.18.12-.35s.2-.22.28-.39c.14-.32.13-.78.26-1,.06.1,0,.26,0,.41a2.52,2.52,0,0,0,0,1.36c1.08,0,1.42-.68,1.86-.72-.23.36-.67.23-1.19,1s-.84.35-1.3.05a2.41,2.41,0,0,0,.15.43A1.67,1.67,0,0,0,33,10.75l.83-.41c0,.18-.13.15-.31.26-1.15.64-.69.8-1.31,1a.62.62,0,0,1-.46,0l-.35-.23C31.18,11.22,31.31,11.22,31.15,11.05Zm1.39-1c-.07-.1-.15-.16-.13-.32.05-.36.51-.57.8-.64a2.13,2.13,0,0,1-.12.7A.5.5,0,0,1,32.54,10.05Zm-1.39,1,.24.63a4.55,4.55,0,0,0,1.13-.07,7.64,7.64,0,0,1,.83-.32c-.2.26-.79.31-1.05.72s-.55.48-1.25.48c-.12.24-.16.21-.31.4a9.55,9.55,0,0,0-.88,1.27l-.53.91c-.17.29-.33.57-.49.9-.33.65-.61,1.23-.91,1.91-.15.35-.27.67-.4,1l-.27.79c0,.11,0,.15,0,.24a9.82,9.82,0,0,1,1.1-1.77l.39-.51,1.32-1.56c.42-.47.54-.55.93-.93A8,8,0,0,1,32.66,14c.73-.43,2.41-.88,3-.42a4.92,4.92,0,0,0-2,.25,4.6,4.6,0,0,0-1.37.83l-.89.78a17.77,17.77,0,0,0-1.68,2.1c-.16.24-.3.43-.45.66-.28.48-.52.92-.79,1.4a17.19,17.19,0,0,0-1.23,3.13c.17-.2.29-.42.45-.65s.14-.2.22-.31a6.73,6.73,0,0,1,1.58-1.57c.42-.31,0-.74.28-1.2s.35-.3.5-.56.21-.57.36-.68c0,.29-.21.55-.23.86a8.28,8.28,0,0,0,0,1c.36,0,.54.21.91.24a6.18,6.18,0,0,0,.9-.07s0,0,0,0,0,0,0,0c-.29.14-.68.13-1,.29a1.23,1.23,0,0,1-.85.32c-.38-.05-.47-.31-.9,0a7.18,7.18,0,0,0-1.66,2L27.18,24H25.74a12.77,12.77,0,0,1,.85-4.13c.26-.81.58-1.47.88-2.23.07-.15.14-.26.2-.42a29.57,29.57,0,0,1,2.57-4.18c.62-.8.54-.72.34-1.25a.92.92,0,0,1,0-.52c.07-.22.14-.21.23-.4s.07-.72.21-1c.06.1,0,.41,0,.91C31.08,11,31.06,10.94,31.15,11.05Zm.53,8,0,0,0,0L31.54,19c-.28-.41-.27-.15-.31-.45-.07-.56.52-.56.85-1.21a4.59,4.59,0,0,0,.36-.69l0,.1a3.44,3.44,0,0,1-.35.73,2.19,2.19,0,0,0-.21,1,4.87,4.87,0,0,0,1,0,3.86,3.86,0,0,1,.86-.19l-.25.12-.3.09C32,18.8,32.69,19.09,31.68,19.09Zm0,0,.17.08a1,1,0,0,0,.5,0L33,19c-.07.18-.32.15-.61.25a1.39,1.39,0,0,0-.55.31.9.9,0,0,1-.7.15.4.4,0,0,1-.38-.29c-.07-.12-.72-.55.1-1.22.55-.46.27-.49.7-1a3.64,3.64,0,0,1-.33.87c-.15.39-.05.48-.05,1,.26,0,.27,0,.48,0M33,17.56a4.33,4.33,0,0,1-.3.61c-.33.4-.88.21-.66-.22S32.66,17.59,33,17.56Z" style="fill:#ececeb;fill-rule:evenodd"/><path d="M21.15,0H19l.52,2.36c.08.41.17.76.26,1.17A11.21,11.21,0,0,0,20,4.73L21,.61A3,3,0,0,1,21.15,0" style="fill:#fdfdfd;fill-rule:evenodd"/><polygon points="17.27 0 15.13 0 16.27 4.78 17.27 0" style="fill:#fdfdfd;fill-rule:evenodd"/><path d="M6.36,12.54A6.51,6.51,0,0,0,9,10.35L10.2,8.61a3,3,0,0,0-.71.25,6.76,6.76,0,0,0-2.6,2.24,3.14,3.14,0,0,0-.53,1.44" style="fill:#003398;fill-rule:evenodd"/><path d="M38.91,12.54a4.37,4.37,0,0,0-1.41-2.47,8.46,8.46,0,0,0-1.08-.84,5,5,0,0,0-1.35-.62.73.73,0,0,0,.19.3,2.31,2.31,0,0,1,.19.28,9.25,9.25,0,0,0,2.78,3,7.13,7.13,0,0,0,.68.33" style="fill:#003398;fill-rule:evenodd"/><path d="M31.15,11.05c.16.17,0,.17.25.28l.35.23a.62.62,0,0,0,.46,0c.62-.19.16-.35,1.31-1,.18-.11.27-.08.31-.26l-.83.41a1.67,1.67,0,0,1-1.08.16,2.41,2.41,0,0,1-.15-.43c.46.3.76.71,1.3-.05s1-.6,1.19-1c-.44,0-.78.72-1.86.72a2.52,2.52,0,0,1,0-1.36c0-.15.08-.31,0-.41-.13.26-.12.72-.26,1-.08.17-.19.23-.28.39s-.07.17-.12.35l-.06.14c0-.46.05-.74.05-1.15-.05.07,0,0-.05.09s0,0,0,.11c-.16.61.07.32-.29.9a1,1,0,0,0-.2.76" style="fill:#003398;fill-rule:evenodd"/><path d="M28.57,2.77c.55,0,1.53,0,1.53-.86a.82.82,0,0,0-.44-.8A2.27,2.27,0,0,0,28.57,1Z" style="fill:#fdfdfd;fill-rule:evenodd"/><path d="M27.28,36c.09.07.24.29.38.15s-.08-.33-.13-.46a8.67,8.67,0,0,1-.3-1h-.82c0,.74,1.31,3.35,1.69,3.4s-.23-.58-.55-1.33c-.06-.15-.1-.23-.16-.36a3.11,3.11,0,0,1-.11-.41" style="fill:#003398;fill-rule:evenodd"/><path d="M31.68,19.09c-.21,0-.22-.05-.48,0,0-.52-.1-.61.05-1a3.64,3.64,0,0,0,.33-.87c-.43.53-.15.56-.7,1-.82.67-.17,1.1-.1,1.22a.4.4,0,0,0,.38.29.9.9,0,0,0,.7-.15,1.39,1.39,0,0,1,.55-.31c.29-.1.54-.07.61-.25l-.67.14a1,1,0,0,1-.5,0Z" style="fill:#003398;fill-rule:evenodd"/><path d="M25.41,34.78l.27,1c.07.22,0,.24.21.29a.16.16,0,0,0,0,0l0-.44a2.07,2.07,0,0,1,.35.64l.12.22a3.58,3.58,0,0,0,.21.45c.05.08.23.39.32.31s0,0,0,0,0,0,0,0c0-.28-.46-.89-.61-1.84,0,0,0-.45-.06-.48-.1-.25-.68-.07-.89-.07" style="fill:#003398;fill-rule:evenodd"/><path d="M31.68,19.09c1,0,.33-.29,1.55-.6l.3-.09.25-.12a3.86,3.86,0,0,0-.86.19,4.87,4.87,0,0,1-1,0,2.19,2.19,0,0,1,.21-1,3.44,3.44,0,0,0,.35-.73l0-.1a4.59,4.59,0,0,1-.36.69c-.33.65-.92.65-.85,1.21,0,.3,0,0,.31.45l.06.08,0,0,0,0" style="fill:#003398;fill-rule:evenodd"/><path d="M18.57,20.62c.13.63,1.23.41,1.14-.17s-1.25-.38-1.14.17" style="fill:#fbfdfc;fill-rule:evenodd"/><path d="M18.33,19.57c.05.34.25.45.57.38s.56-.13.57-.43c0-.7-1.21-.39-1.14.05" style="fill:#fbfdfc;fill-rule:evenodd"/><path d="M17.52,20.52c.26,0,.46,0,.6-.1a.53.53,0,0,0,.08-.53c-.11-.26-.74-.23-1,0a2.59,2.59,0,0,0,.34.66" style="fill:#fbfdfc;fill-rule:evenodd"/><path d="M18.81,21.34c0,1,.92.79.9-.28a2.51,2.51,0,0,0-.55.07,1,1,0,0,0-.35.21" style="fill:#fbfdfc;fill-rule:evenodd"/><path d="M18.09,19.28a.37.37,0,0,0-.29-.52c-.68-.08-.92.72-.33.76a.67.67,0,0,0,.62-.24" style="fill:#fbfbfb;fill-rule:evenodd"/><path d="M18,17.75c.05.56,1,.37,1-.08,0-.62-1-.28-1,.08" style="fill:#fbfdfc;fill-rule:evenodd"/><path d="M18.61,16.46c-.31,0-.57,0-.72.18-.34.42.44.8.83.4.21-.22,0-.43-.11-.58" style="fill:#fbfbfb;fill-rule:evenodd"/><path d="M20.86,16.56a.36.36,0,0,0-.28-.53.74.74,0,0,0-.59.27c-.27.61.65.63.87.26" style="fill:#fbfbfb;fill-rule:evenodd"/><path d="M18.33,19c1.1,0,.83-.55.71-.66s-.41-.08-.61,0-.25.17-.23.5Z" style="fill:#fbfdfc;fill-rule:evenodd"/><path d="M20.34,17.65a1.05,1.05,0,0,0,.81-.24.81.81,0,0,0-.15-.52,1.14,1.14,0,0,0-.8.24c0,.34,0,.33.14.52" style="fill:#fbfdfc;fill-rule:evenodd"/><path d="M19.53,19c.06.58.93.43.95,0,0-.67-1-.33-.95,0" style="fill:#fbfdfc;fill-rule:evenodd"/><path d="M17.14,18.61a1.27,1.27,0,0,0,.6-.06.33.33,0,0,0,.19-.44c-.12-.39-.74-.15-.94,0,0,.44,0,.32.15.52" style="fill:#fbfdfc;fill-rule:evenodd"/><path d="M16.8,17.37a.4.4,0,0,0,.2.33c.1,0,.91.19.7-.61-.3-.15-.9-.1-.9.28" style="fill:#fbfdfc;fill-rule:evenodd"/><path d="M16.22,17.61c.53,0,.57-.52.19-.67s-.71,0-.71.55l.05,0a.75.75,0,0,0,.47.09" style="fill:#fbfdfc;fill-rule:evenodd"/><path d="M19.24,18.14c.15.68.91.25.94,0,.07-.53-.9-.47-.94,0" style="fill:#fbfdfc;fill-rule:evenodd"/><path d="M19.05,16.79c.31,0,.54,0,.7-.15s0-.39-.09-.56c-.37,0-.73,0-.75.38a.46.46,0,0,0,.14.33" style="fill:#fbfdfc;fill-rule:evenodd"/><path d="M15.84,18c0,.33.12.56.49.57s.42-.13.41-.57a.78.78,0,0,0-.9,0" style="fill:#fbfdfc;fill-rule:evenodd"/><path d="M19.1,17.32c0,.37.33.37.64.27s.26-.41.11-.65c-.47,0-.75-.06-.75.38" style="fill:#fbfbfb;fill-rule:evenodd"/><path d="M15.65,16.46c0,.15.07.19.2.23l.37,0c.21,0,.42-.14.36-.39-.11-.44-1-.4-.93.11" style="fill:#fbfbfb;fill-rule:evenodd"/><path d="M18.23,14.79a1.08,1.08,0,0,0-.65.11c-.3.25,0,.81.58.53.2-.1.21-.21.2-.49Z" style="fill:#fbfdfc;fill-rule:evenodd"/><path d="M18.71,15.6a.85.85,0,0,0,.15.28c.19.14.82,0,.8-.32,0-.56-1-.31-.95,0" style="fill:#fbfbfb;fill-rule:evenodd"/><path d="M33,17.56c-.36,0-.81.09-1,.39s.33.62.66.22a4.33,4.33,0,0,0,.3-.61" style="fill:#003398;fill-rule:evenodd"/><path d="M17.66,16a.61.61,0,0,0,.18.25c.15.08.77.07.72-.39s-1-.26-.9.14" style="fill:#fbfdfc;fill-rule:evenodd"/><path d="M32.54,10.05a.5.5,0,0,0,.55-.26,2.13,2.13,0,0,0,.12-.7c-.29.07-.75.28-.8.64,0,.16.06.22.13.32" style="fill:#003398;fill-rule:evenodd"/><path d="M17.56,16.23c-1.25-.3-1,1.06.05.47a1.3,1.3,0,0,0-.05-.47" style="fill:#fbfdfc;fill-rule:evenodd"/><path d="M17.9,21.2a.78.78,0,0,0,.24.33c.18,0,.26-.05.33-.24a.54.54,0,0,0,0-.39c-.13-.29-.45-.19-.73-.13Z" style="fill:#fbfbfb;fill-rule:evenodd"/><path d="M20.39,18.09c0,.16.18.49.4.41s.26-.37.33-.49c.37-.59-.5-.25-.73.08" style="fill:#fbfbfb;fill-rule:evenodd"/><path d="M19.58,15.12a.4.4,0,0,0,.5.08c.48-.21.28-.79-.28-.57-.22.08-.23.21-.22.49" style="fill:#fbfbfb;fill-rule:evenodd"/><path d="M20.48,15.36c-.31,0-.44,0-.59.18A.29.29,0,0,0,20,16c.07,0,.88,0,.49-.64" style="fill:#fbfbfb;fill-rule:evenodd"/><path d="M15.75,15.74c.8.56,1.19-.56.24-.42-.25,0-.24.14-.24.42" style="fill:#fbfbfb;fill-rule:evenodd"/><path d="M17.37,14.22c0,.28,0,.39.24.42a.61.61,0,0,0,.52-.19v-.28c-.34-.23-.47-.15-.76.05" style="fill:#fbfbfb;fill-rule:evenodd"/><path d="M18.52,14.74c0,.63.48.42.76.23V14.7l-.13-.15a.83.83,0,0,0-.62.19" style="fill:#fbfbfb;fill-rule:evenodd"/><path d="M17.42,15.84c0-.1.1-.58-.5-.4-.38.11-.26.34-.12.54.41,0,.37,0,.62-.14" style="fill:#fbfbfb;fill-rule:evenodd"/><path d="M17.32,15.16a.32.32,0,0,0-.09-.42.72.72,0,0,0-.48,0c-.28.55.14.53.57.42" style="fill:#fbfbfb;fill-rule:evenodd"/><path d="M20,20.29a1.55,1.55,0,0,0,.38-.86c-.52,0-.71.33-.45.75l.07.11" style="fill:#fbfbfb;fill-rule:evenodd"/><path d="M18.28,14.16a.8.8,0,0,0,.15.29.63.63,0,0,0,.56-.29c-.08-.35-.47-.44-.71,0" style="fill:#fbfbfb;fill-rule:evenodd"/><path d="M15.89,14.69c0,.26,0,.39.19.43h.28a.23.23,0,0,0,.14-.36c-.14-.23-.44-.14-.61-.06" style="fill:#fbfbfb;fill-rule:evenodd"/><path d="M19.24,14.26a.57.57,0,0,0,.14.28.73.73,0,0,0,.52-.19c0-.57-.47-.43-.66-.09" style="fill:#fbfbfb;fill-rule:evenodd"/><path d="M17.42,13.88c.38,0,.43,0,.57-.29l-.14-.24a.72.72,0,0,0-.49.14c-.19.16,0,.26.06.39" style="fill:#fbfbfb;fill-rule:evenodd"/><path d="M18.39,21.73c-.14,0,0,0-.11.05s0,0,0,0v0l0,.11c.09.26.15.45.35.51a.38.38,0,0,0,.1-.24.73.73,0,0,0,0-.3.26.26,0,0,0-.18-.16h-.16" style="fill:#fbfbfb;fill-rule:evenodd"/><path d="M17.37,13.25c.32,0,.53-.35.22-.46s-.56.46-.22.46" style="fill:#fbfbfb;fill-rule:evenodd"/><path d="M19,13.78c.15.27.23.23.57.05,0-.28-.09-.42-.38-.29-.13.06-.15.09-.19.24" style="fill:#fbfbfb;fill-rule:evenodd"/><path d="M18.14,13.45c0,.21-.05.3.14.33.37.06.51-.41.23-.47-.11,0-.3.1-.37.14" style="fill:#fbfbfb;fill-rule:evenodd"/><path d="M18.42,13.11v-.28c-.66-.16-.62.44-.29.42a.56.56,0,0,0,.29-.14" style="fill:#fbfbfb;fill-rule:evenodd"/><path d="M16.66,14.45c.44.21.66-.06.53-.25,0,0-.53-.31-.53.25" style="fill:#fbfbfb;fill-rule:evenodd"/><path d="M16.52,18.72c-.11,0,0,0-.1,0v.07c0,.11,0,0,0,.08a1.29,1.29,0,0,0,.39.44c.12-.32,0-.68-.32-.63" style="fill:#fbfbfb;fill-rule:evenodd"/><path d="M15.94,14.07l0,.29a.46.46,0,0,0,.44,0l0,0,0-.05,0,0-.06-.18a.81.81,0,0,0-.51,0" style="fill:#fbfbfb;fill-rule:evenodd"/><path d="M16.75,13.59c-.32.23.1.47.35.3a.19.19,0,0,0,0-.29c-.05,0-.08-.06-.18-.06s-.16,0-.19.05" style="fill:#fbfbfb;fill-rule:evenodd"/><path d="M19.38,22.21c-.37.09-.37.41-.25.68,0,.06,0,0,.06.08Z" style="fill:#fbfbfb;fill-rule:evenodd"/><path d="M16.61,13.4l.14,0a1.31,1.31,0,0,0,.28-.09c0-.19,0-.27-.23-.24s-.19.1-.19.29" style="fill:#fbfbfb;fill-rule:evenodd"/><path d="M18.71,13.35c.2.1.53,0,.41-.22s-.18-.08-.27,0-.13.12-.14.25" style="fill:#fbfbfb;fill-rule:evenodd"/><path d="M16.13,13.59c-.05.06-.05-.08-.05.1s0,.08.06.12a.38.38,0,0,0,.33,0c.18-.18-.18-.35-.34-.2" style="fill:#fbfbfb;fill-rule:evenodd"/><path d="M53.06,19,50.88,9.8h1.89l1.38,6.29L55.82,9.8H58l1.61,6.39L61,9.8h1.86L60.67,19h-2l-1.83-6.84L55.07,19Z" style="fill:#003398"/><path d="M63.77,12.32h1.64v1a2.42,2.42,0,0,1,.86-.82,2.45,2.45,0,0,1,1.21-.31,2.52,2.52,0,0,1,2,.91,3.68,3.68,0,0,1,.8,2.52,3.76,3.76,0,0,1-.81,2.58,2.51,2.51,0,0,1-2,.92,2.28,2.28,0,0,1-1-.21,3.5,3.5,0,0,1-.94-.75v3.34H63.77Zm1.74,3.21A2.6,2.6,0,0,0,66,17.18a1.38,1.38,0,0,0,1.08.53,1.26,1.26,0,0,0,1-.49,2.53,2.53,0,0,0,.41-1.61A2.41,2.41,0,0,0,68,14.06a1.32,1.32,0,0,0-1-.5,1.33,1.33,0,0,0-1.07.5A2.22,2.22,0,0,0,65.51,15.53Z" style="fill:#003398"/><path d="M73.31,19H71.56V12.32h1.63v.94a3.07,3.07,0,0,1,.75-.88,1.43,1.43,0,0,1,.76-.21,2.25,2.25,0,0,1,1.16.33L75.31,14a1.52,1.52,0,0,0-.82-.28,1,1,0,0,0-.63.2,1.39,1.39,0,0,0-.4.73,10.31,10.31,0,0,0-.15,2.23Z" style="fill:#003398"/><path d="M76.61,19V9.8h1.76V19Z" style="fill:#003398"/><path d="M86.25,19H84.62V18a2.66,2.66,0,0,1-1,.85,2.5,2.5,0,0,1-3.07-.65,3.71,3.71,0,0,1-.82-2.57,3.7,3.7,0,0,1,.8-2.56,2.58,2.58,0,0,1,2-.88,2.47,2.47,0,0,1,1.92.93V9.8h1.76Zm-4.69-3.46a3,3,0,0,0,.3,1.54,1.32,1.32,0,0,0,1.18.69,1.3,1.3,0,0,0,1-.52,2.38,2.38,0,0,0,.42-1.54A2.61,2.61,0,0,0,84.09,14,1.34,1.34,0,0,0,82,14,2.25,2.25,0,0,0,81.56,15.49Z" style="fill:#003398"/><path d="M91.56,19V9.8h6.27v1.55H93.41v2.16h3.82v1.55H93.41V19Z" style="fill:#003398"/><path d="M98.94,15.54a3.57,3.57,0,0,1,.43-1.69,3,3,0,0,1,1.22-1.25,3.73,3.73,0,0,1,1.76-.43,3.31,3.31,0,0,1,2.47,1,3.37,3.37,0,0,1,1,2.47,3.4,3.4,0,0,1-1,2.49,3.26,3.26,0,0,1-2.44,1,3.77,3.77,0,0,1-1.74-.41,2.84,2.84,0,0,1-1.26-1.21A4,4,0,0,1,98.94,15.54Zm1.8.1a2.15,2.15,0,0,0,.47,1.51,1.53,1.53,0,0,0,2.3,0,2.23,2.23,0,0,0,.47-1.52,2.19,2.19,0,0,0-.47-1.5,1.51,1.51,0,0,0-2.3,0A2.15,2.15,0,0,0,100.74,15.64Z" style="fill:#003398"/><path d="M106.75,15.54a3.57,3.57,0,0,1,.43-1.69,3.06,3.06,0,0,1,1.22-1.25,3.74,3.74,0,0,1,1.77-.43,3.33,3.33,0,0,1,3.43,3.45,3.44,3.44,0,0,1-1,2.49,3.3,3.3,0,0,1-2.45,1,3.77,3.77,0,0,1-1.74-.41,2.84,2.84,0,0,1-1.26-1.21A4,4,0,0,1,106.75,15.54Zm1.8.1a2.2,2.2,0,0,0,.47,1.51,1.54,1.54,0,0,0,2.31,0,2.23,2.23,0,0,0,.46-1.52,2.19,2.19,0,0,0-.46-1.5,1.52,1.52,0,0,0-2.31,0A2.2,2.2,0,0,0,108.55,15.64Z" style="fill:#003398"/><path d="M121.05,19h-1.63V18a2.66,2.66,0,0,1-1,.85,2.5,2.5,0,0,1-3.07-.65,3.75,3.75,0,0,1-.81-2.57,3.7,3.7,0,0,1,.79-2.56,2.61,2.61,0,0,1,2-.88,2.47,2.47,0,0,1,1.93.93V9.8h1.75Zm-4.68-3.46a3.13,3.13,0,0,0,.29,1.54,1.34,1.34,0,0,0,1.19.69,1.28,1.28,0,0,0,1-.52,2.38,2.38,0,0,0,.42-1.54,2.55,2.55,0,0,0-.41-1.64,1.29,1.29,0,0,0-1-.51,1.33,1.33,0,0,0-1,.5A2.25,2.25,0,0,0,116.37,15.49Z" style="fill:#003398"/><path d="M51.76,33.24V24.09h3a10.13,10.13,0,0,1,2.2.14,2.39,2.39,0,0,1,1.32.89,2.87,2.87,0,0,1,.53,1.78,3,3,0,0,1-.31,1.42,2.3,2.3,0,0,1-.78.9,2.59,2.59,0,0,1-1,.44,10.29,10.29,0,0,1-1.91.13H53.61v3.45Zm1.85-7.6v2.59h1a4.64,4.64,0,0,0,1.46-.14,1.14,1.14,0,0,0,.58-.45,1.21,1.21,0,0,0,.21-.71,1.19,1.19,0,0,0-.29-.82,1.28,1.28,0,0,0-.74-.41,9.39,9.39,0,0,0-1.33-.06Z" style="fill:#003398"/><path d="M62,33.24H60.21V26.61h1.63v.94a2.93,2.93,0,0,1,.75-.88,1.38,1.38,0,0,1,.76-.21,2.21,2.21,0,0,1,1.15.33L64,28.32a1.55,1.55,0,0,0-.83-.28.94.94,0,0,0-.62.2,1.39,1.39,0,0,0-.4.73A10.26,10.26,0,0,0,62,31.19Z" style="fill:#003398"/><path d="M64.85,29.83a3.69,3.69,0,0,1,.43-1.69,3,3,0,0,1,1.23-1.25,3.56,3.56,0,0,1,1.76-.43,3.32,3.32,0,0,1,3.43,3.45,3.44,3.44,0,0,1-1,2.49,3.3,3.3,0,0,1-2.45,1A3.77,3.77,0,0,1,66.54,33a2.84,2.84,0,0,1-1.26-1.21A4.09,4.09,0,0,1,64.85,29.83Zm1.8.1a2.2,2.2,0,0,0,.47,1.51,1.54,1.54,0,0,0,2.31,0,2.24,2.24,0,0,0,.46-1.53,2.16,2.16,0,0,0-.46-1.49,1.52,1.52,0,0,0-2.31,0A2.2,2.2,0,0,0,66.65,29.93Z" style="fill:#003398"/><path d="M72.91,33.68l2,.24a.68.68,0,0,0,.23.48,1.3,1.3,0,0,0,.79.19,2.13,2.13,0,0,0,1-.2.85.85,0,0,0,.35-.45,2.43,2.43,0,0,0,.08-.8v-1a2.34,2.34,0,0,1-2,1.07,2.44,2.44,0,0,1-2.12-1.13,3.8,3.8,0,0,1-.61-2.22,3.69,3.69,0,0,1,.8-2.55,2.61,2.61,0,0,1,2-.88,2.44,2.44,0,0,1,2,1.08v-.93h1.64v6a5.88,5.88,0,0,1-.2,1.76,2.14,2.14,0,0,1-.54.91,2.43,2.43,0,0,1-.93.52,5.11,5.11,0,0,1-1.48.18,3.86,3.86,0,0,1-2.39-.57,1.84,1.84,0,0,1-.71-1.47A1.62,1.62,0,0,1,72.91,33.68Zm1.57-3.89a2.37,2.37,0,0,0,.41,1.55,1.26,1.26,0,0,0,1,.49A1.4,1.4,0,0,0,77,31.32a2.16,2.16,0,0,0,.44-1.49A2.37,2.37,0,0,0,77,28.3a1.35,1.35,0,0,0-1.07-.5,1.31,1.31,0,0,0-1,.49A2.28,2.28,0,0,0,74.48,29.79Z" style="fill:#003398"/><path d="M82.56,33.24H80.81V26.61h1.63v.94a2.93,2.93,0,0,1,.75-.88,1.4,1.4,0,0,1,.76-.21,2.27,2.27,0,0,1,1.16.33l-.55,1.53a1.52,1.52,0,0,0-.82-.28,1,1,0,0,0-.63.2,1.39,1.39,0,0,0-.4.73,10.26,10.26,0,0,0-.15,2.22Z" style="fill:#003398"/><path d="M87.17,28.63l-1.59-.28a2.5,2.5,0,0,1,.93-1.43,3.41,3.41,0,0,1,1.94-.46,4.09,4.09,0,0,1,1.75.28,1.72,1.72,0,0,1,.81.7A3.61,3.61,0,0,1,91.24,29v2a6.77,6.77,0,0,0,.08,1.29,3.56,3.56,0,0,0,.32.89H89.89a5.31,5.31,0,0,1-.17-.52l-.06-.2a3.3,3.3,0,0,1-1,.66,2.87,2.87,0,0,1-1.1.21A2.25,2.25,0,0,1,86,32.84a2,2,0,0,1-.32-2.41,1.74,1.74,0,0,1,.75-.67,5.4,5.4,0,0,1,1.4-.41,10.49,10.49,0,0,0,1.7-.43v-.18a.89.89,0,0,0-.25-.72,1.52,1.52,0,0,0-.94-.22,1.08,1.08,0,0,0-1.16.83Zm2.35,1.43c-.22.07-.58.16-1.07.27a3.16,3.16,0,0,0-1,.3.75.75,0,0,0-.35.62.88.88,0,0,0,.28.64.94.94,0,0,0,.7.27,1.55,1.55,0,0,0,.9-.31,1.05,1.05,0,0,0,.42-.59,3.2,3.2,0,0,0,.07-.85Z" style="fill:#003398"/><path d="M92.84,26.61h1.62v.91a2.6,2.6,0,0,1,2.07-1.06,2.26,2.26,0,0,1,1.1.26,2,2,0,0,1,.77.8,3.14,3.14,0,0,1,.94-.8,2.54,2.54,0,0,1,2.32,0,1.85,1.85,0,0,1,.76.87A3.78,3.78,0,0,1,102.6,29v4.24h-1.76V29.45a2.83,2.83,0,0,0-.18-1.27.83.83,0,0,0-.75-.38,1.21,1.21,0,0,0-.69.23,1.25,1.25,0,0,0-.47.66,5,5,0,0,0-.14,1.37v3.18H96.85V29.61a5.24,5.24,0,0,0-.09-1.25.78.78,0,0,0-.29-.42.94.94,0,0,0-.54-.14,1.33,1.33,0,0,0-.73.22,1.24,1.24,0,0,0-.46.63A4.51,4.51,0,0,0,94.6,30v3.22H92.84Z" style="fill:#003398"/><path d="M104.22,26.61h1.61v.91a2.6,2.6,0,0,1,2.07-1.06,2.33,2.33,0,0,1,1.11.26,2,2,0,0,1,.76.8,3.05,3.05,0,0,1,1-.8,2.33,2.33,0,0,1,1.08-.26,2.36,2.36,0,0,1,1.23.3,1.85,1.85,0,0,1,.76.87A3.78,3.78,0,0,1,114,29v4.24h-1.75V29.45a2.66,2.66,0,0,0-.19-1.27.82.82,0,0,0-.74-.38,1.22,1.22,0,0,0-.7.23,1.31,1.31,0,0,0-.47.66,5,5,0,0,0-.14,1.37v3.18h-1.76V29.61a5.24,5.24,0,0,0-.09-1.25.78.78,0,0,0-.29-.42.92.92,0,0,0-.53-.14,1.31,1.31,0,0,0-.73.22,1.2,1.2,0,0,0-.47.63A4.86,4.86,0,0,0,106,30v3.22h-1.75Z" style="fill:#003398"/><path d="M119.56,31.13l1.75.3a2.85,2.85,0,0,1-1.07,1.46,3.08,3.08,0,0,1-1.82.5,3,3,0,0,1-2.56-1.13,3.82,3.82,0,0,1-.65-2.28,3.67,3.67,0,0,1,.86-2.59,2.84,2.84,0,0,1,2.18-.93,2.93,2.93,0,0,1,2.33,1,4.29,4.29,0,0,1,.82,3H117a1.78,1.78,0,0,0,.42,1.22,1.32,1.32,0,0,0,1,.43,1,1,0,0,0,.69-.22A1.39,1.39,0,0,0,119.56,31.13Zm.1-1.77a1.69,1.69,0,0,0-.39-1.16,1.24,1.24,0,0,0-.92-.4,1.2,1.2,0,0,0-.94.42,1.6,1.6,0,0,0-.37,1.14Z" style="fill:#003398"/></g></g></svg>