<svg xmlns="http://www.w3.org/2000/svg" viewBox="0 0 73.02 28"><title>VALE</title><g id="ffa42026-2242-4ccd-877e-852918e2ebe0" data-name="Layer 2"><g id="efe780c1-5d1e-4960-b1a8-7834e2683d33" data-name="Layer 1"><path d="M0,2.91A12.9,12.9,0,0,1,10.62.25C17,1.55,21.15,9.93,27,10.27a8.67,8.67,0,0,0,6.82-2.64L18.41,28Z" style="fill:#007e7a;fill-rule:evenodd"/><path d="M37.92,2.33a6.51,6.51,0,0,0-5.58-1.26C30.09,1.53,27.24,3.78,25,5a16.14,16.14,0,0,1-4.76,1.66c2.17,1.89,4.34,3.47,6.82,3.62a8.67,8.67,0,0,0,6.82-2.64Z" style="fill:#ecb011;fill-rule:evenodd"/><path d="M40.88,22.4l-3.25-8.33h1.93l2.69,7.11L45.14,14h1.92L43,23.83a2.17,2.17,0,0,1-2.1-1.43M59,13.91l1.79,0-.12,8.31,4.12,0,0,1.5-5.9,0Zm9.88,1.42,0,2.37,3.39,0,0,1.51-3.39,0,0,2.94,4,0,0,1.5-5.77,0,.14-9.8,5.92,0a1.62,1.62,0,0,1-1.72,1.51Zm-15.55,4.3-1.13-3-1.22,3ZM53,14l3.76,9.78H54.87l-1-2.61-3.53,0-1.06,2.63H47.36L51.45,14Z" style="fill:#747678;fill-rule:evenodd"/></g></g></svg>