<svg xmlns="http://www.w3.org/2000/svg" viewBox="0 0 182.02 126.28"><defs><style>.cls-1{fill:#b5cccd;}.cls-1,.cls-10,.cls-11,.cls-12,.cls-13,.cls-14,.cls-15,.cls-16,.cls-17,.cls-18,.cls-19,.cls-2,.cls-20,.cls-21,.cls-22,.cls-23,.cls-3,.cls-4,.cls-5,.cls-6,.cls-7,.cls-8,.cls-9{fill-rule:evenodd;}.cls-2{fill:#2c3b40;}.cls-3{fill:#f4f9fc;}.cls-4{fill:#e1e7ec;}.cls-5{fill:#1e2628;}.cls-6{fill:#243034;}.cls-7{fill:#fff;}.cls-8{fill:#513c18;}.cls-9{fill:#372212;}.cls-10{fill:#303b40;}.cls-11{fill:#edf5fa;}.cls-12{fill:#d8e0e6;}.cls-13{fill:#212829;}.cls-14{fill:#e6e9ec;}.cls-15{fill:#576166;}.cls-16{fill:#242c2e;}.cls-17{fill:#597393;}.cls-18{fill:#deb57c;}.cls-19{fill:#cba36f;}.cls-20{fill:#eff0ef;}.cls-21{fill:#d5d5d5;}.cls-22{fill:#a09c9b;}.cls-23{fill:#bbb9b9;}</style></defs><title>headerAssets</title><g id="Camada_2" data-name="Camada 2"><g id="Layer_1" data-name="Layer 1"><path class="cls-1" d="M7,101.77a6.67,6.67,0,0,0,6.4,3.29l10.11,17.51a1.2,1.2,0,0,0,1.66.45l2.69-1.54a1.21,1.21,0,0,0,.45-1.66L18.18,102.28a6.65,6.65,0,0,0-6.07-10.47l-5.19-9,.3-.18a.53.53,0,0,0,.21-.78h0a.53.53,0,0,0-.78-.21l-.3.15L5,79.4A1.26,1.26,0,0,0,3.27,79L.61,80.49a1.28,1.28,0,0,0-.45,1.69l1.39,2.39-.18.09a.62.62,0,0,0-.22.81h0a.64.64,0,0,0,.82.21l.15-.09,5.19,9A6.7,6.7,0,0,0,7,101.77ZM171.66,28.3l.49.87L177,26.36a3,3,0,0,1,4.13,1.12V59.39h0v47.48l.91,2.75v4.44l-1.12-1.15-1.6-1.75h0l-1.08.78-6.62-8.72-20.77,12,2.27,5.91-1.24.48,1.36,4.68H132.45l-.12-.39-.64.39H106L82,84.69a3.07,3.07,0,0,1,1.12-4.14h0L88,77.77l-.48-.87-4.62,2.65a3.93,3.93,0,0,1-4-.39L64.4,67.51a1.58,1.58,0,0,1,.09-2.78L172.63,2.27h0c1.15-.63,2.2,0,2.45,1.33L177.94,22a3.84,3.84,0,0,1-1.69,3.68ZM168.89,31l-.52-.84L90.76,75l.48.87Zm-88.22,84.2L82.85,119a1.17,1.17,0,0,1-.43,1.57h0a1.14,1.14,0,0,1-1.54-.42l-2.2-3.78a10.25,10.25,0,1,1,2-1.14ZM39.83,78.74,24,87.92a1.9,1.9,0,0,0-.73,2.62l18.21,31.58a2,2,0,0,0,2.65.69L60,113.67a2,2,0,0,0,.7-2.66L42.48,79.46a2,2,0,0,0-2.65-.72Zm-34,3.38-1.72,1L2.87,81l-.45.27L3.6,83.39l-1.51.87L.7,81.88A.67.67,0,0,1,.91,81L3.6,79.49a.59.59,0,0,1,.81.25ZM33.37,61.71A77.43,77.43,0,0,0,15.61,72.43c-.42.33-.21.88.1,1.27.12.18.27.36.39.54a.89.89,0,0,0,1.08.36c.34-.18.67-.39,1-.57.91,1,1.78,2,2.69,2.93,0,.75,1,5.43,2.26,3.08.18-.37.39-.73.61-1.09,2.86.3,11-4.14,10.56-7.94l-.54-4.89c.54-.3,1.09-.6,1.63-.94s1.12-.63,1.66-.93L41,67.15c3.08,2.26,11-2.54,12.17-5.2.42,0,.82,0,1.24,0,2.66.06-.91-3.11-1.54-3.51-.39-1.26-.82-2.5-1.21-3.77l1-.54A.92.92,0,0,0,52.84,53c-.09-.21-.18-.42-.27-.6-.21-.46-.55-.94-1.06-.73a78.11,78.11,0,0,0-18.14,10Zm9.11-5.25c-2.92,1.54-5.76,3.62-5.34,5.92,3.89-2.6,7.55-5.59,11.38-8.24-2.14.18-5,1.75-6,2.32ZM37.8,63.8l3.57,2.83C43.3,68.45,50.7,65.52,52.42,62l-9.24.24A9.57,9.57,0,0,0,37.8,63.8Zm14.4-5.32L51.06,55.4a2.07,2.07,0,0,0-.09-.24l-9.24,6.13A63.28,63.28,0,0,1,52.2,58.48ZM24.25,67c2.81-1.78,6-3.2,7.82-1.66-4.2,2-8.64,3.71-12.86,5.73,1.27-1.78,4-3.44,5-4.07Zm8.69-.4.67,4.5c.6,2.6-5.62,7.52-9.54,7.25,1.6-2.63,3.23-5.26,4.83-7.88a9.51,9.51,0,0,1,4-3.87ZM21.17,76.41l-2.11-2.53c-.06-.06-.12-.15-.18-.21l9.93-4.92a58.74,58.74,0,0,0-7.64,7.66Zm36.38,7.43,2.14-1.21-.24-.45.85-.48,6.85-4a2.58,2.58,0,0,1,2.59,4.47l-6.88,3.95h0l-.84.52-.25-.45-2.14,1.23.24.46-1.36.78A2.58,2.58,0,1,1,56,84.2l1.36-.78Z"/><path class="cls-2" d="M173.54.25c1.11-.63,2.2,0,2.44,1.33l2.84,18.35a3.87,3.87,0,0,1-1.66,3.69Q130.47,50.56,83.78,77.53a3.93,3.93,0,0,1-4-.39L65.28,65.49a1.59,1.59,0,0,1,.12-2.78L173.54.25Z"/><polygon class="cls-3" points="70.47 63.65 82.64 74.36 174.99 21.02 171.79 5.14 70.47 63.65"/><polygon class="cls-4" points="70.47 63.65 82.64 74.36 171.79 5.14 70.47 63.65"/><path class="cls-2" d="M84.05,78.53l93.83-54.16A3,3,0,0,1,182,25.46V95.7l-53,30.58H108.12L82.94,82.66a3,3,0,0,1,1.11-4.13Z"/><path class="cls-5" d="M168.8,26l2.11-1.21a.71.71,0,0,1,.94.25l1.93,3.35a.65.65,0,0,1-.27.87l-2.12,1.24a.69.69,0,0,1-.87-.21l-2-3.38a.76.76,0,0,1,.24-.91ZM87.92,72.73,90,71.49a.71.71,0,0,1,.91.25l1.93,3.38a.64.64,0,0,1-.27.87L90.49,77.2a.64.64,0,0,1-.88-.21l-1.93-3.35a.68.68,0,0,1,.24-.91Z"/><path class="cls-6" d="M108.81,71.19l2.66-1.54a1.07,1.07,0,0,1,1.42.4l1.51,2.62a1.05,1.05,0,0,1-.37,1.42l-2.65,1.54a1,1,0,0,1-1.39-.42l-1.51-2.63a1,1,0,0,1,.33-1.39Zm5.34-3.08,2.66-1.54a1.07,1.07,0,0,1,1.42.4l1.51,2.62a1,1,0,0,1-.36,1.39l-2.66,1.54a1,1,0,0,1-1.42-.36l-1.51-2.63a1,1,0,0,1,.36-1.42ZM119.5,65l2.62-1.54a1.06,1.06,0,0,1,1.42.4l1.51,2.62a1,1,0,0,1-.36,1.42l-2.63,1.51a1.06,1.06,0,0,1-1.42-.39l-1.5-2.63A1,1,0,0,1,119.5,65Zm5.34-3.11,2.63-1.5a1,1,0,0,1,1.42.39l1.54,2.62a1,1,0,0,1-.4,1.39l-2.62,1.54A1,1,0,0,1,126,66l-1.51-2.63a1.07,1.07,0,0,1,.36-1.42Zm5.34-3,2.66-1.54a1,1,0,0,1,1.39.36l1.54,2.62a1.06,1.06,0,0,1-.39,1.42l-2.66,1.54a1,1,0,0,1-1.39-.39l-1.51-2.63a1,1,0,0,1,.36-1.38Zm5.35-3.11,2.65-1.51a1,1,0,0,1,1.39.39l1.51,2.63a1,1,0,0,1-.36,1.38l-2.66,1.54a1,1,0,0,1-1.42-.39l-1.5-2.62a1.06,1.06,0,0,1,.39-1.42Zm5.34-3.08,2.63-1.51a1,1,0,0,1,1.42.36l1.51,2.63a1,1,0,0,1-.4,1.42l-2.62,1.5a1,1,0,0,1-1.39-.36l-1.54-2.62a1.07,1.07,0,0,1,.39-1.42Zm21.35-12.32,2.65-1.54a1,1,0,0,1,1.39.39l1.54,2.63a1,1,0,0,1-.39,1.42l-2.63,1.51a1,1,0,0,1-1.42-.39l-1.51-2.63a1,1,0,0,1,.37-1.39Zm5.34-3.08,2.66-1.54a1.07,1.07,0,0,1,1.41.39l1.51,2.63a1,1,0,0,1-.39,1.39L170.1,41.7a1,1,0,0,1-1.39-.39l-1.51-2.63a1,1,0,0,1,.36-1.39Zm5.34-3.08,2.66-1.54A1.06,1.06,0,0,1,177,33l1.51,2.62a1,1,0,0,1-.39,1.42l-2.66,1.54a1.05,1.05,0,0,1-1.42-.39l-1.51-2.63a1,1,0,0,1,.39-1.39ZM101.23,82.69l2.66-1.54a1,1,0,0,1,1.36.4l1.54,2.65a1,1,0,0,1-.33,1.39l-2.66,1.54a1.07,1.07,0,0,1-1.42-.39l-1.54-2.66a1,1,0,0,1,.39-1.39Zm7,24.39,2.65-1.53a1.05,1.05,0,0,1,1.42.39l1.54,2.65a1.08,1.08,0,0,1-.39,1.42l-2.66,1.51a1,1,0,0,1-1.42-.36l-1.51-2.66a1,1,0,0,1,.37-1.42Zm-1.6-27.47,2.62-1.5a1,1,0,0,1,1.39.33l1.54,2.65a1,1,0,0,1-.36,1.42L109.14,84a1,1,0,0,1-1.42-.36L106.18,81a1,1,0,0,1,.4-1.39Zm3.08,5.32,2.62-1.51a1.06,1.06,0,0,1,1.42.36l1.51,2.63a1,1,0,0,1-.39,1.42l-2.63,1.5a1,1,0,0,1-1.42-.36l-1.51-2.62a1,1,0,0,1,.4-1.42Zm3.07,5.34,2.63-1.51a1,1,0,0,1,1.39.36l1.54,2.66a1,1,0,0,1-.36,1.39l-2.63,1.54a1.07,1.07,0,0,1-1.42-.39l-1.54-2.66a1,1,0,0,1,.39-1.39Zm3.08,5.31,2.63-1.51a1,1,0,0,1,1.42.4l1.51,2.62a1,1,0,0,1-.39,1.42L118.35,100a1,1,0,0,1-1.42-.39L115.42,97a1,1,0,0,1,.39-1.42ZM113.52,104l8-4.62a1,1,0,0,1,1.42.39l1.54,2.66a1,1,0,0,1-.36,1.41l-8,4.59a1,1,0,0,1-1.39-.36l-1.54-2.66a1.05,1.05,0,0,1,.36-1.41Zm-1.63-27.47L114.55,75a1.06,1.06,0,0,1,1.42.36l1.5,2.65a1,1,0,0,1-.36,1.42L114.46,81a1.06,1.06,0,0,1-1.39-.39l-1.54-2.69a1,1,0,0,1,.36-1.35ZM115,81.85l2.66-1.51a1,1,0,0,1,1.41.36l1.51,2.63a1.05,1.05,0,0,1-.36,1.42l-2.69,1.54a1,1,0,0,1-1.35-.4l-1.54-2.62a1.06,1.06,0,0,1,.36-1.42Zm3.08,5.37,2.65-1.54a1,1,0,0,1,1.39.33l1.54,2.66a1,1,0,0,1-.36,1.42l-2.66,1.54a1,1,0,0,1-1.38-.39l-1.54-2.66a1,1,0,0,1,.36-1.36Zm3.08,5.31L123.78,91a1,1,0,0,1,1.42.37L126.71,94a1,1,0,0,1-.39,1.42l-2.66,1.54a1,1,0,0,1-1.36-.39l-1.53-2.63a1,1,0,0,1,.36-1.39Zm3.08,5.32,29.34-17a1,1,0,0,1,1.39.39l1.54,2.66a1.09,1.09,0,0,1-.33,1.42l-29.38,16.93a1,1,0,0,1-1.39-.39l-1.54-2.65a1,1,0,0,1,.37-1.39Zm-7-24.39,2.66-1.54a1.06,1.06,0,0,1,1.42.36l1.54,2.66a1.07,1.07,0,0,1-.39,1.41l-2.66,1.51a1,1,0,0,1-1.42-.36l-1.54-2.66a1,1,0,0,1,.39-1.38Zm3.08,5.31L123,77.23a1.07,1.07,0,0,1,1.42.39l1.51,2.63a1,1,0,0,1-.36,1.42l-2.66,1.54a1,1,0,0,1-1.42-.4L120,80.19a1,1,0,0,1,.36-1.42Zm3.08,5.34,2.66-1.54a1.07,1.07,0,0,1,1.42.36L129,85.59a1,1,0,0,1-.37,1.42L126,88.55a1.07,1.07,0,0,1-1.42-.39L123,85.5a1,1,0,0,1,.39-1.39Zm3.08,5.32,2.66-1.51a1,1,0,0,1,1.42.36l1.51,2.62a1,1,0,0,1-.37,1.42L129,93.86a1.05,1.05,0,0,1-1.42-.39l-1.54-2.63a1.06,1.06,0,0,1,.39-1.41Zm-3.86-19.05,2.62-1.51a1,1,0,0,1,1.39.33l1.54,2.66a1.06,1.06,0,0,1-.39,1.42l-2.63,1.5a1.08,1.08,0,0,1-1.42-.36l-1.54-2.65a1,1,0,0,1,.43-1.39Zm3,5.31,2.62-1.51a1,1,0,0,1,1.42.36l1.51,2.63a1,1,0,0,1-.36,1.42l-2.63,1.51a1,1,0,0,1-1.42-.36l-1.51-2.63a1.06,1.06,0,0,1,.37-1.42ZM128.77,81l2.62-1.51a1,1,0,0,1,1.39.34l1.54,2.65a1.05,1.05,0,0,1-.39,1.42l-2.63,1.51a1,1,0,0,1-1.42-.36l-1.54-2.66a1,1,0,0,1,.43-1.39Zm3,5.32,2.63-1.51a1,1,0,0,1,1.42.36l1.51,2.63a1,1,0,0,1-.36,1.41l-2.63,1.54a1,1,0,0,1-1.42-.39l-1.51-2.63a1,1,0,0,1,.36-1.41ZM128,67.27l2.63-1.51a1,1,0,0,1,1.39.36l1.54,2.66a1.05,1.05,0,0,1-.4,1.42l-2.62,1.51a1,1,0,0,1-1.42-.4l-1.51-2.65a1,1,0,0,1,.39-1.39Zm3,5.34,2.63-1.54a1.05,1.05,0,0,1,1.41.39l1.51,2.63a1,1,0,0,1-.36,1.42L133.57,77a1,1,0,0,1-1.42-.39L130.64,74a1,1,0,0,1,.36-1.39ZM134.11,78l2.63-1.51a1,1,0,0,1,1.38.34l1.54,2.65a1,1,0,0,1-.39,1.42l-2.63,1.51a1.05,1.05,0,0,1-1.41-.36l-1.51-2.66a1,1,0,0,1,.39-1.39Zm3,5.32,2.62-1.51a1,1,0,0,1,1.42.36l1.51,2.63a1,1,0,0,1-.36,1.42l-2.63,1.5a1,1,0,0,1-1.41-.36l-1.51-2.62a1,1,0,0,1,.36-1.42Zm-3.9-19,2.66-1.54a1,1,0,0,1,1.39.33l1.54,2.66a1.07,1.07,0,0,1-.39,1.42l-2.66,1.54a1,1,0,0,1-1.36-.4l-1.54-2.65a1,1,0,0,1,.36-1.36Zm3.08,5.31L139,68a1,1,0,0,1,1.39.39L141.93,71a1,1,0,0,1-.39,1.39l-2.66,1.54a1,1,0,0,1-1.39-.39L136,70.92a1,1,0,0,1,.36-1.39Zm3.08,5.35,2.66-1.54a1,1,0,0,1,1.39.36L145,76.35a1.08,1.08,0,0,1-.39,1.42L142,79.28a1,1,0,0,1-1.36-.39l-1.54-2.66a1,1,0,0,1,.36-1.35Zm3.05,5.31,2.69-1.54a1,1,0,0,1,1.39.39l1.54,2.63a1.06,1.06,0,0,1-.4,1.42L145,84.63a1,1,0,0,1-1.39-.43l-1.51-2.62a1,1,0,0,1,.33-1.39Zm-3.86-19,2.65-1.54a1,1,0,0,1,1.36.36l1.54,2.66a1,1,0,0,1-.33,1.39l-2.66,1.54a1.07,1.07,0,0,1-1.42-.4l-1.54-2.65a1,1,0,0,1,.4-1.36Zm3.08,5.31,2.65-1.54a1,1,0,0,1,1.39.4l1.51,2.62a1,1,0,0,1-.36,1.39l-2.66,1.54a1.06,1.06,0,0,1-1.42-.39l-1.51-2.63a1,1,0,0,1,.4-1.39Zm3.08,5.35,2.65-1.54a1,1,0,0,1,1.36.36l1.54,2.66a1,1,0,0,1-.33,1.38L147.3,76.2a1,1,0,0,1-1.39-.36l-1.54-2.66a1,1,0,0,1,.4-1.38Zm3.08,5.31,2.65-1.54a1,1,0,0,1,1.36.39l1.54,2.63A1,1,0,0,1,153,80l-2.66,1.54a1,1,0,0,1-1.42-.37l-1.51-2.62a1,1,0,0,1,.4-1.42ZM144,58l2.63-1.51a1,1,0,0,1,1.39.33l1.54,2.69a1,1,0,0,1-.37,1.39l-2.62,1.54a1.07,1.07,0,0,1-1.42-.39l-1.54-2.66A1,1,0,0,1,144,58ZM147,63.34l2.63-1.51a1,1,0,0,1,1.42.4l1.51,2.62a1,1,0,0,1-.4,1.39l-2.62,1.54a1,1,0,0,1-1.39-.39l-1.54-2.63a1.08,1.08,0,0,1,.39-1.42Zm3.08,5.35,2.63-1.51a1,1,0,0,1,1.38.36l1.54,2.66a1,1,0,0,1-.36,1.41l-2.62,1.51a1.06,1.06,0,0,1-1.42-.39l-1.54-2.65a1,1,0,0,1,.39-1.39ZM153.19,74l2.63-1.54a1,1,0,0,1,1.41.39l1.51,2.63a1,1,0,0,1-.39,1.42l-2.63,1.51a1,1,0,0,1-1.41-.4l-1.51-2.62a1,1,0,0,1,.39-1.39Zm3.05,5.31,2.62-1.54a1.06,1.06,0,0,1,1.42.4l1.54,2.65a1,1,0,0,1-.36,1.42l-2.63,1.51a1.08,1.08,0,0,1-1.41-.36l-1.54-2.66a1.08,1.08,0,0,1,.36-1.42Zm-7-24.39,2.63-1.51a1.06,1.06,0,0,1,1.42.33l1.51,2.66a1,1,0,0,1-.36,1.42l-2.63,1.51a1,1,0,0,1-1.42-.36l-1.54-2.66a1,1,0,0,1,.39-1.39Zm3.08,5.31,2.63-1.5a1,1,0,0,1,1.42.36l1.51,2.62a1.05,1.05,0,0,1-.36,1.42l-2.63,1.51a1,1,0,0,1-1.42-.36L152,61.68a1.06,1.06,0,0,1,.39-1.42Zm9.24,16,2.63-1.51a1.08,1.08,0,0,1,1.42.4l1.51,2.65a1,1,0,0,1-.37,1.42l-2.62,1.51a1,1,0,0,1-1.42-.39l-1.54-2.66a1.06,1.06,0,0,1,.39-1.42Zm-7-24.36,2.68-1.54a1,1,0,0,1,1.39.37l1.54,2.65a1.07,1.07,0,0,1-.39,1.42l-2.66,1.54a1,1,0,0,1-1.38-.42l-1.54-2.66a1,1,0,0,1,.36-1.36Zm3.08,5.32,2.65-1.51a1,1,0,0,1,1.42.36l1.51,2.62a1,1,0,0,1-.36,1.42l-2.66,1.54a1,1,0,0,1-1.39-.39l-1.5-2.63a1,1,0,0,1,.33-1.41Zm6.16,10.68,2.65-1.54a1,1,0,0,1,1.42.36l1.51,2.63a1,1,0,0,1-.36,1.42l-2.66,1.54a1,1,0,0,1-1.39-.39l-1.51-2.63a1,1,0,0,1,.34-1.39Zm3.08,5.31,2.65-1.54A1.1,1.1,0,0,1,171,72l1.51,2.65a1,1,0,0,1-.36,1.42l-2.66,1.54a1,1,0,0,1-1.39-.39l-1.54-2.66a1,1,0,0,1,.37-1.39Zm-7-24.39,2.66-1.54a1,1,0,0,1,1.36.37l1.54,2.65a1.06,1.06,0,0,1-.37,1.42l-2.65,1.51a1,1,0,0,1-1.42-.36l-1.54-2.66a1.05,1.05,0,0,1,.42-1.39ZM163,54.11l2.66-1.54a1,1,0,0,1,1.39.39l1.51,2.63a1,1,0,0,1-.34,1.41l-2.65,1.51a1,1,0,0,1-1.42-.36l-1.51-2.62a1.06,1.06,0,0,1,.36-1.42Zm9.24,16,2.66-1.51a1,1,0,0,1,1.38.39l1.54,2.65a1,1,0,0,1-.36,1.39l-2.66,1.54a1.06,1.06,0,0,1-1.41-.39l-1.54-2.66a1.06,1.06,0,0,1,.39-1.41Zm-6.94-24.37L168,44.17a1,1,0,0,1,1.39.37l1.54,2.65a1.05,1.05,0,0,1-.39,1.42l-2.63,1.51a1.06,1.06,0,0,1-1.42-.36l-1.51-2.69a1,1,0,0,1,.4-1.36Zm9.2,16,2.63-1.51a1,1,0,0,1,1.42.37l1.51,2.62a1,1,0,0,1-.36,1.42l-2.63,1.51a1,1,0,0,1-1.42-.36l-1.51-2.63a1,1,0,0,1,.36-1.42ZM177.61,67l2.63-1.51a1,1,0,0,1,1.42.36l.36.66v3.87l-1.84,1.08a1.06,1.06,0,0,1-1.42-.39l-1.51-2.66a1,1,0,0,1,.36-1.41Zm-7-24.36,2.66-1.54a1,1,0,0,1,1.38.36l1.54,2.65a1.07,1.07,0,0,1-.39,1.42L173.17,47a1,1,0,0,1-1.35-.39L170.28,44a1,1,0,0,1,.36-1.35ZM168.37,51l8-4.62a1,1,0,0,1,1.39.39l1.54,2.63a1.08,1.08,0,0,1-.39,1.42l-8,4.58a1,1,0,0,1-1.42-.36L168,52.45a1,1,0,0,1,.36-1.42Zm3.11,5.34,8-4.62a1,1,0,0,1,1.39.36l1.18,2v2l0,0-8,4.59a1,1,0,0,1-1.42-.36l-1.51-2.66a1,1,0,0,1,.39-1.39Zm8.4,2.23L182,57.37v5.79a1.07,1.07,0,0,1-1-.51L179.51,60a1,1,0,0,1,.37-1.42Zm-3.9-19L178.64,38a1,1,0,0,1,1.39.33L181.57,41a1,1,0,0,1-.37,1.41L178.55,44a1.08,1.08,0,0,1-1.42-.36l-1.54-2.69a1,1,0,0,1,.39-1.35Zm3.08,5.31,2.66-1.54a.9.9,0,0,1,.3-.12v8.87l-3.35-5.79a1.07,1.07,0,0,1,.39-1.42ZM92.81,80.43l2.66-1.51a1,1,0,0,1,1.39.36l1.53,2.63A1,1,0,0,1,98,83.33l-2.65,1.54a1,1,0,0,1-1.42-.4l-1.51-2.62a1.08,1.08,0,0,1,.39-1.42Zm3.08,5.37,2.66-1.54a1,1,0,0,1,1.38.34l1.54,2.65a1.06,1.06,0,0,1-.39,1.42l-2.66,1.54A1.07,1.07,0,0,1,97,89.82L95.5,87.16a1,1,0,0,1,.39-1.36Zm3,5.32,8-4.62a1,1,0,0,1,1.36.39l1.54,2.63a1,1,0,0,1-.37,1.38l-8,4.62a1,1,0,0,1-1.41-.39l-1.51-2.6a1.07,1.07,0,0,1,.36-1.41Zm3.11,5.34,8-4.62a1,1,0,0,1,1.36.36L113,94.86a1,1,0,0,1-.34,1.39l-8,4.62a1.07,1.07,0,0,1-1.42-.37l-1.5-2.65a1,1,0,0,1,.39-1.39Zm3,5.31,8-4.62a1,1,0,0,1,1.36.4l1.54,2.62a1,1,0,0,1-.37,1.39l-8,4.62a1,1,0,0,1-1.42-.36l-1.51-2.63a1.05,1.05,0,0,1,.37-1.42Zm-1.6-27.5,2.62-1.51a1,1,0,0,1,1.42.36l1.51,2.63a1,1,0,0,1-.39,1.42L106,78.68a1,1,0,0,1-1.39-.36l-1.54-2.63a1,1,0,0,1,.4-1.42Z"/><path class="cls-7" d="M108.66,71.28l2.63-1.51a.79.79,0,0,1,1.08.31l1.54,2.65a.81.81,0,0,1-.3,1.12L111,75.36a.79.79,0,0,1-1.08-.3l-1.54-2.66a.81.81,0,0,1,.3-1.12Zm5.31-3,2.66-1.54a.81.81,0,0,1,1.12.31l1.51,2.65a.79.79,0,0,1-.28,1.09l-2.65,1.54a.8.8,0,0,1-1.12-.3l-1.54-2.66a.81.81,0,0,1,.3-1.09Zm5.35-3.11L122,63.59a.85.85,0,0,1,1.12.3l1.54,2.65a.83.83,0,0,1-.3,1.12l-2.66,1.54a.84.84,0,0,1-1.12-.3L119,66.24a.84.84,0,0,1,.31-1.12Zm5.34-3.07,2.63-1.51a.79.79,0,0,1,1.11.3l1.54,2.65a.85.85,0,0,1-.3,1.12L127,66.12a.82.82,0,0,1-1.11-.3l-1.54-2.66a.82.82,0,0,1,.3-1.11ZM130,59l2.63-1.54a.86.86,0,0,1,1.12.3l1.54,2.66A.82.82,0,0,1,135,61.5L132.36,63a.82.82,0,0,1-1.12-.27l-1.54-2.66A.8.8,0,0,1,130,59Zm5.32-3.08L138,54.35a.83.83,0,0,1,1.12.3l1.54,2.66a.82.82,0,0,1-.3,1.11L137.67,60a.84.84,0,0,1-1.12-.3L135,57a.84.84,0,0,1,.31-1.11Zm5.37-3.08,2.66-1.54a.79.79,0,0,1,1.05.3l1.54,2.66a.79.79,0,0,1-.27,1.11L143,56.85a.83.83,0,0,1-1.11-.27l-1.51-2.65a.8.8,0,0,1,.3-1.12ZM162,40.46l2.66-1.54a.81.81,0,0,1,1.09.33l1.54,2.66a.79.79,0,0,1-.27,1.09l-2.66,1.54a.83.83,0,0,1-1.12-.3l-1.54-2.66a.84.84,0,0,1,.3-1.12Zm5.35-3.08L170,35.87a.8.8,0,0,1,1.12.31l1.54,2.65a.8.8,0,0,1-.3,1.09l-2.63,1.54a.83.83,0,0,1-1.11-.3l-1.54-2.66a.85.85,0,0,1,.3-1.12Zm5.31-3.08,2.66-1.54a.86.86,0,0,1,1.12.31L178,35.72a.82.82,0,0,1-.3,1.12l-2.65,1.54a.84.84,0,0,1-1.12-.3l-1.51-2.66a.83.83,0,0,1,.27-1.12ZM101.05,82.81l2.66-1.54a.78.78,0,0,1,1.08.28l1.54,2.65a.82.82,0,0,1-.3,1.12l-2.65,1.54a.86.86,0,0,1-1.12-.3l-1.54-2.66a.81.81,0,0,1,.33-1.09Zm7,24.4,2.65-1.54a.81.81,0,0,1,1.12.3l1.51,2.65a.83.83,0,0,1-.27,1.12l-2.66,1.51a.82.82,0,0,1-1.12-.27l-1.54-2.66a.82.82,0,0,1,.31-1.11Zm-1.6-27.47L109,78.2a.8.8,0,0,1,1.09.27l1.54,2.65a.81.81,0,0,1-.3,1.12l-2.63,1.51a.81.81,0,0,1-1.12-.3l-1.54-2.66a.77.77,0,0,1,.34-1.05Zm3,5.31,2.63-1.51a.82.82,0,0,1,1.12.27l1.54,2.66a.79.79,0,0,1-.3,1.08l-2.63,1.51a.82.82,0,0,1-1.12-.24l-1.51-2.65a.82.82,0,0,1,.27-1.12Zm3.11,5.34,2.63-1.51a.78.78,0,0,1,1.09.24l1.54,2.69a.78.78,0,0,1-.31,1.09l-2.62,1.54a.86.86,0,0,1-1.12-.31l-1.54-2.65a.81.81,0,0,1,.33-1.09Zm3,5.31,2.63-1.51a.8.8,0,0,1,1.12.31l1.54,2.65a.76.76,0,0,1-.31,1.06L118,99.75a.83.83,0,0,1-1.12-.27l-1.51-2.66a.83.83,0,0,1,.27-1.12Zm-2.26,8.4,8-4.59a.8.8,0,0,1,1.12.3l1.54,2.66a.8.8,0,0,1-.31,1.11l-8,4.59a.82.82,0,0,1-1.11-.3L113,105.21a.83.83,0,0,1,.3-1.11Zm-1.6-27.47,2.63-1.51a.78.78,0,0,1,1.08.27L117,78a.84.84,0,0,1-.3,1.12l-2.63,1.51a.83.83,0,0,1-1.11-.3l-1.54-2.66a.8.8,0,0,1,.33-1.08Zm3.08,5.31,2.62-1.51a.8.8,0,0,1,1.09.3l1.54,2.66a.76.76,0,0,1-.3,1.08L117.14,86a.75.75,0,0,1-1.08-.27l-1.54-2.65a.81.81,0,0,1,.3-1.12Zm3.08,5.37,2.62-1.54a.79.79,0,0,1,1.09.27l1.54,2.66a.83.83,0,0,1-.3,1.12l-2.63,1.51a.82.82,0,0,1-1.12-.3l-1.53-2.66a.76.76,0,0,1,.33-1.06ZM121,92.63l2.62-1.51a.78.78,0,0,1,1.09.27L126.23,94a.8.8,0,0,1-.3,1.09l-2.63,1.51a.78.78,0,0,1-1.09-.24l-1.54-2.66a.79.79,0,0,1,.31-1.11Zm3,5.31L153.37,81a.81.81,0,0,1,1.12.3L156,84a.84.84,0,0,1-.31,1.12L126.38,102a.87.87,0,0,1-1.12-.3l-1.54-2.66a.82.82,0,0,1,.31-1.11Zm-7-24.36L119.71,72a.79.79,0,0,1,1.09.27L122.34,75a.8.8,0,0,1-.31,1.11l-2.65,1.51a.83.83,0,0,1-1.12-.27l-1.51-2.69a.74.74,0,0,1,.3-1Zm3.08,5.31,2.66-1.54a.83.83,0,0,1,1.11.3l1.51,2.66a.77.77,0,0,1-.3,1.09l-2.65,1.5a.76.76,0,0,1-1.09-.24L119.83,80a.83.83,0,0,1,.3-1.12Zm3.08,5.34,2.66-1.54A.77.77,0,0,1,127,83l1.54,2.65a.83.83,0,0,1-.3,1.12l-2.65,1.54a.87.87,0,0,1-1.12-.3l-1.51-2.66a.77.77,0,0,1,.3-1.09Zm3.08,5.32L129,88a.84.84,0,0,1,1.11.3L131.57,91a.77.77,0,0,1-.3,1.09l-2.66,1.54a.78.78,0,0,1-1.08-.27L126,90.66a.8.8,0,0,1,.3-1.11ZM122.4,70.47,125.05,69a.78.78,0,0,1,1.09.24l1.54,2.66a.8.8,0,0,1-.3,1.11l-2.66,1.54a.8.8,0,0,1-1.09-.3l-1.54-2.66a.76.76,0,0,1,.31-1.08Zm3.07,5.34,2.66-1.54a.81.81,0,0,1,1.12.3l1.54,2.66a.78.78,0,0,1-.33,1.06l-2.66,1.54a.76.76,0,0,1-1.09-.28l-1.54-2.65a.8.8,0,0,1,.3-1.09Zm3.08,5.34,2.66-1.54a.76.76,0,0,1,1.09.28l1.54,2.65a.82.82,0,0,1-.3,1.12l-2.66,1.51a.78.78,0,0,1-1.09-.3l-1.54-2.66a.75.75,0,0,1,.3-1.06Zm3.08,5.32,2.66-1.54a.84.84,0,0,1,1.12.3L137,87.89a.8.8,0,0,1-.34,1.08L134,90.48a.78.78,0,0,1-1.09-.24l-1.54-2.66a.82.82,0,0,1,.3-1.11Zm-3.89-19.08,2.63-1.51a.82.82,0,0,1,1.11.27L133,68.81a.83.83,0,0,1-.27,1.11l-2.63,1.51a.82.82,0,0,1-1.11-.3l-1.54-2.65a.82.82,0,0,1,.3-1.09Zm3.08,5.31,2.62-1.51a.83.83,0,0,1,1.12.3l1.54,2.66a.82.82,0,0,1-.33,1.09l-2.63,1.51a.77.77,0,0,1-1.08-.28l-1.54-2.65a.84.84,0,0,1,.3-1.12ZM133.9,78l2.62-1.5a.81.81,0,0,1,1.12.27l1.51,2.65a.81.81,0,0,1-.3,1.12l-2.6,1.51a.82.82,0,0,1-1.11-.3l-1.54-2.66a.8.8,0,0,1,.3-1.09ZM137,83.36l2.62-1.51a.84.84,0,0,1,1.12.3l1.54,2.66a.8.8,0,0,1-.33,1.08L139.3,87.4a.77.77,0,0,1-1.09-.27l-1.53-2.66a.78.78,0,0,1,.3-1.08Zm-3.87-19,2.63-1.51a.8.8,0,0,1,1.09.24l1.54,2.66a.86.86,0,0,1-.31,1.12l-2.62,1.5a.81.81,0,0,1-1.12-.27l-1.54-2.65a.79.79,0,0,1,.33-1.09Zm3,5.31,2.63-1.51a.81.81,0,0,1,1.12.3l1.54,2.66a.78.78,0,0,1-.34,1.06l-2.62,1.54a.77.77,0,0,1-1.09-.27l-1.54-2.66a.81.81,0,0,1,.3-1.12ZM139.24,75l2.66-1.51a.78.78,0,0,1,1.08.27l1.54,2.65a.87.87,0,0,1-.3,1.12L141.6,79a.8.8,0,0,1-1.12-.3l-1.54-2.66a.79.79,0,0,1,.3-1.08Zm3.08,5.31L145,78.77a.82.82,0,0,1,1.11.3l1.54,2.66a.8.8,0,0,1-.33,1.08l-2.62,1.51a.76.76,0,0,1-1.09-.27L142,81.4a.81.81,0,0,1,.3-1.12Zm-3.89-19.05,2.65-1.54a.79.79,0,0,1,1.09.27l1.54,2.66a.84.84,0,0,1-.3,1.12l-2.66,1.54a.83.83,0,0,1-1.12-.31l-1.54-2.65a.81.81,0,0,1,.34-1.09Zm3,5.31L144.13,65a.86.86,0,0,1,1.12.31L146.79,68a.83.83,0,0,1-.3,1.09l-2.69,1.54a.8.8,0,0,1-1.09-.27l-1.54-2.66a.86.86,0,0,1,.31-1.12Zm3.1,5.35,2.66-1.51a.79.79,0,0,1,1.09.24l1.54,2.66a.82.82,0,0,1-.3,1.11l-2.66,1.54a.83.83,0,0,1-1.12-.3L144.25,73a.8.8,0,0,1,.33-1.08Zm3,5.34,2.66-1.54a.81.81,0,0,1,1.12.3L153,78.65a.77.77,0,0,1-.33,1L150,81.24a.76.76,0,0,1-1.09-.27l-1.54-2.65a.83.83,0,0,1,.3-1.09Zm-3.86-19.08,2.66-1.54a.77.77,0,0,1,1,.27L149,59.57a.8.8,0,0,1-.27,1.09l-2.66,1.54a.85.85,0,0,1-1.11-.31l-1.54-2.65a.81.81,0,0,1,.33-1.09Zm3,5.31,2.69-1.54a.77.77,0,0,1,1.05.34l1.54,2.65a.79.79,0,0,1-.27,1.06l-2.66,1.54a.82.82,0,0,1-1.11-.27l-1.51-2.66a.83.83,0,0,1,.27-1.12Zm3.11,5.35,2.66-1.54a.75.75,0,0,1,1,.3l1.54,2.66a.78.78,0,0,1-.27,1.08l-2.66,1.54a.82.82,0,0,1-1.11-.3l-1.54-2.66a.8.8,0,0,1,.33-1.08Zm3,5.31,2.65-1.54a.8.8,0,0,1,1.09.33l1.54,2.66a.78.78,0,0,1-.27,1.06l-2.66,1.54a.81.81,0,0,1-1.11-.28l-1.51-2.65a.82.82,0,0,1,.27-1.12Zm3.08,5.31,2.65-1.54a.8.8,0,0,1,1.09.34l1.54,2.65a.79.79,0,0,1-.27,1.09l-2.66,1.54a.84.84,0,0,1-1.12-.3l-1.54-2.66a.83.83,0,0,1,.31-1.12Zm-6.95-24.36,2.63-1.54a.79.79,0,0,1,1.09.27l1.54,2.66a.83.83,0,0,1-.31,1.12l-2.62,1.51a.81.81,0,0,1-1.12-.3l-1.51-2.66a.75.75,0,0,1,.3-1.06Zm3.08,5.32,2.63-1.54a.83.83,0,0,1,1.09.3l1.54,2.65a.77.77,0,0,1-.31,1.09l-2.62,1.51a.78.78,0,0,1-1.09-.24l-1.54-2.66a.8.8,0,0,1,.3-1.11Zm9.21,16L164,74.84a.79.79,0,0,1,1.11.31l1.54,2.65a.85.85,0,0,1-.3,1.12l-2.62,1.51a.84.84,0,0,1-1.12-.3l-1.54-2.66a.87.87,0,0,1,.3-1.12Zm-7-24.36,2.65-1.54a.78.78,0,0,1,1.09.28l1.54,2.65a.81.81,0,0,1-.3,1.12L156.75,56a.78.78,0,0,1-1.06-.33l-1.54-2.66a.73.73,0,0,1,.28-1.06Zm3.08,5.32,2.65-1.54a.84.84,0,0,1,1.12.3l1.51,2.65a.77.77,0,0,1-.3,1.09l-2.66,1.54a.77.77,0,0,1-1.06-.3l-1.54-2.66a.77.77,0,0,1,.28-1.08ZM163.66,68l2.66-1.54a.88.88,0,0,1,1.12.3L169,69.38a.77.77,0,0,1-.3,1.09L166,72a.78.78,0,0,1-1.06-.27l-1.54-2.69a.8.8,0,0,1,.27-1.09Zm3.05,5.32,2.66-1.51a.82.82,0,0,1,1.12.27L172,74.69a.83.83,0,0,1-.3,1.12l-2.66,1.54a.83.83,0,0,1-1.09-.3l-1.51-2.66a.81.81,0,0,1,.24-1.11Zm-6.94-24.37,2.66-1.54a.79.79,0,0,1,1.11.28l1.51,2.65a.78.78,0,0,1-.3,1.09l-2.66,1.54a.77.77,0,0,1-1.08-.3L159.47,50a.77.77,0,0,1,.3-1.06Zm3.08,5.32,2.66-1.54a.83.83,0,0,1,1.11.3l1.54,2.66a.8.8,0,0,1-.33,1.08l-2.66,1.51a.77.77,0,0,1-1.08-.24l-1.54-2.66a.82.82,0,0,1,.3-1.11Zm9.24,16,2.65-1.54a.8.8,0,0,1,1.09.3l1.54,2.65a.8.8,0,0,1-.3,1.12l-2.66,1.54a.79.79,0,0,1-1.08-.3l-1.54-2.66a.79.79,0,0,1,.3-1.11Zm-7-24.4,2.66-1.5a.76.76,0,0,1,1.09.27l1.51,2.65a.78.78,0,0,1-.24,1.09l-2.66,1.54a.83.83,0,0,1-1.12-.3l-1.54-2.66a.84.84,0,0,1,.3-1.09Zm9.24,16L177,60.26a.83.83,0,0,1,1.09.31l1.53,2.65a.79.79,0,0,1-.3,1.09l-2.65,1.51a.78.78,0,0,1-1.09-.24l-1.54-2.66a.84.84,0,0,1,.3-1.12Zm3.08,5.32,2.66-1.54a.78.78,0,0,1,1,.3l.88,1.51v2.47l-2.23,1.33a.86.86,0,0,1-1.12-.3l-1.54-2.66a.82.82,0,0,1,.3-1.11Zm-6.94-24.39,2.62-1.51a.8.8,0,0,1,1.09.27l1.54,2.65a.88.88,0,0,1-.3,1.12l-2.63,1.51a.82.82,0,0,1-1.11-.3l-1.54-2.66a.79.79,0,0,1,.33-1.08Zm-2.3,8.39,8-4.59a.83.83,0,0,1,1.12.3l1.54,2.66a.8.8,0,0,1-.33,1.08l-8,4.59a.8.8,0,0,1-1.09-.27l-1.54-2.66a.84.84,0,0,1,.3-1.11Zm3.08,5.37,8-4.62a.8.8,0,0,1,1.09.27l1.54,2.66a.87.87,0,0,1-.3,1.12l-8,4.59a.8.8,0,0,1-1.12-.31L171,57.55a.8.8,0,0,1,.3-1.06Zm8.43,2.2L182,57.37v5.37a.79.79,0,0,1-1.09-.27l-1.54-2.66a.84.84,0,0,1,.31-1.12Zm-3.9-19,2.66-1.51a.78.78,0,0,1,1.08.24L181.08,41a.81.81,0,0,1-.3,1.11l-2.65,1.54a.83.83,0,0,1-1.12-.3l-1.54-2.66a.8.8,0,0,1,.33-1.08Zm3,5.31,2.66-1.51a1.06,1.06,0,0,1,.51-.12v8.75l-3.44-6a.84.84,0,0,1,.27-1.12ZM92.6,80.55,95.26,79a.82.82,0,0,1,1.11.3L97.91,82a.84.84,0,0,1-.3,1.12L95,84.63a.82.82,0,0,1-1.11-.31L92.3,81.67a.83.83,0,0,1,.3-1.12Zm3.08,5.34,2.65-1.54a.82.82,0,0,1,1.12.28L101,87.28a.86.86,0,0,1-.3,1.12L98,89.94a.82.82,0,0,1-1.11-.3L95.38,87a.82.82,0,0,1,.3-1.09Zm3.08,5.32,8-4.62a.82.82,0,0,1,1.11.3l1.54,2.66a.79.79,0,0,1-.33,1.08l-8,4.62A.8.8,0,0,1,100,95l-1.53-2.66a.81.81,0,0,1,.3-1.11Zm3.08,5.37,8-4.65a.79.79,0,0,1,1.08.27l1.54,2.66a.84.84,0,0,1-.3,1.12l-8,4.61a.79.79,0,0,1-1.12-.3l-1.54-2.65a.79.79,0,0,1,.31-1.06Zm3.08,5.31,8-4.65a.84.84,0,0,1,1.11.31l1.54,2.65a.81.81,0,0,1-.33,1.09l-8,4.62a.77.77,0,0,1-1.09-.27L104.61,103a.8.8,0,0,1,.31-1.09Zm-1.6-27.5,2.62-1.54a.77.77,0,0,1,1.09.3l1.54,2.66a.81.81,0,0,1-.3,1.12l-2.63,1.51a.82.82,0,0,1-1.12-.3L103,75.48a.77.77,0,0,1,.31-1.09Z"/><path class="cls-7" d="M160.77,104.07l-11.45,6.61a2.26,2.26,0,0,1-3.07-.85l-.58-1,13.41-7.73Zm-19.23-6.89,23.75-13.73a2.29,2.29,0,0,1,3.08.84L172.84,92l-27.65,16-4.47-7.76a2.25,2.25,0,0,1,.82-3.08Zm31.82-4.28.54,1a2.24,2.24,0,0,1-.82,3.08l-11.44,6.61L160,100.62Z"/><path class="cls-7" d="M81.58,113.21,83.75,117a1.18,1.18,0,0,1-.42,1.57h0a1.17,1.17,0,0,1-1.57-.43l-2.17-3.77a10.26,10.26,0,1,1,2-1.15Z"/><path class="cls-8" d="M71.13,97.42A8.69,8.69,0,1,1,68,109.29a8.71,8.71,0,0,1,3.17-11.87Z"/><path class="cls-9" d="M71.44,98a8.15,8.15,0,0,1,11.17,3c.78,1.32-4.59.24-8.22,2.2-3.47,1.84-5.13,6.79-5.94,6a8.15,8.15,0,0,1,3-11.17Z"/><path class="cls-10" d="M40.73,76.72,24.85,85.89a1.93,1.93,0,0,0-.69,2.63l18.2,31.58a2,2,0,0,0,2.66.69l15.85-9.15a1.93,1.93,0,0,0,.72-2.65L43.39,77.44a2,2,0,0,0-2.66-.72Z"/><path class="cls-11" d="M41.06,77.71a1.13,1.13,0,0,1,1.54.43l15.55,26.92a1.13,1.13,0,0,1-.42,1.54l-15.49,9a1.13,1.13,0,0,1-1.54-.43L25.15,88.22a1.15,1.15,0,0,1,.4-1.54Z"/><path class="cls-12" d="M42.6,78.14l15.55,26.92a1.13,1.13,0,0,1-.42,1.54l-15.49,9Z"/><path class="cls-11" d="M52.3,111.52l-3.08,1.78a.3.3,0,0,0-.12.43l1.17,2a.3.3,0,0,0,.4.12l3.1-1.81a.27.27,0,0,0,.13-.39l-1.18-2a.3.3,0,0,0-.42-.12Z"/><path class="cls-13" d="M7.55,80.34l-4.8,2.78-1.69-3a1.24,1.24,0,0,1,.46-1.69l2.65-1.54a1.26,1.26,0,0,1,1.69.45Zm-.84-.24L3,82.24,1.61,79.86A.63.63,0,0,1,1.82,79l2.69-1.54a.61.61,0,0,1,.81.24Z"/><path class="cls-10" d="M2.75,83.12,24.4,120.55a1.18,1.18,0,0,0,1.66.45l2.69-1.54a1.23,1.23,0,0,0,.45-1.66L7.55,80.34Z"/><path class="cls-13" d="M7.89,99.75a6.66,6.66,0,1,0,2.44-9.09,6.64,6.64,0,0,0-2.44,9.09Z"/><path class="cls-11" d="M8.67,99.27a5.73,5.73,0,1,0,2.11-7.82,5.77,5.77,0,0,0-2.11,7.82Z"/><path class="cls-12" d="M9.82,98.63a4.39,4.39,0,0,0,6,1.6,4.41,4.41,0,1,0-6-1.6Z"/><path class="cls-13" d="M8.94,99.15h0a.2.2,0,0,0,.27.06L9.55,99a.16.16,0,0,0,.06-.24h0a.19.19,0,0,0-.24-.09L9,98.87a.21.21,0,0,0-.06.28Zm2,2h0a.16.16,0,0,0,.24-.06l.21-.33a.21.21,0,0,0-.06-.28h0a.2.2,0,0,0-.27.06l-.18.37a.15.15,0,0,0,.06.24Zm2.71.75h0a.2.2,0,0,0,.18-.21v-.39a.19.19,0,0,0-.18-.18h0a.2.2,0,0,0-.21.18v.39a.21.21,0,0,0,.21.21Zm2.72-.75h0a.16.16,0,0,0,.06-.24l-.18-.37a.2.2,0,0,0-.27-.06h0a.21.21,0,0,0-.06.28l.18.33a.2.2,0,0,0,.27.06Zm2-2h0a.25.25,0,0,0-.09-.28l-.33-.21a.24.24,0,0,0-.27.09h0a.19.19,0,0,0,.09.24l.33.22a.2.2,0,0,0,.27-.06Zm.73-2.72h0a.21.21,0,0,0-.21-.21h-.4a.2.2,0,0,0-.18.21h0a.19.19,0,0,0,.18.18h.4a.2.2,0,0,0,.21-.18Zm-.73-2.72h0a.24.24,0,0,0-.27-.09l-.33.21a.24.24,0,0,0-.09.27h0a.2.2,0,0,0,.27.06l.33-.21a.19.19,0,0,0,.09-.24Zm-2-2h0a.2.2,0,0,0-.27.06l-.18.33a.2.2,0,0,0,.06.27h0a.2.2,0,0,0,.27-.06l.18-.36a.16.16,0,0,0-.06-.24ZM13.65,91h0a.19.19,0,0,0-.21.19v.39c0,.12.09.18.21.18h0a.17.17,0,0,0,.18-.18v-.39a.18.18,0,0,0-.18-.19Zm-2.71.73h0a.15.15,0,0,0-.06.24l.18.36a.2.2,0,0,0,.27.06h0a.2.2,0,0,0,.06-.27l-.21-.33a.16.16,0,0,0-.24-.06Zm-2,2h0A.16.16,0,0,0,9,94l.37.21a.16.16,0,0,0,.24-.06h0a.2.2,0,0,0-.06-.27l-.34-.21a.24.24,0,0,0-.27.09Zm-.72,2.72h0a.19.19,0,0,0,.18.18h.39A.2.2,0,0,0,9,96.43H9a.21.21,0,0,0-.21-.21H8.4a.2.2,0,0,0-.18.21Z"/><path class="cls-13" d="M13.65,96.43a.23.23,0,0,1-.27.09L11,95.4a.16.16,0,0,1-.09-.24.17.17,0,0,1,.24-.09l2.41,1.09a.23.23,0,0,1,.09.27Z"/><path class="cls-13" d="M13.65,96.43a.17.17,0,0,1,.18.18v3.77a.2.2,0,0,1-.18.21.21.21,0,0,1-.21-.21V96.61c0-.12.09-.18.21-.18Z"/><path class="cls-13" d="M13.38,96.58a.3.3,0,0,0,.42.12.34.34,0,0,0,.12-.45.33.33,0,0,0-.42-.12.34.34,0,0,0-.12.45Z"/><path class="cls-14" d="M18.54,105.73a.42.42,0,0,0,.58.18.45.45,0,0,0,.15-.61.41.41,0,0,0-.58-.15.42.42,0,0,0-.15.58ZM25,117a.45.45,0,0,0,.61.15.41.41,0,0,0,.15-.58.41.41,0,0,0-.57-.15A.42.42,0,0,0,25,117Zm-1.29-2.27a.48.48,0,0,0,.6.18.44.44,0,0,0-.45-.75.43.43,0,0,0-.15.57Zm-1.3-2.23a.44.44,0,1,0,.75-.45.46.46,0,0,0-.6-.16.45.45,0,0,0-.15.61Zm-1.3-2.27a.4.4,0,0,0,.57.16.42.42,0,0,0,.18-.58.45.45,0,0,0-.6-.18.44.44,0,0,0-.15.6ZM19.84,108a.41.41,0,0,0,.58.15.4.4,0,0,0,.15-.57.41.41,0,0,0-.58-.15.4.4,0,0,0-.15.57Z"/><polygon class="cls-13" points="3.33 79.28 4.75 81.76 5.2 81.49 3.78 79.01 3.33 79.28"/><path class="cls-13" d="M2.06,83.45h0a.61.61,0,0,0,.81.21l5.26-3a.55.55,0,0,0,.21-.78h0a.54.54,0,0,0-.79-.22l-5.28,3a.64.64,0,0,0-.21.82Z"/><path class="cls-15" d="M22.86,77.26c-.27-.94-.54-1.9-.81-2.87a62.3,62.3,0,0,1,7.66-7.67c-3.56,1.76-7.09,3.54-10.65,5.29-.15-.76-.31-1.48-.43-2.24,4.95-2.5,10.27-4.4,15.22-6.91.27.69.21.73.51,1.42-2.23,1.36-3.08,1.75-4.56,4.17-1.75,2.83-3.47,5.67-5.22,8.48-.57.12-1.15.24-1.72.33ZM55.19,58.6c-.69-.72-1.39-1.41-2.08-2.14a62.67,62.67,0,0,0-10.48,2.81c3.3-2.21,6.62-4.38,9.91-6.58-.58-.52-1.15-1-1.72-1.51-4.65,3-8.94,6.7-13.59,9.72.42.6.51.57,1,1.18,2.29-1.27,3-1.82,5.88-1.88l10-.27,1.14-1.33Z"/><path class="cls-10" d="M34.27,59.69A77.15,77.15,0,0,0,16.52,70.41c-.42.33-.21.87.09,1.27a6.08,6.08,0,0,0,.39.54.9.9,0,0,0,1.09.36c.33-.18.63-.36,1-.57.9,1,1.78,2,2.68,2.93,0,.75,1,5.43,2.27,3.07.18-.36.39-.72.57-1.08,2.9.3,11-4.14,10.6-7.94-.18-1.63-.36-3.26-.55-4.89.55-.3,1.09-.61,1.63-.94s1.09-.63,1.67-.93c1.29,1,2.62,1.93,4,2.89,3.08,2.27,11-2.53,12.17-5.19.39,0,.81,0,1.23,0,2.66.06-.9-3.11-1.54-3.5-.39-1.27-.81-2.5-1.2-3.77l1-.55c.37-.21.37-.78.21-1.14s-.18-.43-.27-.61c-.21-.45-.54-.9-1-.72a78,78,0,0,0-18.15,10Zm9.12-5.25c-3.53,1.84-6.88,4.44-4.68,7.33l3.56,2.84c2.39,2.24,13.2-2.78,11.14-7.27-.48-1.33-1-2.63-1.45-4-1.11-3.08-6.91.18-8.57,1.06ZM25.15,65c3.36-2.14,7.28-3.74,8.7-.39.21,1.48.45,3,.66,4.5.76,3.2-9,10-11.86,6-.91-1.09-1.81-2.18-2.72-3.26C17.85,69.35,23.55,66,25.15,65Z"/><path class="cls-16" d="M61.2,79.67l6.85-4a2.62,2.62,0,0,1,3.54,1h0a2.6,2.6,0,0,1-.94,3.5l-6.88,4Z"/><path class="cls-17" d="M61.2,79.67l6.85-4a2.62,2.62,0,0,1,3.54,1L62.5,81.91Z"/><polygon class="cls-16" points="63.77 84.11 61.2 79.67 60.36 80.16 62.92 84.63 63.77 84.11"/><polygon class="cls-12" points="60.39 85.5 58.3 81.91 60.6 80.61 62.68 84.17 60.39 85.5"/><polygon class="cls-11" points="60.39 85.5 59.33 83.72 61.62 82.39 62.68 84.17 60.39 85.5"/><polygon class="cls-16" points="60.6 84.66 60.17 83.93 60.57 83.69 60.99 84.44 60.6 84.66"/><polygon class="cls-16" points="59.57 82.88 59.15 82.15 59.54 81.91 59.96 82.63 59.57 82.88"/><path class="cls-16" d="M58.21,81.4l-1.39.78a2.62,2.62,0,0,0-.93,3.53h0a2.63,2.63,0,0,0,3.53.94l1.36-.79Z"/><path class="cls-17" d="M58.21,81.4l-1.39.78a2.62,2.62,0,0,0-.93,3.53l3.59-2.08Z"/><path class="cls-18" d="M134.92,122.33c-.51-2.2-1-4.41-1.54-6.61-.6-1-1.23-1.9-1.84-2.84a52.4,52.4,0,0,1-7.45-11.32c-2.63-4.5-4.29-6.55-6.8-10.2-1.29-1.75,1.75-4.5,3.51-2.12l4.4,5.05a.25.25,0,0,0,.37-.31l-4.14-5.55-1.87-2.51-.61-.81c-1.84-2.45,2.21-5,3.78-2.81,1.14,1.54,5.16,6.91,6.31,8.45a.2.2,0,0,0,.27.06.17.17,0,0,0,0-.27c-.06-.12-6.67-11.71-7.13-12.34-1.69-2.66,2.48-5.41,4.14-2.87,2.05,3.14,5.28,10.2,7.37,13.34.3.54.69.18.57-.24a119.91,119.91,0,0,1-4-13.25,2.32,2.32,0,1,1,4.58-.7c1.33,4.35,3.78,10.18,5.41,14.22,1.51,2.81,1.54,3.23,3.32,6.25.27.54.6.42.57.06-.45-1.87-.9-2.66-1.42-4.59-.57-.93-1.14-1.84-1.75-2.75-2.47-3.35-.21-6.33,1.06-4.83a13.1,13.1,0,0,0,3,2.39,10,10,0,0,1,3.2,4.2,47.54,47.54,0,0,0,2.84,7.6c1,1.87-2,8.09-3,9.87.36,3,.6,6.28,1.84,9l-15.07,6.43Z"/><path class="cls-19" d="M144.58,89.06a48.48,48.48,0,0,1,5.14,14.67c1.05-2.47,2.08-5.49,1.42-6.7a47.54,47.54,0,0,1-2.84-7.6,10,10,0,0,0-3.2-4.2,13.1,13.1,0,0,1-3-2.39,1.94,1.94,0,0,0-.27-.24,4.73,4.73,0,0,0,1,3.72ZM125.2,94.29l-4.4-5.05a2,2,0,0,0-1.85-.9A1.59,1.59,0,0,0,119.1,90c1.39,2,2.51,3.53,3.69,5.25ZM129,90.75l-6.31-8.45a2.06,2.06,0,0,0-2.21-.75,1.94,1.94,0,0,0,.25,2.2l.6.85,1.87,2.47,3.5,4.74,2.42-1a.16.16,0,0,1-.12-.09Zm4.4-2.47c-2.05-3.32-5.13-9.93-7.09-13a2.1,2.1,0,0,0-2.38-.94,2.28,2.28,0,0,0,.06,2.48c.45.6,7.06,12.19,7.12,12.31Zm6.86.42c-1.63-4-4.08-9.87-5.41-14.22a2.32,2.32,0,0,0-2.65-2,2.31,2.31,0,0,0-.12,1.3,119.26,119.26,0,0,0,4,13.25l5.8,4.8c-.45-.88-.82-1.69-1.6-3.17Z"/><polygon class="cls-20" points="135.35 125.44 135.56 126.28 154.73 126.28 151.98 116.96 135.35 125.44"/><polygon class="cls-21" points="143.68 121.18 145.01 126.28 154.73 126.28 151.98 116.96 143.68 121.18"/><polygon class="cls-20" points="131.36 118.38 150.02 108.69 154 119.1 136.49 126.28 134.05 126.28 131.36 118.38"/><polygon class="cls-21" points="144.98 111.28 150.02 108.69 154 119.1 144.16 123.11 144.98 111.28"/><polygon class="cls-22" points="144.49 124.26 153.43 121.88 152.77 119.58 144.16 123.11 144.49 124.26"/><polygon class="cls-23" points="144.49 124.26 144.16 123.11 136.49 126.28 136.98 126.28 144.49 124.26"/><path class="cls-18" d="M182,78.92c-.6-1.09-1.27-2.26-2.08-3.65-2.45-4.62-3.32-7.1-5.11-11.14-.81-2-4.73-.88-3.65,1.87l2,6.37a.24.24,0,0,1-.45.15l-2.56-6.43L169,63.19l-.36-1c-1.12-2.84-5.38-.73-4.41,1.75.72,1.78,3.2,8,3.92,9.81a.24.24,0,0,1-.12.27.2.2,0,0,1-.24-.12c-.06-.12-6.46-11.83-6.76-12.56-1.36-2.84-5.89-.72-4.62,2,1.6,3.38,5.92,9.88,7.52,13.26.27.57-.25.69-.55.36a132.16,132.16,0,0,0-9.17-10.36,2.33,2.33,0,1,0-3,3.57c3,3.41,6.67,8.57,9.26,12,1.57,2.78,1.94,3,3.57,6.13.33.51,0,.72-.27.51-1.33-1.36-1.79-2.17-3.14-3.62-.49-1-1-1.93-1.42-2.93-1.54-3.86-5.29-3.5-4.68-1.63a13.76,13.76,0,0,1,.45,3.8,10.06,10.06,0,0,0,1.87,5,43,43,0,0,1,5,6.4c1.09,1.84,7.94,2.56,10,2.62,2.32,1.9,5,3.84,6.67,6.34l3.5-2.47Z"/><path class="cls-19" d="M158.53,86.13a48.89,48.89,0,0,0,9.78,12.05c-2.65-.36-5.76-1.09-6.46-2.29a43,43,0,0,0-5-6.4,10.06,10.06,0,0,1-1.87-5,13.76,13.76,0,0,0-.45-3.8,1.51,1.51,0,0,1-.06-.36,4.64,4.64,0,0,1,2.62,2.84Zm14.64-13.76-2-6.37a2,2,0,0,1,.18-2,1.56,1.56,0,0,1,1.36,1c1,2.24,1.69,4,2.54,5.89Zm-5,1.42L164.24,64a2.1,2.1,0,0,1,.54-2.27,2,2,0,0,1,1.75,1.36l.4,1,1.14,2.87,2.18,5.49-2.09,1.54v-.15Zm-4.43,2.44C162,72.76,158,66.66,156.42,63.4a2.21,2.21,0,0,1,.45-2.53A2.33,2.33,0,0,1,159,62.23c.3.69,6.67,12.4,6.73,12.55Zm-3.24,6c-2.59-3.47-6.27-8.63-9.26-12a2.31,2.31,0,0,1-.28-3.29,2.35,2.35,0,0,1,1.18.57,122.07,122.07,0,0,1,9.18,10.35l1,7.46c-.49-.85-1-1.6-1.82-3Z"/><polygon class="cls-20" points="182.02 111.13 178.37 107.08 182.02 104.85 182.02 111.13"/><polygon class="cls-21" points="182.02 111.13 178.37 107.08 182.02 104.85 182.02 111.13"/><polygon class="cls-20" points="182.02 95.31 172.36 101.05 179.12 109.92 182.02 107.81 182.02 95.31"/><polygon class="cls-21" points="177.25 98.15 172.36 101.05 179.12 109.92 182.02 107.81 182.02 100.66 177.25 98.15"/><polygon class="cls-22" points="182.02 110.71 181.81 110.89 180.21 109.14 182.02 107.81 182.02 110.71"/></g></g></svg>