<svg xmlns="http://www.w3.org/2000/svg" viewBox="0 0 383.96 357.33"><defs><style>.cls-1{fill:#fff;fill-rule:evenodd;}</style></defs><title>Asset 1</title><g id="Layer_2" data-name="Layer 2"><g id="Layer_1-2" data-name="Layer 1"><path class="cls-1" d="M211.22,93.91c-.3,1.46,1.25,1.9,1.5.22,3.49-21.87,6.34-43.57,14.88-70.67,2.5-7.16,3.63-13.17,9-20.21,1-1.19,5.37-7.26,8.26,1.08,5.17,15.11.81,48.08-1.19,64.81l-1.06,7.4c-.15,1-1,.7-1,0l-.32-4.74c-.44-1.33-.61-2.82-2.5-1.94-6.31,5.2-13.87,25.37-18.34,36.8-16.1,43.51-18.75,60.12-26.69,97.14-.27,1.64-2.13,1.87-2-.13L206.64,80.37a107.26,107.26,0,0,1,4.05-18.16c1.32-3.88,1.68-.1,1.73.34C213.2,73.92,211.95,83.18,211.22,93.91Z"/><path class="cls-1" d="M199.58,341.2c6.58,10,14.12,13.08,20.44,15.52a17.8,17.8,0,0,0,11.93-.91c.93-.69,4.59-3,2.37-9.34-1.3-3.31-3.61-7.16-9.49-12l-7.2-5.55c-.49-.35-.3-1.33.61-.83,4.77,3.05,6.47,4.33,9.35,3.12,1.7-1.79,3-3.47,3.58-9.29.53-16.82-7.44-50.07-21.09-79.37l-7.55-14.25c-2.28-3.39-10.59-2.28-9.69,5.45l8.79,94-1,8.93c-1.26.78-1.87-.38-3.79-2.79-.75-.73-1.24-.08-1,.58Z"/><path class="cls-1" d="M260.5,101.56c-.58,3.25,3.05,3.4,4.36,1,8.93-19.65,16.61-46.88,35.21-66.76,5.56-4.47,7.17-.43,7.3,1.84,2.26,20-13,59.58-20.06,79.08-1.31,3.29-3,1.35-2.62-.45.74-3.84,2.37-8.91.68-14.51-.24-2.16-2.31-5.16-7.45-4.19-5.34,1.21-7.15,3.07-10.71,5.42-4.13,4.24-4.87,6.2-6.48,10.55l-5.36,15c-.49,1.11-1.29.78-.83-.63l3.78-15.23c.06-1-.88-2.13-2.23-.24C224.23,144.82,206.83,180.17,200,200l-1.72,5.36c-.74,1.67-2.06.76-1.85-.36a255.23,255.23,0,0,1,6.21-24.85c7.87-22.9,14.41-42.31,28.89-68.28,6.39-10.36,12.66-23.13,23.24-31.37.39-.23,5-3.61,6.51,2.19C262.34,86.14,261.53,95,260.5,101.56Z"/><path class="cls-1" d="M313.76,142c-2.59,3.29-9.57,2.79-8.06-1.79a26,26,0,0,0,1.58-9.8c0-3.11-.32-9.77-9.51-10-12.56-.1-29.48,11.33-34.8,14.81-10.31,6.93-17.17,13.8-25.61,21.13A164.31,164.31,0,0,0,202.16,204l-1.65,3.83c-.59,1.26,1,1.7,1.56.66,7.89-11.92,18.32-27.17,41.33-41.64,12.54-7.43,34-21,57.8-22.35,2.35-.07,2.81.71,2.34,1.92l-9.29,19c-.59,1.21.84,1.64,1.42.46l13-17.42a5,5,0,0,1,5.67-2.06c4.51,2,8.61,6.08,6.1,15.77L318,169.34c-.65,2.24,2.72,3,3.48,2.07,11.08-14.35,22.42-28.16,32.48-46.77,2.76-5.22,6.27-10.92,8-18.88.2-1.23,2-8-4.5-6.34C345.43,103.75,324.31,128.29,313.76,142Z"/><path class="cls-1" d="M322.64,234.1c-1.21,1.22.83,3.1,1.87,2.43,19.72-11.5,45.52-32.37,56-45.9l2.94-5.06c1.3-3.3.37-5.52-3.69-5.2-15.91,2.19-36.11,17-47.33,24.55-4.21,2.57-8.53.12-6.7-3.92,1.29-2.74,6.44-10.14,2.4-18.93-1.63-4-9.51-10-21.77-10.87-16.39-2.25-28.58,1-38.56,3-18.38,4-28.65,9.88-38.86,15.26-11,6.57-18.42,13.38-22.94,19.18l-2.79,3.84a.7.7,0,0,0,1,.94c3.31-3.35,6.44-6.86,12.1-9.93,7.19-3.75,22-12,48.59-12.72,9.37-.08,25-.32,40.2,4.5,8.25,2.18,11.14,4.43,16.6,7.79,1.58,1.24.65,3.53-.4,4.49a101.54,101.54,0,0,1-11.83,12.89c-.51.44,0,1.11.54.72L325.16,210c1.33-1.12,2.58-1.26,3.38.54a15.65,15.65,0,0,1,1.34,11.35C328,228.44,325.37,230.86,322.64,234.1Z"/><path class="cls-1" d="M203.81,217.23c-1.84,1-.32,2.75.78,1.93,7.27-4.08,14-4.69,20.29-4.39,24.6,3,39.28,12.43,53.22,20.48,10.34,6.17,17.52,13.61,25.34,22.06a39.7,39.7,0,0,1,5.36,8.35c1.39,2.63.23,3.82-1.26,4.49l-5.27,2.77c-.72.26-.37.86.22.66l6.66-2.2c1.6-.51,1.78.21,2,1.36.69,6.72-1.53,10-2.18,11.11-4.06,5.71-8.25,7.07-11.13,8.46l-3.64,1.4c-.56.19-.37.87.14.7l12.19-2.67,21.23-5.85c12.26-4.29,24.2-7.45,35.85-16.59,1.34-1.22,2.69-2.12,3.55-4.39.33-.5.56-2.37-1.69-3.29a17.45,17.45,0,0,0-5.89-1.05c-15.45.44-31.42,4.9-40.32,7.71l-6,1.83c-1.47.56-2.79-1.72-1.4-2.66,3.6-2.78,6.72-4.37,9.91-10.28a15.11,15.11,0,0,0,1-13.53c-1.64-4.94-10.62-16.59-25.13-22.94A130.88,130.88,0,0,0,239,206.63c-11.75,0-18.9,1.89-25.51,4.61A35.27,35.27,0,0,0,203.81,217.23Z"/><path class="cls-1" d="M203.16,221.94c-2,.19-2,3.43-.35,3.45,12,3.58,20.72,13.53,26.83,20.27,13.76,15,20.31,28.27,28.18,42.37a103.55,103.55,0,0,1,8.82,22.34,30.21,30.21,0,0,1,1.06,12.07c-1.05,6.71-4.71,7.07-7.41,7.89a11,11,0,0,1-2.52.18c-.75-.12-.87.71-.2.79,12.6,3,26.56,5.93,46.14,3.74,2.29-.42,6.83-.87,10.92-3.89.62-.61,3.26-2.89-.52-6-10.72-7.13-32.05-8.16-35-8.43-1.46-.12-.45-1.34.22-1.85,2.92-1.21,10.58-3,11.6-11.59.58-6.82-3.51-18.35-11.58-29.63-10.62-16.56-24-26.43-36.83-36.86-9-6-16.11-12.82-31.15-15.16A23.49,23.49,0,0,0,203.16,221.94Z"/><path class="cls-1" d="M172.74,93.91c.3,1.46-1.25,1.9-1.5.22-3.49-21.87-6.34-43.57-14.88-70.67-2.5-7.16-3.63-13.17-9-20.21-1-1.19-5.37-7.26-8.26,1.08-5.17,15.11-.81,48.08,1.19,64.81l1.06,7.4c.15,1,1,.7,1,0l.32-4.74c.44-1.33.61-2.82,2.5-1.94,6.31,5.2,13.87,25.37,18.34,36.8,16.1,43.51,18.75,60.12,26.69,97.14.27,1.64,2.13,1.87,2-.13L177.32,80.37a107.27,107.27,0,0,0-4.05-18.16c-1.32-3.88-1.68-.1-1.73.34C170.77,73.92,172,83.18,172.74,93.91Z"/><path class="cls-1" d="M184.38,341.2c-6.58,10-14.12,13.08-20.44,15.52a17.8,17.8,0,0,1-11.93-.91c-.93-.69-4.59-3-2.37-9.34,1.3-3.31,3.61-7.16,9.49-12l7.2-5.55c.49-.35.3-1.33-.61-.83-4.77,3.05-6.47,4.33-9.35,3.12-1.7-1.79-3-3.47-3.58-9.29-.53-16.82,7.44-50.07,21.09-79.37l7.55-14.25c2.28-3.39,10.59-2.28,9.69,5.45l-8.79,94,1,8.93c1.26.78,1.87-.38,3.79-2.79.75-.73,1.24-.08,1,.58Z"/><path class="cls-1" d="M123.46,101.56c.58,3.25-3.05,3.4-4.36,1C110.18,82.9,102.49,55.68,83.89,35.8c-5.56-4.47-7.17-.43-7.3,1.84-2.26,20,13,59.58,20.06,79.08,1.31,3.29,3,1.35,2.62-.45-.74-3.84-2.37-8.91-.68-14.51.24-2.16,2.31-5.16,7.45-4.19,5.34,1.21,7.14,3.07,10.71,5.42,4.13,4.24,4.87,6.2,6.48,10.55l5.27,14.74c.44.92,1.2.42.93-.36l-3.78-15.23c-.06-1,.88-2.13,2.23-.24C159.73,144.82,177.14,180.17,184,200l1.72,5.36c.74,1.67,2.06.76,1.85-.36a255.23,255.23,0,0,0-6.21-24.85c-7.87-22.9-14.41-42.31-28.89-68.28-6.39-10.36-12.66-23.13-23.24-31.37-.39-.23-5-3.61-6.51,2.19C121.62,86.14,122.43,95,123.46,101.56Z"/><path class="cls-1" d="M70.2,142c2.59,3.29,9.57,2.79,8.06-1.79a26,26,0,0,1-1.58-9.8c0-3.11.32-9.77,9.51-10,12.56-.1,29.48,11.33,34.8,14.81,10.31,6.93,17.17,13.8,25.61,21.13A164.31,164.31,0,0,1,181.8,204l1.65,3.83c.59,1.26-1,1.7-1.56.66-7.89-11.92-18.32-27.17-41.33-41.64-12.54-7.43-34-21-57.8-22.35-2.35-.07-2.81.71-2.34,1.92l9.39,18.67a.86.86,0,1,1-1.52.75l-13-17.42a5,5,0,0,0-5.67-2.06c-4.51,2-8.61,6.08-6.1,15.77l2.45,7.17c.65,2.24-2.72,3-3.48,2.07C51.38,157.06,40,143.25,30,124.64c-2.76-5.22-6.27-10.92-8-18.88-.2-1.23-2-8,4.5-6.34C38.54,103.75,59.65,128.29,70.2,142Z"/><path class="cls-1" d="M61.32,234.1c1.21,1.22-.83,3.1-1.87,2.43-19.72-11.5-45.52-32.37-56-45.9L.55,185.58c-1.3-3.3-.37-5.52,3.69-5.2,15.91,2.19,36.11,17,47.33,24.55,4.21,2.57,8.53.12,6.7-3.92-1.29-2.74-6.44-10.14-2.4-18.93,1.63-4,9.51-10,21.77-10.87,16.39-2.25,28.58,1,38.56,3,18.38,4,28.77,9.19,38.86,15.26,11,6.57,18.42,13.38,22.94,19.18l2.79,3.84a.7.7,0,0,1-1,.94A51,51,0,0,0,167,204.25c-7.19-3.75-21.35-12.79-48-13.47-9.37-.08-25-.32-40.2,4.5-8.25,2.18-11.14,4.43-16.6,7.79-1.58,1.24-.65,3.53.4,4.49A101.55,101.55,0,0,0,74.5,220.45c.51.44,0,1.11-.54.72L58.8,210c-1.33-1.12-2.58-1.26-3.38.54a15.65,15.65,0,0,0-1.34,11.35C56,228.44,58.59,230.86,61.32,234.1Z"/><path class="cls-1" d="M180.15,216.93a.8.8,0,0,1-.67,1.42c-9.91-3.35-18.59-3.21-25-2.93-24.83,2.51-34.73,11.78-48.67,19.83-10.34,6.17-17.52,13.61-25.34,22.06a39.7,39.7,0,0,0-5.36,8.35c-1.39,2.63-.23,3.82,1.26,4.49l5.27,2.77c.72.26.37.86-.22.66l-6.66-2.2c-1.6-.51-1.78.21-2,1.36-.69,6.72,1.53,10,2.18,11.11,4.06,5.71,8.25,7.07,11.13,8.46l3.64,1.4c.56.19.37.87-.14.7l-12.19-2.67L56.2,285.89C43.94,281.6,32,278.44,20.35,269.3c-1.34-1.22-2.69-2.12-3.55-4.39-.33-.5-.56-2.37,1.69-3.29a17.45,17.45,0,0,1,5.89-1.05c15.45.44,31.42,4.9,40.32,7.71l6,1.83c1.47.56,2.79-1.72,1.4-2.66-3.6-2.78-6.72-4.37-9.91-10.28a15.11,15.11,0,0,1-1-13.53c1.64-4.94,10.62-16.59,25.13-22.94A130.88,130.88,0,0,1,145,206.63c11.75,0,18.9,1.89,25.51,4.61A36.92,36.92,0,0,1,180.15,216.93Z"/><path class="cls-1" d="M180.8,221.94c1.73.13,1.77,3.43.12,3.45-12,3.58-20.49,13.53-26.6,20.27-13.76,15-20.31,28.27-28.18,42.37a103.55,103.55,0,0,0-8.82,22.34,30.21,30.21,0,0,0-1.06,12.07c1.05,6.71,4.71,7.07,7.41,7.89a11,11,0,0,0,2.52.18c.75-.12.87.71.2.79-12.6,3-26.56,5.93-46.14,3.74-2.29-.42-6.83-.87-10.92-3.89-.62-.61-3.26-2.89.52-6,10.72-7.13,32.05-8.16,35-8.43,1.46-.12.45-1.34-.21-1.85-2.92-1.21-10.58-3-11.6-11.59-.58-6.82,3.51-18.35,11.58-29.63,10.62-16.56,24-26.43,36.83-36.86,9-6,16.11-12.82,31.15-15.16A23.49,23.49,0,0,1,180.8,221.94Z"/></g></g></svg>