<svg xmlns="http://www.w3.org/2000/svg" viewBox="0 0 486.11 264.29"><defs><style>.cls-1,.cls-2{fill:#fff;fill-rule:evenodd;}.cls-2{stroke:#2a450e;stroke-miterlimit:2.61;stroke-width:0.22px;}</style></defs><title>Asset 1</title><g id="Layer_2" data-name="Layer 2"><g id="Layer_1-2" data-name="Layer 1"><path class="cls-1" d="M267.1,245.35v-39.5h4.41v39.5Zm14,0v-39.5h7.2L301.86,241l13.44-35.2h7.26v39.5H318.2V209.54l-13.67,35.81h-5.39l-13.68-35.81v35.81Zm56.55-14H354.8L346.89,210h-1.41l-7.84,21.29Zm-9.69,14,14.64-39.5h7.21l14.71,39.5H360l-3.78-10.1h-20l-3.7,10.1Zm40.36-26.45q0-7.57,3.14-10.55t11.12-3h5q7.32,0,10.8,2.48t3.47,7.74v1.67h-4.52v-.48c0-2.72-.69-4.62-2.08-5.69s-4-1.6-7.93-1.6h-3.49a26.8,26.8,0,0,0-5.86.45,7.42,7.42,0,0,0-3,1.51,5.2,5.2,0,0,0-1.62,2.62,25.21,25.21,0,0,0-.46,5.91v11.25a25,25,0,0,0,.46,5.89,5.2,5.2,0,0,0,1.62,2.62,7.43,7.43,0,0,0,3,1.51,26.7,26.7,0,0,0,5.91.45h3.49a24.89,24.89,0,0,0,5.35-.4,6.78,6.78,0,0,0,2.72-1.35,4.93,4.93,0,0,0,1.51-2.46,22.7,22.7,0,0,0,.44-5.36V229.7h-11v-4h15.52v6.62q0,7.59-3.14,10.57t-11.12,3h-5q-8,0-11.12-3t-3.14-10.57V218.9Zm41.51,26.45v-39.5h27.79V210H414.18V223h22.76v4H414.18v14.23h23.43v4.13Zm34.82,0v-39.5h7.2L465.41,241l13.44-35.2h7.26v39.5h-4.36V209.54l-13.68,35.81h-5.39L449,209.54v35.81Z"/><path class="cls-2" d="M.22,182.19H43.91q23.77,0,33,20.7a34,34,0,0,1,2.23,12.39q0,13.8-10.79,24.13A35.35,35.35,0,0,1,52,247.34a52.19,52.19,0,0,1-7.51.48L16,248.14v12.3H.11V232.65H43.26q8.45,0,12.37-3.13c3.35-2.15,5.75-5.58,7.2-10.33a16.55,16.55,0,0,0,.45-3.32v-1.63q0-6.12-5.3-11.94a18,18,0,0,0-12.2-4.84H.22V182.19Zm87.08-.06h50.46q13.34,0,20.92,8a19.47,19.47,0,0,1,4.69,6.08,25.58,25.58,0,0,1,2.94,11.46v2.23q0,8.6-7.46,16.78-4.8,4.56-8.72,5.88Q160,243.1,160,260.43H144.2v-1.21a23.87,23.87,0,0,0-10.42-20.36q-5.94-4.2-15.53-4.19H87.3V219.56h51.44q8.43,0,11.44-8.31c.22-1.11.35-2.06.43-2.82a11.38,11.38,0,0,0-3.87-8.36,11.26,11.26,0,0,0-7.09-2.62q0-.22-2.29-.22H87.3v-15.1Zm126.47.06h.56q18.08,0,30.89,14.78a39.41,39.41,0,0,1,8.28,24.11v.56q0,18-15.14,30.64a39.73,39.73,0,0,1-24.14,8.16h-.56q-18,0-30.78-14.67a46.58,46.58,0,0,1-6.27-11.48,41,41,0,0,1-2.12-12.76V221q0-17.72,14.66-30.32,9.93-7.07,18.1-7.94a32.63,32.63,0,0,1,6.53-.54Zm-23.58,39q0,10.21,8,17.93,7.14,6.09,15,6.08h1.52c4.22,0,8.5-1.43,12.87-4.28a24.4,24.4,0,0,0,9.15-12.61,26.47,26.47,0,0,0,1.08-6.9q0-10-7.79-17.66-7.28-6.48-16-6.47-10.18,0-18.1,8.48a23.93,23.93,0,0,0-4.18,7.4A23.59,23.59,0,0,0,190.19,221.19Z"/><path class="cls-1" d="M266.33,252.59a4.72,4.72,0,0,1,.92-3.33,4.46,4.46,0,0,1,3.24-.94h1.46a5,5,0,0,1,3.23.81,3.47,3.47,0,0,1,.93,2.74v.54h-1.42v-.34a2.53,2.53,0,0,0-.58-1.93,3.54,3.54,0,0,0-2.26-.52h-1a7.09,7.09,0,0,0-1.65.14,2,2,0,0,0-.86.47,1.72,1.72,0,0,0-.48.83,8.51,8.51,0,0,0-.14,1.87v3.54a8.49,8.49,0,0,0,.14,1.87,1.72,1.72,0,0,0,.48.83,2,2,0,0,0,.84.46,7,7,0,0,0,1.67.14h1a3.46,3.46,0,0,0,2.3-.54,2.89,2.89,0,0,0,.57-2.08c0-.16,0-.28,0-.36s0-.16,0-.23h1.42v.82a3.77,3.77,0,0,1-.9,2.89,5,5,0,0,1-3.26.81h-1.46a4.46,4.46,0,0,1-3.24-.94,4.72,4.72,0,0,1-.92-3.33v-4.22ZM287,257.27v-1.5a3.43,3.43,0,0,0-.42-2.12,2.48,2.48,0,0,0-1.78-.46h-.61a2.46,2.46,0,0,0-1.76.45,3.5,3.5,0,0,0-.41,2.12v1.5a3.51,3.51,0,0,0,.42,2.13,2.47,2.47,0,0,0,1.76.45h.61a2.48,2.48,0,0,0,1.78-.46,3.45,3.45,0,0,0,.43-2.12Zm-2.8,3.76a3.92,3.92,0,0,1-2.77-.77,3.7,3.7,0,0,1-.79-2.7v-2.09a3.72,3.72,0,0,1,.78-2.71,3.88,3.88,0,0,1,2.75-.77h.61a3.93,3.93,0,0,1,2.77.77,3.72,3.72,0,0,1,.79,2.71v2.09a3.72,3.72,0,0,1-.78,2.7,3.92,3.92,0,0,1-2.76.76Zm9.23-.12v-8.79h1.25v1.2a2,2,0,0,1,1-1,4.52,4.52,0,0,1,1.86-.32,3.38,3.38,0,0,1,2.43.7,3.43,3.43,0,0,1,.69,2.45v5.76h-1.3v-5.49a2.8,2.8,0,0,0-.41-1.81,2.17,2.17,0,0,0-1.58-.43,2.81,2.81,0,0,0-2,.63,2.7,2.7,0,0,0-.64,2v5.11Zm12.28-2.62H307v.2a1.21,1.21,0,0,0,.5,1.12,4.42,4.42,0,0,0,2,.31,4.17,4.17,0,0,0,2.09-.31,1.46,1.46,0,0,0,.39-1.19,1.54,1.54,0,0,0-.32-1.15,3,3,0,0,0-1.61-.36l-1.29-.05a6.69,6.69,0,0,1-2.11-.24,1.6,1.6,0,0,1-.71-.75,3.43,3.43,0,0,1-.21-1.37,2.25,2.25,0,0,1,.75-2,6.64,6.64,0,0,1,3.28-.52,5,5,0,0,1,2.66.49,2,2,0,0,1,.7,1.73h-1.3v-.08a.81.81,0,0,0-.51-.81,5.93,5.93,0,0,0-2-.22,4,4,0,0,0-1.86.27,1.26,1.26,0,0,0-.4,1.12,2.45,2.45,0,0,0,.07.72.58.58,0,0,0,.27.32,4.77,4.77,0,0,0,1.74.24l.53,0q1.11,0,1.74.11a3,3,0,0,1,.9.2,1.64,1.64,0,0,1,.83.77,3.44,3.44,0,0,1,.25,1.46,3.48,3.48,0,0,1-.24,1.47,2.2,2.2,0,0,1-.87.89,2.29,2.29,0,0,1-.93.26,15.26,15.26,0,0,1-1.8.08,6,6,0,0,1-3.11-.54,2.26,2.26,0,0,1-.76-2v-.23ZM326,252.12v8.79h-1.26v-1.2a2,2,0,0,1-1,1,4.62,4.62,0,0,1-1.88.32,3.38,3.38,0,0,1-2.43-.7,3.42,3.42,0,0,1-.69-2.44v-5.77H320v5.49a2.77,2.77,0,0,0,.41,1.81,2.21,2.21,0,0,0,1.6.43,2.76,2.76,0,0,0,2-.63,2.7,2.7,0,0,0,.63-2v-5.12Zm5.42,8.79V248.48h1.3v12.44Zm5.86-7.68v-1.11h1.08v-2h1.3v2H344v1.11h-4.32v4.84a2.15,2.15,0,0,0,.34,1.41,2.44,2.44,0,0,0,2.57,0,2.18,2.18,0,0,0,.33-1.42v-.26h1.32v.07a3.71,3.71,0,0,1-.61,2.5A3.63,3.63,0,0,1,341,261a2.69,2.69,0,0,1-2.11-.68,3.85,3.85,0,0,1-.59-2.46v-4.66Zm18,4v-1.5a3.43,3.43,0,0,0-.42-2.12,2.48,2.48,0,0,0-1.78-.46h-.61a2.46,2.46,0,0,0-1.76.45,3.5,3.5,0,0,0-.41,2.12v1.5a3.51,3.51,0,0,0,.42,2.13,2.47,2.47,0,0,0,1.76.45h.61a2.48,2.48,0,0,0,1.78-.46,3.45,3.45,0,0,0,.43-2.12ZM352.5,261a3.92,3.92,0,0,1-2.77-.77,3.71,3.71,0,0,1-.79-2.7v-2.09a3.73,3.73,0,0,1,.78-2.71,3.88,3.88,0,0,1,2.75-.77h.61a3.93,3.93,0,0,1,2.77.77,3.71,3.71,0,0,1,.79,2.71v2.09a3.71,3.71,0,0,1-.78,2.7,3.92,3.92,0,0,1-2.76.76Zm9.21-.12v-8.79H363v1.2a1.89,1.89,0,0,1,.86-1,3.25,3.25,0,0,1,1.56-.32,2.51,2.51,0,0,1,2,.69,3.9,3.9,0,0,1,.58,2.46v.07h-1.32V255a2.17,2.17,0,0,0-.33-1.42,1.7,1.7,0,0,0-1.26-.36,1.88,1.88,0,0,0-1.57.61,3.27,3.27,0,0,0-.49,2v5.11Zm10.77-11v-1.47h1.3v1.47Zm0,11v-8.79h1.3v8.79Zm12.5-2.24v-.93a1,1,0,0,0-.64-.92,5.2,5.2,0,0,0-2-.29,3.12,3.12,0,0,0-1.71.32,1.46,1.46,0,0,0-.43,1.23,1.66,1.66,0,0,0,.46,1.38,3.28,3.28,0,0,0,1.83.35,4.74,4.74,0,0,0,1.88-.3.93.93,0,0,0,.65-.85ZM385,260a1.74,1.74,0,0,1-1,.8,5.35,5.35,0,0,1-1.82.25,4.57,4.57,0,0,1-2.77-.59,2.77,2.77,0,0,1-.7-2.2,5.11,5.11,0,0,1,.16-1.45,1.75,1.75,0,0,1,.54-.84,2,2,0,0,1,.93-.38,10.31,10.31,0,0,1,1.77-.11,6.49,6.49,0,0,1,1.83.2,1.73,1.73,0,0,1,1,.66v-1.52a1.74,1.74,0,0,0-.42-1.4,4.23,4.23,0,0,0-2.1-.32,3.42,3.42,0,0,0-1.63.26,1.08,1.08,0,0,0-.42,1h-1.3v-.2a1.77,1.77,0,0,1,.73-1.61,4.84,4.84,0,0,1,2.53-.48,14.59,14.59,0,0,1,2.13.12,2.5,2.5,0,0,1,1.08.38,1.62,1.62,0,0,1,.54.74,5,5,0,0,1,.16,1.52v6.16h-1.19L385,260Zm20-1.57-4.59-3.82a2,2,0,0,0-1.58.54,3.28,3.28,0,0,0-.44,2,6.63,6.63,0,0,0,.11,1.49,1.23,1.23,0,0,0,.38.67,1.81,1.81,0,0,0,.93.36,16.19,16.19,0,0,0,2.28.1,5,5,0,0,0,2-.32,1.53,1.53,0,0,0,.87-1Zm1.13,1a2.45,2.45,0,0,1-1.39,1.33,10.48,10.48,0,0,1-3.39.38,9.24,9.24,0,0,1-2.5-.24,2.63,2.63,0,0,1-1.26-.81,2.53,2.53,0,0,1-.48-1.1A9.65,9.65,0,0,1,397,257a4.27,4.27,0,0,1,.52-2.36,2.58,2.58,0,0,1,1.72-1,2.5,2.5,0,0,1-.87-1.06,4,4,0,0,1-.28-1.59,2.46,2.46,0,0,1,.79-2.09,5.19,5.19,0,0,1,2.93-.59,5.06,5.06,0,0,1,2.9.64,2.4,2.4,0,0,1,.88,2.08v1h-1.39v-1a1.51,1.51,0,0,0-.38-1.2,6.76,6.76,0,0,0-3.93,0,1.36,1.36,0,0,0-.36,1.11,2.81,2.81,0,0,0,1.17,2.16l.09.07,4.5,3.75v-1.73h1.39v1.83a4,4,0,0,1,0,.43c0,.16,0,.35-.08.55l2.35,2-.8,1-2-1.63Zm12.39,1.54V248.48h6a4.65,4.65,0,0,1,3.29.93,4.42,4.42,0,0,1,.95,3.23v4.1a4.46,4.46,0,0,1-1,3.25,4.62,4.62,0,0,1-3.29.93Zm1.37-1.23h4.42a3.47,3.47,0,0,0,2.41-.61,3.29,3.29,0,0,0,.61-2.32v-4a2.43,2.43,0,0,0-3-3h-4.42v10Zm15.06-4h5v-.34a2.4,2.4,0,0,0-.44-1.68,2.55,2.55,0,0,0-1.76-.44h-.61a2.5,2.5,0,0,0-1.74.44,2.43,2.43,0,0,0-.43,1.68v.34Zm2.2,5.37a3.92,3.92,0,0,1-2.77-.77,3.71,3.71,0,0,1-.79-2.7v-2.08a3.73,3.73,0,0,1,.78-2.71,3.88,3.88,0,0,1,2.75-.77h.61a3.93,3.93,0,0,1,2.77.77,3.72,3.72,0,0,1,.79,2.71v1.33H435c0,.09,0,.19,0,.29s0,.26,0,.45a2.74,2.74,0,0,0,.44,1.82,2.43,2.43,0,0,0,1.76.47h.61a2.9,2.9,0,0,0,1.64-.34,1.55,1.55,0,0,0,.53-1.18h1.36a2.71,2.71,0,0,1-.92,2.07,4.27,4.27,0,0,1-2.6.64Zm8.9-2.74h1.32v.2a1.21,1.21,0,0,0,.5,1.12,4.42,4.42,0,0,0,2,.31,4.17,4.17,0,0,0,2.09-.31,1.46,1.46,0,0,0,.39-1.19,1.54,1.54,0,0,0-.32-1.15,3,3,0,0,0-1.61-.36l-1.29-.05a6.69,6.69,0,0,1-2.11-.24,1.6,1.6,0,0,1-.71-.75,3.43,3.43,0,0,1-.21-1.37,2.25,2.25,0,0,1,.75-2,6.64,6.64,0,0,1,3.28-.52,5,5,0,0,1,2.66.49,2,2,0,0,1,.7,1.73h-1.3v-.08a.81.81,0,0,0-.51-.81,5.92,5.92,0,0,0-2-.22,4,4,0,0,0-1.86.27,1.26,1.26,0,0,0-.4,1.12,2.48,2.48,0,0,0,.07.72.58.58,0,0,0,.27.32,4.77,4.77,0,0,0,1.74.24l.53,0q1.11,0,1.74.11a3,3,0,0,1,.9.2,1.64,1.64,0,0,1,.83.77,3.44,3.44,0,0,1,.25,1.46,3.48,3.48,0,0,1-.24,1.47,2.2,2.2,0,0,1-.87.89,2.29,2.29,0,0,1-.93.26,15.27,15.27,0,0,1-1.8.08,6,6,0,0,1-3.11-.54,2.26,2.26,0,0,1-.76-2v-.23Zm13.05-8.35v-1.47h1.3v1.47Zm0,11v-8.79h1.3v8.79ZM472,257.24v-1.43a2.7,2.7,0,0,0-.64-2,2.88,2.88,0,0,0-2.06-.62,2.33,2.33,0,0,0-1.71.47,3.41,3.41,0,0,0-.43,2.12v1.5a3.39,3.39,0,0,0,.43,2.12,2.33,2.33,0,0,0,1.71.47,2.88,2.88,0,0,0,2.06-.62,2.69,2.69,0,0,0,.64-2Zm1.3-5.12v8.7a3.78,3.78,0,0,1-.76,2.7,3.74,3.74,0,0,1-2.68.76h-.6a4.08,4.08,0,0,1-2.52-.63,2.77,2.77,0,0,1-.91-2.08h1.34a1.6,1.6,0,0,0,.52,1.18,2.77,2.77,0,0,0,1.59.33h.59a2.77,2.77,0,0,0,1.65-.38,1.45,1.45,0,0,0,.5-1.23v-1.82a2.27,2.27,0,0,1-1,1,3.91,3.91,0,0,1-1.74.32,3.67,3.67,0,0,1-2.66-.78,3.75,3.75,0,0,1-.77-2.69v-2.09a3.76,3.76,0,0,1,.77-2.7,3.67,3.67,0,0,1,2.66-.78,3.85,3.85,0,0,1,1.8.36,2.18,2.18,0,0,1,1,1.13v-1.37Zm5.43,8.79v-8.79H480v1.2a2,2,0,0,1,1-1,4.52,4.52,0,0,1,1.86-.32,3.38,3.38,0,0,1,2.43.7,3.43,3.43,0,0,1,.69,2.45v5.76h-1.3v-5.49a2.81,2.81,0,0,0-.41-1.81,2.17,2.17,0,0,0-1.58-.43,2.81,2.81,0,0,0-2,.63,2.71,2.71,0,0,0-.64,2v5.11Z"/><path class="cls-1" d="M245.17,45.08c-.14.7.6.91.72.1,1.68-10.5,3-20.92,7.14-33.93,1.2-3.44,1.74-6.32,4.34-9.7.48-.57,2.58-3.49,4,.52,2.48,7.25.39,23.08-.57,31.11l-.51,3.55c-.07.49-.47.34-.46,0l-.15-2.27c-.21-.64-.29-1.35-1.2-.93-3,2.5-6.66,12.18-8.8,17.66-7.73,20.89-9,28.86-12.81,46.63-.13.79-1,.9-1-.06L243,38.58a51.49,51.49,0,0,1,1.95-8.72c.64-1.86.8-.05.83.16C246.12,35.48,245.52,39.93,245.17,45.08Z"/><path class="cls-1" d="M239.58,163.79c3.16,4.78,6.78,6.28,9.81,7.45a8.54,8.54,0,0,0,5.73-.43c.45-.33,2.2-1.46,1.14-4.48a13.82,13.82,0,0,0-4.56-5.75l-3.46-2.67c-.24-.17-.15-.64.29-.4,2.29,1.46,3.1,2.08,4.49,1.5.82-.86,1.46-1.67,1.72-4.46.26-8.08-3.57-24-10.13-38.1L241,109.6c-1.09-1.63-5.08-1.09-4.65,2.62l4.22,45.12-.46,4.28c-.61.38-.9-.18-1.82-1.34-.36-.35-.59,0-.48.28Z"/><path class="cls-1" d="M268.83,48.75c-.28,1.56,1.47,1.63,2.09.48,4.28-9.43,8-22.5,16.9-32,2.67-2.15,3.44-.21,3.5.88,1.09,9.62-6.24,28.6-9.63,38-.63,1.58-1.45.65-1.26-.22.36-1.84,1.14-4.28.32-7-.12-1-1.11-2.48-3.58-2s-3.43,1.47-5.14,2.6a11.32,11.32,0,0,0-3.11,5.06l-2.58,7.21c-.24.53-.62.37-.4-.3l1.81-7.31c0-.49-.42-1-1.07-.12-15.29,15.55-23.64,32.52-26.94,42l-.83,2.57c-.35.8-1,.36-.89-.17a122.52,122.52,0,0,1,3-11.93c3.78-11,6.92-20.31,13.87-32.78C258,48.72,261,42.6,266,38.64c.19-.11,2.38-1.73,3.13,1C269.71,41.35,269.32,45.61,268.83,48.75Z"/><path class="cls-1" d="M294.4,68.15c-1.25,1.58-4.6,1.34-3.87-.86a12.5,12.5,0,0,0,.76-4.71c0-1.49-.15-4.69-4.56-4.82-6,0-14.15,5.44-16.71,7.11-5,3.33-8.24,6.62-12.3,10.15a78.88,78.88,0,0,0-16.89,22.92L240,99.79c-.28.61.48.82.75.32,3.79-5.72,8.8-13,19.84-20,6-3.57,16.34-10.06,27.75-10.73,1.13,0,1.35.34,1.13.92L285,79.41c-.28.58.4.79.68.22L292,71.27a2.38,2.38,0,0,1,2.72-1c2.16,1,4.13,2.92,2.93,7.57l-1.17,3.44c-.31,1.07,1.31,1.45,1.67,1,5.32-6.89,10.76-13.52,15.59-22.45a33.72,33.72,0,0,0,3.85-9.06c.1-.59.95-3.83-2.16-3C309.6,49.8,299.46,61.59,294.4,68.15Z"/><path class="cls-1" d="M298.66,112.38c-.58.59.4,1.49.9,1.17C309,108,321.41,98,326.42,91.52l1.41-2.43c.63-1.58.18-2.65-1.77-2.5-7.64,1.05-17.33,8.17-22.72,11.78-2,1.23-4.09.06-3.22-1.88.62-1.32,3.09-4.87,1.15-9.09-.78-1.94-4.56-4.81-10.45-5.22-7.87-1.08-13.72.5-18.51,1.45-8.82,1.9-13.75,4.74-18.66,7.33a39.65,39.65,0,0,0-11,9.21L241.31,102a.34.34,0,0,0,.5.45,22.89,22.89,0,0,1,5.81-4.77c3.45-1.8,10.55-5.78,23.33-6.11,4.5,0,12-.16,19.3,2.16,4,1,5.35,2.13,8,3.74.76.6.31,1.7-.19,2.16a48.75,48.75,0,0,1-5.68,6.19c-.25.21,0,.53.26.34l7.28-5.37c.64-.54,1.24-.6,1.62.26a7.51,7.51,0,0,1,.64,5.45A13.39,13.39,0,0,1,298.66,112.38Z"/><path class="cls-1" d="M241.62,104.29c-.89.47-.15,1.32.38.93a17.2,17.2,0,0,1,9.74-2.11c11.81,1.46,18.86,6,25.55,9.83,5,3,8.41,6.53,12.17,10.59a19.06,19.06,0,0,1,2.57,4c.67,1.26.11,1.84-.6,2.15L288.88,131c-.34.13-.18.41.11.32l3.2-1.05c.77-.25.85.1,1,.65a7.77,7.77,0,0,1-1,5.33,11.34,11.34,0,0,1-5.34,4.06L285,141c-.27.09-.18.42.07.34l5.85-1.28,10.19-2.81c5.88-2.06,11.62-3.58,17.21-8a5,5,0,0,0,1.71-2.11c.16-.24.27-1.14-.81-1.58a8.37,8.37,0,0,0-2.83-.51c-7.42.21-15.08,2.35-19.36,3.7l-2.89.88c-.71.27-1.34-.83-.67-1.28,1.73-1.33,3.23-2.1,4.76-4.93a7.25,7.25,0,0,0,.48-6.5c-.79-2.37-5.1-8-12.07-11A62.83,62.83,0,0,0,258.5,99.2a29.77,29.77,0,0,0-12.25,2.22A16.93,16.93,0,0,0,241.62,104.29Z"/><path class="cls-1" d="M241.3,106.55c-1,.09-1,1.65-.17,1.66,5.78,1.72,9.95,6.49,12.88,9.73,6.61,7.21,9.75,13.57,13.53,20.34A49.71,49.71,0,0,1,271.77,149a14.5,14.5,0,0,1,.51,5.79c-.51,3.22-2.26,3.39-3.56,3.79a5.29,5.29,0,0,1-1.21.09c-.36-.06-.42.34-.1.38,6,1.43,12.75,2.85,22.15,1.79a11.48,11.48,0,0,0,5.24-1.87c.3-.29,1.57-1.39-.25-2.86-5.14-3.42-15.39-3.92-16.79-4-.7-.06-.22-.64.1-.89,1.4-.58,5.08-1.42,5.57-5.56.28-3.27-1.68-8.81-5.56-14.22-5.1-7.95-11.51-12.69-17.68-17.69-4.31-2.89-7.73-6.16-15-7.28A11.28,11.28,0,0,0,241.3,106.55Z"/><path class="cls-1" d="M226.7,45.08c.14.7-.6.91-.72.1-1.68-10.5-3-20.92-7.14-33.93-1.2-3.44-1.74-6.32-4.34-9.7-.48-.57-2.58-3.49-4,.52-2.48,7.25-.39,23.08.57,31.11l.51,3.55c.07.49.47.34.46,0l.15-2.27c.21-.64.29-1.35,1.2-.93,3,2.5,6.66,12.18,8.8,17.66,7.73,20.89,9,28.86,12.81,46.63.13.79,1,.9,1-.06L228.9,38.58A51.5,51.5,0,0,0,227,29.86c-.64-1.86-.8-.05-.83.16C225.75,35.48,226.35,39.93,226.7,45.08Z"/><path class="cls-1" d="M232.29,163.79c-3.16,4.78-6.78,6.28-9.81,7.45a8.54,8.54,0,0,1-5.73-.43c-.45-.33-2.2-1.46-1.14-4.48a13.82,13.82,0,0,1,4.56-5.75l3.46-2.67c.24-.17.15-.64-.29-.4-2.29,1.46-3.1,2.08-4.49,1.5-.82-.86-1.46-1.67-1.72-4.46-.26-8.08,3.57-24,10.13-38.1l3.62-6.84c1.09-1.63,5.08-1.09,4.65,2.62l-4.22,45.12.46,4.28c.61.38.9-.18,1.82-1.34.36-.35.59,0,.48.28Z"/><path class="cls-1" d="M203,48.75c.28,1.56-1.47,1.63-2.09.48-4.28-9.43-8-22.5-16.9-32-2.67-2.15-3.44-.21-3.5.88-1.09,9.62,6.24,28.6,9.63,38,.63,1.58,1.45.65,1.26-.22-.36-1.84-1.14-4.28-.32-7,.12-1,1.11-2.48,3.58-2s3.43,1.47,5.14,2.6a11.32,11.32,0,0,1,3.11,5.06l2.53,7.08c.21.44.58.2.45-.17l-1.81-7.31c0-.49.42-1,1.07-.12,15.29,15.55,23.64,32.52,26.94,42l.83,2.57c.35.8,1,.36.89-.17a122.52,122.52,0,0,0-3-11.93c-3.78-11-6.92-20.31-13.87-32.78-3.07-5-6.08-11.1-11.16-15.06-.19-.11-2.38-1.73-3.12,1C202.16,41.35,202.55,45.61,203,48.75Z"/><path class="cls-1" d="M177.47,68.15c1.25,1.58,4.6,1.34,3.87-.86a12.5,12.5,0,0,1-.76-4.71c0-1.49.15-4.69,4.56-4.82,6,0,14.15,5.44,16.71,7.11,5,3.33,8.24,6.62,12.3,10.15A78.88,78.88,0,0,1,231,97.95l.79,1.84c.28.61-.48.82-.75.32-3.79-5.72-8.8-13-19.84-20-6-3.57-16.34-10.06-27.75-10.73-1.13,0-1.35.34-1.13.92l4.51,9a.41.41,0,1,1-.73.36l-6.25-8.36a2.38,2.38,0,0,0-2.72-1c-2.16,1-4.13,2.92-2.93,7.57l1.17,3.44c.31,1.07-1.31,1.45-1.67,1C168.44,75.4,163,68.77,158.16,59.84a33.72,33.72,0,0,1-3.85-9.06c-.1-.59-.95-3.83,2.16-3C162.27,49.8,172.41,61.59,177.47,68.15Z"/><path class="cls-1" d="M173.21,112.38c.58.59-.4,1.49-.9,1.17-9.47-5.52-21.85-15.54-26.87-22L144,89.09c-.63-1.58-.18-2.65,1.77-2.5,7.64,1.05,17.33,8.17,22.72,11.78,2,1.23,4.09.06,3.22-1.88-.62-1.32-3.09-4.87-1.15-9.09.78-1.94,4.56-4.81,10.45-5.22,7.87-1.08,13.72.5,18.51,1.45A55.51,55.51,0,0,1,218.21,91a39.65,39.65,0,0,1,11,9.21l1.34,1.84a.34.34,0,0,1-.5.45,24.5,24.5,0,0,0-6.12-4.41,45.74,45.74,0,0,0-23-6.47c-4.5,0-12-.16-19.3,2.16-4,1-5.35,2.13-8,3.74-.76.6-.31,1.7.19,2.16a48.75,48.75,0,0,0,5.68,6.19c.25.21,0,.53-.26.34L172,100.81c-.64-.54-1.24-.6-1.62.26a7.51,7.51,0,0,0-.64,5.45A13.39,13.39,0,0,0,173.21,112.38Z"/><path class="cls-1" d="M230.25,104.14a.38.38,0,0,1-.32.68,31.62,31.62,0,0,0-12-1.41c-11.92,1.2-16.67,5.65-23.36,9.52-5,3-8.41,6.53-12.17,10.59a19.06,19.06,0,0,0-2.57,4c-.67,1.26-.11,1.84.6,2.15L183,131c.35.13.18.41-.11.32l-3.2-1.05c-.77-.25-.85.1-1,.65a7.77,7.77,0,0,0,1,5.33,11.34,11.34,0,0,0,5.34,4.06l1.75.67c.27.09.18.42-.07.34l-5.85-1.28-10.19-2.81c-5.88-2.06-11.62-3.58-17.21-8a5,5,0,0,1-1.71-2.11c-.16-.24-.27-1.14.81-1.58a8.38,8.38,0,0,1,2.83-.51c7.42.21,15.08,2.35,19.36,3.7l2.89.88c.71.27,1.34-.83.67-1.28-1.73-1.33-3.23-2.1-4.76-4.93a7.25,7.25,0,0,1-.48-6.5c.79-2.37,5.1-8,12.07-11a62.83,62.83,0,0,1,28.15-6.75,29.77,29.77,0,0,1,12.25,2.22A17.73,17.73,0,0,1,230.25,104.14Z"/><path class="cls-1" d="M230.57,106.55c.83.06.85,1.65.06,1.66-5.78,1.72-9.84,6.49-12.77,9.73-6.61,7.21-9.75,13.57-13.53,20.34A49.71,49.71,0,0,0,200.1,149a14.5,14.5,0,0,0-.51,5.79c.51,3.22,2.26,3.39,3.56,3.79a5.29,5.29,0,0,0,1.21.09c.36-.06.42.34.1.38-6,1.43-12.75,2.85-22.15,1.79a11.48,11.48,0,0,1-5.24-1.87c-.3-.29-1.57-1.39.25-2.86,5.14-3.42,15.39-3.92,16.79-4,.7-.06.22-.64-.1-.89-1.4-.58-5.08-1.42-5.57-5.56-.28-3.27,1.68-8.81,5.56-14.22,5.1-7.95,11.51-12.69,17.68-17.69,4.31-2.89,7.73-6.16,15-7.28A11.28,11.28,0,0,1,230.57,106.55Z"/></g></g></svg>