<svg xmlns="http://www.w3.org/2000/svg" viewBox="0 0 351.85 86.15"><defs><style>.cls-1,.cls-3{fill:#425527;}.cls-2,.cls-4{fill:#9dac07;}.cls-3,.cls-4{fill-rule:evenodd;}</style></defs><title>ProImagemLogo</title><g id="Layer_2" data-name="Layer 2"><g id="Layer_1-2" data-name="Layer 1"><path class="cls-1" d="M97.12,24.74h20.29q11,0,15.32,9.59a15.73,15.73,0,0,1,1,5.74,15,15,0,0,1-5,11.18,16.44,16.44,0,0,1-7.57,3.67,23.71,23.71,0,0,1-3.49.23l-13.26.14V61H97.07V48.12h20q3.93,0,5.75-1.45a8.31,8.31,0,0,0,3.34-4.79,7.57,7.57,0,0,0,.21-1.54v-.75a8.2,8.2,0,0,0-2.47-5.54,8.4,8.4,0,0,0-5.66-2.24H97.12V24.74Zm40.45,0H161q6.19,0,9.72,3.71a8.87,8.87,0,0,1,2.17,2.82,11.78,11.78,0,0,1,1.37,5.31v1q0,4-3.47,7.77a11.59,11.59,0,0,1-4.05,2.73Q171.36,53,171.36,61H164v-.56A11.05,11.05,0,0,0,159.16,51a12.23,12.23,0,0,0-7.22-1.94H137.57v-7h23.9a5.26,5.26,0,0,0,5.31-3.85c.1-.51.16-1,.2-1.3a5.1,5.1,0,0,0-5.09-5.09c0-.07-.36-.1-1.06-.1H137.57v-7Zm58.75,0h.26q8.38,0,14.35,6.85a18.26,18.26,0,0,1,3.84,11.17V43q0,8.35-7,14.2A18.49,18.49,0,0,1,196.52,61h-.26q-8.34,0-14.29-6.8a21.51,21.51,0,0,1-2.92-5.32,19.1,19.1,0,0,1-1-5.91v-.25q0-8.2,6.81-14a18.28,18.28,0,0,1,8.4-3.68,15.51,15.51,0,0,1,3-.25Zm-11,18.07a11.19,11.19,0,0,0,3.72,8.31,10.62,10.62,0,0,0,7,2.82h.71a11,11,0,0,0,6-2A11.3,11.3,0,0,0,207,46.11a12.69,12.69,0,0,0,.5-3.2,11.13,11.13,0,0,0-3.62-8.18,11,11,0,0,0-7.44-3,10.95,10.95,0,0,0-10.35,7.36,11,11,0,0,0-.71,3.72Z"/><path class="cls-2" d="M215.21,49.52V25H218v24.5Zm8.71,0V25h4.48l8.44,21.84L245.2,25h4.51v24.5H247V27.3l-8.51,22.22h-3.35L226.63,27.3V49.52Zm35.17-8.69h10.68l-4.92-13.21H264l-4.88,13.21Zm-6,8.69,9.1-24.5h4.49l9.15,24.5H273l-2.35-6.27H258.18l-2.3,6.27Zm25.11-16.41q0-4.69,1.95-6.54t6.92-1.86h3.13c3,0,5.28.52,6.72,1.54a5.51,5.51,0,0,1,2.16,4.81v1h-2.82v-.3c0-1.69-.43-2.87-1.29-3.53s-2.5-1-4.93-1h-2.17a16.47,16.47,0,0,0-3.65.28,4.51,4.51,0,0,0-1.88.94,3.15,3.15,0,0,0-1,1.62,15.69,15.69,0,0,0-.29,3.67v7a15.6,15.6,0,0,0,.29,3.65,3.22,3.22,0,0,0,1,1.63,4.62,4.62,0,0,0,1.85.93,16.21,16.21,0,0,0,3.68.29H290a15.71,15.71,0,0,0,3.33-.25,4.23,4.23,0,0,0,1.68-.84,3,3,0,0,0,.94-1.53,14.07,14.07,0,0,0,.27-3.32V39.82H289.4v-2.5h9.66v4.11q0,4.71-2,6.55c-1.3,1.24-3.61,1.85-6.92,1.85h-3.13c-3.31,0-5.62-.61-6.92-1.85s-1.95-3.41-1.95-6.55V33.11ZM304,49.52V25h17.29v2.59H306.71v8h14.16v2.49H306.71V47h14.58v2.56Zm21.66,0V25h4.48l8.44,21.84L346.94,25h4.52v24.5h-2.71V27.3l-8.51,22.22h-3.36l-8.5-22.22V49.52Z"/><path class="cls-1" d="M215.21,54.18a3,3,0,0,1,.57-2.07,2.82,2.82,0,0,1,2-.58h.9a3.16,3.16,0,0,1,2,.5,2.18,2.18,0,0,1,.57,1.7v.34h-.88v-.21a1.58,1.58,0,0,0-.36-1.2,2.24,2.24,0,0,0-1.41-.32H218a4.1,4.1,0,0,0-1,.09,1.16,1.16,0,0,0-.54.28,1.12,1.12,0,0,0-.3.52,5.81,5.81,0,0,0-.08,1.16v2.2a5.88,5.88,0,0,0,.08,1.16,1.08,1.08,0,0,0,.3.51,1.21,1.21,0,0,0,.52.29,4.25,4.25,0,0,0,1,.08h.6a2.19,2.19,0,0,0,1.43-.33,1.78,1.78,0,0,0,.36-1.29c0-.1,0-.17,0-.23a.61.61,0,0,0,0-.14h.88v.51a2.31,2.31,0,0,1-.56,1.79,3.11,3.11,0,0,1-2,.5h-.9a2.77,2.77,0,0,1-2-.58,3,3,0,0,1-.57-2.07V54.18Zm12.86,2.91v-.94a2.11,2.11,0,0,0-.26-1.31,1.56,1.56,0,0,0-1.11-.28h-.38a1.53,1.53,0,0,0-1.1.28,2.18,2.18,0,0,0-.25,1.31v.94a2.12,2.12,0,0,0,.26,1.32,1.55,1.55,0,0,0,1.09.28h.38a1.56,1.56,0,0,0,1.11-.29,2.16,2.16,0,0,0,.26-1.31Zm-1.74,2.33a2.44,2.44,0,0,1-1.72-.48,2.3,2.3,0,0,1-.49-1.67V56a2.29,2.29,0,0,1,.49-1.68,2.46,2.46,0,0,1,1.71-.47h.38a2.52,2.52,0,0,1,1.73.47,2.34,2.34,0,0,1,.49,1.68v1.3a2.34,2.34,0,0,1-.49,1.68,2.49,2.49,0,0,1-1.72.47Zm5.74-.07V53.89h.78v.75a1.29,1.29,0,0,1,.64-.62,2.72,2.72,0,0,1,1.16-.2,2.11,2.11,0,0,1,1.51.43,2.17,2.17,0,0,1,.43,1.52v3.58h-.81V55.94a1.7,1.7,0,0,0-.26-1.12,1.32,1.32,0,0,0-1-.27,1.76,1.76,0,0,0-1.26.39,1.69,1.69,0,0,0-.4,1.24v3.17Zm7.65-1.63h.82v.13a.74.74,0,0,0,.31.69,2.72,2.72,0,0,0,1.26.19,2.61,2.61,0,0,0,1.3-.19.92.92,0,0,0,.24-.74.94.94,0,0,0-.2-.72,1.9,1.9,0,0,0-1-.22l-.8,0a4.05,4.05,0,0,1-1.31-.15,1,1,0,0,1-.45-.47,2,2,0,0,1-.13-.84,1.39,1.39,0,0,1,.46-1.23,4.08,4.08,0,0,1,2-.32,3.17,3.17,0,0,1,1.66.3,1.23,1.23,0,0,1,.44,1.08h-.81v-.06a.51.51,0,0,0-.32-.5,3.79,3.79,0,0,0-1.25-.13,2.54,2.54,0,0,0-1.16.16c-.17.11-.25.34-.25.7a1.41,1.41,0,0,0,.05.44.32.32,0,0,0,.16.2,2.88,2.88,0,0,0,1.09.15h.33c.46,0,.82,0,1.08.07a1.77,1.77,0,0,1,.56.13,1,1,0,0,1,.52.47,2.84,2.84,0,0,1,0,1.82,1.32,1.32,0,0,1-.55.55,1.45,1.45,0,0,1-.57.16,10.45,10.45,0,0,1-1.12.05,3.75,3.75,0,0,1-1.93-.33,1.39,1.39,0,0,1-.47-1.22v-.15Zm12.59-3.83v5.46h-.78V58.6a1.21,1.21,0,0,1-.64.62,2.9,2.9,0,0,1-1.17.2,2.11,2.11,0,0,1-1.51-.43,2.17,2.17,0,0,1-.43-1.52V53.89h.81V57.3a1.7,1.7,0,0,0,.26,1.12,1.36,1.36,0,0,0,1,.27,1.72,1.72,0,0,0,1.25-.39,1.68,1.68,0,0,0,.4-1.23V53.89Zm3.37,5.46V51.63h.81v7.72Zm3.65-4.77v-.69H260V52.66h.81v1.23h2.69v.69h-2.69v3a1.36,1.36,0,0,0,.21.88,1.53,1.53,0,0,0,1.6,0,1.36,1.36,0,0,0,.21-.89v-.16h.82v0a2.31,2.31,0,0,1-.38,1.55,2.26,2.26,0,0,1-1.59.4,1.67,1.67,0,0,1-1.31-.42,2.34,2.34,0,0,1-.37-1.53V54.58Zm11.23,2.51v-.94a2.09,2.09,0,0,0-.27-1.31,1.52,1.52,0,0,0-1.1-.28h-.38a1.52,1.52,0,0,0-1.1.28,2.16,2.16,0,0,0-.26,1.31v.94a2.2,2.2,0,0,0,.26,1.32,1.57,1.57,0,0,0,1.1.28h.38a1.54,1.54,0,0,0,1.1-.29,2.07,2.07,0,0,0,.27-1.31Zm-1.74,2.33a2.42,2.42,0,0,1-1.72-.48,2.25,2.25,0,0,1-.49-1.67V56a2.34,2.34,0,0,1,.48-1.68,2.49,2.49,0,0,1,1.72-.47h.38a2.49,2.49,0,0,1,1.72.47A2.29,2.29,0,0,1,271.4,56v1.3a2.29,2.29,0,0,1-.49,1.68,2.48,2.48,0,0,1-1.72.47Zm5.73-.07V53.89h.79v.75a1.15,1.15,0,0,1,.53-.63,2.09,2.09,0,0,1,1-.19,1.56,1.56,0,0,1,1.26.43,2.4,2.4,0,0,1,.36,1.52v0h-.82v-.16a1.34,1.34,0,0,0-.21-.88,1.05,1.05,0,0,0-.78-.22,1.19,1.19,0,0,0-1,.38,2,2,0,0,0-.3,1.25v3.17Zm6.69-6.81v-.91h.82v.91Zm0,6.81V53.89h.82v5.46ZM289,58v-.58a.59.59,0,0,0-.4-.57,3.22,3.22,0,0,0-1.26-.18,2,2,0,0,0-1.07.2.9.9,0,0,0-.27.76,1,1,0,0,0,.29.86,2,2,0,0,0,1.13.22,3,3,0,0,0,1.18-.19A.57.57,0,0,0,289,58Zm0,.81a1.09,1.09,0,0,1-.59.5,3.45,3.45,0,0,1-1.14.15,2.78,2.78,0,0,1-1.72-.37,1.67,1.67,0,0,1-.44-1.36,3.1,3.1,0,0,1,.1-.9,1.06,1.06,0,0,1,.34-.52,1.16,1.16,0,0,1,.58-.24,6.14,6.14,0,0,1,1.1-.07,4.11,4.11,0,0,1,1.14.12,1.07,1.07,0,0,1,.59.41v-.94a1.08,1.08,0,0,0-.26-.87,2.62,2.62,0,0,0-1.31-.2,2.23,2.23,0,0,0-1,.16.71.71,0,0,0-.26.6h-.81v-.13a1.1,1.1,0,0,1,.46-1,3.13,3.13,0,0,1,1.57-.29,8.78,8.78,0,0,1,1.32.07,1.58,1.58,0,0,1,.68.23,1,1,0,0,1,.33.46,3,3,0,0,1,.1,1v3.82h-.74l0-.58Zm12.46-1-2.86-2.38a1.29,1.29,0,0,0-1,.34A2.08,2.08,0,0,0,297.4,57a4,4,0,0,0,.07.92.72.72,0,0,0,.23.41,1.16,1.16,0,0,0,.58.23,11.11,11.11,0,0,0,1.42.06,3.16,3.16,0,0,0,1.27-.19,1,1,0,0,0,.55-.64Zm.7.59a1.54,1.54,0,0,1-.87.83,6.72,6.72,0,0,1-2.11.23,5.73,5.73,0,0,1-1.55-.15,1.6,1.6,0,0,1-.79-.5,1.59,1.59,0,0,1-.29-.68,5.37,5.37,0,0,1-.1-1.19,2.72,2.72,0,0,1,.32-1.47,1.66,1.66,0,0,1,1.08-.62,1.58,1.58,0,0,1-.54-.66,2.38,2.38,0,0,1-.18-1,1.54,1.54,0,0,1,.49-1.3,3.29,3.29,0,0,1,1.83-.37,3.09,3.09,0,0,1,1.8.4,1.46,1.46,0,0,1,.55,1.29v.65H301v-.59a.93.93,0,0,0-.23-.75,2.4,2.4,0,0,0-1.25-.19,2.53,2.53,0,0,0-1.2.17.89.89,0,0,0-.22.69,1.72,1.72,0,0,0,.73,1.34l.06.05,2.8,2.33V55.84h.86V57a2.54,2.54,0,0,1,0,.26,2.45,2.45,0,0,1-.06.34l1.47,1.22-.5.6-1.22-1Zm7.7,1V51.63h3.75a2.92,2.92,0,0,1,2.05.57,2.77,2.77,0,0,1,.59,2v2.54a2.8,2.8,0,0,1-.59,2,2.94,2.94,0,0,1-2.05.58Zm.86-.77h2.75a2.12,2.12,0,0,0,1.5-.38,2.06,2.06,0,0,0,.38-1.44V54.27a1.51,1.51,0,0,0-1.88-1.88h-2.75v6.19Zm9.37-2.49h3.1v-.22a1.51,1.51,0,0,0-.27-1,1.63,1.63,0,0,0-1.1-.27h-.38a1.56,1.56,0,0,0-1.08.27,1.51,1.51,0,0,0-.27,1v.22Zm1.36,3.33a2.44,2.44,0,0,1-1.72-.48,2.3,2.3,0,0,1-.48-1.67V56a2.34,2.34,0,0,1,.48-1.68,2.48,2.48,0,0,1,1.71-.47h.38a2.52,2.52,0,0,1,1.73.47A2.34,2.34,0,0,1,324.1,56v.83h-4a1.15,1.15,0,0,0,0,.19v.28a1.7,1.7,0,0,0,.27,1.13,1.51,1.51,0,0,0,1.09.29h.38a1.86,1.86,0,0,0,1-.21,1,1,0,0,0,.33-.74h.85a1.69,1.69,0,0,1-.58,1.29,2.68,2.68,0,0,1-1.62.39Zm5.54-1.7h.82v.13a.75.75,0,0,0,.32.69,4.4,4.4,0,0,0,2.56,0,.92.92,0,0,0,.24-.74,1,1,0,0,0-.2-.72,1.9,1.9,0,0,0-1-.22l-.8,0a4.14,4.14,0,0,1-1.32-.15,1,1,0,0,1-.44-.47,2,2,0,0,1-.14-.84,1.39,1.39,0,0,1,.47-1.23,4.08,4.08,0,0,1,2-.32,3.17,3.17,0,0,1,1.66.3,1.23,1.23,0,0,1,.44,1.08h-.82v-.06a.5.5,0,0,0-.31-.5,3.82,3.82,0,0,0-1.26-.13,2.49,2.49,0,0,0-1.15.16c-.17.11-.25.34-.25.7a1.5,1.5,0,0,0,0,.44.34.34,0,0,0,.17.2,2.77,2.77,0,0,0,1.08.15h.33c.46,0,.82,0,1.08.07a1.7,1.7,0,0,1,.56.13.93.93,0,0,1,.52.47,2.84,2.84,0,0,1,0,1.82,1.35,1.35,0,0,1-.54.55,1.51,1.51,0,0,1-.58.16,10.38,10.38,0,0,1-1.11.05,3.79,3.79,0,0,1-1.94-.33,1.42,1.42,0,0,1-.47-1.22v-.15Zm8.12-5.18v-.91H336v.91Zm0,6.81V53.89H336v5.46Zm8-2.28v-.89a1.66,1.66,0,0,0-.4-1.25,1.81,1.81,0,0,0-1.28-.38,1.42,1.42,0,0,0-1.06.29,2.09,2.09,0,0,0-.27,1.31v.94a2.09,2.09,0,0,0,.27,1.31,1.46,1.46,0,0,0,1.06.29,1.77,1.77,0,0,0,1.28-.39,1.64,1.64,0,0,0,.4-1.23Zm.81-3.18v5.4a2.3,2.3,0,0,1-.47,1.67,2.33,2.33,0,0,1-1.67.48h-.38a2.55,2.55,0,0,1-1.57-.39,1.7,1.7,0,0,1-.56-1.29h.83a1,1,0,0,0,.33.73,1.68,1.68,0,0,0,1,.2h.37a1.67,1.67,0,0,0,1-.23.88.88,0,0,0,.31-.76V58.57a1.37,1.37,0,0,1-.63.65,2.45,2.45,0,0,1-1.08.2,2.29,2.29,0,0,1-1.65-.48,2.33,2.33,0,0,1-.48-1.67V56a2.33,2.33,0,0,1,.48-1.67,2.29,2.29,0,0,1,1.65-.48,2.42,2.42,0,0,1,1.13.22,1.32,1.32,0,0,1,.61.7v-.85Zm3.38,5.46V53.89h.78v.75a1.29,1.29,0,0,1,.64-.62,2.69,2.69,0,0,1,1.16-.2,2.11,2.11,0,0,1,1.51.43,2.17,2.17,0,0,1,.43,1.52v3.58H351V55.94a1.7,1.7,0,0,0-.26-1.12,1.34,1.34,0,0,0-1-.27,1.76,1.76,0,0,0-1.26.39,1.69,1.69,0,0,0-.4,1.24v3.17Z"/><path class="cls-3" d="M47.94,56.77c0-19.71,3.93,32.47,1.77,23.44,2.16,9,13.62,7,5.15-.91,8.47,7.9-6.93-42.24-6.92-22.53Z"/><path class="cls-4" d="M46.79,57.12C46,37.73,28.74,86,39,78.83,28.74,86,40.22,89,44.19,80.17c-4,8.85,1.81-42.44,2.6-23.05Z"/><path class="cls-3" d="M46.86,57.28C46.15,38.09,8.56,73.49,30,73.19c-21.41.3-12.16,7.72,4.15,3.33-16.31,4.39,12-38.43,12.74-19.24Z"/><path class="cls-4" d="M46.85,57.46c-.72-19-51.26-3.43-22.71,7C-4.41,54,.79,64.42,26.47,69.11.79,64.42,46.13,38.47,46.85,57.46Z"/><path class="cls-3" d="M46.76,57.6c-.82-18.81-54.4-26.15-24.07-3.3-30.33-22.85-30.2-11.52.06,5.09-30.26-16.61,23.19-20.6,24-1.79Z"/><path class="cls-4" d="M46.61,57.7C45.61,39-.48,10.2,25.91,44.76-.48,10.2-5.45,20.24,23.67,49.27-5.45,20.24,45.61,39,46.61,57.7Z"/><path class="cls-3" d="M46.44,57.72c-1.22-18.67-30.79-63.28-13.29-20-17.5-43.24-26.59-36.45-4.08,3-22.51-39.49,16.15-1.67,17.37,17Z"/><path class="cls-4" d="M46.27,57.66C44.84,38.93,37.59-12.73,43,34.45c-5.42-47.18-16.84-45-5.13,1-11.71-46,7,3.49,8.39,22.22Z"/><path class="cls-3" d="M46.13,57.55C44.54,38.67,61-9.92,53.55,35.72c7.49-45.64-4-48.46-5.18-1.27,1.16-47.19-3.83,4.22-2.24,23.1Z"/><path class="cls-4" d="M46.06,57.38c-1.68-19.07,35.34-55,16.63-16.15C81.4,2.34,72.05-4.94,58.49,38c13.56-42.89-14.11.36-12.43,19.43Z"/><path class="cls-3" d="M46.07,57.21C44.4,37.93,94.66,21.64,68.65,49.89c26-28.25,20.66-38.58-2.4-4.63,23.06-33.95-21.85-7.33-20.18,12Z"/><path class="cls-4" d="M46.15,57.06c-1.56-19.46,52.08-12.88,24.1,3,28-15.84,27.68-27.18-.13-5.09,27.81-22.09-25.53-17.33-24,2.13Z"/><path class="cls-3" d="M46.3,57c-1.39-19.59,45.11,8.57,20.89,12.65,24.22-4.08,29-14.2,2.16-4.55,26.87-9.65-24.44-27.69-23-8.1Z"/><path class="cls-4" d="M46.47,56.94C45.3,37.33,75.53,81.54,60.06,76.81c15.47,4.73,24.45-2.19,4-3.11,20.42.92-18.79-36.37-17.62-16.76Z"/></g></g></svg>